<svg width="1147" height="256" viewBox="0 0 1147 256" fill="none" xmlns="http://www.w3.org/2000/svg">
<path d="M346.24 189.195C337.934 189.195 330.425 187.772 323.712 184.928C317.113 182.084 311.879 177.988 308.011 172.64C304.142 167.292 302.151 160.978 302.037 153.696H327.637C327.979 158.588 329.685 162.457 332.757 165.301C335.943 168.146 340.267 169.568 345.728 169.568C351.303 169.568 355.683 168.26 358.869 165.643C362.055 162.912 363.648 159.385 363.648 155.061C363.648 151.534 362.567 148.633 360.405 146.357C358.243 144.082 355.513 142.318 352.213 141.067C349.027 139.701 344.59 138.222 338.901 136.629C331.164 134.354 324.85 132.135 319.957 129.973C315.179 127.698 311.026 124.341 307.499 119.904C304.085 115.353 302.379 109.323 302.379 101.813C302.379 94.7591 304.142 88.6151 307.669 83.3813C311.196 78.1475 316.146 74.1653 322.517 71.4347C328.889 68.5902 336.171 67.168 344.363 67.168C356.651 67.168 366.606 70.1831 374.229 76.2133C381.966 82.1298 386.233 90.4355 387.029 101.131H360.747C360.519 97.0347 358.755 93.6782 355.456 91.0613C352.27 88.3307 348.003 86.9653 342.656 86.9653C337.991 86.9653 334.236 88.16 331.392 90.5493C328.661 92.9387 327.296 96.4089 327.296 100.96C327.296 104.146 328.32 106.82 330.368 108.981C332.53 111.029 335.147 112.736 338.219 114.101C341.404 115.353 345.842 116.832 351.531 118.539C359.267 120.814 365.582 123.09 370.475 125.365C375.367 127.641 379.577 131.054 383.104 135.605C386.631 140.156 388.395 146.13 388.395 153.525C388.395 159.897 386.745 165.813 383.445 171.275C380.146 176.736 375.31 181.116 368.939 184.416C362.567 187.602 355.001 189.195 346.24 189.195ZM499.563 93.4507L441.024 232.715H415.595L436.075 185.611L398.187 93.4507H424.981L449.387 159.499L474.133 93.4507H499.563ZM548.624 189.536C540.887 189.536 533.947 188.171 527.803 185.44C521.659 182.596 516.766 178.784 513.125 174.005C509.598 169.227 507.664 163.936 507.323 158.133H531.387C531.842 161.774 533.605 164.789 536.677 167.179C539.863 169.568 543.788 170.763 548.453 170.763C553.004 170.763 556.531 169.852 559.035 168.032C561.651 166.212 562.96 163.879 562.96 161.035C562.96 157.963 561.367 155.687 558.181 154.208C555.109 152.615 550.16 150.908 543.333 149.088C536.279 147.381 530.476 145.618 525.925 143.797C521.488 141.977 517.619 139.189 514.32 135.435C511.134 131.68 509.541 126.617 509.541 120.245C509.541 115.012 511.02 110.233 513.979 105.909C517.051 101.586 521.374 98.1724 526.949 95.6693C532.638 93.1662 539.294 91.9147 546.917 91.9147C558.181 91.9147 567.17 94.7591 573.883 100.448C580.595 106.023 584.293 113.589 584.976 123.147H562.107C561.765 119.392 560.172 116.434 557.328 114.272C554.597 111.996 550.899 110.859 546.235 110.859C541.911 110.859 538.555 111.655 536.165 113.248C533.89 114.841 532.752 117.06 532.752 119.904C532.752 123.09 534.345 125.536 537.531 127.243C540.716 128.836 545.666 130.485 552.379 132.192C559.205 133.899 564.837 135.662 569.275 137.483C573.712 139.303 577.523 142.148 580.709 146.016C584.009 149.771 585.715 154.777 585.829 161.035C585.829 166.496 584.293 171.388 581.221 175.712C578.263 180.036 573.939 183.449 568.251 185.952C562.675 188.341 556.133 189.536 548.624 189.536ZM633.261 113.077V158.816C633.261 162.002 634.001 164.334 635.48 165.813C637.073 167.179 639.69 167.861 643.331 167.861H654.424V188H639.405C619.267 188 609.197 178.215 609.197 158.645V113.077H597.933V93.4507H609.197V70.0693H633.261V93.4507H654.424V113.077H633.261ZM759.503 138.677C759.503 142.091 759.275 145.163 758.82 147.893H689.7C690.269 154.72 692.658 160.068 696.868 163.936C701.078 167.804 706.255 169.739 712.399 169.739C721.273 169.739 727.588 165.927 731.343 158.304H757.113C754.383 167.406 749.149 174.916 741.412 180.832C733.675 186.635 724.175 189.536 712.911 189.536C703.808 189.536 695.616 187.545 688.335 183.563C681.167 179.467 675.535 173.721 671.439 166.325C667.456 158.93 665.465 150.396 665.465 140.725C665.465 130.94 667.456 122.35 671.439 114.955C675.421 107.559 680.996 101.87 688.164 97.888C695.332 93.9058 703.581 91.9147 712.911 91.9147C721.899 91.9147 729.92 93.8489 736.975 97.7173C744.143 101.586 749.661 107.104 753.529 114.272C757.511 121.326 759.503 129.461 759.503 138.677ZM734.756 131.851C734.642 125.707 732.423 120.814 728.1 117.173C723.776 113.419 718.486 111.541 712.228 111.541C706.311 111.541 701.305 113.362 697.209 117.003C693.227 120.53 690.781 125.479 689.871 131.851H734.756ZM894.361 92.0853C905.967 92.0853 915.296 95.6693 922.351 102.837C929.519 109.892 933.103 119.79 933.103 132.533V188H909.209V135.776C909.209 128.38 907.332 122.748 903.577 118.88C899.823 114.898 894.703 112.907 888.217 112.907C881.732 112.907 876.555 114.898 872.687 118.88C868.932 122.748 867.055 128.38 867.055 135.776V188H843.161V135.776C843.161 128.38 841.284 122.748 837.529 118.88C833.775 114.898 828.655 112.907 822.169 112.907C815.57 112.907 810.336 114.898 806.468 118.88C802.713 122.748 800.836 128.38 800.836 135.776V188H776.943V93.4507H800.836V104.885C803.908 100.903 807.833 97.7742 812.612 95.4987C817.504 93.2231 822.852 92.0853 828.655 92.0853C836.05 92.0853 842.649 93.6782 848.452 96.864C854.255 99.936 858.749 104.373 861.935 110.176C865.007 104.715 869.444 100.334 875.247 97.0347C881.163 93.7351 887.535 92.0853 894.361 92.0853ZM979.328 68.8747V142.603C979.328 150.681 981.433 156.882 985.643 161.205C989.852 165.415 995.769 167.52 1003.39 167.52C1011.13 167.52 1017.1 165.415 1021.31 161.205C1025.52 156.882 1027.63 150.681 1027.63 142.603V68.8747H1051.69V142.432C1051.69 152.558 1049.47 161.148 1045.03 168.203C1040.71 175.143 1034.85 180.377 1027.46 183.904C1020.17 187.431 1012.04 189.195 1003.05 189.195C994.176 189.195 986.098 187.431 978.816 183.904C971.648 180.377 965.959 175.143 961.749 168.203C957.539 161.148 955.435 152.558 955.435 142.432V68.8747H979.328ZM1098.67 68.8747V188H1074.78V68.8747H1098.67Z" fill="white"/>
<path d="M32 64H165.333C200.68 64 229.333 92.6538 229.333 128C229.333 163.346 200.68 192 165.333 192H96C60.6537 192 32 163.346 32 128V64Z" fill="#663399"/>
<circle cx="165.333" cy="128" r="48" fill="#FFFFFE"/>
</svg>
