<svg width="240" height="240" viewBox="0 0 240 240" fill="none" xmlns="http://www.w3.org/2000/svg">
<g clip-path="url(#clip0_294_34)">
<path d="M119.728 40C81.952 40 81.5462 54.6633 81.5462 57.6815C81.5462 62.2604 81.5462 76 81.5462 76H120.455V81.4996C120.455 81.4996 79.9433 81.4996 66.0916 81.4996C54.5295 81.4996 40 88.5295 40 119.681C40 148.297 51.3338 159.363 62.7724 159.363C66.1687 159.363 76.3636 159.363 76.3636 159.363C76.3636 159.363 76.3636 145.159 76.3636 140.272C76.3636 132.285 80.3215 117.5 98.7724 117.5C121.914 117.5 127.821 117.5 137.363 117.5C143.039 117.5 159.044 115.033 159.044 96.5455C159.044 76.9789 159.044 70.5236 159.044 61.3178C159.046 56.7316 158.262 40 119.728 40ZM98.2735 52.3185C102.145 52.3185 105.274 55.4458 105.274 59.3193C105.274 63.1898 102.145 66.32 98.2735 66.32C94.4015 66.32 91.2727 63.1913 91.2727 59.3193C91.2727 55.4458 94.4015 52.3185 98.2735 52.3185Z" fill="url(#paint0_linear_294_34)"/>
<path d="M120.272 200C158.03 200 158.5 185.06 158.5 182.318C158.5 177.739 158.5 164 158.5 164H119.545V158.5C119.545 158.5 160.318 158.5 173.908 158.5C185.558 158.5 200 151.294 200 120.318C200 86.3953 184.672 80.6367 177.228 80.6367C173.83 80.6367 163.636 80.6367 163.636 80.6367C163.636 80.6367 163.636 95.4964 163.636 99.7276C163.636 107.715 159.809 122.5 141.228 122.5C118.086 122.5 112.899 122.5 102.636 122.5C96.9745 122.5 80.9541 125.258 80.9541 143.454C80.9541 164.509 80.9541 170.021 80.9541 178.682C80.9541 186.289 85.6028 200 120.272 200ZM141.728 187.681C137.856 187.681 134.727 184.552 134.727 180.68C134.727 176.808 137.854 173.68 141.728 173.68C145.598 173.68 148.729 176.808 148.729 180.68C148.729 184.552 145.598 187.681 141.728 187.681Z" fill="url(#paint1_linear_294_34)"/>
</g>
<defs>
<linearGradient id="paint0_linear_294_34" x1="54.9942" y1="54.2927" x2="134.525" y2="134.09" gradientUnits="userSpaceOnUse">
<stop stop-color="#387EB8"/>
<stop offset="1" stop-color="#366994"/>
</linearGradient>
<linearGradient id="paint1_linear_294_34" x1="103.326" y1="105.275" x2="188.595" y2="186.967" gradientUnits="userSpaceOnUse">
<stop stop-color="#FFE052"/>
<stop offset="1" stop-color="#FFC331"/>
</linearGradient>
<clipPath id="clip0_294_34">
<rect width="160" height="160" fill="white" transform="translate(40 40)"/>
</clipPath>
</defs>
</svg>
