<svg width="240" height="240" viewBox="0 0 240 240" fill="none" xmlns="http://www.w3.org/2000/svg">
<rect x="4" y="4" width="232" height="232" rx="60" fill="white" stroke="#3174B9" stroke-width="8"/>
<path fill-rule="evenodd" clip-rule="evenodd" d="M102.562 125.83C102.562 125.83 97.5462 128.749 106.136 129.735C116.544 130.923 121.861 130.752 133.327 128.583C133.327 128.583 136.346 130.474 140.56 132.109C114.848 143.127 82.369 131.471 102.562 125.83ZM99.419 111.453C99.419 111.453 93.792 115.618 102.389 116.507C113.508 117.655 122.285 117.749 137.481 114.825C137.481 114.825 139.58 116.954 142.882 118.118C111.799 127.21 77.1799 118.834 99.419 111.453Z" fill="#3174B9"/>
<path fill-rule="evenodd" clip-rule="evenodd" d="M125.904 87.0597C132.242 94.3558 124.242 100.918 124.242 100.918C124.242 100.918 140.329 92.6149 132.941 82.2138C126.042 72.5187 120.751 67.7022 149.394 51.0923C149.394 51.0923 104.432 62.317 125.904 87.0597Z" fill="#CA3132"/>
<path fill-rule="evenodd" clip-rule="evenodd" d="M159.909 136.466C159.909 136.466 163.622 139.527 155.819 141.895C140.982 146.389 94.0533 147.744 81.0179 142.073C76.3354 140.034 85.1208 137.207 87.8848 136.61C90.7675 135.986 92.4126 136.1 92.4126 136.1C87.2017 132.43 58.7308 143.306 77.9533 146.427C130.369 154.926 173.503 142.6 159.909 136.466ZM104.975 96.5544C104.975 96.5544 81.1072 102.225 96.5242 104.286C103.036 105.157 116.007 104.956 128.099 103.942C137.978 103.113 147.894 101.339 147.894 101.339C147.894 101.339 144.414 102.833 141.891 104.552C117.65 110.929 70.8271 107.959 84.3081 101.441C95.706 95.9269 104.975 96.5544 104.975 96.5544ZM147.795 120.487C172.436 107.685 161.043 95.3811 153.089 97.0393C151.144 97.4456 150.272 97.7964 150.272 97.7964C150.272 97.7964 150.997 96.6612 152.376 96.1731C168.109 90.6441 180.207 112.485 147.304 121.134C147.303 121.134 147.682 120.792 147.795 120.487Z" fill="#3174B9"/>
<path fill-rule="evenodd" clip-rule="evenodd" d="M132.941 24.2651C132.941 24.2651 146.584 37.9172 119.997 58.9034C98.675 75.7443 115.136 85.3436 119.99 96.3155C107.542 85.0864 98.4113 75.1996 104.536 66.0002C113.529 52.4963 138.446 45.9476 132.941 24.2651Z" fill="#CA3132"/>
<path fill-rule="evenodd" clip-rule="evenodd" d="M107.399 155.185C131.047 156.697 167.369 154.345 168.23 143.153C168.23 143.153 166.577 147.396 148.684 150.761C128.498 154.561 103.596 154.119 88.8315 151.682C88.8315 151.682 91.857 154.185 107.399 155.185Z" fill="#3174B9"/>
<path fill-rule="evenodd" clip-rule="evenodd" d="M167.138 175.255H166.419V174.852H168.359V175.255H167.64V177.268H167.138V175.255ZM171.01 175.355H171.001L170.286 177.267H169.958L169.248 175.355H169.239V177.267H168.762V174.851H169.463L170.121 176.56L170.779 174.851H171.473V177.267H171.011L171.01 175.355ZM103.524 197.943C101.294 199.875 98.9364 200.963 96.8195 200.963C93.8039 200.963 92.1675 199.151 92.1675 196.252C92.1675 193.113 93.9194 190.817 100.931 190.817H103.523L103.524 197.943ZM109.68 204.887V183.39C109.68 177.896 106.546 174.27 98.993 174.27C94.5861 174.27 90.7229 175.358 87.582 176.745L88.4863 180.553C90.9604 179.644 94.1591 178.802 97.2989 178.802C101.65 178.802 103.523 180.553 103.523 184.177V186.896H101.348C90.7785 186.896 86.0088 190.996 86.0088 197.162C86.0088 202.474 89.1519 205.494 95.0688 205.494C98.8721 205.494 101.713 203.924 104.366 201.626L104.849 204.887H109.68ZM130.223 204.887H122.548L113.306 174.817H120.011L125.747 193.295L127.024 198.847C129.917 190.817 131.971 182.664 132.998 174.817H139.518C137.772 184.718 134.628 195.588 130.223 204.887ZM159.679 197.943C157.443 199.875 155.085 200.963 152.972 200.963C149.957 200.963 148.323 199.151 148.323 196.252C148.323 193.113 150.076 190.817 157.083 190.817H159.679V197.943ZM165.837 204.887V183.39C165.837 177.896 162.694 174.27 155.148 174.27C150.737 174.27 146.875 175.358 143.734 176.745L144.638 180.553C147.112 179.644 150.317 178.802 153.458 178.802C157.803 178.802 159.678 180.553 159.678 184.177V186.896H157.504C146.933 186.896 142.166 190.996 142.166 197.162C142.166 202.474 145.303 205.494 151.221 205.494C155.027 205.494 157.864 203.924 160.524 201.626L161.008 204.887H165.837ZM79.2596 209.997C77.5056 212.56 74.6686 214.59 71.5669 215.735L68.5273 212.155C70.8904 210.942 72.9146 208.984 73.857 207.163C74.6686 205.54 75.0075 203.452 75.0075 198.456V164.122H81.5497V197.982C81.5497 204.665 81.0158 207.366 79.2596 209.997Z" fill="#CA3132"/>
</svg>
