<svg width="512" height="610" viewBox="0 0 512 610" fill="none" xmlns="http://www.w3.org/2000/svg">
<path d="M75 198.8H437L407 569.8L256 609.8L105 569.8L75 198.8Z" fill="#D71104"/>
<path d="M256 228.8H404L377 544.8L256 577.8V228.8Z" fill="#F83326"/>
<path d="M256 287.8C318.408 287.8 369 338.392 369 400.8C369 434.601 354.157 464.934 330.636 485.642L307.944 462.95C307.962 462.935 307.98 462.919 307.998 462.904L298.78 453.687L309.387 443.08L318.558 452.251C328.688 439.949 335.262 424.608 336.701 407.8H324V392.8H336.608C332.832 354.285 302.083 323.686 263.5 320.144V332.3H248.5V320.144C231.887 321.669 216.727 328.209 204.546 338.239L213.22 346.913L202.613 357.52L193.894 348.8C183.709 360.951 177.026 376.134 175.392 392.8H188V407.8H175.299C176.738 424.608 183.31 439.949 193.44 452.252L202.613 443.08L213.22 453.687L182.107 484.799L181.95 484.642L181.144 485.449C157.75 464.746 143 434.496 143 400.8C143 338.392 193.592 287.8 256 287.8ZM267.836 409.546C265.631 412.854 262.2 414.538 257.545 414.6C252.89 414.661 249.092 413.221 246.151 410.281C243.211 407.341 241.833 403.604 242.017 399.071C242.2 394.538 243.946 391.169 247.254 388.964L309 347.8L267.836 409.546Z" fill="white"/>
<path d="M256 332.3H248.5V320.144C231.887 321.669 216.727 328.209 204.546 338.239L213.22 346.913L202.613 357.52L193.894 348.8C183.709 360.951 177.026 376.134 175.392 392.8H188V407.8H175.299C176.738 424.608 183.31 439.949 193.44 452.252L202.613 443.08L213.22 453.687L182.107 484.799L181.95 484.642L181.144 485.449C157.75 464.746 143 434.496 143 400.8C143 338.392 193.592 287.8 256 287.8V332.3ZM256 414.562C252.042 414.315 248.759 412.889 246.151 410.281C243.211 407.341 241.833 403.604 242.017 399.071C242.2 394.538 243.946 391.169 247.254 388.964L256 383.133V414.562Z" fill="#EBEBEB"/>
<path d="M418.028 166.8V94H440.492V166.8H418.028ZM374.66 166.8V94H397.124V166.8H374.66ZM383.084 140.28L383.188 120.728H430.716V140.28H383.084Z" fill="white"/>
<path d="M337.108 167.84C331.284 167.84 325.91 166.904 320.988 165.032C316.134 163.16 311.905 160.56 308.3 157.232C304.764 153.835 302.025 149.813 300.084 145.168C298.142 140.523 297.172 135.427 297.172 129.88C297.172 124.333 298.142 119.237 300.084 114.592C302.094 109.947 304.902 105.96 308.508 102.632C312.113 99.2346 316.377 96.5999 321.3 94.7279C326.292 92.8559 331.769 91.9199 337.732 91.9199C341.129 91.9199 344.457 92.3359 347.716 93.1679C351.044 93.9306 354.164 95.1439 357.076 96.8079C360.057 98.4026 362.761 100.448 365.188 102.944L351.772 118.648C350.801 117.469 349.622 116.395 348.236 115.424C346.918 114.453 345.358 113.691 343.556 113.136C341.822 112.512 339.812 112.2 337.524 112.2C335.166 112.2 332.913 112.616 330.764 113.448C328.684 114.211 326.846 115.355 325.252 116.88C323.726 118.405 322.513 120.277 321.612 122.496C320.71 124.715 320.26 127.28 320.26 130.192C320.26 132.827 320.71 135.219 321.612 137.368C322.513 139.517 323.796 141.355 325.46 142.88C327.124 144.405 329.134 145.584 331.492 146.416C333.849 147.248 336.484 147.664 339.396 147.664C341.476 147.664 343.452 147.352 345.324 146.728C347.196 146.104 348.894 145.307 350.42 144.336C351.945 143.296 353.262 142.152 354.372 140.904L365.084 157.752C363.281 159.693 360.889 161.427 357.908 162.952C354.926 164.477 351.633 165.691 348.028 166.592C344.422 167.424 340.782 167.84 337.108 167.84Z" fill="white"/>
<path d="M216.324 166.8V94H236.396L269.884 140.28L265.1 138.824C264.753 136.051 264.441 133.624 264.164 131.544C263.956 129.464 263.748 127.557 263.54 125.824C263.401 124.021 263.262 122.253 263.124 120.52C263.054 118.787 263.02 116.88 263.02 114.8C263.02 112.72 263.02 110.293 263.02 107.52V94H284.652V166.8H264.372L227.452 115.84L235.876 118.336C236.222 120.901 236.5 123.155 236.708 125.096C236.985 126.968 237.193 128.701 237.332 130.296C237.47 131.891 237.574 133.485 237.644 135.08C237.782 136.605 237.852 138.339 237.852 140.28C237.921 142.152 237.956 144.371 237.956 146.936V166.8H216.324Z" fill="white"/>
<path d="M146.855 166.8V94H201.247V112.2H168.383V148.6H203.119V166.8H146.855ZM157.567 138.512V121.456H197.399V138.512H157.567Z" fill="white"/>
<path d="M72.5112 166.8V94H105.999C111.269 94 115.706 94.728 119.311 96.184C122.986 97.64 125.759 99.6853 127.631 102.32C129.573 104.955 130.543 108.04 130.543 111.576C130.543 115.944 129.538 119.549 127.527 122.392C125.586 125.235 122.709 127.141 118.895 128.112L118.583 126.136C121.773 126.899 124.546 128.147 126.903 129.88C129.261 131.544 131.098 133.589 132.415 136.016C133.733 138.443 134.391 141.216 134.391 144.336C134.391 148.149 133.698 151.477 132.311 154.32C130.925 157.093 128.949 159.416 126.383 161.288C123.887 163.16 120.975 164.547 117.647 165.448C114.389 166.349 110.853 166.8 107.039 166.8H72.5112ZM93.3112 149.12H106.415C107.733 149.12 108.842 148.912 109.743 148.496C110.645 148.011 111.338 147.317 111.823 146.416C112.309 145.445 112.551 144.301 112.551 142.984C112.551 141.805 112.274 140.835 111.719 140.072C111.234 139.24 110.506 138.616 109.535 138.2C108.565 137.715 107.351 137.472 105.895 137.472H93.3112V149.12ZM93.3112 122.496H102.151C103.746 122.496 105.029 122.288 105.999 121.872C107.039 121.456 107.767 120.867 108.183 120.104C108.669 119.272 108.911 118.267 108.911 117.088C108.911 115.493 108.357 114.211 107.247 113.24C106.207 112.2 104.439 111.68 101.943 111.68H93.3112V122.496Z" fill="white"/>
<path d="M357.292 72.8V0H379.756V53.664H410.956V72.8H357.292Z" fill="white"/>
<path d="M264.972 72.8V0H284.316L310.836 43.16L295.132 43.056L321.964 0H340.684V72.8H319.052V55.432C319.052 49.192 319.191 43.576 319.468 38.584C319.815 33.592 320.37 28.6347 321.132 23.712L323.628 30.264L306.052 57.512H299.188L281.924 30.264L284.524 23.712C285.287 28.3573 285.807 33.1413 286.084 38.064C286.431 42.9173 286.604 48.7067 286.604 55.432V72.8H264.972Z" fill="white"/>
<path d="M207.994 72.8V19.136H185.53V0H253.546V19.136H230.458V72.8H207.994Z" fill="white"/>
<path d="M151.629 72.8V0H174.093V72.8H151.629ZM108.261 72.8V0H130.725V72.8H108.261ZM116.685 46.28L116.789 26.728H164.317V46.28H116.685Z" fill="white"/>
</svg>
