<svg width="240" height="240" viewBox="0 0 240 240" fill="none" xmlns="http://www.w3.org/2000/svg">
<g clip-path="url(#clip0_294_167)">
<path d="M240 0H0V240H240V0Z" fill="#F7DF1E"/>
<path d="M63.105 200.561L81.4717 189.446C85.015 195.728 88.2383 201.044 95.9697 201.044C103.381 201.044 108.053 198.145 108.053 186.868V110.183H130.607V187.187C130.607 210.547 116.914 221.18 96.9364 221.18C78.894 221.18 68.4212 211.836 63.105 200.559" fill="black"/>
<path d="M142.857 198.145L161.221 187.512C166.055 195.406 172.338 201.206 183.454 201.206C192.799 201.206 198.758 196.534 198.758 190.089C198.758 182.356 192.637 179.617 182.326 175.108L176.689 172.69C160.416 165.764 149.622 157.064 149.622 138.698C149.622 121.783 162.51 108.894 182.649 108.894C196.987 108.894 207.297 113.888 214.707 126.938L197.147 138.215C193.28 131.288 189.093 128.549 182.649 128.549C176.044 128.549 171.855 132.738 171.855 138.215C171.855 144.981 176.044 147.72 185.709 151.909L191.347 154.325C210.518 162.542 221.313 170.919 221.313 189.767C221.313 210.067 205.364 221.182 183.937 221.182C162.994 221.182 149.461 211.195 142.857 198.145Z" fill="black"/>
</g>
<defs>
<clipPath id="clip0_294_167">
<rect width="240" height="240" fill="white"/>
</clipPath>
</defs>
</svg>
