<svg width="1166" height="240" viewBox="0 0 1166 240" fill="none" xmlns="http://www.w3.org/2000/svg">
<g clip-path="url(#clip0_228_1180)">
<path d="M1166 0H926V240H1166V0Z" fill="#F7DF1E"/>
<path d="M989.105 200.561L1007.47 189.446C1011.01 195.728 1014.24 201.044 1021.97 201.044C1029.38 201.044 1034.05 198.145 1034.05 186.868V110.183H1056.61V187.187C1056.61 210.547 1042.91 221.18 1022.94 221.18C1004.89 221.18 994.421 211.836 989.105 200.559" fill="black"/>
<path d="M1068.86 198.145L1087.22 187.512C1092.06 195.406 1098.34 201.206 1109.45 201.206C1118.8 201.206 1124.76 196.534 1124.76 190.089C1124.76 182.356 1118.64 179.617 1108.33 175.108L1102.69 172.69C1086.42 165.764 1075.62 157.064 1075.62 138.698C1075.62 121.783 1088.51 108.894 1108.65 108.894C1122.99 108.894 1133.3 113.888 1140.71 126.938L1123.15 138.215C1119.28 131.288 1115.09 128.549 1108.65 128.549C1102.04 128.549 1097.85 132.738 1097.85 138.215C1097.85 144.981 1102.04 147.72 1111.71 151.909L1117.35 154.325C1136.52 162.542 1147.31 170.919 1147.31 189.767C1147.31 210.067 1131.36 221.182 1109.94 221.182C1088.99 221.182 1075.46 211.195 1068.86 198.145Z" fill="black"/>
</g>
<path d="M800.345 149.899L806 155L811.655 149.899C818.22 143.948 823.647 138.815 827.938 134.499C832.228 130.183 835.64 126.308 838.175 122.875C840.71 119.441 842.481 116.286 843.489 113.409C844.496 110.531 845 107.589 845 104.58C845 98.4332 842.952 93.2997 838.857 89.1798C834.762 85.0599 829.66 83 823.55 83C820.17 83 816.952 83.7193 813.897 85.158C810.842 86.5967 808.21 88.624 806 91.2398C803.79 88.624 801.158 86.5967 798.103 85.158C795.048 83.7193 791.83 83 788.45 83C782.34 83 777.237 85.0599 773.142 89.1798C769.047 93.2997 767 98.4332 767 104.58C767 107.589 767.504 110.531 768.511 113.409C769.519 116.286 771.29 119.441 773.825 122.875C776.36 126.308 779.773 130.183 784.062 134.499C788.352 138.815 793.78 143.948 800.345 149.899Z" fill="#D71104"/>
<mask id="mask0_228_1180" style="mask-type:alpha" maskUnits="userSpaceOnUse" x="446" y="0" width="240" height="240">
<path d="M686 0H446V240H686V0Z" fill="#F7DF1E"/>
</mask>
<g mask="url(#mask0_228_1180)">
<path d="M686 0H446V240H686V0Z" fill="#F7DF1E"/>
<path d="M629.24 140.31H628.805L602.56 175.545H629.24V140.31ZM629.24 192.51H586.32V173.66L630.4 114.5H648.815V175.545H662.3V192.51H648.815V216H629.24V192.51Z" fill="black"/>
</g>
<path d="M69 145L84 90H114L129 145L144 90H174L144 200H114L99 145L84 200H54L24 90H54L69 145ZM234 90C264.376 90 289 114.624 289 145C289 150.2 288.277 155.232 286.929 160H213.999C218.56 166.072 225.821 170 234 170C240.904 170 247.153 167.201 251.677 162.677L272.891 183.891C262.938 193.844 249.188 200 234 200C203.624 200 179 175.376 179 145C179 114.624 203.624 90 234 90ZM334 98.8955C342.628 93.2699 352.932 90 364 90C394.376 90 419 114.624 419 145C419 175.376 394.376 200 364 200C352.932 200 342.628 196.729 334 191.104V200H304V40H334V98.8955ZM364 120C350.193 120 339 131.193 339 145C339 158.807 350.193 170 364 170C377.807 170 389 158.807 389 145C389 131.193 377.807 120 364 120ZM234 120C225.821 120 218.56 123.928 213.999 130H254.001C249.44 123.928 242.179 120 234 120Z" fill="black"/>
<defs>
<clipPath id="clip0_228_1180">
<rect width="240" height="240" fill="white" transform="translate(926)"/>
</clipPath>
</defs>
</svg>
