<svg width="512" height="512" viewBox="0 0 512 512" fill="none" xmlns="http://www.w3.org/2000/svg">
<path d="M407 472L256 512L105 472L75 101H437L407 472ZM210.126 175.66C193.386 175.66 180.696 179.8 172.056 188.08C163.416 196.36 159.096 208.33 159.096 223.99V272.86C159.096 277 158.015 280.15 155.855 282.31C153.696 284.47 150.816 285.55 147.216 285.55H138.306V318.49H147.216C150.816 318.49 153.696 319.57 155.855 321.729C158.015 323.709 159.096 326.86 159.096 331.18V380.05C159.096 395.53 163.416 407.409 172.056 415.689C180.696 424.149 193.386 428.38 210.126 428.38H225.786V395.439H220.926C214.446 395.439 209.495 393.73 206.075 390.31C202.835 386.89 201.216 381.94 201.216 375.46V332.26C201.216 324.34 200.136 318.13 197.976 313.63C195.816 309.13 192.396 305.89 187.716 303.91C186.186 303.176 184.5 302.527 182.658 301.959C184.5 301.411 186.186 300.803 187.716 300.13C192.396 298.15 195.816 294.91 197.976 290.41C200.136 285.91 201.216 279.7 201.216 271.78V228.58C201.216 222.1 202.835 217.149 206.075 213.729C209.495 210.309 214.446 208.6 220.926 208.6H225.786V175.66H210.126ZM286.315 175.66V208.6H291.176C297.656 208.6 302.516 210.31 305.756 213.729C309.176 217.149 310.886 222.1 310.886 228.58V271.78C310.886 279.7 311.965 285.91 314.125 290.41C316.465 294.91 319.886 298.15 324.386 300.13C325.915 300.803 327.601 301.411 329.442 301.959C327.601 302.527 325.915 303.176 324.386 303.91C319.886 305.89 316.465 309.13 314.125 313.63C311.965 318.13 310.886 324.34 310.886 332.26V375.46C310.886 381.94 309.176 386.89 305.756 390.31C302.516 393.73 297.656 395.439 291.176 395.439H286.315V428.38H301.976C318.896 428.38 331.586 424.149 340.046 415.689C348.686 407.409 353.006 395.53 353.006 380.05V331.18C353.006 326.86 354.085 323.709 356.245 321.729C358.405 319.57 361.286 318.49 364.886 318.49H373.796V285.55H364.886C361.286 285.55 358.405 284.47 356.245 282.31C354.085 280.15 353.006 277 353.006 272.86V223.99C353.006 208.33 348.686 196.36 340.046 188.08C331.586 179.8 318.896 175.66 301.976 175.66H286.315Z" fill="black"/>
<path d="M287.688 22.9199C291.23 22.92 294.451 23.4955 297.353 24.6475C300.296 25.7995 302.856 27.4211 305.032 29.5117C307.208 31.6023 308.872 34.077 310.024 36.9355C311.219 39.7515 311.816 42.8452 311.816 46.2158C311.816 49.6291 311.219 52.7654 310.024 55.624C308.872 58.4826 307.208 60.9572 305.032 63.0479C302.856 65.1384 300.296 66.7601 297.353 67.9121C294.451 69.0641 291.251 69.6396 287.752 69.6396C284.211 69.6396 280.968 69.064 278.024 67.9121C275.08 66.7601 272.52 65.1385 270.344 63.0479C268.168 60.9572 266.483 58.4826 265.288 55.624C264.136 52.7655 263.561 49.6508 263.561 46.2803C263.561 42.8669 264.136 39.7515 265.288 36.9355C266.483 34.077 268.168 31.6023 270.344 29.5117C272.52 27.4211 275.08 25.7995 278.024 24.6475C280.968 23.4956 284.19 22.9199 287.688 22.9199ZM416.786 22.9199C420.157 22.9199 422.973 23.2399 425.234 23.8799C427.496 24.4772 429.395 25.3519 430.931 26.5039C432.467 27.6559 433.789 29.0001 434.898 30.5361L426.835 38.2803C425.896 37.3843 424.915 36.6582 423.891 36.1035C422.867 35.5062 421.8 35.0802 420.69 34.8242C419.624 34.5256 418.557 34.376 417.49 34.376C416.509 34.376 415.677 34.4612 414.994 34.6318C414.312 34.7599 413.778 34.9947 413.395 35.3359C413.011 35.6346 412.818 36.0616 412.818 36.6162C412.818 37.1706 413.053 37.6395 413.522 38.0234C414.034 38.3648 414.654 38.6639 415.379 38.9199C416.147 39.1758 416.893 39.3889 417.618 39.5596C418.386 39.6876 419.027 39.7945 419.539 39.8799C421.886 40.3065 424.04 40.9039 426.003 41.6719C427.965 42.3972 429.672 43.3363 431.123 44.4883C432.616 45.5976 433.747 47.0054 434.515 48.7119C435.325 50.3759 435.73 52.3601 435.73 54.6641C435.73 57.9493 434.898 60.7013 433.234 62.9199C431.613 65.1385 429.416 66.8236 426.643 67.9756C423.869 69.0849 420.776 69.6396 417.362 69.6396C413.992 69.6396 411.005 69.2771 408.402 68.5518C405.842 67.7838 403.581 66.7169 401.618 65.3516C399.698 63.9863 397.97 62.3863 396.435 60.5518L404.435 51.5918C406.568 54.3225 408.787 56.1362 411.091 57.0322C413.437 57.8855 415.635 58.3115 417.683 58.3115C418.493 58.3115 419.218 58.2481 419.858 58.1201C420.498 57.9495 420.99 57.6929 421.331 57.3516C421.672 57.0103 421.843 56.5412 421.843 55.9443C421.843 55.3897 421.651 54.9201 421.267 54.5361C420.925 54.1521 420.456 53.8322 419.858 53.5762C419.261 53.2776 418.6 53.0427 417.875 52.8721C417.192 52.6587 416.509 52.4884 415.826 52.3604C415.186 52.2324 414.611 52.1036 414.099 51.9756C411.539 51.3783 409.299 50.6531 407.379 49.7998C405.459 48.9465 403.858 47.9222 402.578 46.7275C401.298 45.533 400.338 44.1677 399.698 42.6318C399.101 41.096 398.803 39.368 398.803 37.4482C398.803 35.2723 399.293 33.288 400.274 31.4961C401.298 29.7041 402.643 28.1677 404.307 26.8877C406.013 25.6078 407.933 24.627 410.066 23.9443C412.242 23.2617 414.482 22.92 416.786 22.9199ZM93.3818 36.9141L105.798 24.2002H121.478L102.613 42.9131L123.334 69H107.653L94.1094 51.3506L93.3818 52.0723V69H79.5576V24.2002H93.3818V36.9141ZM160.654 35.4004H140.431V41.0957H158.286V51.5918H140.431V57.7998H161.807V69H127.183V24.2002H160.654V35.4004ZM188.133 37.4609L196.557 24.2002H211.532L195.148 49.0479V69H181.196V49.166L163.532 24.2002H178.893L188.133 37.4609ZM229.194 40.6484H242.059V24.2002H255.882V69H242.059V52.6797H229.194V69H215.37V24.2002H229.194V40.6484ZM333.319 57.2236H352.52V69H319.495V24.2002H333.319V57.2236ZM392.404 35.4004H372.181V41.0957H390.037V51.5918H372.181V57.7998H393.557V69H358.933V24.2002H392.404V35.4004ZM287.688 35.7197C286.238 35.7197 284.894 35.9763 283.656 36.4883C282.462 37.0002 281.395 37.7463 280.456 38.7275C279.56 39.6662 278.856 40.7757 278.344 42.0557C277.874 43.3357 277.64 44.7443 277.64 46.2803C277.64 47.8161 277.874 49.224 278.344 50.5039C278.856 51.7838 279.56 52.9142 280.456 53.8955C281.395 54.8342 282.462 55.5603 283.656 56.0723C284.894 56.5842 286.238 56.8398 287.688 56.8398C289.139 56.8398 290.462 56.5842 291.656 56.0723C292.894 55.5603 293.96 54.8342 294.856 53.8955C295.795 52.9143 296.499 51.7837 296.968 50.5039C297.48 49.224 297.736 47.8161 297.736 46.2803C297.736 44.7443 297.48 43.3357 296.968 42.0557C296.498 40.7758 295.795 39.6661 294.856 38.7275C293.961 37.7463 292.893 37.0003 291.656 36.4883C290.462 35.9763 289.139 35.7198 287.688 35.7197Z" fill="black"/>
</svg>
