<svg width="240" height="240" viewBox="0 0 240 240" fill="none" xmlns="http://www.w3.org/2000/svg">
<mask id="mask0_292_1403" style="mask-type:alpha" maskUnits="userSpaceOnUse" x="0" y="0" width="240" height="240">
<rect width="240" height="240" fill="#3366FF"/>
</mask>
<g mask="url(#mask0_292_1403)">
<rect width="240" height="240" fill="#3366FF"/>
<line x1="10.25" y1="1.09278e-08" x2="10.25" y2="240" stroke="black" stroke-opacity="0.05" stroke-width="0.5"/>
<line x1="20.25" y1="1.09278e-08" x2="20.25" y2="240" stroke="black" stroke-opacity="0.05" stroke-width="0.5"/>
<line x1="30.25" y1="1.09278e-08" x2="30.25" y2="240" stroke="black" stroke-opacity="0.05" stroke-width="0.5"/>
<line x1="40.25" y1="1.09278e-08" x2="40.25" y2="240" stroke="black" stroke-opacity="0.05" stroke-width="0.5"/>
<line x1="50.25" y1="1.09278e-08" x2="50.25" y2="240" stroke="black" stroke-opacity="0.05" stroke-width="0.5"/>
<line x1="60.25" y1="1.09278e-08" x2="60.25" y2="240" stroke="black" stroke-opacity="0.05" stroke-width="0.5"/>
<line x1="70.25" y1="1.09278e-08" x2="70.25" y2="240" stroke="black" stroke-opacity="0.05" stroke-width="0.5"/>
<line x1="80.25" y1="1.09278e-08" x2="80.25" y2="240" stroke="black" stroke-opacity="0.05" stroke-width="0.5"/>
<line x1="90.25" y1="1.09278e-08" x2="90.25" y2="240" stroke="black" stroke-opacity="0.05" stroke-width="0.5"/>
<line x1="100.25" y1="1.09278e-08" x2="100.25" y2="240" stroke="black" stroke-opacity="0.05" stroke-width="0.5"/>
<line x1="110.25" y1="1.09278e-08" x2="110.25" y2="240" stroke="black" stroke-opacity="0.05" stroke-width="0.5"/>
<line x1="120.25" y1="1.09278e-08" x2="120.25" y2="240" stroke="black" stroke-opacity="0.05" stroke-width="0.5"/>
<line x1="130.25" y1="1.09278e-08" x2="130.25" y2="240" stroke="black" stroke-opacity="0.05" stroke-width="0.5"/>
<line x1="140.25" y1="1.09278e-08" x2="140.25" y2="240" stroke="black" stroke-opacity="0.05" stroke-width="0.5"/>
<line x1="150.25" y1="1.09278e-08" x2="150.25" y2="240" stroke="black" stroke-opacity="0.05" stroke-width="0.5"/>
<line x1="160.25" y1="1.09278e-08" x2="160.25" y2="240" stroke="black" stroke-opacity="0.05" stroke-width="0.5"/>
<line x1="170.25" y1="1.09278e-08" x2="170.25" y2="240" stroke="black" stroke-opacity="0.05" stroke-width="0.5"/>
<line x1="180.25" y1="1.09278e-08" x2="180.25" y2="240" stroke="black" stroke-opacity="0.05" stroke-width="0.5"/>
<line x1="190.25" y1="1.09278e-08" x2="190.25" y2="240" stroke="black" stroke-opacity="0.05" stroke-width="0.5"/>
<line x1="200.25" y1="1.09278e-08" x2="200.25" y2="240" stroke="black" stroke-opacity="0.05" stroke-width="0.5"/>
<line x1="210.25" y1="1.09278e-08" x2="210.25" y2="240" stroke="black" stroke-opacity="0.05" stroke-width="0.5"/>
<line x1="220.25" y1="1.09278e-08" x2="220.25" y2="240" stroke="black" stroke-opacity="0.05" stroke-width="0.5"/>
<line x1="230.25" y1="1.09278e-08" x2="230.25" y2="240" stroke="black" stroke-opacity="0.05" stroke-width="0.5"/>
<line x1="240" y1="10.25" x2="-2.18557e-08" y2="10.25" stroke="black" stroke-opacity="0.05" stroke-width="0.5"/>
<line x1="240" y1="20.25" x2="-2.18557e-08" y2="20.25" stroke="black" stroke-opacity="0.05" stroke-width="0.5"/>
<line x1="240" y1="30.25" x2="-2.18557e-08" y2="30.25" stroke="black" stroke-opacity="0.05" stroke-width="0.5"/>
<line x1="240" y1="40.25" x2="-2.18557e-08" y2="40.25" stroke="black" stroke-opacity="0.05" stroke-width="0.5"/>
<line x1="240" y1="50.25" x2="-2.18557e-08" y2="50.25" stroke="black" stroke-opacity="0.05" stroke-width="0.5"/>
<line x1="240" y1="60.25" x2="-2.18557e-08" y2="60.25" stroke="black" stroke-opacity="0.05" stroke-width="0.5"/>
<line x1="240" y1="70.25" x2="-2.18557e-08" y2="70.25" stroke="black" stroke-opacity="0.05" stroke-width="0.5"/>
<line x1="240" y1="80.25" x2="-2.18557e-08" y2="80.25" stroke="black" stroke-opacity="0.05" stroke-width="0.5"/>
<line x1="240" y1="90.25" x2="-2.18557e-08" y2="90.25" stroke="black" stroke-opacity="0.05" stroke-width="0.5"/>
<line x1="240" y1="100.25" x2="-2.18557e-08" y2="100.25" stroke="black" stroke-opacity="0.05" stroke-width="0.5"/>
<line x1="240" y1="110.25" x2="-2.18557e-08" y2="110.25" stroke="black" stroke-opacity="0.05" stroke-width="0.5"/>
<line x1="240" y1="120.25" x2="-2.18557e-08" y2="120.25" stroke="black" stroke-opacity="0.05" stroke-width="0.5"/>
<line x1="240" y1="130.25" x2="-2.18557e-08" y2="130.25" stroke="black" stroke-opacity="0.05" stroke-width="0.5"/>
<line x1="240" y1="140.25" x2="-2.18557e-08" y2="140.25" stroke="black" stroke-opacity="0.05" stroke-width="0.5"/>
<line x1="240" y1="150.25" x2="-2.18557e-08" y2="150.25" stroke="black" stroke-opacity="0.05" stroke-width="0.5"/>
<line x1="240" y1="160.25" x2="-2.18557e-08" y2="160.25" stroke="black" stroke-opacity="0.05" stroke-width="0.5"/>
<line x1="240" y1="170.25" x2="-2.18557e-08" y2="170.25" stroke="black" stroke-opacity="0.05" stroke-width="0.5"/>
<line x1="240" y1="180.25" x2="-2.18557e-08" y2="180.25" stroke="black" stroke-opacity="0.05" stroke-width="0.5"/>
<line x1="240" y1="190.25" x2="-2.18557e-08" y2="190.25" stroke="black" stroke-opacity="0.05" stroke-width="0.5"/>
<line x1="240" y1="200.25" x2="-2.18557e-08" y2="200.25" stroke="black" stroke-opacity="0.05" stroke-width="0.5"/>
<line x1="240" y1="210.25" x2="-2.18557e-08" y2="210.25" stroke="black" stroke-opacity="0.05" stroke-width="0.5"/>
<line x1="240" y1="220.25" x2="-2.18557e-08" y2="220.25" stroke="black" stroke-opacity="0.05" stroke-width="0.5"/>
<line x1="240" y1="230.25" x2="-2.18557e-08" y2="230.25" stroke="black" stroke-opacity="0.05" stroke-width="0.5"/>
<g opacity="0.5">
<mask id="mask1_292_1403" style="mask-type:alpha" maskUnits="userSpaceOnUse" x="40" y="40" width="170" height="160">
<path d="M40 40H150V150H210V200H40V40Z" fill="#3366FF"/>
</mask>
<g mask="url(#mask1_292_1403)">
<rect x="120" y="40" width="30" height="160" fill="white"/>
<rect x="40" y="120" width="70" height="30" fill="white"/>
<circle cx="17.5" cy="17.5" r="105" stroke="white" stroke-width="30"/>
<circle cx="255" cy="225" r="105" stroke="white" stroke-width="30"/>
</g>
</g>
<path d="M120 9L120 229" stroke="white" stroke-opacity="0.75" style="mix-blend-mode:overlay" stroke-width="0.5"/>
<path d="M150 230L150 9.99998" stroke="white" stroke-opacity="0.75" style="mix-blend-mode:overlay" stroke-width="0.5"/>
<path d="M200 230L200 10" stroke="white" stroke-opacity="0.75" style="mix-blend-mode:overlay" stroke-width="0.5"/>
<path d="M40 9L40 229" stroke="white" stroke-opacity="0.75" style="mix-blend-mode:overlay" stroke-width="0.5"/>
<line x1="11" y1="119.75" x2="231" y2="119.75" stroke="white" stroke-opacity="0.75" style="mix-blend-mode:overlay" stroke-width="0.5"/>
<line x1="11" y1="39.75" x2="231" y2="39.75" stroke="white" stroke-opacity="0.75" style="mix-blend-mode:overlay" stroke-width="0.5"/>
<path d="M11 150H231" stroke="white" stroke-opacity="0.75" style="mix-blend-mode:overlay" stroke-width="0.5"/>
<path d="M11 200H231" stroke="white" stroke-opacity="0.75" style="mix-blend-mode:overlay" stroke-width="0.5"/>
<circle cx="255" cy="225" r="105" stroke="white" stroke-opacity="0.75" style="mix-blend-mode:overlay" stroke-width="0.5"/>
<circle cx="18" cy="17" r="105" stroke="white" stroke-opacity="0.75" style="mix-blend-mode:overlay" stroke-width="0.5"/>
<path d="M217.56 216.852V224H216.656V217.979L214.835 218.644V217.828L217.418 216.852H217.56ZM221.534 220.001H222.179C222.494 220.001 222.755 219.949 222.96 219.845C223.168 219.737 223.323 219.592 223.424 219.41C223.528 219.225 223.58 219.016 223.58 218.785C223.58 218.512 223.535 218.282 223.443 218.097C223.352 217.911 223.215 217.771 223.033 217.677C222.851 217.582 222.62 217.535 222.34 217.535C222.086 217.535 221.861 217.586 221.666 217.687C221.474 217.784 221.323 217.924 221.212 218.106C221.104 218.289 221.051 218.504 221.051 218.751H220.147C220.147 218.39 220.239 218.061 220.421 217.765C220.603 217.468 220.859 217.232 221.188 217.057C221.52 216.881 221.904 216.793 222.34 216.793C222.77 216.793 223.146 216.869 223.468 217.022C223.79 217.172 224.041 217.397 224.22 217.696C224.399 217.993 224.488 218.362 224.488 218.805C224.488 218.984 224.446 219.176 224.361 219.381C224.28 219.583 224.151 219.771 223.976 219.947C223.803 220.123 223.578 220.268 223.302 220.382C223.025 220.493 222.693 220.548 222.306 220.548H221.534V220.001ZM221.534 220.743V220.201H222.306C222.758 220.201 223.132 220.255 223.429 220.362C223.725 220.47 223.958 220.613 224.127 220.792C224.299 220.971 224.42 221.168 224.488 221.383C224.56 221.594 224.596 221.806 224.596 222.018C224.596 222.35 224.539 222.644 224.425 222.901C224.314 223.159 224.156 223.377 223.951 223.556C223.749 223.735 223.512 223.87 223.238 223.961C222.965 224.052 222.667 224.098 222.345 224.098C222.035 224.098 221.744 224.054 221.471 223.966C221.201 223.878 220.961 223.751 220.753 223.585C220.545 223.416 220.382 223.209 220.265 222.965C220.147 222.717 220.089 222.436 220.089 222.12H220.992C220.992 222.368 221.046 222.584 221.153 222.77C221.264 222.955 221.42 223.1 221.622 223.204C221.827 223.305 222.068 223.355 222.345 223.355C222.621 223.355 222.859 223.308 223.058 223.214C223.259 223.116 223.414 222.97 223.521 222.774C223.632 222.579 223.688 222.333 223.688 222.037C223.688 221.741 223.626 221.498 223.502 221.31C223.378 221.118 223.202 220.976 222.975 220.885C222.75 220.79 222.485 220.743 222.179 220.743H221.534Z" fill="white"/>
<path d="M17.5596 15.8516V23H16.6562V16.9795L14.835 17.6436V16.8281L17.418 15.8516H17.5596ZM21.5342 19.001H22.1787C22.4945 19.001 22.7549 18.9489 22.96 18.8447C23.1683 18.7373 23.3229 18.5924 23.4238 18.4102C23.528 18.2246 23.5801 18.0163 23.5801 17.7852C23.5801 17.5117 23.5345 17.2822 23.4434 17.0967C23.3522 16.9111 23.2155 16.7712 23.0332 16.6768C22.8509 16.5824 22.6198 16.5352 22.3398 16.5352C22.0859 16.5352 21.8613 16.5856 21.666 16.6865C21.474 16.7842 21.3226 16.9242 21.2119 17.1064C21.1045 17.2887 21.0508 17.5036 21.0508 17.751H20.1475C20.1475 17.3896 20.2386 17.0609 20.4209 16.7646C20.6032 16.4684 20.8587 16.2324 21.1875 16.0566C21.5195 15.8809 21.9036 15.793 22.3398 15.793C22.7695 15.793 23.1455 15.8695 23.4678 16.0225C23.79 16.1722 24.0407 16.3968 24.2197 16.6963C24.3988 16.9925 24.4883 17.362 24.4883 17.8047C24.4883 17.9837 24.446 18.1758 24.3613 18.3809C24.2799 18.5827 24.1514 18.7715 23.9756 18.9473C23.8031 19.123 23.5785 19.2679 23.3018 19.3818C23.0251 19.4925 22.693 19.5479 22.3057 19.5479H21.5342V19.001ZM21.5342 19.7432V19.2012H22.3057C22.7581 19.2012 23.1325 19.2549 23.4287 19.3623C23.7249 19.4697 23.9577 19.613 24.127 19.792C24.2995 19.971 24.4199 20.168 24.4883 20.3828C24.5599 20.5944 24.5957 20.806 24.5957 21.0176C24.5957 21.3496 24.5387 21.6442 24.4248 21.9014C24.3141 22.1585 24.1562 22.3766 23.9512 22.5557C23.7493 22.7347 23.5117 22.8698 23.2383 22.9609C22.9648 23.0521 22.667 23.0977 22.3447 23.0977C22.0355 23.0977 21.7441 23.0537 21.4707 22.9658C21.2005 22.8779 20.9613 22.751 20.7529 22.585C20.5446 22.4157 20.3818 22.209 20.2646 21.9648C20.1475 21.7174 20.0889 21.4359 20.0889 21.1201H20.9922C20.9922 21.3675 21.0459 21.584 21.1533 21.7695C21.264 21.9551 21.4202 22.0999 21.6221 22.2041C21.8271 22.305 22.068 22.3555 22.3447 22.3555C22.6214 22.3555 22.859 22.3083 23.0576 22.2139C23.2594 22.1162 23.4141 21.9697 23.5215 21.7744C23.6322 21.5791 23.6875 21.3333 23.6875 21.0371C23.6875 20.7409 23.6257 20.4984 23.502 20.3096C23.3783 20.1175 23.2025 19.9759 22.9746 19.8848C22.75 19.7904 22.4847 19.7432 22.1787 19.7432H21.5342Z" fill="white"/>
<path d="M174.421 175.616L173.698 175.431L174.055 171.891H177.702V172.726H174.821L174.606 174.659C174.737 174.584 174.901 174.514 175.1 174.449C175.301 174.384 175.533 174.352 175.793 174.352C176.122 174.352 176.416 174.409 176.677 174.522C176.937 174.633 177.159 174.793 177.341 175.001C177.526 175.209 177.668 175.46 177.766 175.753C177.863 176.046 177.912 176.373 177.912 176.734C177.912 177.076 177.865 177.39 177.771 177.677C177.679 177.963 177.541 178.214 177.355 178.429C177.17 178.64 176.936 178.805 176.652 178.922C176.372 179.039 176.042 179.098 175.661 179.098C175.375 179.098 175.103 179.059 174.846 178.98C174.592 178.899 174.364 178.777 174.162 178.614C173.964 178.448 173.801 178.243 173.674 177.999C173.55 177.752 173.472 177.462 173.439 177.13H174.299C174.338 177.397 174.416 177.621 174.533 177.804C174.65 177.986 174.803 178.124 174.992 178.219C175.184 178.31 175.407 178.355 175.661 178.355C175.876 178.355 176.066 178.318 176.232 178.243C176.398 178.168 176.538 178.061 176.652 177.921C176.766 177.781 176.853 177.612 176.911 177.413C176.973 177.215 177.004 176.992 177.004 176.744C177.004 176.52 176.973 176.311 176.911 176.119C176.849 175.927 176.757 175.759 176.633 175.616C176.512 175.473 176.364 175.362 176.188 175.284C176.013 175.203 175.811 175.162 175.583 175.162C175.28 175.162 175.051 175.203 174.895 175.284C174.742 175.366 174.584 175.476 174.421 175.616Z" fill="white"/>
<circle cx="175" cy="175" r="24.75" stroke="white" stroke-opacity="0.75" style="mix-blend-mode:overlay" stroke-width="0.5"/>
<path d="M79.0967 134.001H79.7412C80.057 134.001 80.3174 133.949 80.5225 133.845C80.7308 133.737 80.8854 133.592 80.9863 133.41C81.0905 133.225 81.1426 133.016 81.1426 132.785C81.1426 132.512 81.097 132.282 81.0059 132.097C80.9147 131.911 80.778 131.771 80.5957 131.677C80.4134 131.582 80.1823 131.535 79.9023 131.535C79.6484 131.535 79.4238 131.586 79.2285 131.687C79.0365 131.784 78.8851 131.924 78.7744 132.106C78.667 132.289 78.6133 132.504 78.6133 132.751H77.71C77.71 132.39 77.8011 132.061 77.9834 131.765C78.1657 131.468 78.4212 131.232 78.75 131.057C79.082 130.881 79.4661 130.793 79.9023 130.793C80.332 130.793 80.708 130.869 81.0303 131.022C81.3525 131.172 81.6032 131.397 81.7822 131.696C81.9613 131.993 82.0508 132.362 82.0508 132.805C82.0508 132.984 82.0085 133.176 81.9238 133.381C81.8424 133.583 81.7139 133.771 81.5381 133.947C81.3656 134.123 81.141 134.268 80.8643 134.382C80.5876 134.493 80.2555 134.548 79.8682 134.548H79.0967V134.001ZM79.0967 134.743V134.201H79.8682C80.3206 134.201 80.695 134.255 80.9912 134.362C81.2874 134.47 81.5202 134.613 81.6895 134.792C81.862 134.971 81.9824 135.168 82.0508 135.383C82.1224 135.594 82.1582 135.806 82.1582 136.018C82.1582 136.35 82.1012 136.644 81.9873 136.901C81.8766 137.159 81.7188 137.377 81.5137 137.556C81.3118 137.735 81.0742 137.87 80.8008 137.961C80.5273 138.052 80.2295 138.098 79.9072 138.098C79.598 138.098 79.3066 138.054 79.0332 137.966C78.763 137.878 78.5238 137.751 78.3154 137.585C78.1071 137.416 77.9443 137.209 77.8271 136.965C77.71 136.717 77.6514 136.436 77.6514 136.12H78.5547C78.5547 136.368 78.6084 136.584 78.7158 136.77C78.8265 136.955 78.9827 137.1 79.1846 137.204C79.3896 137.305 79.6305 137.355 79.9072 137.355C80.1839 137.355 80.4215 137.308 80.6201 137.214C80.8219 137.116 80.9766 136.97 81.084 136.774C81.1947 136.579 81.25 136.333 81.25 136.037C81.25 135.741 81.1882 135.498 81.0645 135.31C80.9408 135.118 80.765 134.976 80.5371 134.885C80.3125 134.79 80.0472 134.743 79.7412 134.743H79.0967Z" fill="white"/>
<circle cx="80" cy="135" r="14.75" stroke="white" stroke-opacity="0.75" style="mix-blend-mode:overlay" stroke-width="0.5"/>
<circle cx="110" cy="109" r="9.75" stroke="white" stroke-opacity="0.75" style="mix-blend-mode:overlay" stroke-width="0.5"/>
<path d="M112.437 111.258V112H107.783V111.351L110.112 108.758C110.399 108.439 110.62 108.169 110.776 107.947C110.936 107.723 111.047 107.522 111.108 107.347C111.174 107.168 111.206 106.985 111.206 106.8C111.206 106.565 111.157 106.354 111.06 106.165C110.965 105.973 110.825 105.82 110.64 105.706C110.454 105.592 110.229 105.535 109.966 105.535C109.65 105.535 109.386 105.597 109.175 105.721C108.966 105.841 108.81 106.01 108.706 106.229C108.602 106.447 108.55 106.697 108.55 106.98H107.646C107.646 106.58 107.734 106.214 107.91 105.882C108.086 105.55 108.346 105.286 108.691 105.091C109.036 104.892 109.461 104.793 109.966 104.793C110.415 104.793 110.799 104.873 111.118 105.032C111.437 105.188 111.681 105.41 111.851 105.696C112.023 105.979 112.109 106.312 112.109 106.692C112.109 106.901 112.074 107.112 112.002 107.327C111.934 107.539 111.838 107.75 111.714 107.962C111.593 108.174 111.452 108.382 111.289 108.587C111.13 108.792 110.959 108.994 110.776 109.192L108.872 111.258H112.437Z" fill="white"/>
<path d="M134.097 78.001H134.741C135.057 78.001 135.317 77.9489 135.522 77.8447C135.731 77.7373 135.885 77.5924 135.986 77.4102C136.09 77.2246 136.143 77.0163 136.143 76.7852C136.143 76.5117 136.097 76.2822 136.006 76.0967C135.915 75.9111 135.778 75.7712 135.596 75.6768C135.413 75.5824 135.182 75.5352 134.902 75.5352C134.648 75.5352 134.424 75.5856 134.229 75.6865C134.036 75.7842 133.885 75.9242 133.774 76.1064C133.667 76.2887 133.613 76.5036 133.613 76.751H132.71C132.71 76.3896 132.801 76.0609 132.983 75.7646C133.166 75.4684 133.421 75.2324 133.75 75.0566C134.082 74.8809 134.466 74.793 134.902 74.793C135.332 74.793 135.708 74.8695 136.03 75.0225C136.353 75.1722 136.603 75.3968 136.782 75.6963C136.961 75.9925 137.051 76.362 137.051 76.8047C137.051 76.9837 137.008 77.1758 136.924 77.3809C136.842 77.5827 136.714 77.7715 136.538 77.9473C136.366 78.123 136.141 78.2679 135.864 78.3818C135.588 78.4925 135.256 78.5479 134.868 78.5479H134.097V78.001ZM134.097 78.7432V78.2012H134.868C135.321 78.2012 135.695 78.2549 135.991 78.3623C136.287 78.4697 136.52 78.613 136.689 78.792C136.862 78.971 136.982 79.168 137.051 79.3828C137.122 79.5944 137.158 79.806 137.158 80.0176C137.158 80.3496 137.101 80.6442 136.987 80.9014C136.877 81.1585 136.719 81.3766 136.514 81.5557C136.312 81.7347 136.074 81.8698 135.801 81.9609C135.527 82.0521 135.229 82.0977 134.907 82.0977C134.598 82.0977 134.307 82.0537 134.033 81.9658C133.763 81.8779 133.524 81.751 133.315 81.585C133.107 81.4157 132.944 81.209 132.827 80.9648C132.71 80.7174 132.651 80.4359 132.651 80.1201H133.555C133.555 80.3675 133.608 80.584 133.716 80.7695C133.826 80.9551 133.983 81.0999 134.185 81.2041C134.39 81.305 134.631 81.3555 134.907 81.3555C135.184 81.3555 135.422 81.3083 135.62 81.2139C135.822 81.1162 135.977 80.9697 136.084 80.7744C136.195 80.5791 136.25 80.3333 136.25 80.0371C136.25 79.7409 136.188 79.4984 136.064 79.3096C135.941 79.1175 135.765 78.9759 135.537 78.8848C135.312 78.7904 135.047 78.7432 134.741 78.7432H134.097Z" fill="white"/>
<circle cx="135" cy="79" r="14.75" stroke="white" stroke-opacity="0.75" style="mix-blend-mode:overlay" stroke-width="0.5"/>
<circle cx="160" cy="80" r="39.75" stroke="white" stroke-opacity="0.75" style="mix-blend-mode:overlay" stroke-width="0.5"/>
<path d="M162.261 80.0762C162.261 80.5091 162.16 80.877 161.958 81.1797C161.759 81.4792 161.489 81.707 161.147 81.8633C160.809 82.0195 160.426 82.0977 160 82.0977C159.574 82.0977 159.189 82.0195 158.848 81.8633C158.506 81.707 158.236 81.4792 158.037 81.1797C157.839 80.877 157.739 80.5091 157.739 80.0762C157.739 79.793 157.793 79.5342 157.9 79.2998C158.011 79.0622 158.166 78.8555 158.364 78.6797C158.566 78.5039 158.804 78.3688 159.077 78.2744C159.354 78.1768 159.658 78.1279 159.99 78.1279C160.426 78.1279 160.815 78.2126 161.157 78.3818C161.499 78.5479 161.768 78.7773 161.963 79.0703C162.161 79.3633 162.261 79.6986 162.261 80.0762ZM161.353 80.0566C161.353 79.793 161.296 79.5602 161.182 79.3584C161.068 79.1533 160.908 78.9938 160.703 78.8799C160.498 78.766 160.26 78.709 159.99 78.709C159.714 78.709 159.474 78.766 159.272 78.8799C159.074 78.9938 158.919 79.1533 158.809 79.3584C158.698 79.5602 158.643 79.793 158.643 80.0566C158.643 80.3301 158.696 80.5645 158.804 80.7598C158.914 80.9518 159.071 81.0999 159.272 81.2041C159.478 81.305 159.72 81.3555 160 81.3555C160.28 81.3555 160.521 81.305 160.723 81.2041C160.924 81.0999 161.079 80.9518 161.187 80.7598C161.297 80.5645 161.353 80.3301 161.353 80.0566ZM162.095 76.7412C162.095 77.0863 162.004 77.3971 161.821 77.6738C161.639 77.9505 161.39 78.1686 161.074 78.3281C160.758 78.4876 160.4 78.5674 160 78.5674C159.593 78.5674 159.23 78.4876 158.911 78.3281C158.595 78.1686 158.348 77.9505 158.169 77.6738C157.99 77.3971 157.9 77.0863 157.9 76.7412C157.9 76.3278 157.99 75.9762 158.169 75.6865C158.351 75.3968 158.6 75.1755 158.916 75.0225C159.232 74.8695 159.591 74.793 159.995 74.793C160.402 74.793 160.763 74.8695 161.079 75.0225C161.395 75.1755 161.642 75.3968 161.821 75.6865C162.004 75.9762 162.095 76.3278 162.095 76.7412ZM161.191 76.7559C161.191 76.5182 161.141 76.3083 161.04 76.126C160.939 75.9437 160.799 75.8005 160.62 75.6963C160.441 75.5889 160.233 75.5352 159.995 75.5352C159.757 75.5352 159.549 75.5856 159.37 75.6865C159.194 75.7842 159.056 75.9242 158.955 76.1064C158.857 76.2887 158.809 76.5052 158.809 76.7559C158.809 77 158.857 77.2132 158.955 77.3955C159.056 77.5778 159.196 77.7194 159.375 77.8203C159.554 77.9212 159.762 77.9717 160 77.9717C160.238 77.9717 160.444 77.9212 160.62 77.8203C160.799 77.7194 160.939 77.5778 161.04 77.3955C161.141 77.2132 161.191 77 161.191 76.7559Z" fill="white"/>
<circle cx="80" cy="160" r="40" stroke="white" stroke-opacity="0.75" style="mix-blend-mode:overlay" stroke-width="0.5"/>
<path d="M83.2607 161.076C83.2607 161.509 83.1598 161.877 82.958 162.18C82.7594 162.479 82.4893 162.707 82.1475 162.863C81.8089 163.02 81.4264 163.098 81 163.098C80.5736 163.098 80.1895 163.02 79.8477 162.863C79.5059 162.707 79.2357 162.479 79.0371 162.18C78.8385 161.877 78.7393 161.509 78.7393 161.076C78.7393 160.793 78.793 160.534 78.9004 160.3C79.0111 160.062 79.1657 159.855 79.3643 159.68C79.5661 159.504 79.8037 159.369 80.0771 159.274C80.3538 159.177 80.6582 159.128 80.9902 159.128C81.4264 159.128 81.8154 159.213 82.1572 159.382C82.499 159.548 82.7676 159.777 82.9629 160.07C83.1615 160.363 83.2607 160.699 83.2607 161.076ZM82.3525 161.057C82.3525 160.793 82.2956 160.56 82.1816 160.358C82.0677 160.153 81.9082 159.994 81.7031 159.88C81.498 159.766 81.2604 159.709 80.9902 159.709C80.7135 159.709 80.4743 159.766 80.2725 159.88C80.0739 159.994 79.9193 160.153 79.8086 160.358C79.6979 160.56 79.6426 160.793 79.6426 161.057C79.6426 161.33 79.6963 161.564 79.8037 161.76C79.9144 161.952 80.0706 162.1 80.2725 162.204C80.4775 162.305 80.7201 162.355 81 162.355C81.2799 162.355 81.5208 162.305 81.7227 162.204C81.9245 162.1 82.0791 161.952 82.1865 161.76C82.2972 161.564 82.3525 161.33 82.3525 161.057ZM83.0947 157.741C83.0947 158.086 83.0036 158.397 82.8213 158.674C82.639 158.951 82.39 159.169 82.0742 159.328C81.7585 159.488 81.4004 159.567 81 159.567C80.5931 159.567 80.2301 159.488 79.9111 159.328C79.5954 159.169 79.348 158.951 79.1689 158.674C78.9899 158.397 78.9004 158.086 78.9004 157.741C78.9004 157.328 78.9899 156.976 79.1689 156.687C79.3512 156.397 79.6003 156.175 79.916 156.022C80.2318 155.869 80.5915 155.793 80.9951 155.793C81.402 155.793 81.7633 155.869 82.0791 156.022C82.3949 156.175 82.6423 156.397 82.8213 156.687C83.0036 156.976 83.0947 157.328 83.0947 157.741ZM82.1914 157.756C82.1914 157.518 82.141 157.308 82.04 157.126C81.9391 156.944 81.7992 156.8 81.6201 156.696C81.4411 156.589 81.2327 156.535 80.9951 156.535C80.7575 156.535 80.5492 156.586 80.3701 156.687C80.1943 156.784 80.056 156.924 79.9551 157.106C79.8574 157.289 79.8086 157.505 79.8086 157.756C79.8086 158 79.8574 158.213 79.9551 158.396C80.056 158.578 80.196 158.719 80.375 158.82C80.554 158.921 80.7624 158.972 81 158.972C81.2376 158.972 81.4443 158.921 81.6201 158.82C81.7992 158.719 81.9391 158.578 82.04 158.396C82.141 158.213 82.1914 158 82.1914 157.756Z" fill="white"/>
<circle cx="155" cy="150" r="4.75" stroke="white" stroke-opacity="0.75" style="mix-blend-mode:overlay" stroke-width="0.5"/>
<path d="M155.598 147.281V153H154.875V148.184L153.418 148.715V148.062L155.484 147.281H155.598Z" fill="white"/>
<circle cx="115" cy="150" r="4.75" stroke="white" stroke-opacity="0.75" style="mix-blend-mode:overlay" stroke-width="0.5"/>
<path d="M115.598 147.281V153H114.875V148.184L113.418 148.715V148.062L115.484 147.281H115.598Z" fill="white"/>
</g>
</svg>
