<svg width="240" height="240" viewBox="0 0 240 240" fill="none" xmlns="http://www.w3.org/2000/svg">
<path d="M120 0C172.845 0 199.268 0.000118256 216.977 14.7051C220 17.2156 222.784 20.0002 225.295 23.0234C240 40.7319 240 67.1547 240 120C240 172.845 240 199.268 225.295 216.977C222.784 220 220 222.784 216.977 225.295C199.268 240 172.845 240 120 240C67.1547 240 40.7319 240 23.0234 225.295C20.0002 222.784 17.2156 220 14.7051 216.977C0.000118256 199.268 0 172.845 0 120C0 67.1547 0.000118256 40.7319 14.7051 23.0234C17.2156 20.0002 20.0002 17.2156 23.0234 14.7051C40.7319 0.000118256 67.1547 0 120 0ZM104.665 40C96.5251 71.6262 71.6261 96.524 40 104.664V150H110V120H79.9307C96.2654 110.03 110.03 96.2645 120 79.9297V200H168.52C174.495 179.294 187.704 161.656 205.235 150H161.322C157.094 155.275 153.301 160.914 150 166.863V40H104.665Z" fill="black"/>
</svg>
