<svg width="700" height="240" viewBox="0 0 700 240" fill="none" xmlns="http://www.w3.org/2000/svg">
<path d="M580 0C632.845 0 659.268 0.000118256 676.977 14.7051C680 17.2156 682.784 20.0002 685.295 23.0234C700 40.7319 700 67.1547 700 120C700 172.845 700 199.268 685.295 216.977C682.784 220 680 222.784 676.977 225.295C659.268 240 632.845 240 580 240C527.155 240 500.732 240 483.023 225.295C480 222.784 477.216 220 474.705 216.977C460 199.268 460 172.845 460 120C460 67.1547 460 40.7319 474.705 23.0234C477.216 20.0002 480 17.2156 483.023 14.7051C500.732 0.000118256 527.155 0 580 0ZM564.665 40C556.525 71.6262 531.626 96.524 500 104.664V150H570V120H539.931C556.265 110.03 570.03 96.2645 580 79.9297V200H628.52C634.495 179.294 647.704 161.656 665.235 150H621.322C617.094 155.275 613.301 160.914 610 166.863V40H564.665Z" fill="black"/>
<path d="M85 145L100 90H130L145 145L160 90H190L160 200H130L115 145L100 200H70L40 90H70L85 145ZM250 90C280.376 90 305 114.624 305 145C305 150.2 304.277 155.232 302.929 160H229.999C234.56 166.072 241.821 170 250 170C256.904 170 263.153 167.201 267.677 162.677L288.891 183.891C278.938 193.844 265.188 200 250 200C219.624 200 195 175.376 195 145C195 114.624 219.624 90 250 90ZM350 98.8955C358.628 93.2699 368.932 90 380 90C410.376 90 435 114.624 435 145C435 175.376 410.376 200 380 200C368.932 200 358.628 196.729 350 191.104V200H320V40H350V98.8955ZM380 120C366.193 120 355 131.193 355 145C355 158.807 366.193 170 380 170C393.807 170 405 158.807 405 145C405 131.193 393.807 120 380 120ZM250 120C241.821 120 234.56 123.928 229.999 130H270.001C265.44 123.928 258.179 120 250 120Z" fill="black"/>
</svg>
