<svg width="1356" height="512" viewBox="0 0 1356 512" fill="none" xmlns="http://www.w3.org/2000/svg">
<path d="M533.432 133.84C529.12 133.84 525.116 133.084 521.42 131.572C517.724 130.004 514.476 127.848 511.676 125.104C508.932 122.304 506.804 119.056 505.292 115.36C503.836 111.664 503.108 107.688 503.108 103.432C503.108 99.176 503.836 95.2 505.292 91.504C506.804 87.808 508.932 84.588 511.676 81.844C514.476 79.1 517.696 76.944 521.336 75.376C525.032 73.808 529.064 73.024 533.432 73.024C538.136 73.024 542.28 73.808 545.864 75.376C549.448 76.888 552.612 78.988 555.356 81.676L547.628 89.404C546.004 87.612 544.016 86.212 541.664 85.204C539.312 84.196 536.568 83.692 533.432 83.692C530.688 83.692 528.168 84.168 525.872 85.12C523.632 86.016 521.672 87.36 519.992 89.152C518.312 90.888 517.024 92.988 516.128 95.452C515.232 97.86 514.784 100.52 514.784 103.432C514.784 106.4 515.232 109.088 516.128 111.496C517.024 113.904 518.312 116.004 519.992 117.796C521.672 119.532 523.632 120.876 525.872 121.828C528.168 122.78 530.688 123.256 533.432 123.256C536.736 123.256 539.564 122.752 541.916 121.744C544.324 120.736 546.34 119.308 547.964 117.46L555.692 125.188C552.948 127.932 549.756 130.06 546.116 131.572C542.476 133.084 538.248 133.84 533.432 133.84ZM580.46 133.84C576.372 133.84 572.676 132.916 569.372 131.068C566.124 129.164 563.52 126.616 561.56 123.424C559.656 120.176 558.704 116.564 558.704 112.588C558.704 108.612 559.656 105.056 561.56 101.92C563.464 98.728 566.068 96.208 569.372 94.36C572.676 92.456 576.344 91.504 580.376 91.504C584.52 91.504 588.216 92.456 591.464 94.36C594.768 96.208 597.372 98.728 599.276 101.92C601.18 105.056 602.132 108.612 602.132 112.588C602.132 116.564 601.18 120.176 599.276 123.424C597.372 126.616 594.768 129.164 591.464 131.068C588.216 132.916 584.548 133.84 580.46 133.84ZM580.376 123.592C582.448 123.592 584.268 123.144 585.836 122.248C587.46 121.296 588.692 120.008 589.532 118.384C590.428 116.704 590.876 114.8 590.876 112.672C590.876 110.544 590.428 108.668 589.532 107.044C588.636 105.42 587.404 104.16 585.836 103.264C584.268 102.312 582.448 101.836 580.376 101.836C578.36 101.836 576.568 102.312 575 103.264C573.432 104.16 572.2 105.42 571.304 107.044C570.408 108.668 569.96 110.544 569.96 112.672C569.96 114.8 570.408 116.704 571.304 118.384C572.2 120.008 573.432 121.296 575 122.248C576.568 123.144 578.36 123.592 580.376 123.592ZM609.216 133V92.428H620.22V133H609.216ZM635.676 133V109.06C635.676 106.708 634.92 104.888 633.408 103.6C631.952 102.256 630.132 101.584 627.948 101.584C626.492 101.584 625.176 101.892 624 102.508C622.824 103.068 621.9 103.908 621.228 105.028C620.556 106.148 620.22 107.492 620.22 109.06L615.936 106.96C615.936 103.824 616.608 101.108 617.952 98.812C619.352 96.516 621.228 94.752 623.58 93.52C625.932 92.232 628.592 91.588 631.56 91.588C634.36 91.588 636.908 92.232 639.204 93.52C641.5 94.752 643.32 96.516 644.664 98.812C646.008 101.052 646.68 103.768 646.68 106.96V133H635.676ZM662.136 133V109.06C662.136 106.708 661.38 104.888 659.868 103.6C658.412 102.256 656.592 101.584 654.408 101.584C653.008 101.584 651.692 101.892 650.46 102.508C649.284 103.068 648.36 103.908 647.688 105.028C647.016 106.148 646.68 107.492 646.68 109.06L640.38 107.548C640.604 104.3 641.472 101.5 642.984 99.148C644.496 96.74 646.484 94.892 648.948 93.604C651.412 92.26 654.156 91.588 657.18 91.588C660.204 91.588 662.92 92.232 665.328 93.52C667.736 94.752 669.64 96.544 671.04 98.896C672.44 101.248 673.14 104.048 673.14 107.296V133H662.136ZM704.572 133.84C701.66 133.84 699.028 133.252 696.676 132.076C694.324 130.844 692.448 129.192 691.048 127.12C689.648 125.048 688.892 122.668 688.78 119.98V105.616C688.892 102.928 689.648 100.548 691.048 98.476C692.504 96.348 694.38 94.668 696.676 93.436C699.028 92.204 701.66 91.588 704.572 91.588C708.324 91.588 711.684 92.512 714.652 94.36C717.62 96.208 719.944 98.728 721.624 101.92C723.36 105.112 724.228 108.724 724.228 112.756C724.228 116.732 723.36 120.316 721.624 123.508C719.944 126.7 717.62 129.22 714.652 131.068C711.684 132.916 708.324 133.84 704.572 133.84ZM682.06 149.968V92.428H693.064V103.096L691.216 112.924L692.98 122.752V149.968H682.06ZM702.64 123.676C704.656 123.676 706.448 123.228 708.016 122.332C709.584 121.38 710.788 120.092 711.628 118.468C712.524 116.788 712.972 114.856 712.972 112.672C712.972 110.544 712.524 108.668 711.628 107.044C710.788 105.364 709.584 104.076 708.016 103.18C706.448 102.228 704.656 101.752 702.64 101.752C700.68 101.752 698.916 102.228 697.348 103.18C695.78 104.076 694.548 105.364 693.652 107.044C692.812 108.668 692.392 110.544 692.392 112.672C692.392 114.856 692.812 116.788 693.652 118.468C694.548 120.092 695.752 121.38 697.264 122.332C698.832 123.228 700.624 123.676 702.64 123.676ZM731.442 133V92.428H742.53V133H731.442ZM736.986 85.876C735.194 85.876 733.71 85.288 732.534 84.112C731.358 82.88 730.77 81.368 730.77 79.576C730.77 77.84 731.358 76.356 732.534 75.124C733.71 73.892 735.194 73.276 736.986 73.276C738.834 73.276 740.318 73.892 741.438 75.124C742.614 76.356 743.202 77.84 743.202 79.576C743.202 81.368 742.614 82.88 741.438 84.112C740.318 85.288 738.834 85.876 736.986 85.876ZM752.278 133V72.268H763.282V133H752.278ZM792.436 133.84C788.18 133.84 784.4 132.944 781.096 131.152C777.792 129.304 775.16 126.784 773.2 123.592C771.296 120.4 770.344 116.76 770.344 112.672C770.344 108.64 771.268 105.056 773.116 101.92C775.02 98.728 777.596 96.208 780.844 94.36C784.092 92.456 787.704 91.504 791.68 91.504C795.6 91.504 799.044 92.4 802.012 94.192C805.036 95.928 807.388 98.336 809.068 101.416C810.804 104.44 811.672 107.884 811.672 111.748C811.672 112.476 811.616 113.232 811.504 114.016C811.448 114.744 811.308 115.584 811.084 116.536L776.98 116.62V108.388L805.96 108.304L801.508 111.748C801.396 109.34 800.948 107.324 800.164 105.7C799.436 104.076 798.344 102.844 796.888 102.004C795.488 101.108 793.752 100.66 791.68 100.66C789.496 100.66 787.592 101.164 785.968 102.172C784.344 103.124 783.084 104.496 782.188 106.288C781.348 108.024 780.928 110.096 780.928 112.504C780.928 114.968 781.376 117.124 782.272 118.972C783.224 120.764 784.568 122.164 786.304 123.172C788.04 124.124 790.056 124.6 792.352 124.6C794.424 124.6 796.3 124.264 797.98 123.592C799.66 122.864 801.116 121.8 802.348 120.4L808.816 126.868C806.856 129.164 804.448 130.9 801.592 132.076C798.792 133.252 795.74 133.84 792.436 133.84ZM836.06 133V73.948H847.484V133H836.06ZM873.104 133V73.948H884.528V133H873.104ZM843.284 107.548V97.468H876.296V107.548H843.284ZM911.215 133V75.208H922.723V133H911.215ZM892.399 84.112V73.948H941.539V84.112H892.399ZM949.427 133V73.948H957.491L981.431 112.252H976.811L1000.67 73.948H1008.73V133H997.391V93.52L999.575 94.192L982.943 120.904H975.215L958.583 94.192L960.851 93.52V133H949.427ZM1020.79 133V73.948H1032.22V133H1020.79ZM1029.19 133V122.836H1059.27V133H1029.19ZM504.872 239V198.428H515.96V239H504.872ZM510.416 191.876C508.624 191.876 507.14 191.288 505.964 190.112C504.788 188.88 504.2 187.368 504.2 185.576C504.2 183.84 504.788 182.356 505.964 181.124C507.14 179.892 508.624 179.276 510.416 179.276C512.264 179.276 513.748 179.892 514.868 181.124C516.044 182.356 516.632 183.84 516.632 185.576C516.632 187.368 516.044 188.88 514.868 190.112C513.748 191.288 512.264 191.876 510.416 191.876ZM553.008 239V215.732C553.008 213.324 552.252 211.364 550.74 209.852C549.228 208.34 547.268 207.584 544.86 207.584C543.292 207.584 541.892 207.92 540.66 208.592C539.428 209.264 538.448 210.216 537.72 211.448C537.048 212.68 536.712 214.108 536.712 215.732L532.428 213.548C532.428 210.356 533.1 207.584 534.444 205.232C535.844 202.824 537.748 200.948 540.156 199.604C542.62 198.26 545.392 197.588 548.472 197.588C551.44 197.588 554.1 198.344 556.452 199.856C558.804 201.312 560.652 203.244 561.996 205.652C563.34 208.004 564.012 210.552 564.012 213.296V239H553.008ZM525.708 239V198.428H536.712V239H525.708ZM578.348 239V181.544H589.352V239H578.348ZM568.856 208.088V198.428H598.844V208.088H568.856ZM623.116 239.84C619.028 239.84 615.332 238.916 612.028 237.068C608.78 235.164 606.176 232.616 604.216 229.424C602.312 226.176 601.36 222.564 601.36 218.588C601.36 214.612 602.312 211.056 604.216 207.92C606.12 204.728 608.724 202.208 612.028 200.36C615.332 198.456 619 197.504 623.032 197.504C627.176 197.504 630.872 198.456 634.12 200.36C637.424 202.208 640.028 204.728 641.932 207.92C643.836 211.056 644.788 214.612 644.788 218.588C644.788 222.564 643.836 226.176 641.932 229.424C640.028 232.616 637.424 235.164 634.12 237.068C630.872 238.916 627.204 239.84 623.116 239.84ZM623.032 229.592C625.104 229.592 626.924 229.144 628.492 228.248C630.116 227.296 631.348 226.008 632.188 224.384C633.084 222.704 633.532 220.8 633.532 218.672C633.532 216.544 633.084 214.668 632.188 213.044C631.292 211.42 630.06 210.16 628.492 209.264C626.924 208.312 625.104 207.836 623.032 207.836C621.016 207.836 619.224 208.312 617.656 209.264C616.088 210.16 614.856 211.42 613.96 213.044C613.064 214.668 612.616 216.544 612.616 218.672C612.616 220.8 613.064 222.704 613.96 224.384C614.856 226.008 616.088 227.296 617.656 228.248C619.224 229.144 621.016 229.592 623.032 229.592ZM668.278 239V198.428H679.366V239H668.278ZM673.822 191.876C672.03 191.876 670.546 191.288 669.37 190.112C668.194 188.88 667.606 187.368 667.606 185.576C667.606 183.84 668.194 182.356 669.37 181.124C670.546 179.892 672.03 179.276 673.822 179.276C675.67 179.276 677.154 179.892 678.274 181.124C679.45 182.356 680.038 183.84 680.038 185.576C680.038 187.368 679.45 188.88 678.274 190.112C677.154 191.288 675.67 191.876 673.822 191.876ZM695.078 239V181.544H706.082V239H695.078ZM685.586 208.088V198.428H715.574V208.088H685.586ZM734.886 239.924C732.59 239.924 730.322 239.616 728.082 239C725.898 238.384 723.882 237.544 722.034 236.48C720.186 235.36 718.59 234.016 717.246 232.448L723.798 225.812C725.198 227.38 726.822 228.556 728.67 229.34C730.518 230.124 732.562 230.516 734.802 230.516C736.594 230.516 737.938 230.264 738.834 229.76C739.786 229.256 740.262 228.5 740.262 227.492C740.262 226.372 739.758 225.504 738.75 224.888C737.798 224.272 736.538 223.768 734.97 223.376C733.402 222.928 731.75 222.452 730.014 221.948C728.334 221.388 726.71 220.688 725.142 219.848C723.574 218.952 722.286 217.748 721.278 216.236C720.326 214.668 719.85 212.652 719.85 210.188C719.85 207.612 720.466 205.372 721.698 203.468C722.986 201.564 724.806 200.08 727.158 199.016C729.51 197.952 732.282 197.42 735.474 197.42C738.834 197.42 741.858 198.008 744.546 199.184C747.29 200.36 749.558 202.124 751.35 204.476L744.714 211.112C743.482 209.6 742.082 208.508 740.514 207.836C739.002 207.164 737.35 206.828 735.558 206.828C733.934 206.828 732.674 207.08 731.778 207.584C730.938 208.088 730.518 208.788 730.518 209.684C730.518 210.692 730.994 211.476 731.946 212.036C732.954 212.596 734.242 213.1 735.81 213.548C737.378 213.94 739.002 214.416 740.682 214.976C742.418 215.48 744.042 216.208 745.554 217.16C747.122 218.112 748.382 219.372 749.334 220.94C750.342 222.508 750.846 224.524 750.846 226.988C750.846 230.964 749.418 234.128 746.562 236.48C743.706 238.776 739.814 239.924 734.886 239.924ZM793.741 239.84C789.653 239.84 785.957 238.916 782.653 237.068C779.405 235.164 776.801 232.616 774.841 229.424C772.937 226.176 771.985 222.564 771.985 218.588C771.985 214.612 772.937 211.056 774.841 207.92C776.745 204.728 779.349 202.208 782.653 200.36C785.957 198.456 789.625 197.504 793.657 197.504C797.801 197.504 801.497 198.456 804.745 200.36C808.049 202.208 810.653 204.728 812.557 207.92C814.461 211.056 815.413 214.612 815.413 218.588C815.413 222.564 814.461 226.176 812.557 229.424C810.653 232.616 808.049 235.164 804.745 237.068C801.497 238.916 797.829 239.84 793.741 239.84ZM793.657 229.592C795.729 229.592 797.549 229.144 799.117 228.248C800.741 227.296 801.973 226.008 802.813 224.384C803.709 222.704 804.157 220.8 804.157 218.672C804.157 216.544 803.709 214.668 802.813 213.044C801.917 211.42 800.685 210.16 799.117 209.264C797.549 208.312 795.729 207.836 793.657 207.836C791.641 207.836 789.849 208.312 788.281 209.264C786.713 210.16 785.481 211.42 784.585 213.044C783.689 214.668 783.241 216.544 783.241 218.672C783.241 220.8 783.689 222.704 784.585 224.384C785.481 226.008 786.713 227.296 788.281 228.248C789.849 229.144 791.641 229.592 793.657 229.592ZM832.431 239L817.227 198.428H828.315L838.227 227.912L834.867 227.996L845.031 198.428H853.011L863.175 227.996L859.815 227.912L869.727 198.428H880.815L865.695 239H857.715L847.467 210.944H850.575L840.327 239H832.431ZM913.453 239V215.732C913.453 213.324 912.697 211.364 911.185 209.852C909.673 208.34 907.713 207.584 905.305 207.584C903.737 207.584 902.337 207.92 901.105 208.592C899.873 209.264 898.893 210.216 898.165 211.448C897.493 212.68 897.157 214.108 897.157 215.732L892.873 213.548C892.873 210.356 893.545 207.584 894.889 205.232C896.289 202.824 898.193 200.948 900.601 199.604C903.065 198.26 905.837 197.588 908.917 197.588C911.885 197.588 914.545 198.344 916.897 199.856C919.249 201.312 921.097 203.244 922.441 205.652C923.785 208.004 924.457 210.552 924.457 213.296V239H913.453ZM886.153 239V198.428H897.157V239H886.153ZM972.239 239.84C969.327 239.84 966.695 239.224 964.343 237.992C961.991 236.76 960.115 235.08 958.715 232.952C957.315 230.824 956.559 228.444 956.447 225.812V211.364C956.559 208.732 957.315 206.38 958.715 204.308C960.171 202.18 962.075 200.528 964.427 199.352C966.779 198.176 969.383 197.588 972.239 197.588C975.991 197.588 979.351 198.512 982.319 200.36C985.287 202.208 987.611 204.728 989.291 207.92C991.027 211.112 991.895 214.724 991.895 218.756C991.895 222.732 991.027 226.316 989.291 229.508C987.611 232.7 985.287 235.22 982.319 237.068C979.351 238.916 975.991 239.84 972.239 239.84ZM949.727 239V178.268H960.731V208.424L958.883 218.168L960.647 228.08V239H949.727ZM970.391 229.676C972.407 229.676 974.171 229.228 975.683 228.332C977.251 227.38 978.455 226.092 979.295 224.468C980.191 222.788 980.639 220.856 980.639 218.672C980.639 216.544 980.191 214.668 979.295 213.044C978.455 211.364 977.251 210.076 975.683 209.18C974.115 208.228 972.323 207.752 970.307 207.752C968.291 207.752 966.499 208.228 964.931 209.18C963.419 210.076 962.215 211.364 961.319 213.044C960.479 214.668 960.059 216.544 960.059 218.672C960.059 220.856 960.479 222.788 961.319 224.468C962.215 226.092 963.447 227.38 965.015 228.332C966.583 229.228 968.375 229.676 970.391 229.676ZM999.11 239V198.428H1010.2V239H999.11ZM1004.65 191.876C1002.86 191.876 1001.38 191.288 1000.2 190.112C999.026 188.88 998.438 187.368 998.438 185.576C998.438 183.84 999.026 182.356 1000.2 181.124C1001.38 179.892 1002.86 179.276 1004.65 179.276C1006.5 179.276 1007.99 179.892 1009.11 181.124C1010.28 182.356 1010.87 183.84 1010.87 185.576C1010.87 187.368 1010.28 188.88 1009.11 190.112C1007.99 191.288 1006.5 191.876 1004.65 191.876ZM1047.25 239V215.732C1047.25 213.324 1046.49 211.364 1044.98 209.852C1043.47 208.34 1041.51 207.584 1039.1 207.584C1037.53 207.584 1036.13 207.92 1034.9 208.592C1033.67 209.264 1032.69 210.216 1031.96 211.448C1031.29 212.68 1030.95 214.108 1030.95 215.732L1026.67 213.548C1026.67 210.356 1027.34 207.584 1028.68 205.232C1030.08 202.824 1031.99 200.948 1034.39 199.604C1036.86 198.26 1039.63 197.588 1042.71 197.588C1045.68 197.588 1048.34 198.344 1050.69 199.856C1053.04 201.312 1054.89 203.244 1056.23 205.652C1057.58 208.004 1058.25 210.552 1058.25 213.296V239H1047.25ZM1019.95 239V198.428H1030.95V239H1019.95ZM1084.08 239.84C1080.39 239.84 1077.05 238.916 1074.09 237.068C1071.12 235.22 1068.79 232.7 1067.11 229.508C1065.43 226.316 1064.59 222.732 1064.59 218.756C1064.59 214.724 1065.43 211.112 1067.11 207.92C1068.79 204.728 1071.12 202.208 1074.09 200.36C1077.05 198.512 1080.39 197.588 1084.08 197.588C1086.99 197.588 1089.6 198.176 1091.89 199.352C1094.19 200.528 1096.01 202.18 1097.35 204.308C1098.75 206.38 1099.51 208.732 1099.62 211.364V225.98C1099.51 228.668 1098.75 231.048 1097.35 233.12C1096.01 235.192 1094.19 236.844 1091.89 238.076C1089.6 239.252 1086.99 239.84 1084.08 239.84ZM1086.1 229.676C1089.18 229.676 1091.67 228.668 1093.57 226.652C1095.48 224.58 1096.43 221.92 1096.43 218.672C1096.43 216.544 1095.98 214.668 1095.09 213.044C1094.25 211.364 1093.04 210.076 1091.47 209.18C1089.96 208.228 1088.17 207.752 1086.1 207.752C1084.08 207.752 1082.29 208.228 1080.72 209.18C1079.21 210.076 1078.01 211.364 1077.11 213.044C1076.27 214.668 1075.85 216.544 1075.85 218.672C1075.85 220.856 1076.27 222.788 1077.11 224.468C1078.01 226.092 1079.21 227.38 1080.72 228.332C1082.29 229.228 1084.08 229.676 1086.1 229.676ZM1095.84 239V228.08L1097.61 218.168L1095.84 208.424V198.428H1106.76V239H1095.84ZM1116.5 239V198.428H1127.5V239H1116.5ZM1127.5 216.572L1123.22 213.716C1123.72 208.732 1125.18 204.812 1127.59 201.956C1129.99 199.044 1133.47 197.588 1138 197.588C1139.96 197.588 1141.73 197.924 1143.29 198.596C1144.86 199.212 1146.29 200.248 1147.58 201.704L1140.69 209.6C1140.07 208.928 1139.32 208.424 1138.42 208.088C1137.58 207.752 1136.6 207.584 1135.48 207.584C1133.13 207.584 1131.2 208.34 1129.69 209.852C1128.23 211.308 1127.5 213.548 1127.5 216.572ZM1163.8 239.336L1146.83 198.428H1158.76L1170.02 229.676H1165.98L1177.66 198.428H1189.67L1171.61 239.336H1163.8ZM1152.54 255.968L1164.89 229.844L1171.61 239.336L1164.22 255.968H1152.54Z" fill="white"/>
<path d="M514.4 349.36C512.624 349.36 510.968 349.036 509.432 348.388C507.92 347.74 506.6 346.828 505.472 345.652C504.344 344.476 503.468 343.12 502.844 341.584C502.244 340.024 501.944 338.356 501.944 336.58C501.944 334.804 502.244 333.148 502.844 331.612C503.468 330.052 504.332 328.696 505.436 327.544C506.564 326.392 507.884 325.492 509.396 324.844C510.908 324.196 512.54 323.872 514.292 323.872C516.188 323.872 517.88 324.208 519.368 324.88C520.88 325.552 522.2 326.476 523.328 327.652L521.528 329.452C520.664 328.492 519.62 327.748 518.396 327.22C517.172 326.668 515.804 326.392 514.292 326.392C512.9 326.392 511.616 326.644 510.44 327.148C509.288 327.652 508.268 328.372 507.38 329.308C506.516 330.22 505.844 331.3 505.364 332.548C504.908 333.772 504.68 335.116 504.68 336.58C504.68 338.044 504.92 339.4 505.4 340.648C505.88 341.896 506.552 342.988 507.416 343.924C508.28 344.836 509.3 345.544 510.476 346.048C511.652 346.552 512.936 346.804 514.328 346.804C515.912 346.804 517.316 346.528 518.54 345.976C519.788 345.424 520.844 344.668 521.708 343.708L523.508 345.544C522.404 346.72 521.084 347.656 519.548 348.352C518.012 349.024 516.296 349.36 514.4 349.36ZM527.517 349V332.08H530.037V349H527.517ZM530.037 339.136L528.993 338.668C528.993 336.532 529.509 334.84 530.541 333.592C531.597 332.344 533.037 331.72 534.861 331.72C535.701 331.72 536.469 331.876 537.165 332.188C537.861 332.476 538.509 332.944 539.109 333.592L537.453 335.356C537.045 334.9 536.589 334.576 536.085 334.384C535.605 334.192 535.053 334.096 534.429 334.096C533.133 334.096 532.077 334.528 531.261 335.392C530.445 336.232 530.037 337.48 530.037 339.136ZM549.005 349.36C547.301 349.36 545.777 348.976 544.433 348.208C543.089 347.44 542.021 346.384 541.229 345.04C540.461 343.696 540.077 342.184 540.077 340.504C540.077 338.848 540.461 337.36 541.229 336.04C541.997 334.696 543.041 333.64 544.361 332.872C545.681 332.104 547.157 331.72 548.789 331.72C550.325 331.72 551.681 332.068 552.857 332.764C554.057 333.46 554.993 334.432 555.665 335.68C556.361 336.904 556.709 338.32 556.709 339.928C556.709 340.12 556.697 340.348 556.673 340.612C556.649 340.852 556.601 341.14 556.529 341.476H541.877V339.316H555.161L554.261 340.108C554.285 338.86 554.069 337.792 553.613 336.904C553.181 335.992 552.545 335.296 551.705 334.816C550.889 334.312 549.893 334.06 548.717 334.06C547.493 334.06 546.425 334.324 545.513 334.852C544.601 335.38 543.881 336.124 543.353 337.084C542.849 338.02 542.597 339.136 542.597 340.432C542.597 341.728 542.861 342.868 543.389 343.852C543.941 344.836 544.697 345.604 545.657 346.156C546.641 346.708 547.769 346.984 549.041 346.984C550.073 346.984 551.021 346.804 551.885 346.444C552.749 346.06 553.481 345.496 554.081 344.752L555.701 346.408C554.909 347.344 553.925 348.076 552.749 348.604C551.597 349.108 550.349 349.36 549.005 349.36ZM567.908 349.36C566.3 349.36 564.86 348.976 563.588 348.208C562.316 347.416 561.308 346.36 560.564 345.04C559.844 343.72 559.484 342.232 559.484 340.576C559.484 338.896 559.844 337.396 560.564 336.076C561.308 334.732 562.316 333.676 563.588 332.908C564.86 332.116 566.288 331.72 567.872 331.72C569.168 331.72 570.32 331.984 571.328 332.512C572.36 333.016 573.188 333.736 573.812 334.672C574.46 335.584 574.856 336.652 575 337.876V343.168C574.856 344.392 574.46 345.472 573.812 346.408C573.188 347.344 572.36 348.076 571.328 348.604C570.32 349.108 569.18 349.36 567.908 349.36ZM568.304 346.948C570.056 346.948 571.46 346.36 572.516 345.184C573.596 344.008 574.136 342.46 574.136 340.54C574.136 339.268 573.884 338.152 573.38 337.192C572.9 336.208 572.216 335.452 571.328 334.924C570.464 334.372 569.444 334.096 568.268 334.096C567.068 334.096 566 334.372 565.064 334.924C564.152 335.476 563.42 336.244 562.868 337.228C562.34 338.188 562.076 339.292 562.076 340.54C562.076 341.788 562.34 342.892 562.868 343.852C563.42 344.812 564.164 345.568 565.1 346.12C566.036 346.672 567.104 346.948 568.304 346.948ZM573.992 349V344.464L574.496 340.288L573.992 336.22V332.08H576.512V349H573.992ZM584.11 349V324.952H586.63V349H584.11ZM579.826 334.348V332.08H590.878V334.348H579.826ZM601.563 349.36C599.859 349.36 598.335 348.976 596.991 348.208C595.647 347.44 594.579 346.384 593.787 345.04C593.019 343.696 592.635 342.184 592.635 340.504C592.635 338.848 593.019 337.36 593.787 336.04C594.555 334.696 595.599 333.64 596.919 332.872C598.239 332.104 599.715 331.72 601.347 331.72C602.883 331.72 604.239 332.068 605.415 332.764C606.615 333.46 607.551 334.432 608.223 335.68C608.919 336.904 609.267 338.32 609.267 339.928C609.267 340.12 609.255 340.348 609.231 340.612C609.207 340.852 609.159 341.14 609.087 341.476H594.435V339.316H607.719L606.819 340.108C606.843 338.86 606.627 337.792 606.171 336.904C605.739 335.992 605.103 335.296 604.263 334.816C603.447 334.312 602.451 334.06 601.275 334.06C600.051 334.06 598.983 334.324 598.071 334.852C597.159 335.38 596.439 336.124 595.911 337.084C595.407 338.02 595.155 339.136 595.155 340.432C595.155 341.728 595.419 342.868 595.947 343.852C596.499 344.836 597.255 345.604 598.215 346.156C599.199 346.708 600.327 346.984 601.599 346.984C602.631 346.984 603.579 346.804 604.443 346.444C605.307 346.06 606.039 345.496 606.639 344.752L608.259 346.408C607.467 347.344 606.483 348.076 605.307 348.604C604.155 349.108 602.907 349.36 601.563 349.36ZM628.201 349.36C626.593 349.36 625.153 348.976 623.881 348.208C622.609 347.416 621.601 346.36 620.857 345.04C620.137 343.72 619.777 342.232 619.777 340.576C619.777 338.896 620.137 337.396 620.857 336.076C621.601 334.732 622.609 333.676 623.881 332.908C625.153 332.116 626.581 331.72 628.165 331.72C629.461 331.72 630.613 331.984 631.621 332.512C632.653 333.016 633.481 333.736 634.105 334.672C634.753 335.584 635.149 336.652 635.293 337.876V343.168C635.149 344.392 634.753 345.472 634.105 346.408C633.481 347.344 632.653 348.076 631.621 348.604C630.613 349.108 629.473 349.36 628.201 349.36ZM628.597 346.948C630.349 346.948 631.753 346.36 632.809 345.184C633.889 344.008 634.429 342.46 634.429 340.54C634.429 339.268 634.177 338.152 633.673 337.192C633.193 336.208 632.509 335.452 631.621 334.924C630.757 334.372 629.737 334.096 628.561 334.096C627.361 334.096 626.293 334.372 625.357 334.924C624.445 335.476 623.713 336.244 623.161 337.228C622.633 338.188 622.369 339.292 622.369 340.54C622.369 341.788 622.633 342.892 623.161 343.852C623.713 344.812 624.457 345.568 625.393 346.12C626.329 346.672 627.397 346.948 628.597 346.948ZM634.285 349V344.464L634.789 340.288L634.285 336.22V332.08H636.805V349H634.285ZM654.366 349L647.85 332.08H650.478L655.626 346.12L654.69 346.156L659.802 332.08H661.278L666.39 346.156L665.454 346.12L670.566 332.08H673.23L666.678 349H665.202L659.982 335.14H661.062L655.878 349H654.366ZM688.821 349V339.064C688.821 337.576 688.377 336.376 687.489 335.464C686.625 334.528 685.473 334.06 684.033 334.06C683.049 334.06 682.185 334.276 681.441 334.708C680.697 335.14 680.109 335.728 679.677 336.472C679.245 337.216 679.029 338.068 679.029 339.028L677.877 338.38C677.877 337.108 678.177 335.968 678.777 334.96C679.377 333.952 680.181 333.16 681.189 332.584C682.221 332.008 683.397 331.72 684.717 331.72C686.013 331.72 687.165 332.02 688.173 332.62C689.181 333.196 689.961 334 690.513 335.032C691.089 336.064 691.377 337.264 691.377 338.632V349H688.821ZM676.509 349V323.512H679.029V349H676.509ZM703.759 349.36C702.127 349.36 700.639 348.964 699.295 348.172C697.975 347.38 696.919 346.312 696.127 344.968C695.359 343.624 694.975 342.124 694.975 340.468C694.975 338.836 695.359 337.36 696.127 336.04C696.919 334.72 697.975 333.676 699.295 332.908C700.639 332.116 702.127 331.72 703.759 331.72C705.415 331.72 706.903 332.104 708.223 332.872C709.543 333.64 710.587 334.696 711.355 336.04C712.147 337.36 712.543 338.836 712.543 340.468C712.543 342.148 712.147 343.66 711.355 345.004C710.587 346.324 709.543 347.38 708.223 348.172C706.903 348.964 705.415 349.36 703.759 349.36ZM703.759 346.912C704.959 346.912 706.015 346.636 706.927 346.084C707.863 345.532 708.595 344.764 709.123 343.78C709.675 342.796 709.951 341.692 709.951 340.468C709.951 339.244 709.675 338.164 709.123 337.228C708.595 336.268 707.863 335.512 706.927 334.96C706.015 334.408 704.959 334.132 703.759 334.132C702.583 334.132 701.527 334.408 700.591 334.96C699.655 335.512 698.923 336.268 698.395 337.228C697.867 338.164 697.603 339.244 697.603 340.468C697.603 341.716 697.867 342.832 698.395 343.816C698.923 344.776 699.655 345.532 700.591 346.084C701.527 346.636 702.583 346.912 703.759 346.912ZM716.552 349V323.512H719.072V349H716.552ZM731.993 349.36C730.289 349.36 728.765 348.976 727.421 348.208C726.077 347.44 725.009 346.384 724.217 345.04C723.449 343.696 723.065 342.184 723.065 340.504C723.065 338.848 723.449 337.36 724.217 336.04C724.985 334.696 726.029 333.64 727.349 332.872C728.669 332.104 730.145 331.72 731.777 331.72C733.313 331.72 734.669 332.068 735.845 332.764C737.045 333.46 737.981 334.432 738.653 335.68C739.349 336.904 739.697 338.32 739.697 339.928C739.697 340.12 739.685 340.348 739.661 340.612C739.637 340.852 739.589 341.14 739.517 341.476H724.865V339.316H738.149L737.249 340.108C737.273 338.86 737.057 337.792 736.601 336.904C736.169 335.992 735.533 335.296 734.693 334.816C733.877 334.312 732.881 334.06 731.705 334.06C730.481 334.06 729.413 334.324 728.501 334.852C727.589 335.38 726.869 336.124 726.341 337.084C725.837 338.02 725.585 339.136 725.585 340.432C725.585 341.728 725.849 342.868 726.377 343.852C726.929 344.836 727.685 345.604 728.645 346.156C729.629 346.708 730.757 346.984 732.029 346.984C733.061 346.984 734.009 346.804 734.873 346.444C735.737 346.06 736.469 345.496 737.069 344.752L738.689 346.408C737.897 347.344 736.913 348.076 735.737 348.604C734.585 349.108 733.337 349.36 731.993 349.36ZM763.598 349V339.064C763.598 337.576 763.154 336.376 762.266 335.464C761.402 334.528 760.25 334.06 758.81 334.06C757.826 334.06 756.962 334.276 756.218 334.708C755.474 335.14 754.886 335.728 754.454 336.472C754.022 337.216 753.806 338.068 753.806 339.028L752.654 338.38C752.654 337.108 752.954 335.968 753.554 334.96C754.154 333.952 754.958 333.16 755.966 332.584C756.998 332.008 758.174 331.72 759.494 331.72C760.79 331.72 761.942 332.032 762.95 332.656C763.958 333.28 764.738 334.12 765.29 335.176C765.866 336.232 766.154 337.384 766.154 338.632V349H763.598ZM751.286 349V332.08H753.806V349H751.286ZM778.681 349.36C776.977 349.36 775.453 348.976 774.109 348.208C772.765 347.44 771.697 346.384 770.905 345.04C770.137 343.696 769.753 342.184 769.753 340.504C769.753 338.848 770.137 337.36 770.905 336.04C771.673 334.696 772.717 333.64 774.037 332.872C775.357 332.104 776.833 331.72 778.465 331.72C780.001 331.72 781.357 332.068 782.533 332.764C783.733 333.46 784.669 334.432 785.341 335.68C786.037 336.904 786.385 338.32 786.385 339.928C786.385 340.12 786.373 340.348 786.349 340.612C786.325 340.852 786.277 341.14 786.205 341.476H771.553V339.316H784.837L783.937 340.108C783.961 338.86 783.745 337.792 783.289 336.904C782.857 335.992 782.221 335.296 781.381 334.816C780.565 334.312 779.569 334.06 778.393 334.06C777.169 334.06 776.101 334.324 775.189 334.852C774.277 335.38 773.557 336.124 773.029 337.084C772.525 338.02 772.273 339.136 772.273 340.432C772.273 341.728 772.537 342.868 773.064 343.852C773.617 344.836 774.373 345.604 775.333 346.156C776.317 346.708 777.445 346.984 778.717 346.984C779.749 346.984 780.697 346.804 781.561 346.444C782.425 346.06 783.157 345.496 783.757 344.752L785.377 346.408C784.585 347.344 783.601 348.076 782.425 348.604C781.273 349.108 780.025 349.36 778.681 349.36ZM794.745 349L788.229 332.08H790.857L796.005 346.12L795.069 346.156L800.181 332.08H801.657L806.769 346.156L805.833 346.12L810.945 332.08H813.609L807.057 349H805.581L800.361 335.14H801.441L796.257 349H794.745ZM829.806 349.36C828.894 349.36 828.018 349.24 827.178 349C826.338 348.736 825.57 348.376 824.874 347.92C824.202 347.464 823.614 346.924 823.11 346.3L824.73 344.644C825.402 345.46 826.158 346.072 826.998 346.48C827.862 346.864 828.822 347.056 829.878 347.056C831.006 347.056 831.882 346.84 832.506 346.408C833.154 345.976 833.478 345.376 833.478 344.608C833.478 343.888 833.25 343.324 832.794 342.916C832.338 342.508 831.75 342.184 831.03 341.944C830.334 341.704 829.59 341.476 828.798 341.26C828.006 341.02 827.25 340.732 826.53 340.396C825.81 340.036 825.222 339.544 824.766 338.92C824.334 338.296 824.118 337.48 824.118 336.472C824.118 335.512 824.346 334.684 824.802 333.988C825.282 333.268 825.954 332.716 826.818 332.332C827.706 331.924 828.75 331.72 829.95 331.72C831.222 331.72 832.374 331.948 833.406 332.404C834.438 332.86 835.266 333.532 835.89 334.42L834.27 336.04C833.766 335.392 833.13 334.9 832.362 334.564C831.618 334.204 830.778 334.024 829.842 334.024C828.762 334.024 827.934 334.24 827.358 334.672C826.806 335.08 826.53 335.62 826.53 336.292C826.53 336.94 826.758 337.456 827.214 337.84C827.67 338.2 828.246 338.5 828.942 338.74C829.662 338.956 830.418 339.184 831.21 339.424C832.002 339.64 832.758 339.94 833.478 340.324C834.198 340.684 834.774 341.188 835.206 341.836C835.662 342.46 835.89 343.312 835.89 344.392C835.89 345.904 835.338 347.116 834.234 348.028C833.154 348.916 831.678 349.36 829.806 349.36ZM848.628 349.36C847.332 349.36 846.168 349.096 845.136 348.568C844.104 348.04 843.252 347.32 842.58 346.408C841.932 345.472 841.536 344.392 841.392 343.168V337.876C841.536 336.628 841.944 335.548 842.616 334.636C843.288 333.7 844.14 332.98 845.172 332.476C846.228 331.972 847.38 331.72 848.628 331.72C850.188 331.72 851.592 332.116 852.84 332.908C854.088 333.676 855.072 334.732 855.792 336.076C856.536 337.396 856.908 338.896 856.908 340.576C856.908 342.232 856.548 343.72 855.828 345.04C855.108 346.36 854.112 347.416 852.84 348.208C851.592 348.976 850.188 349.36 848.628 349.36ZM839.88 356.128V332.08H842.4V336.4L841.896 340.504L842.4 344.644V356.128H839.88ZM848.196 346.948C849.396 346.948 850.452 346.684 851.364 346.156C852.276 345.604 852.984 344.848 853.488 343.888C854.016 342.904 854.28 341.788 854.28 340.54C854.28 339.268 854.016 338.152 853.488 337.192C852.984 336.232 852.276 335.476 851.364 334.924C850.452 334.372 849.408 334.096 848.232 334.096C847.056 334.096 846.012 334.372 845.1 334.924C844.212 335.476 843.516 336.232 843.012 337.192C842.508 338.152 842.256 339.268 842.256 340.54C842.256 341.788 842.508 342.904 843.012 343.888C843.516 344.848 844.212 345.604 845.1 346.156C845.988 346.684 847.02 346.948 848.196 346.948ZM868.751 349.36C867.047 349.36 865.523 348.976 864.179 348.208C862.835 347.44 861.767 346.384 860.975 345.04C860.207 343.696 859.823 342.184 859.823 340.504C859.823 338.848 860.207 337.36 860.975 336.04C861.743 334.696 862.787 333.64 864.107 332.872C865.427 332.104 866.903 331.72 868.535 331.72C870.071 331.72 871.427 332.068 872.603 332.764C873.803 333.46 874.739 334.432 875.411 335.68C876.107 336.904 876.455 338.32 876.455 339.928C876.455 340.12 876.443 340.348 876.419 340.612C876.395 340.852 876.347 341.14 876.275 341.476H861.623V339.316H874.907L874.007 340.108C874.031 338.86 873.815 337.792 873.359 336.904C872.927 335.992 872.291 335.296 871.451 334.816C870.635 334.312 869.639 334.06 868.463 334.06C867.239 334.06 866.171 334.324 865.259 334.852C864.347 335.38 863.627 336.124 863.099 337.084C862.595 338.02 862.343 339.136 862.343 340.432C862.343 341.728 862.607 342.868 863.135 343.852C863.687 344.836 864.443 345.604 865.403 346.156C866.387 346.708 867.515 346.984 868.787 346.984C869.819 346.984 870.767 346.804 871.631 346.444C872.495 346.06 873.227 345.496 873.827 344.752L875.447 346.408C874.655 347.344 873.671 348.076 872.495 348.604C871.343 349.108 870.095 349.36 868.751 349.36ZM888.014 349.36C886.358 349.36 884.858 348.976 883.514 348.208C882.194 347.416 881.138 346.348 880.346 345.004C879.578 343.66 879.194 342.16 879.194 340.504C879.194 338.848 879.578 337.36 880.346 336.04C881.138 334.696 882.194 333.64 883.514 332.872C884.858 332.104 886.358 331.72 888.014 331.72C889.286 331.72 890.474 331.96 891.578 332.44C892.682 332.92 893.618 333.592 894.386 334.456L892.73 336.148C892.154 335.5 891.458 335.008 890.642 334.672C889.826 334.312 888.95 334.132 888.014 334.132C886.814 334.132 885.746 334.408 884.81 334.96C883.874 335.512 883.142 336.268 882.614 337.228C882.086 338.164 881.822 339.256 881.822 340.504C881.822 341.728 882.086 342.832 882.614 343.816C883.142 344.776 883.874 345.532 884.81 346.084C885.746 346.636 886.814 346.912 888.014 346.912C888.974 346.912 889.862 346.744 890.678 346.408C891.494 346.048 892.19 345.544 892.766 344.896L894.458 346.588C893.666 347.476 892.706 348.16 891.578 348.64C890.474 349.12 889.286 349.36 888.014 349.36ZM897.994 349V332.08H900.55V349H897.994ZM899.254 328.408C898.774 328.408 898.366 328.24 898.03 327.904C897.694 327.544 897.526 327.124 897.526 326.644C897.526 326.14 897.694 325.72 898.03 325.384C898.366 325.048 898.774 324.88 899.254 324.88C899.782 324.88 900.202 325.048 900.514 325.384C900.85 325.72 901.018 326.14 901.018 326.644C901.018 327.124 900.85 327.544 900.514 327.904C900.202 328.24 899.782 328.408 899.254 328.408ZM913.47 349.36C911.766 349.36 910.242 348.976 908.898 348.208C907.554 347.44 906.486 346.384 905.694 345.04C904.926 343.696 904.542 342.184 904.542 340.504C904.542 338.848 904.926 337.36 905.694 336.04C906.462 334.696 907.506 333.64 908.826 332.872C910.146 332.104 911.622 331.72 913.254 331.72C914.79 331.72 916.146 332.068 917.322 332.764C918.522 333.46 919.458 334.432 920.13 335.68C920.826 336.904 921.174 338.32 921.174 339.928C921.174 340.12 921.162 340.348 921.138 340.612C921.114 340.852 921.066 341.14 920.994 341.476H906.342V339.316H919.626L918.726 340.108C918.75 338.86 918.534 337.792 918.078 336.904C917.646 335.992 917.01 335.296 916.17 334.816C915.354 334.312 914.358 334.06 913.182 334.06C911.958 334.06 910.89 334.324 909.978 334.852C909.066 335.38 908.346 336.124 907.818 337.084C907.314 338.02 907.062 339.136 907.062 340.432C907.062 341.728 907.326 342.868 907.854 343.852C908.406 344.836 909.162 345.604 910.122 346.156C911.106 346.708 912.234 346.984 913.506 346.984C914.538 346.984 915.486 346.804 916.35 346.444C917.214 346.06 917.946 345.496 918.546 344.752L920.166 346.408C919.374 347.344 918.39 348.076 917.214 348.604C916.062 349.108 914.814 349.36 913.47 349.36ZM930.213 349.36C929.301 349.36 928.425 349.24 927.585 349C926.745 348.736 925.977 348.376 925.281 347.92C924.609 347.464 924.021 346.924 923.517 346.3L925.137 344.644C925.809 345.46 926.565 346.072 927.405 346.48C928.269 346.864 929.229 347.056 930.285 347.056C931.413 347.056 932.289 346.84 932.913 346.408C933.561 345.976 933.885 345.376 933.885 344.608C933.885 343.888 933.657 343.324 933.201 342.916C932.745 342.508 932.157 342.184 931.437 341.944C930.741 341.704 929.997 341.476 929.205 341.26C928.413 341.02 927.657 340.732 926.937 340.396C926.217 340.036 925.629 339.544 925.173 338.92C924.741 338.296 924.525 337.48 924.525 336.472C924.525 335.512 924.753 334.684 925.209 333.988C925.689 333.268 926.361 332.716 927.225 332.332C928.113 331.924 929.157 331.72 930.357 331.72C931.629 331.72 932.781 331.948 933.813 332.404C934.845 332.86 935.673 333.532 936.297 334.42L934.677 336.04C934.173 335.392 933.537 334.9 932.769 334.564C932.025 334.204 931.185 334.024 930.249 334.024C929.169 334.024 928.341 334.24 927.765 334.672C927.213 335.08 926.937 335.62 926.937 336.292C926.937 336.94 927.165 337.456 927.621 337.84C928.077 338.2 928.653 338.5 929.349 338.74C930.069 338.956 930.825 339.184 931.617 339.424C932.409 339.64 933.165 339.94 933.885 340.324C934.605 340.684 935.181 341.188 935.613 341.836C936.069 342.46 936.297 343.312 936.297 344.392C936.297 345.904 935.745 347.116 934.641 348.028C933.561 348.916 932.085 349.36 930.213 349.36ZM955.689 349.36C954.057 349.36 952.569 348.964 951.225 348.172C949.905 347.38 948.849 346.312 948.057 344.968C947.289 343.624 946.905 342.124 946.905 340.468C946.905 338.836 947.289 337.36 948.057 336.04C948.849 334.72 949.905 333.676 951.225 332.908C952.569 332.116 954.057 331.72 955.689 331.72C957.345 331.72 958.833 332.104 960.153 332.872C961.473 333.64 962.517 334.696 963.285 336.04C964.077 337.36 964.473 338.836 964.473 340.468C964.473 342.148 964.077 343.66 963.285 345.004C962.517 346.324 961.473 347.38 960.153 348.172C958.833 348.964 957.345 349.36 955.689 349.36ZM955.689 346.912C956.889 346.912 957.945 346.636 958.857 346.084C959.793 345.532 960.525 344.764 961.053 343.78C961.605 342.796 961.881 341.692 961.881 340.468C961.881 339.244 961.605 338.164 961.053 337.228C960.525 336.268 959.793 335.512 958.857 334.96C957.945 334.408 956.889 334.132 955.689 334.132C954.513 334.132 953.457 334.408 952.521 334.96C951.585 335.512 950.853 336.268 950.325 337.228C949.797 338.164 949.533 339.244 949.533 340.468C949.533 341.716 949.797 342.832 950.325 343.816C950.853 344.776 951.585 345.532 952.521 346.084C953.457 346.636 954.513 346.912 955.689 346.912ZM970.368 349V329.2C970.368 328.024 970.62 326.98 971.124 326.068C971.652 325.156 972.372 324.448 973.284 323.944C974.22 323.416 975.276 323.152 976.452 323.152C977.364 323.152 978.168 323.32 978.864 323.656C979.56 323.968 980.196 324.412 980.772 324.988L979.116 326.644C978.732 326.26 978.324 325.984 977.892 325.816C977.484 325.624 977.004 325.528 976.452 325.528C975.324 325.528 974.448 325.864 973.824 326.536C973.224 327.184 972.924 328.096 972.924 329.272V349H970.368ZM966.12 334.348V332.08H978.576V334.348H966.12ZM994.538 349L988.022 332.08H990.65L995.798 346.12L994.862 346.156L999.974 332.08H1001.45L1006.56 346.156L1005.63 346.12L1010.74 332.08H1013.4L1006.85 349H1005.37L1000.15 335.14H1001.23L996.05 349H994.538ZM1023.93 349.36C1022.23 349.36 1020.7 348.976 1019.36 348.208C1018.01 347.44 1016.95 346.384 1016.15 345.04C1015.39 343.696 1015 342.184 1015 340.504C1015 338.848 1015.39 337.36 1016.15 336.04C1016.92 334.696 1017.97 333.64 1019.29 332.872C1020.61 332.104 1022.08 331.72 1023.71 331.72C1025.25 331.72 1026.61 332.068 1027.78 332.764C1028.98 333.46 1029.92 334.432 1030.59 335.68C1031.29 336.904 1031.63 338.32 1031.63 339.928C1031.63 340.12 1031.62 340.348 1031.6 340.612C1031.57 340.852 1031.53 341.14 1031.45 341.476H1016.8V339.316H1030.09L1029.19 340.108C1029.21 338.86 1028.99 337.792 1028.54 336.904C1028.11 335.992 1027.47 335.296 1026.63 334.816C1025.81 334.312 1024.82 334.06 1023.64 334.06C1022.42 334.06 1021.35 334.324 1020.44 334.852C1019.53 335.38 1018.81 336.124 1018.28 337.084C1017.77 338.02 1017.52 339.136 1017.52 340.432C1017.52 341.728 1017.79 342.868 1018.31 343.852C1018.87 344.836 1019.62 345.604 1020.58 346.156C1021.57 346.708 1022.69 346.984 1023.97 346.984C1025 346.984 1025.95 346.804 1026.81 346.444C1027.67 346.06 1028.41 345.496 1029.01 344.752L1030.63 346.408C1029.83 347.344 1028.85 348.076 1027.67 348.604C1026.52 349.108 1025.27 349.36 1023.93 349.36ZM1044.24 349.36C1042.94 349.36 1041.78 349.096 1040.75 348.568C1039.71 348.04 1038.86 347.32 1038.19 346.408C1037.54 345.472 1037.15 344.392 1037 343.168V337.876C1037.15 336.628 1037.55 335.548 1038.23 334.636C1038.9 333.7 1039.75 332.98 1040.78 332.476C1041.84 331.972 1042.99 331.72 1044.24 331.72C1045.8 331.72 1047.2 332.116 1048.45 332.908C1049.7 333.676 1050.68 334.732 1051.4 336.076C1052.15 337.396 1052.52 338.896 1052.52 340.576C1052.52 342.232 1052.16 343.72 1051.44 345.04C1050.72 346.36 1049.72 347.416 1048.45 348.208C1047.2 348.976 1045.8 349.36 1044.24 349.36ZM1035.49 349V323.512H1038.01V336.22L1037.51 340.288L1038.01 344.464V349H1035.49ZM1043.81 346.948C1045.01 346.948 1046.06 346.684 1046.97 346.156C1047.89 345.604 1048.59 344.848 1049.1 343.888C1049.63 342.904 1049.89 341.788 1049.89 340.54C1049.89 339.268 1049.63 338.152 1049.1 337.192C1048.59 336.232 1047.89 335.476 1046.97 334.924C1046.06 334.372 1045.02 334.096 1043.84 334.096C1042.67 334.096 1041.62 334.372 1040.71 334.924C1039.82 335.476 1039.13 336.232 1038.62 337.192C1038.12 338.152 1037.87 339.268 1037.87 340.54C1037.87 341.788 1038.12 342.904 1038.62 343.888C1039.13 344.848 1039.82 345.604 1040.71 346.156C1041.6 346.684 1042.63 346.948 1043.81 346.948ZM1063.89 349.36C1062.28 349.36 1060.84 348.976 1059.57 348.208C1058.3 347.416 1057.29 346.36 1056.55 345.04C1055.83 343.72 1055.47 342.232 1055.47 340.576C1055.47 338.896 1055.83 337.396 1056.55 336.076C1057.29 334.732 1058.3 333.676 1059.57 332.908C1060.84 332.116 1062.27 331.72 1063.86 331.72C1065.15 331.72 1066.3 331.984 1067.31 332.512C1068.34 333.016 1069.17 333.736 1069.8 334.672C1070.44 335.584 1070.84 336.652 1070.98 337.876V343.168C1070.84 344.392 1070.44 345.472 1069.8 346.408C1069.17 347.344 1068.34 348.076 1067.31 348.604C1066.3 349.108 1065.16 349.36 1063.89 349.36ZM1064.29 346.948C1066.04 346.948 1067.44 346.36 1068.5 345.184C1069.58 344.008 1070.12 342.46 1070.12 340.54C1070.12 339.268 1069.87 338.152 1069.36 337.192C1068.88 336.208 1068.2 335.452 1067.31 334.924C1066.45 334.372 1065.43 334.096 1064.25 334.096C1063.05 334.096 1061.98 334.372 1061.05 334.924C1060.14 335.476 1059.4 336.244 1058.85 337.228C1058.32 338.188 1058.06 339.292 1058.06 340.54C1058.06 341.788 1058.32 342.892 1058.85 343.852C1059.4 344.812 1060.15 345.568 1061.08 346.12C1062.02 346.672 1063.09 346.948 1064.29 346.948ZM1069.98 349V344.464L1070.48 340.288L1069.98 336.22V332.08H1072.5V349H1069.98ZM1086.35 349.36C1085.06 349.36 1083.89 349.096 1082.86 348.568C1081.83 348.04 1080.98 347.32 1080.31 346.408C1079.66 345.472 1079.26 344.392 1079.12 343.168V337.876C1079.26 336.628 1079.67 335.548 1080.34 334.636C1081.01 333.7 1081.87 332.98 1082.9 332.476C1083.95 331.972 1085.11 331.72 1086.35 331.72C1087.91 331.72 1089.32 332.116 1090.57 332.908C1091.81 333.676 1092.8 334.732 1093.52 336.076C1094.26 337.396 1094.63 338.896 1094.63 340.576C1094.63 342.232 1094.27 343.72 1093.55 345.04C1092.83 346.36 1091.84 347.416 1090.57 348.208C1089.32 348.976 1087.91 349.36 1086.35 349.36ZM1077.61 356.128V332.08H1080.13V336.4L1079.62 340.504L1080.13 344.644V356.128H1077.61ZM1085.92 346.948C1087.12 346.948 1088.18 346.684 1089.09 346.156C1090 345.604 1090.71 344.848 1091.21 343.888C1091.74 342.904 1092.01 341.788 1092.01 340.54C1092.01 339.268 1091.74 338.152 1091.21 337.192C1090.71 336.232 1090 335.476 1089.09 334.924C1088.18 334.372 1087.13 334.096 1085.96 334.096C1084.78 334.096 1083.74 334.372 1082.83 334.924C1081.94 335.476 1081.24 336.232 1080.74 337.192C1080.23 338.152 1079.98 339.268 1079.98 340.54C1079.98 341.788 1080.23 342.904 1080.74 343.888C1081.24 344.848 1081.94 345.604 1082.83 346.156C1083.71 346.684 1084.75 346.948 1085.92 346.948ZM1107.41 349.36C1106.12 349.36 1104.95 349.096 1103.92 348.568C1102.89 348.04 1102.04 347.32 1101.37 346.408C1100.72 345.472 1100.32 344.392 1100.18 343.168V337.876C1100.32 336.628 1100.73 335.548 1101.4 334.636C1102.07 333.7 1102.93 332.98 1103.96 332.476C1105.01 331.972 1106.17 331.72 1107.41 331.72C1108.97 331.72 1110.38 332.116 1111.63 332.908C1112.87 333.676 1113.86 334.732 1114.58 336.076C1115.32 337.396 1115.69 338.896 1115.69 340.576C1115.69 342.232 1115.33 343.72 1114.61 345.04C1113.89 346.36 1112.9 347.416 1111.63 348.208C1110.38 348.976 1108.97 349.36 1107.41 349.36ZM1098.67 356.128V332.08H1101.19V336.4L1100.68 340.504L1101.19 344.644V356.128H1098.67ZM1106.98 346.948C1108.18 346.948 1109.24 346.684 1110.15 346.156C1111.06 345.604 1111.77 344.848 1112.27 343.888C1112.8 342.904 1113.07 341.788 1113.07 340.54C1113.07 339.268 1112.8 338.152 1112.27 337.192C1111.77 336.232 1111.06 335.476 1110.15 334.924C1109.24 334.372 1108.19 334.096 1107.02 334.096C1105.84 334.096 1104.8 334.372 1103.89 334.924C1103 335.476 1102.3 336.232 1101.8 337.192C1101.29 338.152 1101.04 339.268 1101.04 340.54C1101.04 341.788 1101.29 342.904 1101.8 343.888C1102.3 344.848 1103 345.604 1103.89 346.156C1104.77 346.684 1105.81 346.948 1106.98 346.948ZM1124.91 349.36C1124 349.36 1123.12 349.24 1122.28 349C1121.44 348.736 1120.67 348.376 1119.98 347.92C1119.3 347.464 1118.72 346.924 1118.21 346.3L1119.83 344.644C1120.5 345.46 1121.26 346.072 1122.1 346.48C1122.96 346.864 1123.92 347.056 1124.98 347.056C1126.11 347.056 1126.98 346.84 1127.61 346.408C1128.26 345.976 1128.58 345.376 1128.58 344.608C1128.58 343.888 1128.35 343.324 1127.9 342.916C1127.44 342.508 1126.85 342.184 1126.13 341.944C1125.44 341.704 1124.69 341.476 1123.9 341.26C1123.11 341.02 1122.35 340.732 1121.63 340.396C1120.91 340.036 1120.32 339.544 1119.87 338.92C1119.44 338.296 1119.22 337.48 1119.22 336.472C1119.22 335.512 1119.45 334.684 1119.9 333.988C1120.38 333.268 1121.06 332.716 1121.92 332.332C1122.81 331.924 1123.85 331.72 1125.05 331.72C1126.32 331.72 1127.48 331.948 1128.51 332.404C1129.54 332.86 1130.37 333.532 1130.99 334.42L1129.37 336.04C1128.87 335.392 1128.23 334.9 1127.46 334.564C1126.72 334.204 1125.88 334.024 1124.94 334.024C1123.86 334.024 1123.04 334.24 1122.46 334.672C1121.91 335.08 1121.63 335.62 1121.63 336.292C1121.63 336.94 1121.86 337.456 1122.32 337.84C1122.77 338.2 1123.35 338.5 1124.04 338.74C1124.76 338.956 1125.52 339.184 1126.31 339.424C1127.1 339.64 1127.86 339.94 1128.58 340.324C1129.3 340.684 1129.88 341.188 1130.31 341.836C1130.76 342.46 1130.99 343.312 1130.99 344.392C1130.99 345.904 1130.44 347.116 1129.34 348.028C1128.26 348.916 1126.78 349.36 1124.91 349.36ZM507.272 394L500.756 377.08H503.384L508.532 391.12L507.596 391.156L512.708 377.08H514.184L519.296 391.156L518.36 391.12L523.472 377.08H526.136L519.584 394H518.108L512.888 380.14H513.968L508.784 394H507.272ZM541.727 394V384.064C541.727 382.576 541.283 381.376 540.395 380.464C539.531 379.528 538.379 379.06 536.939 379.06C535.955 379.06 535.091 379.276 534.347 379.708C533.603 380.14 533.015 380.728 532.583 381.472C532.151 382.216 531.935 383.068 531.935 384.028L530.783 383.38C530.783 382.108 531.083 380.968 531.683 379.96C532.283 378.952 533.087 378.16 534.095 377.584C535.127 377.008 536.303 376.72 537.623 376.72C538.919 376.72 540.071 377.02 541.079 377.62C542.087 378.196 542.867 379 543.419 380.032C543.995 381.064 544.283 382.264 544.283 383.632V394H541.727ZM529.415 394V368.512H531.935V394H529.415ZM556.809 394.36C555.105 394.36 553.581 393.976 552.237 393.208C550.893 392.44 549.825 391.384 549.033 390.04C548.265 388.696 547.881 387.184 547.881 385.504C547.881 383.848 548.265 382.36 549.033 381.04C549.801 379.696 550.845 378.64 552.165 377.872C553.485 377.104 554.961 376.72 556.593 376.72C558.129 376.72 559.485 377.068 560.661 377.764C561.861 378.46 562.797 379.432 563.469 380.68C564.165 381.904 564.513 383.32 564.513 384.928C564.513 385.12 564.501 385.348 564.477 385.612C564.453 385.852 564.405 386.14 564.333 386.476H549.681V384.316H562.965L562.065 385.108C562.089 383.86 561.873 382.792 561.417 381.904C560.985 380.992 560.349 380.296 559.509 379.816C558.693 379.312 557.697 379.06 556.521 379.06C555.297 379.06 554.229 379.324 553.317 379.852C552.405 380.38 551.685 381.124 551.157 382.084C550.653 383.02 550.401 384.136 550.401 385.432C550.401 386.728 550.665 387.868 551.193 388.852C551.745 389.836 552.501 390.604 553.461 391.156C554.445 391.708 555.573 391.984 556.845 391.984C557.877 391.984 558.825 391.804 559.689 391.444C560.553 391.06 561.285 390.496 561.885 389.752L563.505 391.408C562.713 392.344 561.729 393.076 560.553 393.604C559.401 394.108 558.153 394.36 556.809 394.36ZM580.681 394V384.064C580.681 382.576 580.237 381.376 579.349 380.464C578.485 379.528 577.333 379.06 575.893 379.06C574.909 379.06 574.045 379.276 573.301 379.708C572.557 380.14 571.969 380.728 571.537 381.472C571.105 382.216 570.889 383.068 570.889 384.028L569.737 383.38C569.737 382.108 570.037 380.968 570.637 379.96C571.237 378.952 572.041 378.16 573.049 377.584C574.081 377.008 575.257 376.72 576.577 376.72C577.873 376.72 579.025 377.032 580.033 377.656C581.041 378.28 581.821 379.12 582.373 380.176C582.949 381.232 583.237 382.384 583.237 383.632V394H580.681ZM568.369 394V377.08H570.889V394H568.369ZM596.297 394V369.232H598.925V394H596.297ZM612.533 394V369.232H615.161V394H612.533ZM598.025 382.408V379.996H613.253V382.408H598.025ZM628.38 394V369.916H631.044V394H628.38ZM619.668 371.644V369.232H639.756V371.644H619.668ZM644.25 394V369.232H646.122L656.814 386.764H655.482L666.174 369.232H668.046V394H665.382V373.84L665.994 373.984L657.066 388.636H655.194L646.266 373.984L646.878 373.84V394H644.25ZM674.344 394V369.232H676.972V394H674.344ZM676.072 394V391.588H689.716V394H676.072ZM708.931 394.36C707.227 394.36 705.703 393.976 704.359 393.208C703.015 392.44 701.947 391.384 701.155 390.04C700.387 388.696 700.003 387.184 700.003 385.504C700.003 383.848 700.387 382.36 701.155 381.04C701.923 379.696 702.967 378.64 704.287 377.872C705.607 377.104 707.083 376.72 708.715 376.72C710.251 376.72 711.607 377.068 712.783 377.764C713.983 378.46 714.919 379.432 715.591 380.68C716.287 381.904 716.635 383.32 716.635 384.928C716.635 385.12 716.623 385.348 716.599 385.612C716.575 385.852 716.527 386.14 716.455 386.476H701.803V384.316H715.087L714.187 385.108C714.211 383.86 713.995 382.792 713.539 381.904C713.107 380.992 712.471 380.296 711.631 379.816C710.815 379.312 709.819 379.06 708.643 379.06C707.419 379.06 706.351 379.324 705.439 379.852C704.527 380.38 703.807 381.124 703.279 382.084C702.775 383.02 702.523 384.136 702.523 385.432C702.523 386.728 702.787 387.868 703.314 388.852C703.867 389.836 704.623 390.604 705.583 391.156C706.567 391.708 707.695 391.984 708.967 391.984C709.999 391.984 710.947 391.804 711.811 391.444C712.675 391.06 713.407 390.496 714.007 389.752L715.627 391.408C714.835 392.344 713.851 393.076 712.675 393.604C711.523 394.108 710.275 394.36 708.931 394.36ZM731.447 394L725.795 386.296L725.255 385.864L718.451 377.08H721.583L726.839 383.992L727.343 384.424L734.543 394H731.447ZM718.163 394L725.291 384.712L726.695 386.584L721.151 394H718.163ZM727.523 385.828L726.083 383.992L731.267 377.08H734.255L727.523 385.828ZM745.141 394.36C743.437 394.36 741.913 393.976 740.569 393.208C739.225 392.44 738.157 391.384 737.365 390.04C736.597 388.696 736.213 387.184 736.213 385.504C736.213 383.848 736.597 382.36 737.365 381.04C738.133 379.696 739.177 378.64 740.497 377.872C741.817 377.104 743.293 376.72 744.925 376.72C746.461 376.72 747.817 377.068 748.993 377.764C750.193 378.46 751.129 379.432 751.801 380.68C752.497 381.904 752.845 383.32 752.845 384.928C752.845 385.12 752.833 385.348 752.809 385.612C752.785 385.852 752.737 386.14 752.665 386.476H738.013V384.316H751.297L750.397 385.108C750.421 383.86 750.205 382.792 749.749 381.904C749.317 380.992 748.681 380.296 747.841 379.816C747.025 379.312 746.029 379.06 744.853 379.06C743.629 379.06 742.561 379.324 741.649 379.852C740.737 380.38 740.017 381.124 739.489 382.084C738.985 383.02 738.733 384.136 738.733 385.432C738.733 386.728 738.997 387.868 739.525 388.852C740.077 389.836 740.833 390.604 741.793 391.156C742.777 391.708 743.905 391.984 745.177 391.984C746.209 391.984 747.157 391.804 748.021 391.444C748.885 391.06 749.617 390.496 750.217 389.752L751.837 391.408C751.045 392.344 750.061 393.076 748.885 393.604C747.733 394.108 746.485 394.36 745.141 394.36ZM764.405 394.36C762.749 394.36 761.249 393.976 759.905 393.208C758.585 392.416 757.529 391.348 756.737 390.004C755.969 388.66 755.585 387.16 755.585 385.504C755.585 383.848 755.969 382.36 756.737 381.04C757.529 379.696 758.585 378.64 759.905 377.872C761.249 377.104 762.749 376.72 764.405 376.72C765.677 376.72 766.865 376.96 767.969 377.44C769.073 377.92 770.009 378.592 770.777 379.456L769.121 381.148C768.545 380.5 767.849 380.008 767.033 379.672C766.217 379.312 765.341 379.132 764.405 379.132C763.205 379.132 762.137 379.408 761.201 379.96C760.265 380.512 759.533 381.268 759.005 382.228C758.477 383.164 758.213 384.256 758.213 385.504C758.213 386.728 758.477 387.832 759.005 388.816C759.533 389.776 760.265 390.532 761.201 391.084C762.137 391.636 763.205 391.912 764.405 391.912C765.365 391.912 766.253 391.744 767.069 391.408C767.885 391.048 768.581 390.544 769.157 389.896L770.849 391.588C770.057 392.476 769.097 393.16 767.969 393.64C766.865 394.12 765.677 394.36 764.405 394.36ZM781.08 394.36C779.712 394.36 778.488 394.048 777.408 393.424C776.328 392.776 775.476 391.9 774.852 390.796C774.252 389.692 773.952 388.396 773.952 386.908V377.08H776.508V386.8C776.508 387.832 776.688 388.732 777.048 389.5C777.432 390.268 777.972 390.868 778.668 391.3C779.364 391.732 780.168 391.948 781.08 391.948C782.496 391.948 783.612 391.48 784.428 390.544C785.268 389.608 785.688 388.36 785.688 386.8V377.08H788.208V386.908C788.208 388.372 787.908 389.668 787.308 390.796C786.708 391.924 785.868 392.8 784.788 393.424C783.708 394.048 782.472 394.36 781.08 394.36ZM795.539 394V369.952H798.059V394H795.539ZM791.255 379.348V377.08H802.307V379.348H791.255ZM812.993 394.36C811.289 394.36 809.765 393.976 808.421 393.208C807.077 392.44 806.009 391.384 805.217 390.04C804.449 388.696 804.065 387.184 804.065 385.504C804.065 383.848 804.449 382.36 805.217 381.04C805.985 379.696 807.029 378.64 808.349 377.872C809.669 377.104 811.145 376.72 812.777 376.72C814.313 376.72 815.669 377.068 816.845 377.764C818.045 378.46 818.981 379.432 819.653 380.68C820.349 381.904 820.697 383.32 820.697 384.928C820.697 385.12 820.685 385.348 820.661 385.612C820.637 385.852 820.589 386.14 820.517 386.476H805.865V384.316H819.149L818.249 385.108C818.273 383.86 818.057 382.792 817.601 381.904C817.169 380.992 816.533 380.296 815.693 379.816C814.877 379.312 813.881 379.06 812.705 379.06C811.481 379.06 810.413 379.324 809.501 379.852C808.589 380.38 807.869 381.124 807.341 382.084C806.837 383.02 806.585 384.136 806.585 385.432C806.585 386.728 806.849 387.868 807.377 388.852C807.929 389.836 808.685 390.604 809.645 391.156C810.629 391.708 811.757 391.984 813.029 391.984C814.061 391.984 815.009 391.804 815.873 391.444C816.737 391.06 817.469 390.496 818.069 389.752L819.689 391.408C818.897 392.344 817.913 393.076 816.737 393.604C815.585 394.108 814.337 394.36 812.993 394.36ZM829.736 394.36C828.824 394.36 827.948 394.24 827.108 394C826.268 393.736 825.5 393.376 824.804 392.92C824.132 392.464 823.544 391.924 823.04 391.3L824.66 389.644C825.332 390.46 826.088 391.072 826.928 391.48C827.792 391.864 828.752 392.056 829.808 392.056C830.936 392.056 831.812 391.84 832.436 391.408C833.084 390.976 833.408 390.376 833.408 389.608C833.408 388.888 833.18 388.324 832.724 387.916C832.268 387.508 831.68 387.184 830.96 386.944C830.264 386.704 829.52 386.476 828.728 386.26C827.936 386.02 827.18 385.732 826.46 385.396C825.74 385.036 825.152 384.544 824.696 383.92C824.264 383.296 824.048 382.48 824.048 381.472C824.048 380.512 824.276 379.684 824.732 378.988C825.212 378.268 825.884 377.716 826.748 377.332C827.636 376.924 828.68 376.72 829.88 376.72C831.152 376.72 832.304 376.948 833.336 377.404C834.368 377.86 835.196 378.532 835.82 379.42L834.2 381.04C833.696 380.392 833.06 379.9 832.292 379.564C831.548 379.204 830.708 379.024 829.772 379.024C828.692 379.024 827.864 379.24 827.288 379.672C826.736 380.08 826.46 380.62 826.46 381.292C826.46 381.94 826.688 382.456 827.144 382.84C827.6 383.2 828.176 383.5 828.872 383.74C829.592 383.956 830.348 384.184 831.14 384.424C831.932 384.64 832.688 384.94 833.408 385.324C834.128 385.684 834.704 386.188 835.136 386.836C835.592 387.46 835.82 388.312 835.82 389.392C835.82 390.904 835.268 392.116 834.164 393.028C833.084 393.916 831.608 394.36 829.736 394.36ZM855.212 394.36C853.58 394.36 852.092 393.964 850.748 393.172C849.428 392.38 848.372 391.312 847.58 389.968C846.812 388.624 846.428 387.124 846.428 385.468C846.428 383.836 846.812 382.36 847.58 381.04C848.372 379.72 849.428 378.676 850.748 377.908C852.092 377.116 853.58 376.72 855.212 376.72C856.868 376.72 858.356 377.104 859.676 377.872C860.996 378.64 862.04 379.696 862.808 381.04C863.6 382.36 863.996 383.836 863.996 385.468C863.996 387.148 863.6 388.66 862.808 390.004C862.04 391.324 860.996 392.38 859.676 393.172C858.356 393.964 856.868 394.36 855.212 394.36ZM855.212 391.912C856.412 391.912 857.468 391.636 858.38 391.084C859.316 390.532 860.048 389.764 860.576 388.78C861.128 387.796 861.404 386.692 861.404 385.468C861.404 384.244 861.128 383.164 860.576 382.228C860.048 381.268 859.316 380.512 858.38 379.96C857.468 379.408 856.412 379.132 855.212 379.132C854.036 379.132 852.98 379.408 852.044 379.96C851.108 380.512 850.376 381.268 849.848 382.228C849.32 383.164 849.056 384.244 849.056 385.468C849.056 386.716 849.32 387.832 849.848 388.816C850.376 389.776 851.108 390.532 852.044 391.084C852.98 391.636 854.036 391.912 855.212 391.912ZM874.701 394.36C873.333 394.36 872.109 394.048 871.029 393.424C869.949 392.776 869.097 391.9 868.473 390.796C867.873 389.692 867.573 388.396 867.573 386.908V377.08H870.129V386.8C870.129 387.832 870.309 388.732 870.669 389.5C871.053 390.268 871.593 390.868 872.289 391.3C872.985 391.732 873.789 391.948 874.701 391.948C876.117 391.948 877.233 391.48 878.049 390.544C878.889 389.608 879.309 388.36 879.309 386.8V377.08H881.829V386.908C881.829 388.372 881.529 389.668 880.929 390.796C880.329 391.924 879.489 392.8 878.409 393.424C877.329 394.048 876.093 394.36 874.701 394.36ZM889.161 394V369.952H891.681V394H889.161ZM884.877 379.348V377.08H895.929V379.348H884.877ZM904.232 394.36C903.32 394.36 902.444 394.24 901.604 394C900.764 393.736 899.996 393.376 899.3 392.92C898.628 392.464 898.04 391.924 897.536 391.3L899.156 389.644C899.828 390.46 900.584 391.072 901.424 391.48C902.288 391.864 903.248 392.056 904.304 392.056C905.432 392.056 906.308 391.84 906.932 391.408C907.58 390.976 907.904 390.376 907.904 389.608C907.904 388.888 907.676 388.324 907.22 387.916C906.764 387.508 906.176 387.184 905.456 386.944C904.76 386.704 904.016 386.476 903.224 386.26C902.432 386.02 901.676 385.732 900.956 385.396C900.236 385.036 899.648 384.544 899.192 383.92C898.76 383.296 898.544 382.48 898.544 381.472C898.544 380.512 898.772 379.684 899.228 378.988C899.708 378.268 900.38 377.716 901.244 377.332C902.132 376.924 903.176 376.72 904.376 376.72C905.648 376.72 906.8 376.948 907.832 377.404C908.864 377.86 909.692 378.532 910.316 379.42L908.696 381.04C908.192 380.392 907.556 379.9 906.788 379.564C906.044 379.204 905.204 379.024 904.268 379.024C903.188 379.024 902.36 379.24 901.784 379.672C901.232 380.08 900.956 380.62 900.956 381.292C900.956 381.94 901.184 382.456 901.64 382.84C902.096 383.2 902.672 383.5 903.368 383.74C904.088 383.956 904.844 384.184 905.636 384.424C906.428 384.64 907.184 384.94 907.904 385.324C908.624 385.684 909.2 386.188 909.632 386.836C910.088 387.46 910.316 388.312 910.316 389.392C910.316 390.904 909.764 392.116 908.66 393.028C907.58 393.916 906.104 394.36 904.232 394.36ZM914.306 394V377.08H916.862V394H914.306ZM915.566 373.408C915.086 373.408 914.678 373.24 914.342 372.904C914.006 372.544 913.838 372.124 913.838 371.644C913.838 371.14 914.006 370.72 914.342 370.384C914.678 370.048 915.086 369.88 915.566 369.88C916.094 369.88 916.514 370.048 916.826 370.384C917.162 370.72 917.33 371.14 917.33 371.644C917.33 372.124 917.162 372.544 916.826 372.904C916.514 373.24 916.094 373.408 915.566 373.408ZM929.17 394.36C927.61 394.36 926.206 393.976 924.958 393.208C923.71 392.44 922.714 391.396 921.97 390.076C921.25 388.732 920.89 387.232 920.89 385.576C920.89 383.896 921.25 382.396 921.97 381.076C922.714 379.732 923.71 378.676 924.958 377.908C926.206 377.116 927.61 376.72 929.17 376.72C930.442 376.72 931.594 376.972 932.626 377.476C933.658 377.98 934.51 378.7 935.182 379.636C935.878 380.548 936.286 381.628 936.406 382.876V388.168C936.262 389.392 935.854 390.472 935.182 391.408C934.534 392.32 933.694 393.04 932.662 393.568C931.63 394.096 930.466 394.36 929.17 394.36ZM929.602 391.948C930.778 391.948 931.81 391.684 932.698 391.156C933.586 390.604 934.282 389.848 934.786 388.888C935.29 387.904 935.542 386.788 935.542 385.54C935.542 384.268 935.278 383.152 934.75 382.192C934.246 381.232 933.55 380.476 932.662 379.924C931.774 379.372 930.742 379.096 929.566 379.096C928.39 379.096 927.346 379.372 926.434 379.924C925.522 380.476 924.802 381.244 924.274 382.228C923.77 383.188 923.518 384.292 923.518 385.54C923.518 386.788 923.77 387.904 924.274 388.888C924.802 389.848 925.522 390.604 926.434 391.156C927.37 391.684 928.426 391.948 929.602 391.948ZM937.918 394H935.398V389.464L935.902 385.288L935.398 381.22V368.512H937.918V394ZM950.841 394.36C949.137 394.36 947.613 393.976 946.269 393.208C944.925 392.44 943.857 391.384 943.065 390.04C942.297 388.696 941.913 387.184 941.913 385.504C941.913 383.848 942.297 382.36 943.065 381.04C943.833 379.696 944.877 378.64 946.197 377.872C947.517 377.104 948.993 376.72 950.625 376.72C952.161 376.72 953.517 377.068 954.693 377.764C955.893 378.46 956.829 379.432 957.501 380.68C958.197 381.904 958.545 383.32 958.545 384.928C958.545 385.12 958.533 385.348 958.509 385.612C958.485 385.852 958.437 386.14 958.365 386.476H943.713V384.316H956.997L956.097 385.108C956.121 383.86 955.905 382.792 955.449 381.904C955.017 380.992 954.381 380.296 953.541 379.816C952.725 379.312 951.729 379.06 950.553 379.06C949.329 379.06 948.261 379.324 947.349 379.852C946.437 380.38 945.717 381.124 945.189 382.084C944.685 383.02 944.433 384.136 944.433 385.432C944.433 386.728 944.697 387.868 945.225 388.852C945.777 389.836 946.533 390.604 947.493 391.156C948.477 391.708 949.605 391.984 950.877 391.984C951.909 391.984 952.857 391.804 953.721 391.444C954.585 391.06 955.317 390.496 955.917 389.752L957.537 391.408C956.745 392.344 955.761 393.076 954.585 393.604C953.433 394.108 952.185 394.36 950.841 394.36ZM972.762 394V369.952H975.282V394H972.762ZM968.478 379.348V377.08H979.53V379.348H968.478ZM995.313 394V384.064C995.313 382.576 994.869 381.376 993.981 380.464C993.117 379.528 991.965 379.06 990.525 379.06C989.541 379.06 988.677 379.276 987.933 379.708C987.189 380.14 986.601 380.728 986.169 381.472C985.737 382.216 985.521 383.068 985.521 384.028L984.369 383.38C984.369 382.108 984.669 380.968 985.269 379.96C985.869 378.952 986.673 378.16 987.681 377.584C988.713 377.008 989.889 376.72 991.209 376.72C992.505 376.72 993.657 377.02 994.665 377.62C995.673 378.196 996.453 379 997.005 380.032C997.581 381.064 997.869 382.264 997.869 383.632V394H995.313ZM983.001 394V368.512H985.521V394H983.001ZM1010.4 394.36C1008.69 394.36 1007.17 393.976 1005.82 393.208C1004.48 392.44 1003.41 391.384 1002.62 390.04C1001.85 388.696 1001.47 387.184 1001.47 385.504C1001.47 383.848 1001.85 382.36 1002.62 381.04C1003.39 379.696 1004.43 378.64 1005.75 377.872C1007.07 377.104 1008.55 376.72 1010.18 376.72C1011.72 376.72 1013.07 377.068 1014.25 377.764C1015.45 378.46 1016.38 379.432 1017.06 380.68C1017.75 381.904 1018.1 383.32 1018.1 384.928C1018.1 385.12 1018.09 385.348 1018.06 385.612C1018.04 385.852 1017.99 386.14 1017.92 386.476H1003.27V384.316H1016.55L1015.65 385.108C1015.68 383.86 1015.46 382.792 1015 381.904C1014.57 380.992 1013.94 380.296 1013.1 379.816C1012.28 379.312 1011.28 379.06 1010.11 379.06C1008.88 379.06 1007.82 379.324 1006.9 379.852C1005.99 380.38 1005.27 381.124 1004.74 382.084C1004.24 383.02 1003.99 384.136 1003.99 385.432C1003.99 386.728 1004.25 387.868 1004.78 388.852C1005.33 389.836 1006.09 390.604 1007.05 391.156C1008.03 391.708 1009.16 391.984 1010.43 391.984C1011.46 391.984 1012.41 391.804 1013.28 391.444C1014.14 391.06 1014.87 390.496 1015.47 389.752L1017.09 391.408C1016.3 392.344 1015.32 393.076 1014.14 393.604C1012.99 394.108 1011.74 394.36 1010.4 394.36ZM1031.92 394V391.552H1039.19C1041.14 391.552 1042.85 391.132 1044.34 390.292C1045.83 389.428 1046.99 388.252 1047.83 386.764C1048.67 385.252 1049.09 383.524 1049.09 381.58C1049.09 379.636 1048.67 377.92 1047.83 376.432C1046.99 374.944 1045.83 373.78 1044.34 372.94C1042.85 372.076 1041.14 371.644 1039.19 371.644H1031.99V369.232H1039.26C1041.06 369.232 1042.72 369.544 1044.23 370.168C1045.77 370.768 1047.1 371.632 1048.23 372.76C1049.38 373.864 1050.27 375.172 1050.89 376.684C1051.52 378.172 1051.83 379.816 1051.83 381.616C1051.83 383.368 1051.52 385 1050.89 386.512C1050.27 388.024 1049.39 389.344 1048.26 390.472C1047.14 391.576 1045.8 392.44 1044.27 393.064C1042.76 393.688 1041.11 394 1039.34 394H1031.92ZM1030.3 394V369.232H1032.93V394H1030.3ZM1068.07 394.36C1066.32 394.36 1064.69 394.036 1063.18 393.388C1061.69 392.716 1060.38 391.804 1059.25 390.652C1058.13 389.476 1057.24 388.12 1056.59 386.584C1055.97 385.024 1055.65 383.356 1055.65 381.58C1055.65 379.78 1055.97 378.112 1056.59 376.576C1057.21 375.04 1058.09 373.696 1059.22 372.544C1060.35 371.392 1061.65 370.492 1063.14 369.844C1064.63 369.196 1066.25 368.872 1068 368.872C1069.75 368.872 1071.37 369.196 1072.86 369.844C1074.37 370.492 1075.69 371.392 1076.82 372.544C1077.95 373.696 1078.83 375.052 1079.45 376.612C1080.07 378.148 1080.39 379.816 1080.39 381.616C1080.39 383.392 1080.07 385.06 1079.45 386.62C1078.83 388.156 1077.95 389.5 1076.82 390.652C1075.72 391.804 1074.42 392.716 1072.93 393.388C1071.45 394.036 1069.83 394.36 1068.07 394.36ZM1068 391.804C1069.87 391.804 1071.53 391.36 1072.97 390.472C1074.43 389.584 1075.57 388.372 1076.39 386.836C1077.23 385.3 1077.65 383.548 1077.65 381.58C1077.65 380.116 1077.41 378.772 1076.93 377.548C1076.45 376.3 1075.78 375.22 1074.91 374.308C1074.05 373.372 1073.03 372.652 1071.85 372.148C1070.7 371.644 1069.42 371.392 1068 371.392C1066.15 371.392 1064.5 371.836 1063.03 372.724C1061.59 373.588 1060.45 374.788 1059.61 376.324C1058.8 377.86 1058.39 379.612 1058.39 381.58C1058.39 383.044 1058.63 384.4 1059.11 385.648C1059.59 386.896 1060.26 387.988 1061.13 388.924C1061.99 389.836 1063.01 390.544 1064.19 391.048C1065.36 391.552 1066.63 391.804 1068 391.804ZM1085.5 394V369.232H1087.37L1098.06 386.764H1096.73L1107.42 369.232H1109.29V394H1106.63V373.84L1107.24 373.984L1098.31 388.636H1096.44L1087.51 373.984L1088.12 373.84V394H1085.5Z" fill="white"/>
<mask id="mask0_245_794" style="mask-type:alpha" maskUnits="userSpaceOnUse" x="25" y="56" width="382" height="383">
<rect x="25" y="56.999" width="382" height="382" fill="black"/>
</mask>
<g mask="url(#mask0_245_794)">
<path d="M80.957 132.354H351.043L328.66 409.155L216 438.999L103.34 409.155L80.957 132.354Z" fill="#D71104"/>
<path d="M216 154.737H326.422L306.277 390.503L216 415.124V154.737Z" fill="#F83326"/>
<mask id="mask1_245_794" style="mask-type:alpha" maskUnits="userSpaceOnUse" x="130" y="188" width="172" height="194">
<path d="M130.9 188.312H301.1L286.995 362.743L216 381.55L145.005 362.743L130.9 188.312Z" fill="#D71104"/>
</mask>
<g mask="url(#mask1_245_794)">
<line x1="155.415" y1="378.074" x2="286.727" y2="178.867" stroke="white" stroke-width="34.3203"/>
<line y1="-17.1602" x2="238.593" y2="-17.1602" transform="matrix(-0.550363 -0.834926 -0.834926 0.550363 262.258 387.519)" stroke="white" stroke-width="34.3203"/>
</g>
<mask id="mask2_245_794" style="mask-type:alpha" maskUnits="userSpaceOnUse" x="130" y="188" width="86" height="194">
<path d="M130.9 188.312H216V381.55L145.005 362.743L130.9 188.312Z" fill="#D71104"/>
</mask>
<g mask="url(#mask2_245_794)">
<line x1="155.415" y1="378.074" x2="286.727" y2="178.867" stroke="#EBEBEB" stroke-width="34.3203"/>
<line y1="-17.1602" x2="238.593" y2="-17.1602" transform="matrix(-0.550363 -0.834926 -0.834926 0.550363 262.258 387.519)" stroke="#EBEBEB" stroke-width="34.3203"/>
</g>
<path d="M288.321 111.464V57.1482H305.082V97.1866H328.36V111.464H288.321Z" fill="white"/>
<path d="M219.442 111.464V57.1482H233.874L253.661 89.3496L241.944 89.272L261.963 57.1482H275.93V111.464H259.791V98.5057C259.791 93.85 259.894 89.66 260.101 85.9355C260.36 82.211 260.773 78.5123 261.343 74.8396L263.205 79.728L250.091 100.058H244.97L232.09 79.728L234.03 74.8396C234.599 78.3054 234.987 81.8747 235.193 85.5475C235.452 89.1686 235.581 93.4879 235.581 98.5057V111.464H219.442Z" fill="white"/>
<path d="M176.931 111.464V71.4254H160.17V57.1482H210.917V71.4254H193.691V111.464H176.931Z" fill="white"/>
<path d="M139.317 111.464L122.479 87.0994L100.908 57.1482H121.005L137.455 81.2023L159.414 111.464H139.317ZM100.52 111.464L121.238 81.9006L135.903 88.0305L119.841 111.464H100.52ZM138.696 86.2458L124.109 80.3487L139.317 57.1482H158.638L138.696 86.2458Z" fill="white"/>
</g>
</svg>
