<svg width="1356" height="568" viewBox="0 0 1356 568" fill="none" xmlns="http://www.w3.org/2000/svg">
<path d="M533.432 189.841C529.12 189.841 525.116 189.085 521.42 187.573C517.724 186.005 514.476 183.849 511.676 181.105C508.932 178.305 506.804 175.057 505.292 171.361C503.836 167.665 503.108 163.689 503.108 159.433C503.108 155.177 503.836 151.201 505.292 147.505C506.804 143.809 508.932 140.589 511.676 137.845C514.476 135.101 517.696 132.945 521.336 131.377C525.032 129.809 529.064 129.025 533.432 129.025C538.136 129.025 542.28 129.809 545.864 131.377C549.448 132.889 552.612 134.989 555.356 137.677L547.628 145.405C546.004 143.613 544.016 142.213 541.664 141.205C539.312 140.197 536.568 139.693 533.432 139.693C530.688 139.693 528.168 140.169 525.872 141.121C523.632 142.017 521.672 143.361 519.992 145.153C518.312 146.889 517.024 148.989 516.128 151.453C515.232 153.861 514.784 156.521 514.784 159.433C514.784 162.401 515.232 165.089 516.128 167.497C517.024 169.905 518.312 172.005 519.992 173.797C521.672 175.533 523.632 176.877 525.872 177.829C528.168 178.781 530.688 179.257 533.432 179.257C536.736 179.257 539.564 178.753 541.916 177.745C544.324 176.737 546.34 175.309 547.964 173.461L555.692 181.189C552.948 183.933 549.756 186.061 546.116 187.573C542.476 189.085 538.248 189.841 533.432 189.841ZM580.46 189.841C576.372 189.841 572.676 188.917 569.372 187.069C566.124 185.165 563.52 182.617 561.56 179.425C559.656 176.177 558.704 172.565 558.704 168.589C558.704 164.613 559.656 161.057 561.56 157.921C563.464 154.729 566.068 152.209 569.372 150.361C572.676 148.457 576.344 147.505 580.376 147.505C584.52 147.505 588.216 148.457 591.464 150.361C594.768 152.209 597.372 154.729 599.276 157.921C601.18 161.057 602.132 164.613 602.132 168.589C602.132 172.565 601.18 176.177 599.276 179.425C597.372 182.617 594.768 185.165 591.464 187.069C588.216 188.917 584.548 189.841 580.46 189.841ZM580.376 179.593C582.448 179.593 584.268 179.145 585.836 178.249C587.46 177.297 588.692 176.009 589.532 174.385C590.428 172.705 590.876 170.801 590.876 168.673C590.876 166.545 590.428 164.669 589.532 163.045C588.636 161.421 587.404 160.161 585.836 159.265C584.268 158.313 582.448 157.837 580.376 157.837C578.36 157.837 576.568 158.313 575 159.265C573.432 160.161 572.2 161.421 571.304 163.045C570.408 164.669 569.96 166.545 569.96 168.673C569.96 170.801 570.408 172.705 571.304 174.385C572.2 176.009 573.432 177.297 575 178.249C576.568 179.145 578.36 179.593 580.376 179.593ZM609.216 189.001V148.429H620.22V189.001H609.216ZM635.676 189.001V165.061C635.676 162.709 634.92 160.889 633.408 159.601C631.952 158.257 630.132 157.585 627.948 157.585C626.492 157.585 625.176 157.893 624 158.509C622.824 159.069 621.9 159.909 621.228 161.029C620.556 162.149 620.22 163.493 620.22 165.061L615.936 162.961C615.936 159.825 616.608 157.109 617.952 154.813C619.352 152.517 621.228 150.753 623.58 149.521C625.932 148.233 628.592 147.589 631.56 147.589C634.36 147.589 636.908 148.233 639.204 149.521C641.5 150.753 643.32 152.517 644.664 154.813C646.008 157.053 646.68 159.769 646.68 162.961V189.001H635.676ZM662.136 189.001V165.061C662.136 162.709 661.38 160.889 659.868 159.601C658.412 158.257 656.592 157.585 654.408 157.585C653.008 157.585 651.692 157.893 650.46 158.509C649.284 159.069 648.36 159.909 647.688 161.029C647.016 162.149 646.68 163.493 646.68 165.061L640.38 163.549C640.604 160.301 641.472 157.501 642.984 155.149C644.496 152.741 646.484 150.893 648.948 149.605C651.412 148.261 654.156 147.589 657.18 147.589C660.204 147.589 662.92 148.233 665.328 149.521C667.736 150.753 669.64 152.545 671.04 154.897C672.44 157.249 673.14 160.049 673.14 163.297V189.001H662.136ZM704.572 189.841C701.66 189.841 699.028 189.253 696.676 188.077C694.324 186.845 692.448 185.193 691.048 183.121C689.648 181.049 688.892 178.669 688.78 175.981V161.617C688.892 158.929 689.648 156.549 691.048 154.477C692.504 152.349 694.38 150.669 696.676 149.437C699.028 148.205 701.66 147.589 704.572 147.589C708.324 147.589 711.684 148.513 714.652 150.361C717.62 152.209 719.944 154.729 721.624 157.921C723.36 161.113 724.228 164.725 724.228 168.757C724.228 172.733 723.36 176.317 721.624 179.509C719.944 182.701 717.62 185.221 714.652 187.069C711.684 188.917 708.324 189.841 704.572 189.841ZM682.06 205.969V148.429H693.064V159.097L691.216 168.925L692.98 178.753V205.969H682.06ZM702.64 179.677C704.656 179.677 706.448 179.229 708.016 178.333C709.584 177.381 710.788 176.093 711.628 174.469C712.524 172.789 712.972 170.857 712.972 168.673C712.972 166.545 712.524 164.669 711.628 163.045C710.788 161.365 709.584 160.077 708.016 159.181C706.448 158.229 704.656 157.753 702.64 157.753C700.68 157.753 698.916 158.229 697.348 159.181C695.78 160.077 694.548 161.365 693.652 163.045C692.812 164.669 692.392 166.545 692.392 168.673C692.392 170.857 692.812 172.789 693.652 174.469C694.548 176.093 695.752 177.381 697.264 178.333C698.832 179.229 700.624 179.677 702.64 179.677ZM731.442 189.001V148.429H742.53V189.001H731.442ZM736.986 141.877C735.194 141.877 733.71 141.289 732.534 140.113C731.358 138.881 730.77 137.369 730.77 135.577C730.77 133.841 731.358 132.357 732.534 131.125C733.71 129.893 735.194 129.277 736.986 129.277C738.834 129.277 740.318 129.893 741.438 131.125C742.614 132.357 743.202 133.841 743.202 135.577C743.202 137.369 742.614 138.881 741.438 140.113C740.318 141.289 738.834 141.877 736.986 141.877ZM752.278 189.001V128.269H763.282V189.001H752.278ZM792.436 189.841C788.18 189.841 784.4 188.945 781.096 187.153C777.792 185.305 775.16 182.785 773.2 179.593C771.296 176.401 770.344 172.761 770.344 168.673C770.344 164.641 771.268 161.057 773.116 157.921C775.02 154.729 777.596 152.209 780.844 150.361C784.092 148.457 787.704 147.505 791.68 147.505C795.6 147.505 799.044 148.401 802.012 150.193C805.036 151.929 807.388 154.337 809.068 157.417C810.804 160.441 811.672 163.885 811.672 167.749C811.672 168.477 811.616 169.233 811.504 170.017C811.448 170.745 811.308 171.585 811.084 172.537L776.98 172.621V164.389L805.96 164.305L801.508 167.749C801.396 165.341 800.948 163.325 800.164 161.701C799.436 160.077 798.344 158.845 796.888 158.005C795.488 157.109 793.752 156.661 791.68 156.661C789.496 156.661 787.592 157.165 785.968 158.173C784.344 159.125 783.084 160.497 782.188 162.289C781.348 164.025 780.928 166.097 780.928 168.505C780.928 170.969 781.376 173.125 782.272 174.973C783.224 176.765 784.568 178.165 786.304 179.173C788.04 180.125 790.056 180.601 792.352 180.601C794.424 180.601 796.3 180.265 797.98 179.593C799.66 178.865 801.116 177.801 802.348 176.401L808.816 182.869C806.856 185.165 804.448 186.901 801.592 188.077C798.792 189.253 795.74 189.841 792.436 189.841ZM836.06 189.001V129.949H847.484V189.001H836.06ZM873.104 189.001V129.949H884.528V189.001H873.104ZM843.284 163.549V153.469H876.296V163.549H843.284ZM911.215 189.001V131.209H922.723V189.001H911.215ZM892.399 140.113V129.949H941.539V140.113H892.399ZM949.427 189.001V129.949H957.491L981.431 168.253H976.811L1000.67 129.949H1008.73V189.001H997.391V149.521L999.575 150.193L982.943 176.905H975.215L958.583 150.193L960.851 149.521V189.001H949.427ZM1020.79 189.001V129.949H1032.22V189.001H1020.79ZM1029.19 189.001V178.837H1059.27V189.001H1029.19ZM504.872 295.001V254.429H515.96V295.001H504.872ZM510.416 247.877C508.624 247.877 507.14 247.289 505.964 246.113C504.788 244.881 504.2 243.369 504.2 241.577C504.2 239.841 504.788 238.357 505.964 237.125C507.14 235.893 508.624 235.277 510.416 235.277C512.264 235.277 513.748 235.893 514.868 237.125C516.044 238.357 516.632 239.841 516.632 241.577C516.632 243.369 516.044 244.881 514.868 246.113C513.748 247.289 512.264 247.877 510.416 247.877ZM553.008 295.001V271.733C553.008 269.325 552.252 267.365 550.74 265.853C549.228 264.341 547.268 263.585 544.86 263.585C543.292 263.585 541.892 263.921 540.66 264.593C539.428 265.265 538.448 266.217 537.72 267.449C537.048 268.681 536.712 270.109 536.712 271.733L532.428 269.549C532.428 266.357 533.1 263.585 534.444 261.233C535.844 258.825 537.748 256.949 540.156 255.605C542.62 254.261 545.392 253.589 548.472 253.589C551.44 253.589 554.1 254.345 556.452 255.857C558.804 257.313 560.652 259.245 561.996 261.653C563.34 264.005 564.012 266.553 564.012 269.297V295.001H553.008ZM525.708 295.001V254.429H536.712V295.001H525.708ZM578.348 295.001V237.545H589.352V295.001H578.348ZM568.856 264.089V254.429H598.844V264.089H568.856ZM623.116 295.841C619.028 295.841 615.332 294.917 612.028 293.069C608.78 291.165 606.176 288.617 604.216 285.425C602.312 282.177 601.36 278.565 601.36 274.589C601.36 270.613 602.312 267.057 604.216 263.921C606.12 260.729 608.724 258.209 612.028 256.361C615.332 254.457 619 253.505 623.032 253.505C627.176 253.505 630.872 254.457 634.12 256.361C637.424 258.209 640.028 260.729 641.932 263.921C643.836 267.057 644.788 270.613 644.788 274.589C644.788 278.565 643.836 282.177 641.932 285.425C640.028 288.617 637.424 291.165 634.12 293.069C630.872 294.917 627.204 295.841 623.116 295.841ZM623.032 285.593C625.104 285.593 626.924 285.145 628.492 284.249C630.116 283.297 631.348 282.009 632.188 280.385C633.084 278.705 633.532 276.801 633.532 274.673C633.532 272.545 633.084 270.669 632.188 269.045C631.292 267.421 630.06 266.161 628.492 265.265C626.924 264.313 625.104 263.837 623.032 263.837C621.016 263.837 619.224 264.313 617.656 265.265C616.088 266.161 614.856 267.421 613.96 269.045C613.064 270.669 612.616 272.545 612.616 274.673C612.616 276.801 613.064 278.705 613.96 280.385C614.856 282.009 616.088 283.297 617.656 284.249C619.224 285.145 621.016 285.593 623.032 285.593ZM668.278 295.001V254.429H679.366V295.001H668.278ZM673.822 247.877C672.03 247.877 670.546 247.289 669.37 246.113C668.194 244.881 667.606 243.369 667.606 241.577C667.606 239.841 668.194 238.357 669.37 237.125C670.546 235.893 672.03 235.277 673.822 235.277C675.67 235.277 677.154 235.893 678.274 237.125C679.45 238.357 680.038 239.841 680.038 241.577C680.038 243.369 679.45 244.881 678.274 246.113C677.154 247.289 675.67 247.877 673.822 247.877ZM695.078 295.001V237.545H706.082V295.001H695.078ZM685.586 264.089V254.429H715.574V264.089H685.586ZM734.886 295.925C732.59 295.925 730.322 295.617 728.082 295.001C725.898 294.385 723.882 293.545 722.034 292.481C720.186 291.361 718.59 290.017 717.246 288.449L723.798 281.813C725.198 283.381 726.822 284.557 728.67 285.341C730.518 286.125 732.562 286.517 734.802 286.517C736.594 286.517 737.938 286.265 738.834 285.761C739.786 285.257 740.262 284.501 740.262 283.493C740.262 282.373 739.758 281.505 738.75 280.889C737.798 280.273 736.538 279.769 734.97 279.377C733.402 278.929 731.75 278.453 730.014 277.949C728.334 277.389 726.71 276.689 725.142 275.849C723.574 274.953 722.286 273.749 721.278 272.237C720.326 270.669 719.85 268.653 719.85 266.189C719.85 263.613 720.466 261.373 721.698 259.469C722.986 257.565 724.806 256.081 727.158 255.017C729.51 253.953 732.282 253.421 735.474 253.421C738.834 253.421 741.858 254.009 744.546 255.185C747.29 256.361 749.558 258.125 751.35 260.477L744.714 267.113C743.482 265.601 742.082 264.509 740.514 263.837C739.002 263.165 737.35 262.829 735.558 262.829C733.934 262.829 732.674 263.081 731.778 263.585C730.938 264.089 730.518 264.789 730.518 265.685C730.518 266.693 730.994 267.477 731.946 268.037C732.954 268.597 734.242 269.101 735.81 269.549C737.378 269.941 739.002 270.417 740.682 270.977C742.418 271.481 744.042 272.209 745.554 273.161C747.122 274.113 748.382 275.373 749.334 276.941C750.342 278.509 750.846 280.525 750.846 282.989C750.846 286.965 749.418 290.129 746.562 292.481C743.706 294.777 739.814 295.925 734.886 295.925ZM793.741 295.841C789.653 295.841 785.957 294.917 782.653 293.069C779.405 291.165 776.801 288.617 774.841 285.425C772.937 282.177 771.985 278.565 771.985 274.589C771.985 270.613 772.937 267.057 774.841 263.921C776.745 260.729 779.349 258.209 782.653 256.361C785.957 254.457 789.625 253.505 793.657 253.505C797.801 253.505 801.497 254.457 804.745 256.361C808.049 258.209 810.653 260.729 812.557 263.921C814.461 267.057 815.413 270.613 815.413 274.589C815.413 278.565 814.461 282.177 812.557 285.425C810.653 288.617 808.049 291.165 804.745 293.069C801.497 294.917 797.829 295.841 793.741 295.841ZM793.657 285.593C795.729 285.593 797.549 285.145 799.117 284.249C800.741 283.297 801.973 282.009 802.813 280.385C803.709 278.705 804.157 276.801 804.157 274.673C804.157 272.545 803.709 270.669 802.813 269.045C801.917 267.421 800.685 266.161 799.117 265.265C797.549 264.313 795.729 263.837 793.657 263.837C791.641 263.837 789.849 264.313 788.281 265.265C786.713 266.161 785.481 267.421 784.585 269.045C783.689 270.669 783.241 272.545 783.241 274.673C783.241 276.801 783.689 278.705 784.585 280.385C785.481 282.009 786.713 283.297 788.281 284.249C789.849 285.145 791.641 285.593 793.657 285.593ZM832.431 295.001L817.227 254.429H828.315L838.227 283.913L834.867 283.997L845.031 254.429H853.011L863.175 283.997L859.815 283.913L869.727 254.429H880.815L865.695 295.001H857.715L847.467 266.945H850.575L840.327 295.001H832.431ZM913.453 295.001V271.733C913.453 269.325 912.697 267.365 911.185 265.853C909.673 264.341 907.713 263.585 905.305 263.585C903.737 263.585 902.337 263.921 901.105 264.593C899.873 265.265 898.893 266.217 898.165 267.449C897.493 268.681 897.157 270.109 897.157 271.733L892.873 269.549C892.873 266.357 893.545 263.585 894.889 261.233C896.289 258.825 898.193 256.949 900.601 255.605C903.065 254.261 905.837 253.589 908.917 253.589C911.885 253.589 914.545 254.345 916.897 255.857C919.249 257.313 921.097 259.245 922.441 261.653C923.785 264.005 924.457 266.553 924.457 269.297V295.001H913.453ZM886.153 295.001V254.429H897.157V295.001H886.153ZM972.239 295.841C969.327 295.841 966.695 295.225 964.343 293.993C961.991 292.761 960.115 291.081 958.715 288.953C957.315 286.825 956.559 284.445 956.447 281.813V267.365C956.559 264.733 957.315 262.381 958.715 260.309C960.171 258.181 962.075 256.529 964.427 255.353C966.779 254.177 969.383 253.589 972.239 253.589C975.991 253.589 979.351 254.513 982.319 256.361C985.287 258.209 987.611 260.729 989.291 263.921C991.027 267.113 991.895 270.725 991.895 274.757C991.895 278.733 991.027 282.317 989.291 285.509C987.611 288.701 985.287 291.221 982.319 293.069C979.351 294.917 975.991 295.841 972.239 295.841ZM949.727 295.001V234.269H960.731V264.425L958.883 274.169L960.647 284.081V295.001H949.727ZM970.391 285.677C972.407 285.677 974.171 285.229 975.683 284.333C977.251 283.381 978.455 282.093 979.295 280.469C980.191 278.789 980.639 276.857 980.639 274.673C980.639 272.545 980.191 270.669 979.295 269.045C978.455 267.365 977.251 266.077 975.683 265.181C974.115 264.229 972.323 263.753 970.307 263.753C968.291 263.753 966.499 264.229 964.931 265.181C963.419 266.077 962.215 267.365 961.319 269.045C960.479 270.669 960.059 272.545 960.059 274.673C960.059 276.857 960.479 278.789 961.319 280.469C962.215 282.093 963.447 283.381 965.015 284.333C966.583 285.229 968.375 285.677 970.391 285.677ZM999.11 295.001V254.429H1010.2V295.001H999.11ZM1004.65 247.877C1002.86 247.877 1001.38 247.289 1000.2 246.113C999.026 244.881 998.438 243.369 998.438 241.577C998.438 239.841 999.026 238.357 1000.2 237.125C1001.38 235.893 1002.86 235.277 1004.65 235.277C1006.5 235.277 1007.99 235.893 1009.11 237.125C1010.28 238.357 1010.87 239.841 1010.87 241.577C1010.87 243.369 1010.28 244.881 1009.11 246.113C1007.99 247.289 1006.5 247.877 1004.65 247.877ZM1047.25 295.001V271.733C1047.25 269.325 1046.49 267.365 1044.98 265.853C1043.47 264.341 1041.51 263.585 1039.1 263.585C1037.53 263.585 1036.13 263.921 1034.9 264.593C1033.67 265.265 1032.69 266.217 1031.96 267.449C1031.29 268.681 1030.95 270.109 1030.95 271.733L1026.67 269.549C1026.67 266.357 1027.34 263.585 1028.68 261.233C1030.08 258.825 1031.99 256.949 1034.39 255.605C1036.86 254.261 1039.63 253.589 1042.71 253.589C1045.68 253.589 1048.34 254.345 1050.69 255.857C1053.04 257.313 1054.89 259.245 1056.23 261.653C1057.58 264.005 1058.25 266.553 1058.25 269.297V295.001H1047.25ZM1019.95 295.001V254.429H1030.95V295.001H1019.95ZM1084.08 295.841C1080.39 295.841 1077.05 294.917 1074.09 293.069C1071.12 291.221 1068.79 288.701 1067.11 285.509C1065.43 282.317 1064.59 278.733 1064.59 274.757C1064.59 270.725 1065.43 267.113 1067.11 263.921C1068.79 260.729 1071.12 258.209 1074.09 256.361C1077.05 254.513 1080.39 253.589 1084.08 253.589C1086.99 253.589 1089.6 254.177 1091.89 255.353C1094.19 256.529 1096.01 258.181 1097.35 260.309C1098.75 262.381 1099.51 264.733 1099.62 267.365V281.981C1099.51 284.669 1098.75 287.049 1097.35 289.121C1096.01 291.193 1094.19 292.845 1091.89 294.077C1089.6 295.253 1086.99 295.841 1084.08 295.841ZM1086.1 285.677C1089.18 285.677 1091.67 284.669 1093.57 282.653C1095.48 280.581 1096.43 277.921 1096.43 274.673C1096.43 272.545 1095.98 270.669 1095.09 269.045C1094.25 267.365 1093.04 266.077 1091.47 265.181C1089.96 264.229 1088.17 263.753 1086.1 263.753C1084.08 263.753 1082.29 264.229 1080.72 265.181C1079.21 266.077 1078.01 267.365 1077.11 269.045C1076.27 270.669 1075.85 272.545 1075.85 274.673C1075.85 276.857 1076.27 278.789 1077.11 280.469C1078.01 282.093 1079.21 283.381 1080.72 284.333C1082.29 285.229 1084.08 285.677 1086.1 285.677ZM1095.84 295.001V284.081L1097.61 274.169L1095.84 264.425V254.429H1106.76V295.001H1095.84ZM1116.5 295.001V254.429H1127.5V295.001H1116.5ZM1127.5 272.573L1123.22 269.717C1123.72 264.733 1125.18 260.813 1127.59 257.957C1129.99 255.045 1133.47 253.589 1138 253.589C1139.96 253.589 1141.73 253.925 1143.29 254.597C1144.86 255.213 1146.29 256.249 1147.58 257.705L1140.69 265.601C1140.07 264.929 1139.32 264.425 1138.42 264.089C1137.58 263.753 1136.6 263.585 1135.48 263.585C1133.13 263.585 1131.2 264.341 1129.69 265.853C1128.23 267.309 1127.5 269.549 1127.5 272.573ZM1163.8 295.337L1146.83 254.429H1158.76L1170.02 285.677H1165.98L1177.66 254.429H1189.67L1171.61 295.337H1163.8ZM1152.54 311.969L1164.89 285.845L1171.61 295.337L1164.22 311.969H1152.54Z" fill="white"/>
<path d="M514.4 405.361C512.624 405.361 510.968 405.037 509.432 404.389C507.92 403.741 506.6 402.829 505.472 401.653C504.344 400.477 503.468 399.121 502.844 397.585C502.244 396.025 501.944 394.357 501.944 392.581C501.944 390.805 502.244 389.149 502.844 387.613C503.468 386.053 504.332 384.697 505.436 383.545C506.564 382.393 507.884 381.493 509.396 380.845C510.908 380.197 512.54 379.873 514.292 379.873C516.188 379.873 517.88 380.209 519.368 380.881C520.88 381.553 522.2 382.477 523.328 383.653L521.528 385.453C520.664 384.493 519.62 383.749 518.396 383.221C517.172 382.669 515.804 382.393 514.292 382.393C512.9 382.393 511.616 382.645 510.44 383.149C509.288 383.653 508.268 384.373 507.38 385.309C506.516 386.221 505.844 387.301 505.364 388.549C504.908 389.773 504.68 391.117 504.68 392.581C504.68 394.045 504.92 395.401 505.4 396.649C505.88 397.897 506.552 398.989 507.416 399.925C508.28 400.837 509.3 401.545 510.476 402.049C511.652 402.553 512.936 402.805 514.328 402.805C515.912 402.805 517.316 402.529 518.54 401.977C519.788 401.425 520.844 400.669 521.708 399.709L523.508 401.545C522.404 402.721 521.084 403.657 519.548 404.353C518.012 405.025 516.296 405.361 514.4 405.361ZM527.517 405.001V388.081H530.037V405.001H527.517ZM530.037 395.137L528.993 394.669C528.993 392.533 529.509 390.841 530.541 389.593C531.597 388.345 533.037 387.721 534.861 387.721C535.701 387.721 536.469 387.877 537.165 388.189C537.861 388.477 538.509 388.945 539.109 389.593L537.453 391.357C537.045 390.901 536.589 390.577 536.085 390.385C535.605 390.193 535.053 390.097 534.429 390.097C533.133 390.097 532.077 390.529 531.261 391.393C530.445 392.233 530.037 393.481 530.037 395.137ZM549.005 405.361C547.301 405.361 545.777 404.977 544.433 404.209C543.089 403.441 542.021 402.385 541.229 401.041C540.461 399.697 540.077 398.185 540.077 396.505C540.077 394.849 540.461 393.361 541.229 392.041C541.997 390.697 543.041 389.641 544.361 388.873C545.681 388.105 547.157 387.721 548.789 387.721C550.325 387.721 551.681 388.069 552.857 388.765C554.057 389.461 554.993 390.433 555.665 391.681C556.361 392.905 556.709 394.321 556.709 395.929C556.709 396.121 556.697 396.349 556.673 396.613C556.649 396.853 556.601 397.141 556.529 397.477H541.877V395.317H555.161L554.261 396.109C554.285 394.861 554.069 393.793 553.613 392.905C553.181 391.993 552.545 391.297 551.705 390.817C550.889 390.313 549.893 390.061 548.717 390.061C547.493 390.061 546.425 390.325 545.513 390.853C544.601 391.381 543.881 392.125 543.353 393.085C542.849 394.021 542.597 395.137 542.597 396.433C542.597 397.729 542.861 398.869 543.389 399.853C543.941 400.837 544.697 401.605 545.657 402.157C546.641 402.709 547.769 402.985 549.041 402.985C550.073 402.985 551.021 402.805 551.885 402.445C552.749 402.061 553.481 401.497 554.081 400.753L555.701 402.409C554.909 403.345 553.925 404.077 552.749 404.605C551.597 405.109 550.349 405.361 549.005 405.361ZM567.908 405.361C566.3 405.361 564.86 404.977 563.588 404.209C562.316 403.417 561.308 402.361 560.564 401.041C559.844 399.721 559.484 398.233 559.484 396.577C559.484 394.897 559.844 393.397 560.564 392.077C561.308 390.733 562.316 389.677 563.588 388.909C564.86 388.117 566.288 387.721 567.872 387.721C569.168 387.721 570.32 387.985 571.328 388.513C572.36 389.017 573.188 389.737 573.812 390.673C574.46 391.585 574.856 392.653 575 393.877V399.169C574.856 400.393 574.46 401.473 573.812 402.409C573.188 403.345 572.36 404.077 571.328 404.605C570.32 405.109 569.18 405.361 567.908 405.361ZM568.304 402.949C570.056 402.949 571.46 402.361 572.516 401.185C573.596 400.009 574.136 398.461 574.136 396.541C574.136 395.269 573.884 394.153 573.38 393.193C572.9 392.209 572.216 391.453 571.328 390.925C570.464 390.373 569.444 390.097 568.268 390.097C567.068 390.097 566 390.373 565.064 390.925C564.152 391.477 563.42 392.245 562.868 393.229C562.34 394.189 562.076 395.293 562.076 396.541C562.076 397.789 562.34 398.893 562.868 399.853C563.42 400.813 564.164 401.569 565.1 402.121C566.036 402.673 567.104 402.949 568.304 402.949ZM573.992 405.001V400.465L574.496 396.289L573.992 392.221V388.081H576.512V405.001H573.992ZM584.11 405.001V380.953H586.63V405.001H584.11ZM579.826 390.349V388.081H590.878V390.349H579.826ZM601.563 405.361C599.859 405.361 598.335 404.977 596.991 404.209C595.647 403.441 594.579 402.385 593.787 401.041C593.019 399.697 592.635 398.185 592.635 396.505C592.635 394.849 593.019 393.361 593.787 392.041C594.555 390.697 595.599 389.641 596.919 388.873C598.239 388.105 599.715 387.721 601.347 387.721C602.883 387.721 604.239 388.069 605.415 388.765C606.615 389.461 607.551 390.433 608.223 391.681C608.919 392.905 609.267 394.321 609.267 395.929C609.267 396.121 609.255 396.349 609.231 396.613C609.207 396.853 609.159 397.141 609.087 397.477H594.435V395.317H607.719L606.819 396.109C606.843 394.861 606.627 393.793 606.171 392.905C605.739 391.993 605.103 391.297 604.263 390.817C603.447 390.313 602.451 390.061 601.275 390.061C600.051 390.061 598.983 390.325 598.071 390.853C597.159 391.381 596.439 392.125 595.911 393.085C595.407 394.021 595.155 395.137 595.155 396.433C595.155 397.729 595.419 398.869 595.947 399.853C596.499 400.837 597.255 401.605 598.215 402.157C599.199 402.709 600.327 402.985 601.599 402.985C602.631 402.985 603.579 402.805 604.443 402.445C605.307 402.061 606.039 401.497 606.639 400.753L608.259 402.409C607.467 403.345 606.483 404.077 605.307 404.605C604.155 405.109 602.907 405.361 601.563 405.361ZM628.201 405.361C626.593 405.361 625.153 404.977 623.881 404.209C622.609 403.417 621.601 402.361 620.857 401.041C620.137 399.721 619.777 398.233 619.777 396.577C619.777 394.897 620.137 393.397 620.857 392.077C621.601 390.733 622.609 389.677 623.881 388.909C625.153 388.117 626.581 387.721 628.165 387.721C629.461 387.721 630.613 387.985 631.621 388.513C632.653 389.017 633.481 389.737 634.105 390.673C634.753 391.585 635.149 392.653 635.293 393.877V399.169C635.149 400.393 634.753 401.473 634.105 402.409C633.481 403.345 632.653 404.077 631.621 404.605C630.613 405.109 629.473 405.361 628.201 405.361ZM628.597 402.949C630.349 402.949 631.753 402.361 632.809 401.185C633.889 400.009 634.429 398.461 634.429 396.541C634.429 395.269 634.177 394.153 633.673 393.193C633.193 392.209 632.509 391.453 631.621 390.925C630.757 390.373 629.737 390.097 628.561 390.097C627.361 390.097 626.293 390.373 625.357 390.925C624.445 391.477 623.713 392.245 623.161 393.229C622.633 394.189 622.369 395.293 622.369 396.541C622.369 397.789 622.633 398.893 623.161 399.853C623.713 400.813 624.457 401.569 625.393 402.121C626.329 402.673 627.397 402.949 628.597 402.949ZM634.285 405.001V400.465L634.789 396.289L634.285 392.221V388.081H636.805V405.001H634.285ZM654.366 405.001L647.85 388.081H650.478L655.626 402.121L654.69 402.157L659.802 388.081H661.278L666.39 402.157L665.454 402.121L670.566 388.081H673.23L666.678 405.001H665.202L659.982 391.141H661.062L655.878 405.001H654.366ZM688.821 405.001V395.065C688.821 393.577 688.377 392.377 687.489 391.465C686.625 390.529 685.473 390.061 684.033 390.061C683.049 390.061 682.185 390.277 681.441 390.709C680.697 391.141 680.109 391.729 679.677 392.473C679.245 393.217 679.029 394.069 679.029 395.029L677.877 394.381C677.877 393.109 678.177 391.969 678.777 390.961C679.377 389.953 680.181 389.161 681.189 388.585C682.221 388.009 683.397 387.721 684.717 387.721C686.013 387.721 687.165 388.021 688.173 388.621C689.181 389.197 689.961 390.001 690.513 391.033C691.089 392.065 691.377 393.265 691.377 394.633V405.001H688.821ZM676.509 405.001V379.513H679.029V405.001H676.509ZM703.759 405.361C702.127 405.361 700.639 404.965 699.295 404.173C697.975 403.381 696.919 402.313 696.127 400.969C695.359 399.625 694.975 398.125 694.975 396.469C694.975 394.837 695.359 393.361 696.127 392.041C696.919 390.721 697.975 389.677 699.295 388.909C700.639 388.117 702.127 387.721 703.759 387.721C705.415 387.721 706.903 388.105 708.223 388.873C709.543 389.641 710.587 390.697 711.355 392.041C712.147 393.361 712.543 394.837 712.543 396.469C712.543 398.149 712.147 399.661 711.355 401.005C710.587 402.325 709.543 403.381 708.223 404.173C706.903 404.965 705.415 405.361 703.759 405.361ZM703.759 402.913C704.959 402.913 706.015 402.637 706.927 402.085C707.863 401.533 708.595 400.765 709.123 399.781C709.675 398.797 709.951 397.693 709.951 396.469C709.951 395.245 709.675 394.165 709.123 393.229C708.595 392.269 707.863 391.513 706.927 390.961C706.015 390.409 704.959 390.133 703.759 390.133C702.583 390.133 701.527 390.409 700.591 390.961C699.655 391.513 698.923 392.269 698.395 393.229C697.867 394.165 697.603 395.245 697.603 396.469C697.603 397.717 697.867 398.833 698.395 399.817C698.923 400.777 699.655 401.533 700.591 402.085C701.527 402.637 702.583 402.913 703.759 402.913ZM716.552 405.001V379.513H719.072V405.001H716.552ZM731.993 405.361C730.289 405.361 728.765 404.977 727.421 404.209C726.077 403.441 725.009 402.385 724.217 401.041C723.449 399.697 723.065 398.185 723.065 396.505C723.065 394.849 723.449 393.361 724.217 392.041C724.985 390.697 726.029 389.641 727.349 388.873C728.669 388.105 730.145 387.721 731.777 387.721C733.313 387.721 734.669 388.069 735.845 388.765C737.045 389.461 737.981 390.433 738.653 391.681C739.349 392.905 739.697 394.321 739.697 395.929C739.697 396.121 739.685 396.349 739.661 396.613C739.637 396.853 739.589 397.141 739.517 397.477H724.865V395.317H738.149L737.249 396.109C737.273 394.861 737.057 393.793 736.601 392.905C736.169 391.993 735.533 391.297 734.693 390.817C733.877 390.313 732.881 390.061 731.705 390.061C730.481 390.061 729.413 390.325 728.501 390.853C727.589 391.381 726.869 392.125 726.341 393.085C725.837 394.021 725.585 395.137 725.585 396.433C725.585 397.729 725.849 398.869 726.377 399.853C726.929 400.837 727.685 401.605 728.645 402.157C729.629 402.709 730.757 402.985 732.029 402.985C733.061 402.985 734.009 402.805 734.873 402.445C735.737 402.061 736.469 401.497 737.069 400.753L738.689 402.409C737.897 403.345 736.913 404.077 735.737 404.605C734.585 405.109 733.337 405.361 731.993 405.361ZM763.598 405.001V395.065C763.598 393.577 763.154 392.377 762.266 391.465C761.402 390.529 760.25 390.061 758.81 390.061C757.826 390.061 756.962 390.277 756.218 390.709C755.474 391.141 754.886 391.729 754.454 392.473C754.022 393.217 753.806 394.069 753.806 395.029L752.654 394.381C752.654 393.109 752.954 391.969 753.554 390.961C754.154 389.953 754.958 389.161 755.966 388.585C756.998 388.009 758.174 387.721 759.494 387.721C760.79 387.721 761.942 388.033 762.95 388.657C763.958 389.281 764.738 390.121 765.29 391.177C765.866 392.233 766.154 393.385 766.154 394.633V405.001H763.598ZM751.286 405.001V388.081H753.806V405.001H751.286ZM778.681 405.361C776.977 405.361 775.453 404.977 774.109 404.209C772.765 403.441 771.697 402.385 770.905 401.041C770.137 399.697 769.753 398.185 769.753 396.505C769.753 394.849 770.137 393.361 770.905 392.041C771.673 390.697 772.717 389.641 774.037 388.873C775.357 388.105 776.833 387.721 778.465 387.721C780.001 387.721 781.357 388.069 782.533 388.765C783.733 389.461 784.669 390.433 785.341 391.681C786.037 392.905 786.385 394.321 786.385 395.929C786.385 396.121 786.373 396.349 786.349 396.613C786.325 396.853 786.277 397.141 786.205 397.477H771.553V395.317H784.837L783.937 396.109C783.961 394.861 783.745 393.793 783.289 392.905C782.857 391.993 782.221 391.297 781.381 390.817C780.565 390.313 779.569 390.061 778.393 390.061C777.169 390.061 776.101 390.325 775.189 390.853C774.277 391.381 773.557 392.125 773.029 393.085C772.525 394.021 772.273 395.137 772.273 396.433C772.273 397.729 772.537 398.869 773.064 399.853C773.617 400.837 774.373 401.605 775.333 402.157C776.317 402.709 777.445 402.985 778.717 402.985C779.749 402.985 780.697 402.805 781.561 402.445C782.425 402.061 783.157 401.497 783.757 400.753L785.377 402.409C784.585 403.345 783.601 404.077 782.425 404.605C781.273 405.109 780.025 405.361 778.681 405.361ZM794.745 405.001L788.229 388.081H790.857L796.005 402.121L795.069 402.157L800.181 388.081H801.657L806.769 402.157L805.833 402.121L810.945 388.081H813.609L807.057 405.001H805.581L800.361 391.141H801.441L796.257 405.001H794.745ZM829.806 405.361C828.894 405.361 828.018 405.241 827.178 405.001C826.338 404.737 825.57 404.377 824.874 403.921C824.202 403.465 823.614 402.925 823.11 402.301L824.73 400.645C825.402 401.461 826.158 402.073 826.998 402.481C827.862 402.865 828.822 403.057 829.878 403.057C831.006 403.057 831.882 402.841 832.506 402.409C833.154 401.977 833.478 401.377 833.478 400.609C833.478 399.889 833.25 399.325 832.794 398.917C832.338 398.509 831.75 398.185 831.03 397.945C830.334 397.705 829.59 397.477 828.798 397.261C828.006 397.021 827.25 396.733 826.53 396.397C825.81 396.037 825.222 395.545 824.766 394.921C824.334 394.297 824.118 393.481 824.118 392.473C824.118 391.513 824.346 390.685 824.802 389.989C825.282 389.269 825.954 388.717 826.818 388.333C827.706 387.925 828.75 387.721 829.95 387.721C831.222 387.721 832.374 387.949 833.406 388.405C834.438 388.861 835.266 389.533 835.89 390.421L834.27 392.041C833.766 391.393 833.13 390.901 832.362 390.565C831.618 390.205 830.778 390.025 829.842 390.025C828.762 390.025 827.934 390.241 827.358 390.673C826.806 391.081 826.53 391.621 826.53 392.293C826.53 392.941 826.758 393.457 827.214 393.841C827.67 394.201 828.246 394.501 828.942 394.741C829.662 394.957 830.418 395.185 831.21 395.425C832.002 395.641 832.758 395.941 833.478 396.325C834.198 396.685 834.774 397.189 835.206 397.837C835.662 398.461 835.89 399.313 835.89 400.393C835.89 401.905 835.338 403.117 834.234 404.029C833.154 404.917 831.678 405.361 829.806 405.361ZM848.628 405.361C847.332 405.361 846.168 405.097 845.136 404.569C844.104 404.041 843.252 403.321 842.58 402.409C841.932 401.473 841.536 400.393 841.392 399.169V393.877C841.536 392.629 841.944 391.549 842.616 390.637C843.288 389.701 844.14 388.981 845.172 388.477C846.228 387.973 847.38 387.721 848.628 387.721C850.188 387.721 851.592 388.117 852.84 388.909C854.088 389.677 855.072 390.733 855.792 392.077C856.536 393.397 856.908 394.897 856.908 396.577C856.908 398.233 856.548 399.721 855.828 401.041C855.108 402.361 854.112 403.417 852.84 404.209C851.592 404.977 850.188 405.361 848.628 405.361ZM839.88 412.129V388.081H842.4V392.401L841.896 396.505L842.4 400.645V412.129H839.88ZM848.196 402.949C849.396 402.949 850.452 402.685 851.364 402.157C852.276 401.605 852.984 400.849 853.488 399.889C854.016 398.905 854.28 397.789 854.28 396.541C854.28 395.269 854.016 394.153 853.488 393.193C852.984 392.233 852.276 391.477 851.364 390.925C850.452 390.373 849.408 390.097 848.232 390.097C847.056 390.097 846.012 390.373 845.1 390.925C844.212 391.477 843.516 392.233 843.012 393.193C842.508 394.153 842.256 395.269 842.256 396.541C842.256 397.789 842.508 398.905 843.012 399.889C843.516 400.849 844.212 401.605 845.1 402.157C845.988 402.685 847.02 402.949 848.196 402.949ZM868.751 405.361C867.047 405.361 865.523 404.977 864.179 404.209C862.835 403.441 861.767 402.385 860.975 401.041C860.207 399.697 859.823 398.185 859.823 396.505C859.823 394.849 860.207 393.361 860.975 392.041C861.743 390.697 862.787 389.641 864.107 388.873C865.427 388.105 866.903 387.721 868.535 387.721C870.071 387.721 871.427 388.069 872.603 388.765C873.803 389.461 874.739 390.433 875.411 391.681C876.107 392.905 876.455 394.321 876.455 395.929C876.455 396.121 876.443 396.349 876.419 396.613C876.395 396.853 876.347 397.141 876.275 397.477H861.623V395.317H874.907L874.007 396.109C874.031 394.861 873.815 393.793 873.359 392.905C872.927 391.993 872.291 391.297 871.451 390.817C870.635 390.313 869.639 390.061 868.463 390.061C867.239 390.061 866.171 390.325 865.259 390.853C864.347 391.381 863.627 392.125 863.099 393.085C862.595 394.021 862.343 395.137 862.343 396.433C862.343 397.729 862.607 398.869 863.135 399.853C863.687 400.837 864.443 401.605 865.403 402.157C866.387 402.709 867.515 402.985 868.787 402.985C869.819 402.985 870.767 402.805 871.631 402.445C872.495 402.061 873.227 401.497 873.827 400.753L875.447 402.409C874.655 403.345 873.671 404.077 872.495 404.605C871.343 405.109 870.095 405.361 868.751 405.361ZM888.014 405.361C886.358 405.361 884.858 404.977 883.514 404.209C882.194 403.417 881.138 402.349 880.346 401.005C879.578 399.661 879.194 398.161 879.194 396.505C879.194 394.849 879.578 393.361 880.346 392.041C881.138 390.697 882.194 389.641 883.514 388.873C884.858 388.105 886.358 387.721 888.014 387.721C889.286 387.721 890.474 387.961 891.578 388.441C892.682 388.921 893.618 389.593 894.386 390.457L892.73 392.149C892.154 391.501 891.458 391.009 890.642 390.673C889.826 390.313 888.95 390.133 888.014 390.133C886.814 390.133 885.746 390.409 884.81 390.961C883.874 391.513 883.142 392.269 882.614 393.229C882.086 394.165 881.822 395.257 881.822 396.505C881.822 397.729 882.086 398.833 882.614 399.817C883.142 400.777 883.874 401.533 884.81 402.085C885.746 402.637 886.814 402.913 888.014 402.913C888.974 402.913 889.862 402.745 890.678 402.409C891.494 402.049 892.19 401.545 892.766 400.897L894.458 402.589C893.666 403.477 892.706 404.161 891.578 404.641C890.474 405.121 889.286 405.361 888.014 405.361ZM897.994 405.001V388.081H900.55V405.001H897.994ZM899.254 384.409C898.774 384.409 898.366 384.241 898.03 383.905C897.694 383.545 897.526 383.125 897.526 382.645C897.526 382.141 897.694 381.721 898.03 381.385C898.366 381.049 898.774 380.881 899.254 380.881C899.782 380.881 900.202 381.049 900.514 381.385C900.85 381.721 901.018 382.141 901.018 382.645C901.018 383.125 900.85 383.545 900.514 383.905C900.202 384.241 899.782 384.409 899.254 384.409ZM913.47 405.361C911.766 405.361 910.242 404.977 908.898 404.209C907.554 403.441 906.486 402.385 905.694 401.041C904.926 399.697 904.542 398.185 904.542 396.505C904.542 394.849 904.926 393.361 905.694 392.041C906.462 390.697 907.506 389.641 908.826 388.873C910.146 388.105 911.622 387.721 913.254 387.721C914.79 387.721 916.146 388.069 917.322 388.765C918.522 389.461 919.458 390.433 920.13 391.681C920.826 392.905 921.174 394.321 921.174 395.929C921.174 396.121 921.162 396.349 921.138 396.613C921.114 396.853 921.066 397.141 920.994 397.477H906.342V395.317H919.626L918.726 396.109C918.75 394.861 918.534 393.793 918.078 392.905C917.646 391.993 917.01 391.297 916.17 390.817C915.354 390.313 914.358 390.061 913.182 390.061C911.958 390.061 910.89 390.325 909.978 390.853C909.066 391.381 908.346 392.125 907.818 393.085C907.314 394.021 907.062 395.137 907.062 396.433C907.062 397.729 907.326 398.869 907.854 399.853C908.406 400.837 909.162 401.605 910.122 402.157C911.106 402.709 912.234 402.985 913.506 402.985C914.538 402.985 915.486 402.805 916.35 402.445C917.214 402.061 917.946 401.497 918.546 400.753L920.166 402.409C919.374 403.345 918.39 404.077 917.214 404.605C916.062 405.109 914.814 405.361 913.47 405.361ZM930.213 405.361C929.301 405.361 928.425 405.241 927.585 405.001C926.745 404.737 925.977 404.377 925.281 403.921C924.609 403.465 924.021 402.925 923.517 402.301L925.137 400.645C925.809 401.461 926.565 402.073 927.405 402.481C928.269 402.865 929.229 403.057 930.285 403.057C931.413 403.057 932.289 402.841 932.913 402.409C933.561 401.977 933.885 401.377 933.885 400.609C933.885 399.889 933.657 399.325 933.201 398.917C932.745 398.509 932.157 398.185 931.437 397.945C930.741 397.705 929.997 397.477 929.205 397.261C928.413 397.021 927.657 396.733 926.937 396.397C926.217 396.037 925.629 395.545 925.173 394.921C924.741 394.297 924.525 393.481 924.525 392.473C924.525 391.513 924.753 390.685 925.209 389.989C925.689 389.269 926.361 388.717 927.225 388.333C928.113 387.925 929.157 387.721 930.357 387.721C931.629 387.721 932.781 387.949 933.813 388.405C934.845 388.861 935.673 389.533 936.297 390.421L934.677 392.041C934.173 391.393 933.537 390.901 932.769 390.565C932.025 390.205 931.185 390.025 930.249 390.025C929.169 390.025 928.341 390.241 927.765 390.673C927.213 391.081 926.937 391.621 926.937 392.293C926.937 392.941 927.165 393.457 927.621 393.841C928.077 394.201 928.653 394.501 929.349 394.741C930.069 394.957 930.825 395.185 931.617 395.425C932.409 395.641 933.165 395.941 933.885 396.325C934.605 396.685 935.181 397.189 935.613 397.837C936.069 398.461 936.297 399.313 936.297 400.393C936.297 401.905 935.745 403.117 934.641 404.029C933.561 404.917 932.085 405.361 930.213 405.361ZM955.689 405.361C954.057 405.361 952.569 404.965 951.225 404.173C949.905 403.381 948.849 402.313 948.057 400.969C947.289 399.625 946.905 398.125 946.905 396.469C946.905 394.837 947.289 393.361 948.057 392.041C948.849 390.721 949.905 389.677 951.225 388.909C952.569 388.117 954.057 387.721 955.689 387.721C957.345 387.721 958.833 388.105 960.153 388.873C961.473 389.641 962.517 390.697 963.285 392.041C964.077 393.361 964.473 394.837 964.473 396.469C964.473 398.149 964.077 399.661 963.285 401.005C962.517 402.325 961.473 403.381 960.153 404.173C958.833 404.965 957.345 405.361 955.689 405.361ZM955.689 402.913C956.889 402.913 957.945 402.637 958.857 402.085C959.793 401.533 960.525 400.765 961.053 399.781C961.605 398.797 961.881 397.693 961.881 396.469C961.881 395.245 961.605 394.165 961.053 393.229C960.525 392.269 959.793 391.513 958.857 390.961C957.945 390.409 956.889 390.133 955.689 390.133C954.513 390.133 953.457 390.409 952.521 390.961C951.585 391.513 950.853 392.269 950.325 393.229C949.797 394.165 949.533 395.245 949.533 396.469C949.533 397.717 949.797 398.833 950.325 399.817C950.853 400.777 951.585 401.533 952.521 402.085C953.457 402.637 954.513 402.913 955.689 402.913ZM970.368 405.001V385.201C970.368 384.025 970.62 382.981 971.124 382.069C971.652 381.157 972.372 380.449 973.284 379.945C974.22 379.417 975.276 379.153 976.452 379.153C977.364 379.153 978.168 379.321 978.864 379.657C979.56 379.969 980.196 380.413 980.772 380.989L979.116 382.645C978.732 382.261 978.324 381.985 977.892 381.817C977.484 381.625 977.004 381.529 976.452 381.529C975.324 381.529 974.448 381.865 973.824 382.537C973.224 383.185 972.924 384.097 972.924 385.273V405.001H970.368ZM966.12 390.349V388.081H978.576V390.349H966.12ZM994.538 405.001L988.022 388.081H990.65L995.798 402.121L994.862 402.157L999.974 388.081H1001.45L1006.56 402.157L1005.63 402.121L1010.74 388.081H1013.4L1006.85 405.001H1005.37L1000.15 391.141H1001.23L996.05 405.001H994.538ZM1023.93 405.361C1022.23 405.361 1020.7 404.977 1019.36 404.209C1018.01 403.441 1016.95 402.385 1016.15 401.041C1015.39 399.697 1015 398.185 1015 396.505C1015 394.849 1015.39 393.361 1016.15 392.041C1016.92 390.697 1017.97 389.641 1019.29 388.873C1020.61 388.105 1022.08 387.721 1023.71 387.721C1025.25 387.721 1026.61 388.069 1027.78 388.765C1028.98 389.461 1029.92 390.433 1030.59 391.681C1031.29 392.905 1031.63 394.321 1031.63 395.929C1031.63 396.121 1031.62 396.349 1031.6 396.613C1031.57 396.853 1031.53 397.141 1031.45 397.477H1016.8V395.317H1030.09L1029.19 396.109C1029.21 394.861 1028.99 393.793 1028.54 392.905C1028.11 391.993 1027.47 391.297 1026.63 390.817C1025.81 390.313 1024.82 390.061 1023.64 390.061C1022.42 390.061 1021.35 390.325 1020.44 390.853C1019.53 391.381 1018.81 392.125 1018.28 393.085C1017.77 394.021 1017.52 395.137 1017.52 396.433C1017.52 397.729 1017.79 398.869 1018.31 399.853C1018.87 400.837 1019.62 401.605 1020.58 402.157C1021.57 402.709 1022.69 402.985 1023.97 402.985C1025 402.985 1025.95 402.805 1026.81 402.445C1027.67 402.061 1028.41 401.497 1029.01 400.753L1030.63 402.409C1029.83 403.345 1028.85 404.077 1027.67 404.605C1026.52 405.109 1025.27 405.361 1023.93 405.361ZM1044.24 405.361C1042.94 405.361 1041.78 405.097 1040.75 404.569C1039.71 404.041 1038.86 403.321 1038.19 402.409C1037.54 401.473 1037.15 400.393 1037 399.169V393.877C1037.15 392.629 1037.55 391.549 1038.23 390.637C1038.9 389.701 1039.75 388.981 1040.78 388.477C1041.84 387.973 1042.99 387.721 1044.24 387.721C1045.8 387.721 1047.2 388.117 1048.45 388.909C1049.7 389.677 1050.68 390.733 1051.4 392.077C1052.15 393.397 1052.52 394.897 1052.52 396.577C1052.52 398.233 1052.16 399.721 1051.44 401.041C1050.72 402.361 1049.72 403.417 1048.45 404.209C1047.2 404.977 1045.8 405.361 1044.24 405.361ZM1035.49 405.001V379.513H1038.01V392.221L1037.51 396.289L1038.01 400.465V405.001H1035.49ZM1043.81 402.949C1045.01 402.949 1046.06 402.685 1046.97 402.157C1047.89 401.605 1048.59 400.849 1049.1 399.889C1049.63 398.905 1049.89 397.789 1049.89 396.541C1049.89 395.269 1049.63 394.153 1049.1 393.193C1048.59 392.233 1047.89 391.477 1046.97 390.925C1046.06 390.373 1045.02 390.097 1043.84 390.097C1042.67 390.097 1041.62 390.373 1040.71 390.925C1039.82 391.477 1039.13 392.233 1038.62 393.193C1038.12 394.153 1037.87 395.269 1037.87 396.541C1037.87 397.789 1038.12 398.905 1038.62 399.889C1039.13 400.849 1039.82 401.605 1040.71 402.157C1041.6 402.685 1042.63 402.949 1043.81 402.949ZM1063.89 405.361C1062.28 405.361 1060.84 404.977 1059.57 404.209C1058.3 403.417 1057.29 402.361 1056.55 401.041C1055.83 399.721 1055.47 398.233 1055.47 396.577C1055.47 394.897 1055.83 393.397 1056.55 392.077C1057.29 390.733 1058.3 389.677 1059.57 388.909C1060.84 388.117 1062.27 387.721 1063.86 387.721C1065.15 387.721 1066.3 387.985 1067.31 388.513C1068.34 389.017 1069.17 389.737 1069.8 390.673C1070.44 391.585 1070.84 392.653 1070.98 393.877V399.169C1070.84 400.393 1070.44 401.473 1069.8 402.409C1069.17 403.345 1068.34 404.077 1067.31 404.605C1066.3 405.109 1065.16 405.361 1063.89 405.361ZM1064.29 402.949C1066.04 402.949 1067.44 402.361 1068.5 401.185C1069.58 400.009 1070.12 398.461 1070.12 396.541C1070.12 395.269 1069.87 394.153 1069.36 393.193C1068.88 392.209 1068.2 391.453 1067.31 390.925C1066.45 390.373 1065.43 390.097 1064.25 390.097C1063.05 390.097 1061.98 390.373 1061.05 390.925C1060.14 391.477 1059.4 392.245 1058.85 393.229C1058.32 394.189 1058.06 395.293 1058.06 396.541C1058.06 397.789 1058.32 398.893 1058.85 399.853C1059.4 400.813 1060.15 401.569 1061.08 402.121C1062.02 402.673 1063.09 402.949 1064.29 402.949ZM1069.98 405.001V400.465L1070.48 396.289L1069.98 392.221V388.081H1072.5V405.001H1069.98ZM1086.35 405.361C1085.06 405.361 1083.89 405.097 1082.86 404.569C1081.83 404.041 1080.98 403.321 1080.31 402.409C1079.66 401.473 1079.26 400.393 1079.12 399.169V393.877C1079.26 392.629 1079.67 391.549 1080.34 390.637C1081.01 389.701 1081.87 388.981 1082.9 388.477C1083.95 387.973 1085.11 387.721 1086.35 387.721C1087.91 387.721 1089.32 388.117 1090.57 388.909C1091.81 389.677 1092.8 390.733 1093.52 392.077C1094.26 393.397 1094.63 394.897 1094.63 396.577C1094.63 398.233 1094.27 399.721 1093.55 401.041C1092.83 402.361 1091.84 403.417 1090.57 404.209C1089.32 404.977 1087.91 405.361 1086.35 405.361ZM1077.61 412.129V388.081H1080.13V392.401L1079.62 396.505L1080.13 400.645V412.129H1077.61ZM1085.92 402.949C1087.12 402.949 1088.18 402.685 1089.09 402.157C1090 401.605 1090.71 400.849 1091.21 399.889C1091.74 398.905 1092.01 397.789 1092.01 396.541C1092.01 395.269 1091.74 394.153 1091.21 393.193C1090.71 392.233 1090 391.477 1089.09 390.925C1088.18 390.373 1087.13 390.097 1085.96 390.097C1084.78 390.097 1083.74 390.373 1082.83 390.925C1081.94 391.477 1081.24 392.233 1080.74 393.193C1080.23 394.153 1079.98 395.269 1079.98 396.541C1079.98 397.789 1080.23 398.905 1080.74 399.889C1081.24 400.849 1081.94 401.605 1082.83 402.157C1083.71 402.685 1084.75 402.949 1085.92 402.949ZM1107.41 405.361C1106.12 405.361 1104.95 405.097 1103.92 404.569C1102.89 404.041 1102.04 403.321 1101.37 402.409C1100.72 401.473 1100.32 400.393 1100.18 399.169V393.877C1100.32 392.629 1100.73 391.549 1101.4 390.637C1102.07 389.701 1102.93 388.981 1103.96 388.477C1105.01 387.973 1106.17 387.721 1107.41 387.721C1108.97 387.721 1110.38 388.117 1111.63 388.909C1112.87 389.677 1113.86 390.733 1114.58 392.077C1115.32 393.397 1115.69 394.897 1115.69 396.577C1115.69 398.233 1115.33 399.721 1114.61 401.041C1113.89 402.361 1112.9 403.417 1111.63 404.209C1110.38 404.977 1108.97 405.361 1107.41 405.361ZM1098.67 412.129V388.081H1101.19V392.401L1100.68 396.505L1101.19 400.645V412.129H1098.67ZM1106.98 402.949C1108.18 402.949 1109.24 402.685 1110.15 402.157C1111.06 401.605 1111.77 400.849 1112.27 399.889C1112.8 398.905 1113.07 397.789 1113.07 396.541C1113.07 395.269 1112.8 394.153 1112.27 393.193C1111.77 392.233 1111.06 391.477 1110.15 390.925C1109.24 390.373 1108.19 390.097 1107.02 390.097C1105.84 390.097 1104.8 390.373 1103.89 390.925C1103 391.477 1102.3 392.233 1101.8 393.193C1101.29 394.153 1101.04 395.269 1101.04 396.541C1101.04 397.789 1101.29 398.905 1101.8 399.889C1102.3 400.849 1103 401.605 1103.89 402.157C1104.77 402.685 1105.81 402.949 1106.98 402.949ZM1124.91 405.361C1124 405.361 1123.12 405.241 1122.28 405.001C1121.44 404.737 1120.67 404.377 1119.98 403.921C1119.3 403.465 1118.72 402.925 1118.21 402.301L1119.83 400.645C1120.5 401.461 1121.26 402.073 1122.1 402.481C1122.96 402.865 1123.92 403.057 1124.98 403.057C1126.11 403.057 1126.98 402.841 1127.61 402.409C1128.26 401.977 1128.58 401.377 1128.58 400.609C1128.58 399.889 1128.35 399.325 1127.9 398.917C1127.44 398.509 1126.85 398.185 1126.13 397.945C1125.44 397.705 1124.69 397.477 1123.9 397.261C1123.11 397.021 1122.35 396.733 1121.63 396.397C1120.91 396.037 1120.32 395.545 1119.87 394.921C1119.44 394.297 1119.22 393.481 1119.22 392.473C1119.22 391.513 1119.45 390.685 1119.9 389.989C1120.38 389.269 1121.06 388.717 1121.92 388.333C1122.81 387.925 1123.85 387.721 1125.05 387.721C1126.32 387.721 1127.48 387.949 1128.51 388.405C1129.54 388.861 1130.37 389.533 1130.99 390.421L1129.37 392.041C1128.87 391.393 1128.23 390.901 1127.46 390.565C1126.72 390.205 1125.88 390.025 1124.94 390.025C1123.86 390.025 1123.04 390.241 1122.46 390.673C1121.91 391.081 1121.63 391.621 1121.63 392.293C1121.63 392.941 1121.86 393.457 1122.32 393.841C1122.77 394.201 1123.35 394.501 1124.04 394.741C1124.76 394.957 1125.52 395.185 1126.31 395.425C1127.1 395.641 1127.86 395.941 1128.58 396.325C1129.3 396.685 1129.88 397.189 1130.31 397.837C1130.76 398.461 1130.99 399.313 1130.99 400.393C1130.99 401.905 1130.44 403.117 1129.34 404.029C1128.26 404.917 1126.78 405.361 1124.91 405.361ZM507.272 450.001L500.756 433.081H503.384L508.532 447.121L507.596 447.157L512.708 433.081H514.184L519.296 447.157L518.36 447.121L523.472 433.081H526.136L519.584 450.001H518.108L512.888 436.141H513.968L508.784 450.001H507.272ZM541.727 450.001V440.065C541.727 438.577 541.283 437.377 540.395 436.465C539.531 435.529 538.379 435.061 536.939 435.061C535.955 435.061 535.091 435.277 534.347 435.709C533.603 436.141 533.015 436.729 532.583 437.473C532.151 438.217 531.935 439.069 531.935 440.029L530.783 439.381C530.783 438.109 531.083 436.969 531.683 435.961C532.283 434.953 533.087 434.161 534.095 433.585C535.127 433.009 536.303 432.721 537.623 432.721C538.919 432.721 540.071 433.021 541.079 433.621C542.087 434.197 542.867 435.001 543.419 436.033C543.995 437.065 544.283 438.265 544.283 439.633V450.001H541.727ZM529.415 450.001V424.513H531.935V450.001H529.415ZM556.809 450.361C555.105 450.361 553.581 449.977 552.237 449.209C550.893 448.441 549.825 447.385 549.033 446.041C548.265 444.697 547.881 443.185 547.881 441.505C547.881 439.849 548.265 438.361 549.033 437.041C549.801 435.697 550.845 434.641 552.165 433.873C553.485 433.105 554.961 432.721 556.593 432.721C558.129 432.721 559.485 433.069 560.661 433.765C561.861 434.461 562.797 435.433 563.469 436.681C564.165 437.905 564.513 439.321 564.513 440.929C564.513 441.121 564.501 441.349 564.477 441.613C564.453 441.853 564.405 442.141 564.333 442.477H549.681V440.317H562.965L562.065 441.109C562.089 439.861 561.873 438.793 561.417 437.905C560.985 436.993 560.349 436.297 559.509 435.817C558.693 435.313 557.697 435.061 556.521 435.061C555.297 435.061 554.229 435.325 553.317 435.853C552.405 436.381 551.685 437.125 551.157 438.085C550.653 439.021 550.401 440.137 550.401 441.433C550.401 442.729 550.665 443.869 551.193 444.853C551.745 445.837 552.501 446.605 553.461 447.157C554.445 447.709 555.573 447.985 556.845 447.985C557.877 447.985 558.825 447.805 559.689 447.445C560.553 447.061 561.285 446.497 561.885 445.753L563.505 447.409C562.713 448.345 561.729 449.077 560.553 449.605C559.401 450.109 558.153 450.361 556.809 450.361ZM580.681 450.001V440.065C580.681 438.577 580.237 437.377 579.349 436.465C578.485 435.529 577.333 435.061 575.893 435.061C574.909 435.061 574.045 435.277 573.301 435.709C572.557 436.141 571.969 436.729 571.537 437.473C571.105 438.217 570.889 439.069 570.889 440.029L569.737 439.381C569.737 438.109 570.037 436.969 570.637 435.961C571.237 434.953 572.041 434.161 573.049 433.585C574.081 433.009 575.257 432.721 576.577 432.721C577.873 432.721 579.025 433.033 580.033 433.657C581.041 434.281 581.821 435.121 582.373 436.177C582.949 437.233 583.237 438.385 583.237 439.633V450.001H580.681ZM568.369 450.001V433.081H570.889V450.001H568.369ZM596.297 450.001V425.233H598.925V450.001H596.297ZM612.533 450.001V425.233H615.161V450.001H612.533ZM598.025 438.409V435.997H613.253V438.409H598.025ZM628.38 450.001V425.917H631.044V450.001H628.38ZM619.668 427.645V425.233H639.756V427.645H619.668ZM644.25 450.001V425.233H646.122L656.814 442.765H655.482L666.174 425.233H668.046V450.001H665.382V429.841L665.994 429.985L657.066 444.637H655.194L646.266 429.985L646.878 429.841V450.001H644.25ZM674.344 450.001V425.233H676.972V450.001H674.344ZM676.072 450.001V447.589H689.716V450.001H676.072ZM708.931 450.361C707.227 450.361 705.703 449.977 704.359 449.209C703.015 448.441 701.947 447.385 701.155 446.041C700.387 444.697 700.003 443.185 700.003 441.505C700.003 439.849 700.387 438.361 701.155 437.041C701.923 435.697 702.967 434.641 704.287 433.873C705.607 433.105 707.083 432.721 708.715 432.721C710.251 432.721 711.607 433.069 712.783 433.765C713.983 434.461 714.919 435.433 715.591 436.681C716.287 437.905 716.635 439.321 716.635 440.929C716.635 441.121 716.623 441.349 716.599 441.613C716.575 441.853 716.527 442.141 716.455 442.477H701.803V440.317H715.087L714.187 441.109C714.211 439.861 713.995 438.793 713.539 437.905C713.107 436.993 712.471 436.297 711.631 435.817C710.815 435.313 709.819 435.061 708.643 435.061C707.419 435.061 706.351 435.325 705.439 435.853C704.527 436.381 703.807 437.125 703.279 438.085C702.775 439.021 702.523 440.137 702.523 441.433C702.523 442.729 702.787 443.869 703.314 444.853C703.867 445.837 704.623 446.605 705.583 447.157C706.567 447.709 707.695 447.985 708.967 447.985C709.999 447.985 710.947 447.805 711.811 447.445C712.675 447.061 713.407 446.497 714.007 445.753L715.627 447.409C714.835 448.345 713.851 449.077 712.675 449.605C711.523 450.109 710.275 450.361 708.931 450.361ZM731.447 450.001L725.795 442.297L725.255 441.865L718.451 433.081H721.583L726.839 439.993L727.343 440.425L734.543 450.001H731.447ZM718.163 450.001L725.291 440.713L726.695 442.585L721.151 450.001H718.163ZM727.523 441.829L726.083 439.993L731.267 433.081H734.255L727.523 441.829ZM745.141 450.361C743.437 450.361 741.913 449.977 740.569 449.209C739.225 448.441 738.157 447.385 737.365 446.041C736.597 444.697 736.213 443.185 736.213 441.505C736.213 439.849 736.597 438.361 737.365 437.041C738.133 435.697 739.177 434.641 740.497 433.873C741.817 433.105 743.293 432.721 744.925 432.721C746.461 432.721 747.817 433.069 748.993 433.765C750.193 434.461 751.129 435.433 751.801 436.681C752.497 437.905 752.845 439.321 752.845 440.929C752.845 441.121 752.833 441.349 752.809 441.613C752.785 441.853 752.737 442.141 752.665 442.477H738.013V440.317H751.297L750.397 441.109C750.421 439.861 750.205 438.793 749.749 437.905C749.317 436.993 748.681 436.297 747.841 435.817C747.025 435.313 746.029 435.061 744.853 435.061C743.629 435.061 742.561 435.325 741.649 435.853C740.737 436.381 740.017 437.125 739.489 438.085C738.985 439.021 738.733 440.137 738.733 441.433C738.733 442.729 738.997 443.869 739.525 444.853C740.077 445.837 740.833 446.605 741.793 447.157C742.777 447.709 743.905 447.985 745.177 447.985C746.209 447.985 747.157 447.805 748.021 447.445C748.885 447.061 749.617 446.497 750.217 445.753L751.837 447.409C751.045 448.345 750.061 449.077 748.885 449.605C747.733 450.109 746.485 450.361 745.141 450.361ZM764.405 450.361C762.749 450.361 761.249 449.977 759.905 449.209C758.585 448.417 757.529 447.349 756.737 446.005C755.969 444.661 755.585 443.161 755.585 441.505C755.585 439.849 755.969 438.361 756.737 437.041C757.529 435.697 758.585 434.641 759.905 433.873C761.249 433.105 762.749 432.721 764.405 432.721C765.677 432.721 766.865 432.961 767.969 433.441C769.073 433.921 770.009 434.593 770.777 435.457L769.121 437.149C768.545 436.501 767.849 436.009 767.033 435.673C766.217 435.313 765.341 435.133 764.405 435.133C763.205 435.133 762.137 435.409 761.201 435.961C760.265 436.513 759.533 437.269 759.005 438.229C758.477 439.165 758.213 440.257 758.213 441.505C758.213 442.729 758.477 443.833 759.005 444.817C759.533 445.777 760.265 446.533 761.201 447.085C762.137 447.637 763.205 447.913 764.405 447.913C765.365 447.913 766.253 447.745 767.069 447.409C767.885 447.049 768.581 446.545 769.157 445.897L770.849 447.589C770.057 448.477 769.097 449.161 767.969 449.641C766.865 450.121 765.677 450.361 764.405 450.361ZM781.08 450.361C779.712 450.361 778.488 450.049 777.408 449.425C776.328 448.777 775.476 447.901 774.852 446.797C774.252 445.693 773.952 444.397 773.952 442.909V433.081H776.508V442.801C776.508 443.833 776.688 444.733 777.048 445.501C777.432 446.269 777.972 446.869 778.668 447.301C779.364 447.733 780.168 447.949 781.08 447.949C782.496 447.949 783.612 447.481 784.428 446.545C785.268 445.609 785.688 444.361 785.688 442.801V433.081H788.208V442.909C788.208 444.373 787.908 445.669 787.308 446.797C786.708 447.925 785.868 448.801 784.788 449.425C783.708 450.049 782.472 450.361 781.08 450.361ZM795.539 450.001V425.953H798.059V450.001H795.539ZM791.255 435.349V433.081H802.307V435.349H791.255ZM812.993 450.361C811.289 450.361 809.765 449.977 808.421 449.209C807.077 448.441 806.009 447.385 805.217 446.041C804.449 444.697 804.065 443.185 804.065 441.505C804.065 439.849 804.449 438.361 805.217 437.041C805.985 435.697 807.029 434.641 808.349 433.873C809.669 433.105 811.145 432.721 812.777 432.721C814.313 432.721 815.669 433.069 816.845 433.765C818.045 434.461 818.981 435.433 819.653 436.681C820.349 437.905 820.697 439.321 820.697 440.929C820.697 441.121 820.685 441.349 820.661 441.613C820.637 441.853 820.589 442.141 820.517 442.477H805.865V440.317H819.149L818.249 441.109C818.273 439.861 818.057 438.793 817.601 437.905C817.169 436.993 816.533 436.297 815.693 435.817C814.877 435.313 813.881 435.061 812.705 435.061C811.481 435.061 810.413 435.325 809.501 435.853C808.589 436.381 807.869 437.125 807.341 438.085C806.837 439.021 806.585 440.137 806.585 441.433C806.585 442.729 806.849 443.869 807.377 444.853C807.929 445.837 808.685 446.605 809.645 447.157C810.629 447.709 811.757 447.985 813.029 447.985C814.061 447.985 815.009 447.805 815.873 447.445C816.737 447.061 817.469 446.497 818.069 445.753L819.689 447.409C818.897 448.345 817.913 449.077 816.737 449.605C815.585 450.109 814.337 450.361 812.993 450.361ZM829.736 450.361C828.824 450.361 827.948 450.241 827.108 450.001C826.268 449.737 825.5 449.377 824.804 448.921C824.132 448.465 823.544 447.925 823.04 447.301L824.66 445.645C825.332 446.461 826.088 447.073 826.928 447.481C827.792 447.865 828.752 448.057 829.808 448.057C830.936 448.057 831.812 447.841 832.436 447.409C833.084 446.977 833.408 446.377 833.408 445.609C833.408 444.889 833.18 444.325 832.724 443.917C832.268 443.509 831.68 443.185 830.96 442.945C830.264 442.705 829.52 442.477 828.728 442.261C827.936 442.021 827.18 441.733 826.46 441.397C825.74 441.037 825.152 440.545 824.696 439.921C824.264 439.297 824.048 438.481 824.048 437.473C824.048 436.513 824.276 435.685 824.732 434.989C825.212 434.269 825.884 433.717 826.748 433.333C827.636 432.925 828.68 432.721 829.88 432.721C831.152 432.721 832.304 432.949 833.336 433.405C834.368 433.861 835.196 434.533 835.82 435.421L834.2 437.041C833.696 436.393 833.06 435.901 832.292 435.565C831.548 435.205 830.708 435.025 829.772 435.025C828.692 435.025 827.864 435.241 827.288 435.673C826.736 436.081 826.46 436.621 826.46 437.293C826.46 437.941 826.688 438.457 827.144 438.841C827.6 439.201 828.176 439.501 828.872 439.741C829.592 439.957 830.348 440.185 831.14 440.425C831.932 440.641 832.688 440.941 833.408 441.325C834.128 441.685 834.704 442.189 835.136 442.837C835.592 443.461 835.82 444.313 835.82 445.393C835.82 446.905 835.268 448.117 834.164 449.029C833.084 449.917 831.608 450.361 829.736 450.361ZM855.212 450.361C853.58 450.361 852.092 449.965 850.748 449.173C849.428 448.381 848.372 447.313 847.58 445.969C846.812 444.625 846.428 443.125 846.428 441.469C846.428 439.837 846.812 438.361 847.58 437.041C848.372 435.721 849.428 434.677 850.748 433.909C852.092 433.117 853.58 432.721 855.212 432.721C856.868 432.721 858.356 433.105 859.676 433.873C860.996 434.641 862.04 435.697 862.808 437.041C863.6 438.361 863.996 439.837 863.996 441.469C863.996 443.149 863.6 444.661 862.808 446.005C862.04 447.325 860.996 448.381 859.676 449.173C858.356 449.965 856.868 450.361 855.212 450.361ZM855.212 447.913C856.412 447.913 857.468 447.637 858.38 447.085C859.316 446.533 860.048 445.765 860.576 444.781C861.128 443.797 861.404 442.693 861.404 441.469C861.404 440.245 861.128 439.165 860.576 438.229C860.048 437.269 859.316 436.513 858.38 435.961C857.468 435.409 856.412 435.133 855.212 435.133C854.036 435.133 852.98 435.409 852.044 435.961C851.108 436.513 850.376 437.269 849.848 438.229C849.32 439.165 849.056 440.245 849.056 441.469C849.056 442.717 849.32 443.833 849.848 444.817C850.376 445.777 851.108 446.533 852.044 447.085C852.98 447.637 854.036 447.913 855.212 447.913ZM874.701 450.361C873.333 450.361 872.109 450.049 871.029 449.425C869.949 448.777 869.097 447.901 868.473 446.797C867.873 445.693 867.573 444.397 867.573 442.909V433.081H870.129V442.801C870.129 443.833 870.309 444.733 870.669 445.501C871.053 446.269 871.593 446.869 872.289 447.301C872.985 447.733 873.789 447.949 874.701 447.949C876.117 447.949 877.233 447.481 878.049 446.545C878.889 445.609 879.309 444.361 879.309 442.801V433.081H881.829V442.909C881.829 444.373 881.529 445.669 880.929 446.797C880.329 447.925 879.489 448.801 878.409 449.425C877.329 450.049 876.093 450.361 874.701 450.361ZM889.161 450.001V425.953H891.681V450.001H889.161ZM884.877 435.349V433.081H895.929V435.349H884.877ZM904.232 450.361C903.32 450.361 902.444 450.241 901.604 450.001C900.764 449.737 899.996 449.377 899.3 448.921C898.628 448.465 898.04 447.925 897.536 447.301L899.156 445.645C899.828 446.461 900.584 447.073 901.424 447.481C902.288 447.865 903.248 448.057 904.304 448.057C905.432 448.057 906.308 447.841 906.932 447.409C907.58 446.977 907.904 446.377 907.904 445.609C907.904 444.889 907.676 444.325 907.22 443.917C906.764 443.509 906.176 443.185 905.456 442.945C904.76 442.705 904.016 442.477 903.224 442.261C902.432 442.021 901.676 441.733 900.956 441.397C900.236 441.037 899.648 440.545 899.192 439.921C898.76 439.297 898.544 438.481 898.544 437.473C898.544 436.513 898.772 435.685 899.228 434.989C899.708 434.269 900.38 433.717 901.244 433.333C902.132 432.925 903.176 432.721 904.376 432.721C905.648 432.721 906.8 432.949 907.832 433.405C908.864 433.861 909.692 434.533 910.316 435.421L908.696 437.041C908.192 436.393 907.556 435.901 906.788 435.565C906.044 435.205 905.204 435.025 904.268 435.025C903.188 435.025 902.36 435.241 901.784 435.673C901.232 436.081 900.956 436.621 900.956 437.293C900.956 437.941 901.184 438.457 901.64 438.841C902.096 439.201 902.672 439.501 903.368 439.741C904.088 439.957 904.844 440.185 905.636 440.425C906.428 440.641 907.184 440.941 907.904 441.325C908.624 441.685 909.2 442.189 909.632 442.837C910.088 443.461 910.316 444.313 910.316 445.393C910.316 446.905 909.764 448.117 908.66 449.029C907.58 449.917 906.104 450.361 904.232 450.361ZM914.306 450.001V433.081H916.862V450.001H914.306ZM915.566 429.409C915.086 429.409 914.678 429.241 914.342 428.905C914.006 428.545 913.838 428.125 913.838 427.645C913.838 427.141 914.006 426.721 914.342 426.385C914.678 426.049 915.086 425.881 915.566 425.881C916.094 425.881 916.514 426.049 916.826 426.385C917.162 426.721 917.33 427.141 917.33 427.645C917.33 428.125 917.162 428.545 916.826 428.905C916.514 429.241 916.094 429.409 915.566 429.409ZM929.17 450.361C927.61 450.361 926.206 449.977 924.958 449.209C923.71 448.441 922.714 447.397 921.97 446.077C921.25 444.733 920.89 443.233 920.89 441.577C920.89 439.897 921.25 438.397 921.97 437.077C922.714 435.733 923.71 434.677 924.958 433.909C926.206 433.117 927.61 432.721 929.17 432.721C930.442 432.721 931.594 432.973 932.626 433.477C933.658 433.981 934.51 434.701 935.182 435.637C935.878 436.549 936.286 437.629 936.406 438.877V444.169C936.262 445.393 935.854 446.473 935.182 447.409C934.534 448.321 933.694 449.041 932.662 449.569C931.63 450.097 930.466 450.361 929.17 450.361ZM929.602 447.949C930.778 447.949 931.81 447.685 932.698 447.157C933.586 446.605 934.282 445.849 934.786 444.889C935.29 443.905 935.542 442.789 935.542 441.541C935.542 440.269 935.278 439.153 934.75 438.193C934.246 437.233 933.55 436.477 932.662 435.925C931.774 435.373 930.742 435.097 929.566 435.097C928.39 435.097 927.346 435.373 926.434 435.925C925.522 436.477 924.802 437.245 924.274 438.229C923.77 439.189 923.518 440.293 923.518 441.541C923.518 442.789 923.77 443.905 924.274 444.889C924.802 445.849 925.522 446.605 926.434 447.157C927.37 447.685 928.426 447.949 929.602 447.949ZM937.918 450.001H935.398V445.465L935.902 441.289L935.398 437.221V424.513H937.918V450.001ZM950.841 450.361C949.137 450.361 947.613 449.977 946.269 449.209C944.925 448.441 943.857 447.385 943.065 446.041C942.297 444.697 941.913 443.185 941.913 441.505C941.913 439.849 942.297 438.361 943.065 437.041C943.833 435.697 944.877 434.641 946.197 433.873C947.517 433.105 948.993 432.721 950.625 432.721C952.161 432.721 953.517 433.069 954.693 433.765C955.893 434.461 956.829 435.433 957.501 436.681C958.197 437.905 958.545 439.321 958.545 440.929C958.545 441.121 958.533 441.349 958.509 441.613C958.485 441.853 958.437 442.141 958.365 442.477H943.713V440.317H956.997L956.097 441.109C956.121 439.861 955.905 438.793 955.449 437.905C955.017 436.993 954.381 436.297 953.541 435.817C952.725 435.313 951.729 435.061 950.553 435.061C949.329 435.061 948.261 435.325 947.349 435.853C946.437 436.381 945.717 437.125 945.189 438.085C944.685 439.021 944.433 440.137 944.433 441.433C944.433 442.729 944.697 443.869 945.225 444.853C945.777 445.837 946.533 446.605 947.493 447.157C948.477 447.709 949.605 447.985 950.877 447.985C951.909 447.985 952.857 447.805 953.721 447.445C954.585 447.061 955.317 446.497 955.917 445.753L957.537 447.409C956.745 448.345 955.761 449.077 954.585 449.605C953.433 450.109 952.185 450.361 950.841 450.361ZM972.762 450.001V425.953H975.282V450.001H972.762ZM968.478 435.349V433.081H979.53V435.349H968.478ZM995.313 450.001V440.065C995.313 438.577 994.869 437.377 993.981 436.465C993.117 435.529 991.965 435.061 990.525 435.061C989.541 435.061 988.677 435.277 987.933 435.709C987.189 436.141 986.601 436.729 986.169 437.473C985.737 438.217 985.521 439.069 985.521 440.029L984.369 439.381C984.369 438.109 984.669 436.969 985.269 435.961C985.869 434.953 986.673 434.161 987.681 433.585C988.713 433.009 989.889 432.721 991.209 432.721C992.505 432.721 993.657 433.021 994.665 433.621C995.673 434.197 996.453 435.001 997.005 436.033C997.581 437.065 997.869 438.265 997.869 439.633V450.001H995.313ZM983.001 450.001V424.513H985.521V450.001H983.001ZM1010.4 450.361C1008.69 450.361 1007.17 449.977 1005.82 449.209C1004.48 448.441 1003.41 447.385 1002.62 446.041C1001.85 444.697 1001.47 443.185 1001.47 441.505C1001.47 439.849 1001.85 438.361 1002.62 437.041C1003.39 435.697 1004.43 434.641 1005.75 433.873C1007.07 433.105 1008.55 432.721 1010.18 432.721C1011.72 432.721 1013.07 433.069 1014.25 433.765C1015.45 434.461 1016.38 435.433 1017.06 436.681C1017.75 437.905 1018.1 439.321 1018.1 440.929C1018.1 441.121 1018.09 441.349 1018.06 441.613C1018.04 441.853 1017.99 442.141 1017.92 442.477H1003.27V440.317H1016.55L1015.65 441.109C1015.68 439.861 1015.46 438.793 1015 437.905C1014.57 436.993 1013.94 436.297 1013.1 435.817C1012.28 435.313 1011.28 435.061 1010.11 435.061C1008.88 435.061 1007.82 435.325 1006.9 435.853C1005.99 436.381 1005.27 437.125 1004.74 438.085C1004.24 439.021 1003.99 440.137 1003.99 441.433C1003.99 442.729 1004.25 443.869 1004.78 444.853C1005.33 445.837 1006.09 446.605 1007.05 447.157C1008.03 447.709 1009.16 447.985 1010.43 447.985C1011.46 447.985 1012.41 447.805 1013.28 447.445C1014.14 447.061 1014.87 446.497 1015.47 445.753L1017.09 447.409C1016.3 448.345 1015.32 449.077 1014.14 449.605C1012.99 450.109 1011.74 450.361 1010.4 450.361ZM1031.92 450.001V447.553H1039.19C1041.14 447.553 1042.85 447.133 1044.34 446.293C1045.83 445.429 1046.99 444.253 1047.83 442.765C1048.67 441.253 1049.09 439.525 1049.09 437.581C1049.09 435.637 1048.67 433.921 1047.83 432.433C1046.99 430.945 1045.83 429.781 1044.34 428.941C1042.85 428.077 1041.14 427.645 1039.19 427.645H1031.99V425.233H1039.26C1041.06 425.233 1042.72 425.545 1044.23 426.169C1045.77 426.769 1047.1 427.633 1048.23 428.761C1049.38 429.865 1050.27 431.173 1050.89 432.685C1051.52 434.173 1051.83 435.817 1051.83 437.617C1051.83 439.369 1051.52 441.001 1050.89 442.513C1050.27 444.025 1049.39 445.345 1048.26 446.473C1047.14 447.577 1045.8 448.441 1044.27 449.065C1042.76 449.689 1041.11 450.001 1039.34 450.001H1031.92ZM1030.3 450.001V425.233H1032.93V450.001H1030.3ZM1068.07 450.361C1066.32 450.361 1064.69 450.037 1063.18 449.389C1061.69 448.717 1060.38 447.805 1059.25 446.653C1058.13 445.477 1057.24 444.121 1056.59 442.585C1055.97 441.025 1055.65 439.357 1055.65 437.581C1055.65 435.781 1055.97 434.113 1056.59 432.577C1057.21 431.041 1058.09 429.697 1059.22 428.545C1060.35 427.393 1061.65 426.493 1063.14 425.845C1064.63 425.197 1066.25 424.873 1068 424.873C1069.75 424.873 1071.37 425.197 1072.86 425.845C1074.37 426.493 1075.69 427.393 1076.82 428.545C1077.95 429.697 1078.83 431.053 1079.45 432.613C1080.07 434.149 1080.39 435.817 1080.39 437.617C1080.39 439.393 1080.07 441.061 1079.45 442.621C1078.83 444.157 1077.95 445.501 1076.82 446.653C1075.72 447.805 1074.42 448.717 1072.93 449.389C1071.45 450.037 1069.83 450.361 1068.07 450.361ZM1068 447.805C1069.87 447.805 1071.53 447.361 1072.97 446.473C1074.43 445.585 1075.57 444.373 1076.39 442.837C1077.23 441.301 1077.65 439.549 1077.65 437.581C1077.65 436.117 1077.41 434.773 1076.93 433.549C1076.45 432.301 1075.78 431.221 1074.91 430.309C1074.05 429.373 1073.03 428.653 1071.85 428.149C1070.7 427.645 1069.42 427.393 1068 427.393C1066.15 427.393 1064.5 427.837 1063.03 428.725C1061.59 429.589 1060.45 430.789 1059.61 432.325C1058.8 433.861 1058.39 435.613 1058.39 437.581C1058.39 439.045 1058.63 440.401 1059.11 441.649C1059.59 442.897 1060.26 443.989 1061.13 444.925C1061.99 445.837 1063.01 446.545 1064.19 447.049C1065.36 447.553 1066.63 447.805 1068 447.805ZM1085.5 450.001V425.233H1087.37L1098.06 442.765H1096.73L1107.42 425.233H1109.29V450.001H1106.63V429.841L1107.24 429.985L1098.31 444.637H1096.44L1087.51 429.985L1088.12 429.841V450.001H1085.5Z" fill="white"/>
<path d="M148.774 190L137.02 173.364L127.255 190H104.381L125.447 156.999L103.477 125.987H127.255L138.557 141.99L147.96 125.987H170.835L150.13 158.355L172.552 190H148.774ZM227.313 125.987V141.9H210.316V190H190.244V141.9H173.427V125.987H227.313ZM309.699 125.987V190H289.718V158.084L279.863 190H262.684L252.829 158.084V190H232.757V125.987H257.35L271.454 164.413L285.197 125.987H309.699ZM338.828 174.811H358.176V190H318.756V125.987H338.828V174.811Z" fill="white"/>
<path d="M121.36 478.551L98.002 216.376H354.797L331.439 478.409L226.187 507.571" fill="#D71104"/>
<path d="M226.356 485.325V237.943H331.325L311.294 461.613" fill="#F83326"/>
<path d="M266.044 280.354H296.621L195.931 431.389L168.442 423.359L266.044 280.354Z" fill="white"/>
<path d="M188.494 280.969H157.607L257.371 431.696L285.787 423.974L188.494 280.969Z" fill="white"/>
<path d="M227.435 337.516V385.082L195.931 431.412L168.442 423.381L227.435 337.516Z" fill="#EBEBEB"/>
<path d="M188.544 280.969H157.657L227.152 385.057V337.8L188.544 280.969Z" fill="#EBEBEB"/>
</svg>
