<svg width="678" height="284" viewBox="0 0 678 284" fill="none" xmlns="http://www.w3.org/2000/svg">
<path d="M266.716 95.42C264.56 95.42 262.558 95.042 260.71 94.286C258.862 93.502 257.238 92.424 255.838 91.052C254.466 89.652 253.402 88.028 252.646 86.18C251.918 84.332 251.554 82.344 251.554 80.216C251.554 78.088 251.918 76.1 252.646 74.252C253.402 72.404 254.466 70.794 255.838 69.422C257.238 68.05 258.848 66.972 260.668 66.188C262.516 65.404 264.532 65.012 266.716 65.012C269.068 65.012 271.14 65.404 272.932 66.188C274.724 66.944 276.306 67.994 277.678 69.338L273.814 73.202C273.002 72.306 272.008 71.606 270.832 71.102C269.656 70.598 268.284 70.346 266.716 70.346C265.344 70.346 264.084 70.584 262.936 71.06C261.816 71.508 260.836 72.18 259.996 73.076C259.156 73.944 258.512 74.994 258.064 76.226C257.616 77.43 257.392 78.76 257.392 80.216C257.392 81.7 257.616 83.044 258.064 84.248C258.512 85.452 259.156 86.502 259.996 87.398C260.836 88.266 261.816 88.938 262.936 89.414C264.084 89.89 265.344 90.128 266.716 90.128C268.368 90.128 269.782 89.876 270.958 89.372C272.162 88.868 273.17 88.154 273.982 87.23L277.846 91.094C276.474 92.466 274.878 93.53 273.058 94.286C271.238 95.042 269.124 95.42 266.716 95.42ZM290.23 95.42C288.186 95.42 286.338 94.958 284.686 94.034C283.062 93.082 281.76 91.808 280.78 90.212C279.828 88.588 279.352 86.782 279.352 84.794C279.352 82.806 279.828 81.028 280.78 79.46C281.732 77.864 283.034 76.604 284.686 75.68C286.338 74.728 288.172 74.252 290.188 74.252C292.26 74.252 294.108 74.728 295.732 75.68C297.384 76.604 298.686 77.864 299.638 79.46C300.59 81.028 301.066 82.806 301.066 84.794C301.066 86.782 300.59 88.588 299.638 90.212C298.686 91.808 297.384 93.082 295.732 94.034C294.108 94.958 292.274 95.42 290.23 95.42ZM290.188 90.296C291.224 90.296 292.134 90.072 292.918 89.624C293.73 89.148 294.346 88.504 294.766 87.692C295.214 86.852 295.438 85.9 295.438 84.836C295.438 83.772 295.214 82.834 294.766 82.022C294.318 81.21 293.702 80.58 292.918 80.132C292.134 79.656 291.224 79.418 290.188 79.418C289.18 79.418 288.284 79.656 287.5 80.132C286.716 80.58 286.1 81.21 285.652 82.022C285.204 82.834 284.98 83.772 284.98 84.836C284.98 85.9 285.204 86.852 285.652 87.692C286.1 88.504 286.716 89.148 287.5 89.624C288.284 90.072 289.18 90.296 290.188 90.296ZM304.608 95V74.714H310.11V95H304.608ZM317.838 95V83.03C317.838 81.854 317.46 80.944 316.704 80.3C315.976 79.628 315.066 79.292 313.974 79.292C313.246 79.292 312.588 79.446 312 79.754C311.412 80.034 310.95 80.454 310.614 81.014C310.278 81.574 310.11 82.246 310.11 83.03L307.968 81.98C307.968 80.412 308.304 79.054 308.976 77.906C309.676 76.758 310.614 75.876 311.79 75.26C312.966 74.616 314.296 74.294 315.78 74.294C317.18 74.294 318.454 74.616 319.602 75.26C320.75 75.876 321.66 76.758 322.332 77.906C323.004 79.026 323.34 80.384 323.34 81.98V95H317.838ZM331.068 95V83.03C331.068 81.854 330.69 80.944 329.934 80.3C329.206 79.628 328.296 79.292 327.204 79.292C326.504 79.292 325.846 79.446 325.23 79.754C324.642 80.034 324.18 80.454 323.844 81.014C323.508 81.574 323.34 82.246 323.34 83.03L320.19 82.274C320.302 80.65 320.736 79.25 321.492 78.074C322.248 76.87 323.242 75.946 324.474 75.302C325.706 74.63 327.078 74.294 328.59 74.294C330.102 74.294 331.46 74.616 332.664 75.26C333.868 75.876 334.82 76.772 335.52 77.948C336.22 79.124 336.57 80.524 336.57 82.148V95H331.068ZM352.286 95.42C350.83 95.42 349.514 95.126 348.338 94.538C347.162 93.922 346.224 93.096 345.524 92.06C344.824 91.024 344.446 89.834 344.39 88.49V81.308C344.446 79.964 344.824 78.774 345.524 77.738C346.252 76.674 347.19 75.834 348.338 75.218C349.514 74.602 350.83 74.294 352.286 74.294C354.162 74.294 355.842 74.756 357.326 75.68C358.81 76.604 359.972 77.864 360.812 79.46C361.68 81.056 362.114 82.862 362.114 84.878C362.114 86.866 361.68 88.658 360.812 90.254C359.972 91.85 358.81 93.11 357.326 94.034C355.842 94.958 354.162 95.42 352.286 95.42ZM341.03 103.484V74.714H346.532V80.048L345.608 84.962L346.49 89.876V103.484H341.03ZM351.32 90.338C352.328 90.338 353.224 90.114 354.008 89.666C354.792 89.19 355.394 88.546 355.814 87.734C356.262 86.894 356.486 85.928 356.486 84.836C356.486 83.772 356.262 82.834 355.814 82.022C355.394 81.182 354.792 80.538 354.008 80.09C353.224 79.614 352.328 79.376 351.32 79.376C350.34 79.376 349.458 79.614 348.674 80.09C347.89 80.538 347.274 81.182 346.826 82.022C346.406 82.834 346.196 83.772 346.196 84.836C346.196 85.928 346.406 86.894 346.826 87.734C347.274 88.546 347.876 89.19 348.632 89.666C349.416 90.114 350.312 90.338 351.32 90.338ZM365.721 95V74.714H371.265V95H365.721ZM368.493 71.438C367.597 71.438 366.855 71.144 366.267 70.556C365.679 69.94 365.385 69.184 365.385 68.288C365.385 67.42 365.679 66.678 366.267 66.062C366.855 65.446 367.597 65.138 368.493 65.138C369.417 65.138 370.159 65.446 370.719 66.062C371.307 66.678 371.601 67.42 371.601 68.288C371.601 69.184 371.307 69.94 370.719 70.556C370.159 71.144 369.417 71.438 368.493 71.438ZM376.139 95V64.634H381.641V95H376.139ZM396.218 95.42C394.09 95.42 392.2 94.972 390.548 94.076C388.896 93.152 387.58 91.892 386.6 90.296C385.648 88.7 385.172 86.88 385.172 84.836C385.172 82.82 385.634 81.028 386.558 79.46C387.51 77.864 388.798 76.604 390.422 75.68C392.046 74.728 393.852 74.252 395.84 74.252C397.8 74.252 399.522 74.7 401.006 75.596C402.518 76.464 403.694 77.668 404.534 79.208C405.402 80.72 405.836 82.442 405.836 84.374C405.836 84.738 405.808 85.116 405.752 85.508C405.724 85.872 405.654 86.292 405.542 86.768L388.49 86.81V82.694L402.98 82.652L400.754 84.374C400.698 83.17 400.474 82.162 400.082 81.35C399.718 80.538 399.172 79.922 398.444 79.502C397.744 79.054 396.876 78.83 395.84 78.83C394.748 78.83 393.796 79.082 392.984 79.586C392.172 80.062 391.542 80.748 391.094 81.644C390.674 82.512 390.464 83.548 390.464 84.752C390.464 85.984 390.688 87.062 391.136 87.986C391.612 88.882 392.284 89.582 393.152 90.086C394.02 90.562 395.028 90.8 396.176 90.8C397.212 90.8 398.15 90.632 398.99 90.296C399.83 89.932 400.558 89.4 401.174 88.7L404.408 91.934C403.428 93.082 402.224 93.95 400.796 94.538C399.396 95.126 397.87 95.42 396.218 95.42ZM418.03 95V65.474H423.742V95H418.03ZM436.552 95V65.474H442.264V95H436.552ZM421.642 82.274V77.234H438.148V82.274H421.642ZM455.607 95V66.104H461.361V95H455.607ZM446.199 70.556V65.474H470.769V70.556H446.199ZM474.713 95V65.474H478.745L490.715 84.626H488.405L500.333 65.474H504.365V95H498.695V75.26L499.787 75.596L491.471 88.952H487.607L479.291 75.596L480.425 75.26V95H474.713ZM510.397 95V65.474H516.109V95H510.397ZM514.597 95V89.918H529.633V95H514.597ZM252.436 148V127.714H257.98V148H252.436ZM255.208 124.438C254.312 124.438 253.57 124.144 252.982 123.556C252.394 122.94 252.1 122.184 252.1 121.288C252.1 120.42 252.394 119.678 252.982 119.062C253.57 118.446 254.312 118.138 255.208 118.138C256.132 118.138 256.874 118.446 257.434 119.062C258.022 119.678 258.316 120.42 258.316 121.288C258.316 122.184 258.022 122.94 257.434 123.556C256.874 124.144 256.132 124.438 255.208 124.438ZM276.504 148V136.366C276.504 135.162 276.126 134.182 275.37 133.426C274.614 132.67 273.634 132.292 272.43 132.292C271.646 132.292 270.946 132.46 270.33 132.796C269.714 133.132 269.224 133.608 268.86 134.224C268.524 134.84 268.356 135.554 268.356 136.366L266.214 135.274C266.214 133.678 266.55 132.292 267.222 131.116C267.922 129.912 268.874 128.974 270.078 128.302C271.31 127.63 272.696 127.294 274.236 127.294C275.72 127.294 277.05 127.672 278.226 128.428C279.402 129.156 280.326 130.122 280.998 131.326C281.67 132.502 282.006 133.776 282.006 135.148V148H276.504ZM262.854 148V127.714H268.356V148H262.854ZM289.174 148V119.272H294.676V148H289.174ZM284.428 132.544V127.714H299.422V132.544H284.428ZM311.558 148.42C309.514 148.42 307.666 147.958 306.014 147.034C304.39 146.082 303.088 144.808 302.108 143.212C301.156 141.588 300.68 139.782 300.68 137.794C300.68 135.806 301.156 134.028 302.108 132.46C303.06 130.864 304.362 129.604 306.014 128.68C307.666 127.728 309.5 127.252 311.516 127.252C313.588 127.252 315.436 127.728 317.06 128.68C318.712 129.604 320.014 130.864 320.966 132.46C321.918 134.028 322.394 135.806 322.394 137.794C322.394 139.782 321.918 141.588 320.966 143.212C320.014 144.808 318.712 146.082 317.06 147.034C315.436 147.958 313.602 148.42 311.558 148.42ZM311.516 143.296C312.552 143.296 313.462 143.072 314.246 142.624C315.058 142.148 315.674 141.504 316.094 140.692C316.542 139.852 316.766 138.9 316.766 137.836C316.766 136.772 316.542 135.834 316.094 135.022C315.646 134.21 315.03 133.58 314.246 133.132C313.462 132.656 312.552 132.418 311.516 132.418C310.508 132.418 309.612 132.656 308.828 133.132C308.044 133.58 307.428 134.21 306.98 135.022C306.532 135.834 306.308 136.772 306.308 137.836C306.308 138.9 306.532 139.852 306.98 140.692C307.428 141.504 308.044 142.148 308.828 142.624C309.612 143.072 310.508 143.296 311.516 143.296ZM334.139 148V127.714H339.683V148H334.139ZM336.911 124.438C336.015 124.438 335.273 124.144 334.685 123.556C334.097 122.94 333.803 122.184 333.803 121.288C333.803 120.42 334.097 119.678 334.685 119.062C335.273 118.446 336.015 118.138 336.911 118.138C337.835 118.138 338.577 118.446 339.137 119.062C339.725 119.678 340.019 120.42 340.019 121.288C340.019 122.184 339.725 122.94 339.137 123.556C338.577 124.144 337.835 124.438 336.911 124.438ZM347.539 148V119.272H353.041V148H347.539ZM342.793 132.544V127.714H357.787V132.544H342.793ZM367.443 148.462C366.295 148.462 365.161 148.308 364.041 148C362.949 147.692 361.941 147.272 361.017 146.74C360.093 146.18 359.295 145.508 358.623 144.724L361.899 141.406C362.599 142.19 363.411 142.778 364.335 143.17C365.259 143.562 366.281 143.758 367.401 143.758C368.297 143.758 368.969 143.632 369.417 143.38C369.893 143.128 370.131 142.75 370.131 142.246C370.131 141.686 369.879 141.252 369.375 140.944C368.899 140.636 368.269 140.384 367.485 140.188C366.701 139.964 365.875 139.726 365.007 139.474C364.167 139.194 363.355 138.844 362.571 138.424C361.787 137.976 361.143 137.374 360.639 136.618C360.163 135.834 359.925 134.826 359.925 133.594C359.925 132.306 360.233 131.186 360.849 130.234C361.493 129.282 362.403 128.54 363.579 128.008C364.755 127.476 366.141 127.21 367.737 127.21C369.417 127.21 370.929 127.504 372.273 128.092C373.645 128.68 374.779 129.562 375.675 130.738L372.357 134.056C371.741 133.3 371.041 132.754 370.257 132.418C369.501 132.082 368.675 131.914 367.779 131.914C366.967 131.914 366.337 132.04 365.889 132.292C365.469 132.544 365.259 132.894 365.259 133.342C365.259 133.846 365.497 134.238 365.973 134.518C366.477 134.798 367.121 135.05 367.905 135.274C368.689 135.47 369.501 135.708 370.341 135.988C371.209 136.24 372.021 136.604 372.777 137.08C373.561 137.556 374.191 138.186 374.667 138.97C375.171 139.754 375.423 140.762 375.423 141.994C375.423 143.982 374.709 145.564 373.281 146.74C371.853 147.888 369.907 148.462 367.443 148.462ZM396.87 148.42C394.826 148.42 392.978 147.958 391.326 147.034C389.702 146.082 388.4 144.808 387.42 143.212C386.468 141.588 385.992 139.782 385.992 137.794C385.992 135.806 386.468 134.028 387.42 132.46C388.372 130.864 389.674 129.604 391.326 128.68C392.978 127.728 394.812 127.252 396.828 127.252C398.9 127.252 400.748 127.728 402.372 128.68C404.024 129.604 405.326 130.864 406.278 132.46C407.23 134.028 407.706 135.806 407.706 137.794C407.706 139.782 407.23 141.588 406.278 143.212C405.326 144.808 404.024 146.082 402.372 147.034C400.748 147.958 398.914 148.42 396.87 148.42ZM396.828 143.296C397.864 143.296 398.774 143.072 399.558 142.624C400.37 142.148 400.986 141.504 401.406 140.692C401.854 139.852 402.078 138.9 402.078 137.836C402.078 136.772 401.854 135.834 401.406 135.022C400.958 134.21 400.342 133.58 399.558 133.132C398.774 132.656 397.864 132.418 396.828 132.418C395.82 132.418 394.924 132.656 394.14 133.132C393.356 133.58 392.74 134.21 392.292 135.022C391.844 135.834 391.62 136.772 391.62 137.836C391.62 138.9 391.844 139.852 392.292 140.692C392.74 141.504 393.356 142.148 394.14 142.624C394.924 143.072 395.82 143.296 396.828 143.296ZM416.215 148L408.613 127.714H414.157L419.113 142.456L417.433 142.498L422.515 127.714H426.505L431.587 142.498L429.907 142.456L434.863 127.714H440.407L432.847 148H428.857L423.733 133.972H425.287L420.163 148H416.215ZM456.727 148V136.366C456.727 135.162 456.349 134.182 455.593 133.426C454.837 132.67 453.857 132.292 452.653 132.292C451.869 132.292 451.169 132.46 450.553 132.796C449.937 133.132 449.447 133.608 449.083 134.224C448.747 134.84 448.579 135.554 448.579 136.366L446.437 135.274C446.437 133.678 446.773 132.292 447.445 131.116C448.145 129.912 449.097 128.974 450.301 128.302C451.533 127.63 452.919 127.294 454.459 127.294C455.943 127.294 457.273 127.672 458.449 128.428C459.625 129.156 460.549 130.122 461.221 131.326C461.893 132.502 462.229 133.776 462.229 135.148V148H456.727ZM443.077 148V127.714H448.579V148H443.077ZM486.12 148.42C484.664 148.42 483.348 148.112 482.172 147.496C480.996 146.88 480.058 146.04 479.358 144.976C478.658 143.912 478.28 142.722 478.224 141.406V134.182C478.28 132.866 478.658 131.69 479.358 130.654C480.086 129.59 481.038 128.764 482.214 128.176C483.39 127.588 484.692 127.294 486.12 127.294C487.996 127.294 489.676 127.756 491.16 128.68C492.644 129.604 493.806 130.864 494.646 132.46C495.514 134.056 495.948 135.862 495.948 137.878C495.948 139.866 495.514 141.658 494.646 143.254C493.806 144.85 492.644 146.11 491.16 147.034C489.676 147.958 487.996 148.42 486.12 148.42ZM474.864 148V117.634H480.366V132.712L479.442 137.584L480.324 142.54V148H474.864ZM485.196 143.338C486.204 143.338 487.086 143.114 487.842 142.666C488.626 142.19 489.228 141.546 489.648 140.734C490.096 139.894 490.32 138.928 490.32 137.836C490.32 136.772 490.096 135.834 489.648 135.022C489.228 134.182 488.626 133.538 487.842 133.09C487.058 132.614 486.162 132.376 485.154 132.376C484.146 132.376 483.25 132.614 482.466 133.09C481.71 133.538 481.108 134.182 480.66 135.022C480.24 135.834 480.03 136.772 480.03 137.836C480.03 138.928 480.24 139.894 480.66 140.734C481.108 141.546 481.724 142.19 482.508 142.666C483.292 143.114 484.188 143.338 485.196 143.338ZM499.555 148V127.714H505.099V148H499.555ZM502.327 124.438C501.431 124.438 500.689 124.144 500.101 123.556C499.513 122.94 499.219 122.184 499.219 121.288C499.219 120.42 499.513 119.678 500.101 119.062C500.689 118.446 501.431 118.138 502.327 118.138C503.251 118.138 503.993 118.446 504.553 119.062C505.141 119.678 505.435 120.42 505.435 121.288C505.435 122.184 505.141 122.94 504.553 123.556C503.993 124.144 503.251 124.438 502.327 124.438ZM523.623 148V136.366C523.623 135.162 523.245 134.182 522.489 133.426C521.733 132.67 520.753 132.292 519.549 132.292C518.765 132.292 518.065 132.46 517.449 132.796C516.833 133.132 516.343 133.608 515.979 134.224C515.643 134.84 515.475 135.554 515.475 136.366L513.333 135.274C513.333 133.678 513.669 132.292 514.341 131.116C515.041 129.912 515.993 128.974 517.197 128.302C518.429 127.63 519.815 127.294 521.355 127.294C522.839 127.294 524.169 127.672 525.345 128.428C526.521 129.156 527.445 130.122 528.117 131.326C528.789 132.502 529.125 133.776 529.125 135.148V148H523.623ZM509.973 148V127.714H515.475V148H509.973ZM542.041 148.42C540.193 148.42 538.527 147.958 537.043 147.034C535.559 146.11 534.397 144.85 533.557 143.254C532.717 141.658 532.297 139.866 532.297 137.878C532.297 135.862 532.717 134.056 533.557 132.46C534.397 130.864 535.559 129.604 537.043 128.68C538.527 127.756 540.193 127.294 542.041 127.294C543.497 127.294 544.799 127.588 545.947 128.176C547.095 128.764 548.005 129.59 548.677 130.654C549.377 131.69 549.755 132.866 549.811 134.182V141.49C549.755 142.834 549.377 144.024 548.677 145.06C548.005 146.096 547.095 146.922 545.947 147.538C544.799 148.126 543.497 148.42 542.041 148.42ZM543.049 143.338C544.589 143.338 545.835 142.834 546.787 141.826C547.739 140.79 548.215 139.46 548.215 137.836C548.215 136.772 547.991 135.834 547.543 135.022C547.123 134.182 546.521 133.538 545.737 133.09C544.981 132.614 544.085 132.376 543.049 132.376C542.041 132.376 541.145 132.614 540.361 133.09C539.605 133.538 539.003 134.182 538.555 135.022C538.135 135.834 537.925 136.772 537.925 137.836C537.925 138.928 538.135 139.894 538.555 140.734C539.003 141.546 539.605 142.19 540.361 142.666C541.145 143.114 542.041 143.338 543.049 143.338ZM547.921 148V142.54L548.803 137.584L547.921 132.712V127.714H553.381V148H547.921ZM558.249 148V127.714H563.751V148H558.249ZM563.751 136.786L561.609 135.358C561.861 132.866 562.589 130.906 563.793 129.478C564.997 128.022 566.733 127.294 569.001 127.294C569.981 127.294 570.863 127.462 571.647 127.798C572.431 128.106 573.145 128.624 573.789 129.352L570.345 133.3C570.037 132.964 569.659 132.712 569.211 132.544C568.791 132.376 568.301 132.292 567.741 132.292C566.565 132.292 565.599 132.67 564.843 133.426C564.115 134.154 563.751 135.274 563.751 136.786ZM581.9 148.168L573.416 127.714H579.38L585.008 143.338H582.992L588.83 127.714H594.836L585.806 148.168H581.9ZM576.272 156.484L582.446 143.422L585.806 148.168L582.11 156.484H576.272Z" fill="black"/>
<path d="M257.2 202.18C256.312 202.18 255.484 202.018 254.716 201.694C253.96 201.37 253.3 200.914 252.736 200.326C252.172 199.738 251.734 199.06 251.422 198.292C251.122 197.512 250.972 196.678 250.972 195.79C250.972 194.902 251.122 194.074 251.422 193.306C251.734 192.526 252.166 191.848 252.718 191.272C253.282 190.696 253.942 190.246 254.698 189.922C255.454 189.598 256.27 189.436 257.146 189.436C258.094 189.436 258.94 189.604 259.684 189.94C260.44 190.276 261.1 190.738 261.664 191.326L260.764 192.226C260.332 191.746 259.81 191.374 259.198 191.11C258.586 190.834 257.902 190.696 257.146 190.696C256.45 190.696 255.808 190.822 255.22 191.074C254.644 191.326 254.134 191.686 253.69 192.154C253.258 192.61 252.922 193.15 252.682 193.774C252.454 194.386 252.34 195.058 252.34 195.79C252.34 196.522 252.46 197.2 252.7 197.824C252.94 198.448 253.276 198.994 253.708 199.462C254.14 199.918 254.65 200.272 255.238 200.524C255.826 200.776 256.468 200.902 257.164 200.902C257.956 200.902 258.658 200.764 259.27 200.488C259.894 200.212 260.422 199.834 260.854 199.354L261.754 200.272C261.202 200.86 260.542 201.328 259.774 201.676C259.006 202.012 258.148 202.18 257.2 202.18ZM263.758 202V193.54H265.018V202H263.758ZM265.018 197.068L264.496 196.834C264.496 195.766 264.754 194.92 265.27 194.296C265.798 193.672 266.518 193.36 267.43 193.36C267.85 193.36 268.234 193.438 268.582 193.594C268.93 193.738 269.254 193.972 269.554 194.296L268.726 195.178C268.522 194.95 268.294 194.788 268.042 194.692C267.802 194.596 267.526 194.548 267.214 194.548C266.566 194.548 266.038 194.764 265.63 195.196C265.222 195.616 265.018 196.24 265.018 197.068ZM274.502 202.18C273.65 202.18 272.888 201.988 272.216 201.604C271.544 201.22 271.01 200.692 270.614 200.02C270.23 199.348 270.038 198.592 270.038 197.752C270.038 196.924 270.23 196.18 270.614 195.52C270.998 194.848 271.52 194.32 272.18 193.936C272.84 193.552 273.578 193.36 274.394 193.36C275.162 193.36 275.84 193.534 276.428 193.882C277.028 194.23 277.496 194.716 277.832 195.34C278.18 195.952 278.354 196.66 278.354 197.464C278.354 197.56 278.348 197.674 278.336 197.806C278.324 197.926 278.3 198.07 278.264 198.238H270.938V197.158H277.58L277.13 197.554C277.142 196.93 277.034 196.396 276.806 195.952C276.59 195.496 276.272 195.148 275.852 194.908C275.444 194.656 274.946 194.53 274.358 194.53C273.746 194.53 273.212 194.662 272.756 194.926C272.3 195.19 271.94 195.562 271.676 196.042C271.424 196.51 271.298 197.068 271.298 197.716C271.298 198.364 271.43 198.934 271.694 199.426C271.97 199.918 272.348 200.302 272.828 200.578C273.32 200.854 273.884 200.992 274.52 200.992C275.036 200.992 275.51 200.902 275.942 200.722C276.374 200.53 276.74 200.248 277.04 199.876L277.85 200.704C277.454 201.172 276.962 201.538 276.374 201.802C275.798 202.054 275.174 202.18 274.502 202.18ZM283.954 202.18C283.15 202.18 282.43 201.988 281.794 201.604C281.158 201.208 280.654 200.68 280.282 200.02C279.922 199.36 279.742 198.616 279.742 197.788C279.742 196.948 279.922 196.198 280.282 195.538C280.654 194.866 281.158 194.338 281.794 193.954C282.43 193.558 283.144 193.36 283.936 193.36C284.584 193.36 285.16 193.492 285.664 193.756C286.18 194.008 286.594 194.368 286.906 194.836C287.23 195.292 287.428 195.826 287.5 196.438V199.084C287.428 199.696 287.23 200.236 286.906 200.704C286.594 201.172 286.18 201.538 285.664 201.802C285.16 202.054 284.59 202.18 283.954 202.18ZM284.152 200.974C285.028 200.974 285.73 200.68 286.258 200.092C286.798 199.504 287.068 198.73 287.068 197.77C287.068 197.134 286.942 196.576 286.69 196.096C286.45 195.604 286.108 195.226 285.664 194.962C285.232 194.686 284.722 194.548 284.134 194.548C283.534 194.548 283 194.686 282.532 194.962C282.076 195.238 281.71 195.622 281.434 196.114C281.17 196.594 281.038 197.146 281.038 197.77C281.038 198.394 281.17 198.946 281.434 199.426C281.71 199.906 282.082 200.284 282.55 200.56C283.018 200.836 283.552 200.974 284.152 200.974ZM286.996 202V199.732L287.248 197.644L286.996 195.61V193.54H288.256V202H286.996ZM292.055 202V189.976H293.315V202H292.055ZM289.913 194.674V193.54H295.439V194.674H289.913ZM300.782 202.18C299.93 202.18 299.168 201.988 298.496 201.604C297.824 201.22 297.29 200.692 296.894 200.02C296.51 199.348 296.318 198.592 296.318 197.752C296.318 196.924 296.51 196.18 296.894 195.52C297.278 194.848 297.8 194.32 298.46 193.936C299.12 193.552 299.858 193.36 300.674 193.36C301.442 193.36 302.12 193.534 302.708 193.882C303.308 194.23 303.776 194.716 304.112 195.34C304.46 195.952 304.634 196.66 304.634 197.464C304.634 197.56 304.628 197.674 304.616 197.806C304.604 197.926 304.58 198.07 304.544 198.238H297.218V197.158H303.86L303.41 197.554C303.422 196.93 303.314 196.396 303.086 195.952C302.87 195.496 302.552 195.148 302.132 194.908C301.724 194.656 301.226 194.53 300.638 194.53C300.026 194.53 299.492 194.662 299.036 194.926C298.58 195.19 298.22 195.562 297.956 196.042C297.704 196.51 297.578 197.068 297.578 197.716C297.578 198.364 297.71 198.934 297.974 199.426C298.25 199.918 298.628 200.302 299.108 200.578C299.6 200.854 300.164 200.992 300.8 200.992C301.316 200.992 301.79 200.902 302.222 200.722C302.654 200.53 303.02 200.248 303.32 199.876L304.13 200.704C303.734 201.172 303.242 201.538 302.654 201.802C302.078 202.054 301.454 202.18 300.782 202.18ZM314.1 202.18C313.296 202.18 312.576 201.988 311.94 201.604C311.304 201.208 310.8 200.68 310.428 200.02C310.068 199.36 309.888 198.616 309.888 197.788C309.888 196.948 310.068 196.198 310.428 195.538C310.8 194.866 311.304 194.338 311.94 193.954C312.576 193.558 313.29 193.36 314.082 193.36C314.73 193.36 315.306 193.492 315.81 193.756C316.326 194.008 316.74 194.368 317.052 194.836C317.376 195.292 317.574 195.826 317.646 196.438V199.084C317.574 199.696 317.376 200.236 317.052 200.704C316.74 201.172 316.326 201.538 315.81 201.802C315.306 202.054 314.736 202.18 314.1 202.18ZM314.298 200.974C315.174 200.974 315.876 200.68 316.404 200.092C316.944 199.504 317.214 198.73 317.214 197.77C317.214 197.134 317.088 196.576 316.836 196.096C316.596 195.604 316.254 195.226 315.81 194.962C315.378 194.686 314.868 194.548 314.28 194.548C313.68 194.548 313.146 194.686 312.678 194.962C312.222 195.238 311.856 195.622 311.58 196.114C311.316 196.594 311.184 197.146 311.184 197.77C311.184 198.394 311.316 198.946 311.58 199.426C311.856 199.906 312.228 200.284 312.696 200.56C313.164 200.836 313.698 200.974 314.298 200.974ZM317.142 202V199.732L317.394 197.644L317.142 195.61V193.54H318.402V202H317.142ZM327.183 202L323.925 193.54H325.239L327.813 200.56L327.345 200.578L329.901 193.54H330.639L333.195 200.578L332.727 200.56L335.283 193.54H336.615L333.339 202H332.601L329.991 195.07H330.531L327.939 202H327.183ZM344.411 202V197.032C344.411 196.288 344.189 195.688 343.745 195.232C343.313 194.764 342.737 194.53 342.017 194.53C341.525 194.53 341.093 194.638 340.721 194.854C340.349 195.07 340.055 195.364 339.839 195.736C339.623 196.108 339.515 196.534 339.515 197.014L338.939 196.69C338.939 196.054 339.089 195.484 339.389 194.98C339.689 194.476 340.091 194.08 340.595 193.792C341.111 193.504 341.699 193.36 342.359 193.36C343.007 193.36 343.583 193.51 344.087 193.81C344.591 194.098 344.981 194.5 345.257 195.016C345.545 195.532 345.689 196.132 345.689 196.816V202H344.411ZM338.255 202V189.256H339.515V202H338.255ZM351.88 202.18C351.064 202.18 350.32 201.982 349.648 201.586C348.988 201.19 348.46 200.656 348.064 199.984C347.68 199.312 347.488 198.562 347.488 197.734C347.488 196.918 347.68 196.18 348.064 195.52C348.46 194.86 348.988 194.338 349.648 193.954C350.32 193.558 351.064 193.36 351.88 193.36C352.708 193.36 353.452 193.552 354.112 193.936C354.772 194.32 355.294 194.848 355.678 195.52C356.074 196.18 356.272 196.918 356.272 197.734C356.272 198.574 356.074 199.33 355.678 200.002C355.294 200.662 354.772 201.19 354.112 201.586C353.452 201.982 352.708 202.18 351.88 202.18ZM351.88 200.956C352.48 200.956 353.008 200.818 353.464 200.542C353.932 200.266 354.298 199.882 354.562 199.39C354.838 198.898 354.976 198.346 354.976 197.734C354.976 197.122 354.838 196.582 354.562 196.114C354.298 195.634 353.932 195.256 353.464 194.98C353.008 194.704 352.48 194.566 351.88 194.566C351.292 194.566 350.764 194.704 350.296 194.98C349.828 195.256 349.462 195.634 349.198 196.114C348.934 196.582 348.802 197.122 348.802 197.734C348.802 198.358 348.934 198.916 349.198 199.408C349.462 199.888 349.828 200.266 350.296 200.542C350.764 200.818 351.292 200.956 351.88 200.956ZM358.276 202V189.256H359.536V202H358.276ZM365.997 202.18C365.145 202.18 364.383 201.988 363.711 201.604C363.039 201.22 362.505 200.692 362.109 200.02C361.725 199.348 361.533 198.592 361.533 197.752C361.533 196.924 361.725 196.18 362.109 195.52C362.493 194.848 363.015 194.32 363.675 193.936C364.335 193.552 365.073 193.36 365.889 193.36C366.657 193.36 367.335 193.534 367.923 193.882C368.523 194.23 368.991 194.716 369.327 195.34C369.675 195.952 369.849 196.66 369.849 197.464C369.849 197.56 369.843 197.674 369.831 197.806C369.819 197.926 369.795 198.07 369.759 198.238H362.433V197.158H369.075L368.625 197.554C368.637 196.93 368.529 196.396 368.301 195.952C368.085 195.496 367.767 195.148 367.347 194.908C366.939 194.656 366.441 194.53 365.853 194.53C365.241 194.53 364.707 194.662 364.251 194.926C363.795 195.19 363.435 195.562 363.171 196.042C362.919 196.51 362.793 197.068 362.793 197.716C362.793 198.364 362.925 198.934 363.188 199.426C363.465 199.918 363.843 200.302 364.323 200.578C364.815 200.854 365.379 200.992 366.015 200.992C366.531 200.992 367.005 200.902 367.437 200.722C367.869 200.53 368.235 200.248 368.535 199.876L369.345 200.704C368.949 201.172 368.457 201.538 367.869 201.802C367.293 202.054 366.669 202.18 365.997 202.18ZM381.799 202V197.032C381.799 196.288 381.577 195.688 381.133 195.232C380.701 194.764 380.125 194.53 379.405 194.53C378.913 194.53 378.481 194.638 378.109 194.854C377.737 195.07 377.443 195.364 377.227 195.736C377.011 196.108 376.903 196.534 376.903 197.014L376.327 196.69C376.327 196.054 376.477 195.484 376.777 194.98C377.077 194.476 377.479 194.08 377.983 193.792C378.499 193.504 379.087 193.36 379.747 193.36C380.395 193.36 380.971 193.516 381.475 193.828C381.979 194.14 382.369 194.56 382.645 195.088C382.933 195.616 383.077 196.192 383.077 196.816V202H381.799ZM375.643 202V193.54H376.903V202H375.643ZM389.34 202.18C388.488 202.18 387.726 201.988 387.054 201.604C386.382 201.22 385.848 200.692 385.452 200.02C385.068 199.348 384.876 198.592 384.876 197.752C384.876 196.924 385.068 196.18 385.452 195.52C385.836 194.848 386.358 194.32 387.018 193.936C387.678 193.552 388.416 193.36 389.232 193.36C390 193.36 390.678 193.534 391.266 193.882C391.866 194.23 392.334 194.716 392.67 195.34C393.018 195.952 393.192 196.66 393.192 197.464C393.192 197.56 393.186 197.674 393.174 197.806C393.162 197.926 393.138 198.07 393.102 198.238H385.776V197.158H392.418L391.968 197.554C391.98 196.93 391.872 196.396 391.644 195.952C391.428 195.496 391.11 195.148 390.69 194.908C390.282 194.656 389.784 194.53 389.196 194.53C388.584 194.53 388.05 194.662 387.594 194.926C387.138 195.19 386.778 195.562 386.514 196.042C386.262 196.51 386.136 197.068 386.136 197.716C386.136 198.364 386.268 198.934 386.532 199.426C386.808 199.918 387.186 200.302 387.666 200.578C388.158 200.854 388.722 200.992 389.358 200.992C389.874 200.992 390.348 200.902 390.78 200.722C391.212 200.53 391.578 200.248 391.878 199.876L392.688 200.704C392.292 201.172 391.8 201.538 391.212 201.802C390.636 202.054 390.012 202.18 389.34 202.18ZM397.372 202L394.114 193.54H395.428L398.002 200.56L397.534 200.578L400.09 193.54H400.828L403.384 200.578L402.916 200.56L405.472 193.54H406.804L403.528 202H402.79L400.18 195.07H400.72L398.128 202H397.372ZM414.903 202.18C414.447 202.18 414.009 202.12 413.589 202C413.169 201.868 412.785 201.688 412.437 201.46C412.101 201.232 411.807 200.962 411.555 200.65L412.365 199.822C412.701 200.23 413.079 200.536 413.499 200.74C413.931 200.932 414.411 201.028 414.939 201.028C415.503 201.028 415.941 200.92 416.253 200.704C416.577 200.488 416.739 200.188 416.739 199.804C416.739 199.444 416.625 199.162 416.397 198.958C416.169 198.754 415.875 198.592 415.515 198.472C415.167 198.352 414.795 198.238 414.399 198.13C414.003 198.01 413.625 197.866 413.265 197.698C412.905 197.518 412.611 197.272 412.383 196.96C412.167 196.648 412.059 196.24 412.059 195.736C412.059 195.256 412.173 194.842 412.401 194.494C412.641 194.134 412.977 193.858 413.409 193.666C413.853 193.462 414.375 193.36 414.975 193.36C415.611 193.36 416.187 193.474 416.703 193.702C417.219 193.93 417.633 194.266 417.945 194.71L417.135 195.52C416.883 195.196 416.565 194.95 416.181 194.782C415.809 194.602 415.389 194.512 414.921 194.512C414.381 194.512 413.967 194.62 413.679 194.836C413.403 195.04 413.265 195.31 413.265 195.646C413.265 195.97 413.379 196.228 413.607 196.42C413.835 196.6 414.123 196.75 414.471 196.87C414.831 196.978 415.209 197.092 415.605 197.212C416.001 197.32 416.379 197.47 416.739 197.662C417.099 197.842 417.387 198.094 417.603 198.418C417.831 198.73 417.945 199.156 417.945 199.696C417.945 200.452 417.669 201.058 417.117 201.514C416.577 201.958 415.839 202.18 414.903 202.18ZM424.314 202.18C423.666 202.18 423.084 202.048 422.568 201.784C422.052 201.52 421.626 201.16 421.29 200.704C420.966 200.236 420.768 199.696 420.696 199.084V196.438C420.768 195.814 420.972 195.274 421.308 194.818C421.644 194.35 422.07 193.99 422.586 193.738C423.114 193.486 423.69 193.36 424.314 193.36C425.094 193.36 425.796 193.558 426.42 193.954C427.044 194.338 427.536 194.866 427.896 195.538C428.268 196.198 428.454 196.948 428.454 197.788C428.454 198.616 428.274 199.36 427.914 200.02C427.554 200.68 427.056 201.208 426.42 201.604C425.796 201.988 425.094 202.18 424.314 202.18ZM419.94 205.564V193.54H421.2V195.7L420.948 197.752L421.2 199.822V205.564H419.94ZM424.098 200.974C424.698 200.974 425.226 200.842 425.682 200.578C426.138 200.302 426.492 199.924 426.744 199.444C427.008 198.952 427.14 198.394 427.14 197.77C427.14 197.134 427.008 196.576 426.744 196.096C426.492 195.616 426.138 195.238 425.682 194.962C425.226 194.686 424.704 194.548 424.116 194.548C423.528 194.548 423.006 194.686 422.55 194.962C422.106 195.238 421.758 195.616 421.506 196.096C421.254 196.576 421.128 197.134 421.128 197.77C421.128 198.394 421.254 198.952 421.506 199.444C421.758 199.924 422.106 200.302 422.55 200.578C422.994 200.842 423.51 200.974 424.098 200.974ZM434.375 202.18C433.523 202.18 432.761 201.988 432.089 201.604C431.417 201.22 430.883 200.692 430.487 200.02C430.103 199.348 429.911 198.592 429.911 197.752C429.911 196.924 430.103 196.18 430.487 195.52C430.871 194.848 431.393 194.32 432.053 193.936C432.713 193.552 433.451 193.36 434.267 193.36C435.035 193.36 435.713 193.534 436.301 193.882C436.901 194.23 437.369 194.716 437.705 195.34C438.053 195.952 438.227 196.66 438.227 197.464C438.227 197.56 438.221 197.674 438.209 197.806C438.197 197.926 438.173 198.07 438.137 198.238H430.811V197.158H437.453L437.003 197.554C437.015 196.93 436.907 196.396 436.679 195.952C436.463 195.496 436.145 195.148 435.725 194.908C435.317 194.656 434.819 194.53 434.231 194.53C433.619 194.53 433.085 194.662 432.629 194.926C432.173 195.19 431.813 195.562 431.549 196.042C431.297 196.51 431.171 197.068 431.171 197.716C431.171 198.364 431.303 198.934 431.567 199.426C431.843 199.918 432.221 200.302 432.701 200.578C433.193 200.854 433.757 200.992 434.393 200.992C434.909 200.992 435.383 200.902 435.815 200.722C436.247 200.53 436.613 200.248 436.913 199.876L437.723 200.704C437.327 201.172 436.835 201.538 436.247 201.802C435.671 202.054 435.047 202.18 434.375 202.18ZM444.007 202.18C443.179 202.18 442.429 201.988 441.757 201.604C441.097 201.208 440.569 200.674 440.173 200.002C439.789 199.33 439.597 198.58 439.597 197.752C439.597 196.924 439.789 196.18 440.173 195.52C440.569 194.848 441.097 194.32 441.757 193.936C442.429 193.552 443.179 193.36 444.007 193.36C444.643 193.36 445.237 193.48 445.789 193.72C446.341 193.96 446.809 194.296 447.193 194.728L446.365 195.574C446.077 195.25 445.729 195.004 445.321 194.836C444.913 194.656 444.475 194.566 444.007 194.566C443.407 194.566 442.873 194.704 442.405 194.98C441.937 195.256 441.571 195.634 441.307 196.114C441.043 196.582 440.911 197.128 440.911 197.752C440.911 198.364 441.043 198.916 441.307 199.408C441.571 199.888 441.937 200.266 442.405 200.542C442.873 200.818 443.407 200.956 444.007 200.956C444.487 200.956 444.931 200.872 445.339 200.704C445.747 200.524 446.095 200.272 446.383 199.948L447.229 200.794C446.833 201.238 446.353 201.58 445.789 201.82C445.237 202.06 444.643 202.18 444.007 202.18ZM448.997 202V193.54H450.275V202H448.997ZM449.627 191.704C449.387 191.704 449.183 191.62 449.015 191.452C448.847 191.272 448.763 191.062 448.763 190.822C448.763 190.57 448.847 190.36 449.015 190.192C449.183 190.024 449.387 189.94 449.627 189.94C449.891 189.94 450.101 190.024 450.257 190.192C450.425 190.36 450.509 190.57 450.509 190.822C450.509 191.062 450.425 191.272 450.257 191.452C450.101 191.62 449.891 191.704 449.627 191.704ZM456.735 202.18C455.883 202.18 455.121 201.988 454.449 201.604C453.777 201.22 453.243 200.692 452.847 200.02C452.463 199.348 452.271 198.592 452.271 197.752C452.271 196.924 452.463 196.18 452.847 195.52C453.231 194.848 453.753 194.32 454.413 193.936C455.073 193.552 455.811 193.36 456.627 193.36C457.395 193.36 458.073 193.534 458.661 193.882C459.261 194.23 459.729 194.716 460.065 195.34C460.413 195.952 460.587 196.66 460.587 197.464C460.587 197.56 460.581 197.674 460.569 197.806C460.557 197.926 460.533 198.07 460.497 198.238H453.171V197.158H459.813L459.363 197.554C459.375 196.93 459.267 196.396 459.039 195.952C458.823 195.496 458.505 195.148 458.085 194.908C457.677 194.656 457.179 194.53 456.591 194.53C455.979 194.53 455.445 194.662 454.989 194.926C454.533 195.19 454.173 195.562 453.909 196.042C453.657 196.51 453.531 197.068 453.531 197.716C453.531 198.364 453.663 198.934 453.927 199.426C454.203 199.918 454.581 200.302 455.061 200.578C455.553 200.854 456.117 200.992 456.753 200.992C457.269 200.992 457.743 200.902 458.175 200.722C458.607 200.53 458.973 200.248 459.273 199.876L460.083 200.704C459.687 201.172 459.195 201.538 458.607 201.802C458.031 202.054 457.407 202.18 456.735 202.18ZM465.106 202.18C464.65 202.18 464.212 202.12 463.792 202C463.372 201.868 462.988 201.688 462.64 201.46C462.304 201.232 462.01 200.962 461.758 200.65L462.568 199.822C462.904 200.23 463.282 200.536 463.702 200.74C464.134 200.932 464.614 201.028 465.142 201.028C465.706 201.028 466.144 200.92 466.456 200.704C466.78 200.488 466.942 200.188 466.942 199.804C466.942 199.444 466.828 199.162 466.6 198.958C466.372 198.754 466.078 198.592 465.718 198.472C465.37 198.352 464.998 198.238 464.602 198.13C464.206 198.01 463.828 197.866 463.468 197.698C463.108 197.518 462.814 197.272 462.586 196.96C462.37 196.648 462.262 196.24 462.262 195.736C462.262 195.256 462.376 194.842 462.604 194.494C462.844 194.134 463.18 193.858 463.612 193.666C464.056 193.462 464.578 193.36 465.178 193.36C465.814 193.36 466.39 193.474 466.906 193.702C467.422 193.93 467.836 194.266 468.148 194.71L467.338 195.52C467.086 195.196 466.768 194.95 466.384 194.782C466.012 194.602 465.592 194.512 465.124 194.512C464.584 194.512 464.17 194.62 463.882 194.836C463.606 195.04 463.468 195.31 463.468 195.646C463.468 195.97 463.582 196.228 463.81 196.42C464.038 196.6 464.326 196.75 464.674 196.87C465.034 196.978 465.412 197.092 465.808 197.212C466.204 197.32 466.582 197.47 466.942 197.662C467.302 197.842 467.59 198.094 467.806 198.418C468.034 198.73 468.148 199.156 468.148 199.696C468.148 200.452 467.872 201.058 467.32 201.514C466.78 201.958 466.042 202.18 465.106 202.18ZM477.844 202.18C477.028 202.18 476.284 201.982 475.612 201.586C474.952 201.19 474.424 200.656 474.028 199.984C473.644 199.312 473.452 198.562 473.452 197.734C473.452 196.918 473.644 196.18 474.028 195.52C474.424 194.86 474.952 194.338 475.612 193.954C476.284 193.558 477.028 193.36 477.844 193.36C478.672 193.36 479.416 193.552 480.076 193.936C480.736 194.32 481.258 194.848 481.642 195.52C482.038 196.18 482.236 196.918 482.236 197.734C482.236 198.574 482.038 199.33 481.642 200.002C481.258 200.662 480.736 201.19 480.076 201.586C479.416 201.982 478.672 202.18 477.844 202.18ZM477.844 200.956C478.444 200.956 478.972 200.818 479.428 200.542C479.896 200.266 480.262 199.882 480.526 199.39C480.802 198.898 480.94 198.346 480.94 197.734C480.94 197.122 480.802 196.582 480.526 196.114C480.262 195.634 479.896 195.256 479.428 194.98C478.972 194.704 478.444 194.566 477.844 194.566C477.256 194.566 476.728 194.704 476.26 194.98C475.792 195.256 475.426 195.634 475.162 196.114C474.898 196.582 474.766 197.122 474.766 197.734C474.766 198.358 474.898 198.916 475.162 199.408C475.426 199.888 475.792 200.266 476.26 200.542C476.728 200.818 477.256 200.956 477.844 200.956ZM485.184 202V192.1C485.184 191.512 485.31 190.99 485.562 190.534C485.826 190.078 486.186 189.724 486.642 189.472C487.11 189.208 487.638 189.076 488.226 189.076C488.682 189.076 489.084 189.16 489.432 189.328C489.78 189.484 490.098 189.706 490.386 189.994L489.558 190.822C489.366 190.63 489.162 190.492 488.946 190.408C488.742 190.312 488.502 190.264 488.226 190.264C487.662 190.264 487.224 190.432 486.912 190.768C486.612 191.092 486.462 191.548 486.462 192.136V202H485.184ZM483.06 194.674V193.54H489.288V194.674H483.06ZM497.269 202L494.011 193.54H495.325L497.899 200.56L497.431 200.578L499.987 193.54H500.725L503.281 200.578L502.813 200.56L505.369 193.54H506.701L503.425 202H502.687L500.077 195.07H500.617L498.025 202H497.269ZM511.965 202.18C511.113 202.18 510.351 201.988 509.679 201.604C509.007 201.22 508.473 200.692 508.077 200.02C507.693 199.348 507.501 198.592 507.501 197.752C507.501 196.924 507.693 196.18 508.077 195.52C508.461 194.848 508.983 194.32 509.643 193.936C510.303 193.552 511.041 193.36 511.857 193.36C512.625 193.36 513.303 193.534 513.891 193.882C514.491 194.23 514.959 194.716 515.295 195.34C515.643 195.952 515.817 196.66 515.817 197.464C515.817 197.56 515.811 197.674 515.799 197.806C515.787 197.926 515.763 198.07 515.727 198.238H508.401V197.158H515.043L514.593 197.554C514.605 196.93 514.497 196.396 514.269 195.952C514.053 195.496 513.735 195.148 513.315 194.908C512.907 194.656 512.409 194.53 511.821 194.53C511.209 194.53 510.675 194.662 510.219 194.926C509.763 195.19 509.403 195.562 509.139 196.042C508.887 196.51 508.761 197.068 508.761 197.716C508.761 198.364 508.893 198.934 509.157 199.426C509.433 199.918 509.811 200.302 510.291 200.578C510.783 200.854 511.347 200.992 511.983 200.992C512.499 200.992 512.973 200.902 513.405 200.722C513.837 200.53 514.203 200.248 514.503 199.876L515.313 200.704C514.917 201.172 514.425 201.538 513.837 201.802C513.261 202.054 512.637 202.18 511.965 202.18ZM522.119 202.18C521.471 202.18 520.889 202.048 520.373 201.784C519.857 201.52 519.431 201.16 519.095 200.704C518.771 200.236 518.573 199.696 518.501 199.084V196.438C518.573 195.814 518.777 195.274 519.113 194.818C519.449 194.35 519.875 193.99 520.391 193.738C520.919 193.486 521.495 193.36 522.119 193.36C522.899 193.36 523.601 193.558 524.225 193.954C524.849 194.338 525.341 194.866 525.701 195.538C526.073 196.198 526.259 196.948 526.259 197.788C526.259 198.616 526.079 199.36 525.719 200.02C525.359 200.68 524.861 201.208 524.225 201.604C523.601 201.988 522.899 202.18 522.119 202.18ZM517.745 202V189.256H519.005V195.61L518.753 197.644L519.005 199.732V202H517.745ZM521.903 200.974C522.503 200.974 523.031 200.842 523.487 200.578C523.943 200.302 524.297 199.924 524.549 199.444C524.813 198.952 524.945 198.394 524.945 197.77C524.945 197.134 524.813 196.576 524.549 196.096C524.297 195.616 523.943 195.238 523.487 194.962C523.031 194.686 522.509 194.548 521.921 194.548C521.333 194.548 520.811 194.686 520.355 194.962C519.911 195.238 519.563 195.616 519.311 196.096C519.059 196.576 518.933 197.134 518.933 197.77C518.933 198.394 519.059 198.952 519.311 199.444C519.563 199.924 519.911 200.302 520.355 200.578C520.799 200.842 521.315 200.974 521.903 200.974ZM531.946 202.18C531.142 202.18 530.422 201.988 529.786 201.604C529.15 201.208 528.646 200.68 528.274 200.02C527.914 199.36 527.734 198.616 527.734 197.788C527.734 196.948 527.914 196.198 528.274 195.538C528.646 194.866 529.15 194.338 529.786 193.954C530.422 193.558 531.136 193.36 531.928 193.36C532.576 193.36 533.152 193.492 533.656 193.756C534.172 194.008 534.586 194.368 534.898 194.836C535.222 195.292 535.42 195.826 535.492 196.438V199.084C535.42 199.696 535.222 200.236 534.898 200.704C534.586 201.172 534.172 201.538 533.656 201.802C533.152 202.054 532.582 202.18 531.946 202.18ZM532.144 200.974C533.02 200.974 533.722 200.68 534.25 200.092C534.79 199.504 535.06 198.73 535.06 197.77C535.06 197.134 534.934 196.576 534.682 196.096C534.442 195.604 534.1 195.226 533.656 194.962C533.224 194.686 532.714 194.548 532.126 194.548C531.526 194.548 530.992 194.686 530.524 194.962C530.068 195.238 529.702 195.622 529.426 196.114C529.162 196.594 529.03 197.146 529.03 197.77C529.03 198.394 529.162 198.946 529.426 199.426C529.702 199.906 530.074 200.284 530.542 200.56C531.01 200.836 531.544 200.974 532.144 200.974ZM534.988 202V199.732L535.24 197.644L534.988 195.61V193.54H536.248V202H534.988ZM543.177 202.18C542.529 202.18 541.947 202.048 541.431 201.784C540.915 201.52 540.489 201.16 540.153 200.704C539.829 200.236 539.631 199.696 539.559 199.084V196.438C539.631 195.814 539.835 195.274 540.171 194.818C540.507 194.35 540.933 193.99 541.449 193.738C541.977 193.486 542.553 193.36 543.177 193.36C543.957 193.36 544.659 193.558 545.283 193.954C545.907 194.338 546.399 194.866 546.759 195.538C547.131 196.198 547.317 196.948 547.317 197.788C547.317 198.616 547.137 199.36 546.777 200.02C546.417 200.68 545.919 201.208 545.283 201.604C544.659 201.988 543.957 202.18 543.177 202.18ZM538.803 205.564V193.54H540.063V195.7L539.811 197.752L540.063 199.822V205.564H538.803ZM542.961 200.974C543.561 200.974 544.089 200.842 544.545 200.578C545.001 200.302 545.355 199.924 545.607 199.444C545.871 198.952 546.003 198.394 546.003 197.77C546.003 197.134 545.871 196.576 545.607 196.096C545.355 195.616 545.001 195.238 544.545 194.962C544.089 194.686 543.567 194.548 542.979 194.548C542.391 194.548 541.869 194.686 541.413 194.962C540.969 195.238 540.621 195.616 540.369 196.096C540.117 196.576 539.991 197.134 539.991 197.77C539.991 198.394 540.117 198.952 540.369 199.444C540.621 199.924 540.969 200.302 541.413 200.578C541.857 200.842 542.373 200.974 542.961 200.974ZM553.707 202.18C553.059 202.18 552.477 202.048 551.961 201.784C551.445 201.52 551.019 201.16 550.683 200.704C550.359 200.236 550.161 199.696 550.089 199.084V196.438C550.161 195.814 550.365 195.274 550.701 194.818C551.037 194.35 551.463 193.99 551.979 193.738C552.507 193.486 553.083 193.36 553.707 193.36C554.487 193.36 555.189 193.558 555.813 193.954C556.437 194.338 556.929 194.866 557.289 195.538C557.661 196.198 557.847 196.948 557.847 197.788C557.847 198.616 557.667 199.36 557.307 200.02C556.947 200.68 556.449 201.208 555.813 201.604C555.189 201.988 554.487 202.18 553.707 202.18ZM549.333 205.564V193.54H550.593V195.7L550.341 197.752L550.593 199.822V205.564H549.333ZM553.491 200.974C554.091 200.974 554.619 200.842 555.075 200.578C555.531 200.302 555.885 199.924 556.137 199.444C556.401 198.952 556.533 198.394 556.533 197.77C556.533 197.134 556.401 196.576 556.137 196.096C555.885 195.616 555.531 195.238 555.075 194.962C554.619 194.686 554.097 194.548 553.509 194.548C552.921 194.548 552.399 194.686 551.943 194.962C551.499 195.238 551.151 195.616 550.899 196.096C550.647 196.576 550.521 197.134 550.521 197.77C550.521 198.394 550.647 198.952 550.899 199.444C551.151 199.924 551.499 200.302 551.943 200.578C552.387 200.842 552.903 200.974 553.491 200.974ZM562.454 202.18C561.998 202.18 561.56 202.12 561.14 202C560.72 201.868 560.336 201.688 559.988 201.46C559.652 201.232 559.358 200.962 559.106 200.65L559.916 199.822C560.252 200.23 560.63 200.536 561.05 200.74C561.482 200.932 561.962 201.028 562.49 201.028C563.054 201.028 563.492 200.92 563.804 200.704C564.128 200.488 564.29 200.188 564.29 199.804C564.29 199.444 564.176 199.162 563.948 198.958C563.72 198.754 563.426 198.592 563.066 198.472C562.718 198.352 562.346 198.238 561.95 198.13C561.554 198.01 561.176 197.866 560.816 197.698C560.456 197.518 560.162 197.272 559.934 196.96C559.718 196.648 559.61 196.24 559.61 195.736C559.61 195.256 559.724 194.842 559.952 194.494C560.192 194.134 560.528 193.858 560.96 193.666C561.404 193.462 561.926 193.36 562.526 193.36C563.162 193.36 563.738 193.474 564.254 193.702C564.77 193.93 565.184 194.266 565.496 194.71L564.686 195.52C564.434 195.196 564.116 194.95 563.732 194.782C563.36 194.602 562.94 194.512 562.472 194.512C561.932 194.512 561.518 194.62 561.23 194.836C560.954 195.04 560.816 195.31 560.816 195.646C560.816 195.97 560.93 196.228 561.158 196.42C561.386 196.6 561.674 196.75 562.022 196.87C562.382 196.978 562.76 197.092 563.156 197.212C563.552 197.32 563.93 197.47 564.29 197.662C564.65 197.842 564.938 198.094 565.154 198.418C565.382 198.73 565.496 199.156 565.496 199.696C565.496 200.452 565.22 201.058 564.668 201.514C564.128 201.958 563.39 202.18 562.454 202.18ZM253.636 225L250.378 216.54H251.692L254.266 223.56L253.798 223.578L256.354 216.54H257.092L259.648 223.578L259.18 223.56L261.736 216.54H263.068L259.792 225H259.054L256.444 218.07H256.984L254.392 225H253.636ZM270.864 225V220.032C270.864 219.288 270.642 218.688 270.198 218.232C269.766 217.764 269.19 217.53 268.47 217.53C267.978 217.53 267.546 217.638 267.174 217.854C266.802 218.07 266.508 218.364 266.292 218.736C266.076 219.108 265.968 219.534 265.968 220.014L265.392 219.69C265.392 219.054 265.542 218.484 265.842 217.98C266.142 217.476 266.544 217.08 267.048 216.792C267.564 216.504 268.152 216.36 268.812 216.36C269.46 216.36 270.036 216.51 270.54 216.81C271.044 217.098 271.434 217.5 271.71 218.016C271.998 218.532 272.142 219.132 272.142 219.816V225H270.864ZM264.708 225V212.256H265.968V225H264.708ZM278.405 225.18C277.553 225.18 276.791 224.988 276.119 224.604C275.447 224.22 274.913 223.692 274.517 223.02C274.133 222.348 273.941 221.592 273.941 220.752C273.941 219.924 274.133 219.18 274.517 218.52C274.901 217.848 275.423 217.32 276.083 216.936C276.743 216.552 277.481 216.36 278.297 216.36C279.065 216.36 279.743 216.534 280.331 216.882C280.931 217.23 281.399 217.716 281.735 218.34C282.083 218.952 282.257 219.66 282.257 220.464C282.257 220.56 282.251 220.674 282.239 220.806C282.227 220.926 282.203 221.07 282.167 221.238H274.841V220.158H281.483L281.033 220.554C281.045 219.93 280.937 219.396 280.709 218.952C280.493 218.496 280.175 218.148 279.755 217.908C279.347 217.656 278.849 217.53 278.261 217.53C277.649 217.53 277.115 217.662 276.659 217.926C276.203 218.19 275.843 218.562 275.579 219.042C275.327 219.51 275.201 220.068 275.201 220.716C275.201 221.364 275.333 221.934 275.597 222.426C275.873 222.918 276.251 223.302 276.731 223.578C277.223 223.854 277.787 223.992 278.423 223.992C278.939 223.992 279.413 223.902 279.845 223.722C280.277 223.53 280.643 223.248 280.943 222.876L281.753 223.704C281.357 224.172 280.865 224.538 280.277 224.802C279.701 225.054 279.077 225.18 278.405 225.18ZM290.34 225V220.032C290.34 219.288 290.118 218.688 289.674 218.232C289.242 217.764 288.666 217.53 287.946 217.53C287.454 217.53 287.022 217.638 286.65 217.854C286.278 218.07 285.984 218.364 285.768 218.736C285.552 219.108 285.444 219.534 285.444 220.014L284.868 219.69C284.868 219.054 285.018 218.484 285.318 217.98C285.618 217.476 286.02 217.08 286.524 216.792C287.04 216.504 287.628 216.36 288.288 216.36C288.936 216.36 289.512 216.516 290.016 216.828C290.52 217.14 290.91 217.56 291.186 218.088C291.474 218.616 291.618 219.192 291.618 219.816V225H290.34ZM284.184 225V216.54H285.444V225H284.184ZM300.668 225.036L296.96 216.54H298.346L301.334 223.632H300.812L303.962 216.54H305.366L301.388 225.036H300.668ZM298.364 228.564L300.686 223.758L301.388 225.036L299.75 228.564H298.364ZM310.325 225.18C309.509 225.18 308.765 224.982 308.093 224.586C307.433 224.19 306.905 223.656 306.509 222.984C306.125 222.312 305.933 221.562 305.933 220.734C305.933 219.918 306.125 219.18 306.509 218.52C306.905 217.86 307.433 217.338 308.093 216.954C308.765 216.558 309.509 216.36 310.325 216.36C311.153 216.36 311.897 216.552 312.557 216.936C313.217 217.32 313.739 217.848 314.123 218.52C314.519 219.18 314.717 219.918 314.717 220.734C314.717 221.574 314.519 222.33 314.123 223.002C313.739 223.662 313.217 224.19 312.557 224.586C311.897 224.982 311.153 225.18 310.325 225.18ZM310.325 223.956C310.925 223.956 311.453 223.818 311.909 223.542C312.377 223.266 312.743 222.882 313.007 222.39C313.283 221.898 313.421 221.346 313.421 220.734C313.421 220.122 313.283 219.582 313.007 219.114C312.743 218.634 312.377 218.256 311.909 217.98C311.453 217.704 310.925 217.566 310.325 217.566C309.737 217.566 309.209 217.704 308.741 217.98C308.273 218.256 307.907 218.634 307.643 219.114C307.379 219.582 307.247 220.122 307.247 220.734C307.247 221.358 307.379 221.916 307.643 222.408C307.907 222.888 308.273 223.266 308.741 223.542C309.209 223.818 309.737 223.956 310.325 223.956ZM320.069 225.18C319.385 225.18 318.773 225.024 318.233 224.712C317.693 224.388 317.267 223.95 316.955 223.398C316.655 222.846 316.505 222.198 316.505 221.454V216.54H317.783V221.4C317.783 221.916 317.873 222.366 318.053 222.75C318.245 223.134 318.515 223.434 318.863 223.65C319.211 223.866 319.613 223.974 320.069 223.974C320.777 223.974 321.335 223.74 321.743 223.272C322.163 222.804 322.373 222.18 322.373 221.4V216.54H323.633V221.454C323.633 222.186 323.483 222.834 323.183 223.398C322.883 223.962 322.463 224.4 321.923 224.712C321.383 225.024 320.765 225.18 320.069 225.18ZM325.985 225V216.54H327.245V225H325.985ZM327.245 220.068L326.723 219.834C326.723 218.766 326.981 217.92 327.497 217.296C328.025 216.672 328.745 216.36 329.657 216.36C330.077 216.36 330.461 216.438 330.809 216.594C331.157 216.738 331.481 216.972 331.781 217.296L330.953 218.178C330.749 217.95 330.521 217.788 330.269 217.692C330.029 217.596 329.753 217.548 329.441 217.548C328.793 217.548 328.265 217.764 327.857 218.196C327.449 218.616 327.245 219.24 327.245 220.068ZM337.611 225V212.616H338.925V225H337.611ZM345.729 225V212.616H347.043V225H345.729ZM338.475 219.204V217.998H346.089V219.204H338.475ZM353.653 225V212.958H354.985V225H353.653ZM349.297 213.822V212.616H359.341V213.822H349.297ZM361.588 225V212.616H362.524L367.87 221.382H367.204L372.55 212.616H373.486V225H372.154V214.92L372.46 214.992L367.996 222.318H367.06L362.596 214.992L362.902 214.92V225H361.588ZM376.635 225V212.616H377.949V225H376.635ZM377.499 225V223.794H384.321V225H377.499ZM393.928 225.18C393.076 225.18 392.314 224.988 391.642 224.604C390.97 224.22 390.436 223.692 390.04 223.02C389.656 222.348 389.464 221.592 389.464 220.752C389.464 219.924 389.656 219.18 390.04 218.52C390.424 217.848 390.946 217.32 391.606 216.936C392.266 216.552 393.004 216.36 393.82 216.36C394.588 216.36 395.266 216.534 395.854 216.882C396.454 217.23 396.922 217.716 397.258 218.34C397.606 218.952 397.78 219.66 397.78 220.464C397.78 220.56 397.774 220.674 397.762 220.806C397.75 220.926 397.726 221.07 397.69 221.238H390.364V220.158H397.006L396.556 220.554C396.568 219.93 396.46 219.396 396.232 218.952C396.016 218.496 395.698 218.148 395.278 217.908C394.87 217.656 394.372 217.53 393.784 217.53C393.172 217.53 392.638 217.662 392.182 217.926C391.726 218.19 391.366 218.562 391.102 219.042C390.85 219.51 390.724 220.068 390.724 220.716C390.724 221.364 390.856 221.934 391.12 222.426C391.396 222.918 391.774 223.302 392.254 223.578C392.746 223.854 393.31 223.992 393.946 223.992C394.462 223.992 394.936 223.902 395.368 223.722C395.8 223.53 396.166 223.248 396.466 222.876L397.276 223.704C396.88 224.172 396.388 224.538 395.8 224.802C395.224 225.054 394.6 225.18 393.928 225.18ZM405.186 225L402.36 221.148L402.09 220.932L398.688 216.54H400.254L402.882 219.996L403.134 220.212L406.734 225H405.186ZM398.544 225L402.108 220.356L402.81 221.292L400.038 225H398.544ZM403.224 220.914L402.504 219.996L405.096 216.54H406.59L403.224 220.914ZM412.034 225.18C411.182 225.18 410.42 224.988 409.748 224.604C409.076 224.22 408.542 223.692 408.146 223.02C407.762 222.348 407.57 221.592 407.57 220.752C407.57 219.924 407.762 219.18 408.146 218.52C408.53 217.848 409.052 217.32 409.712 216.936C410.372 216.552 411.11 216.36 411.926 216.36C412.694 216.36 413.372 216.534 413.96 216.882C414.56 217.23 415.028 217.716 415.364 218.34C415.712 218.952 415.886 219.66 415.886 220.464C415.886 220.56 415.88 220.674 415.868 220.806C415.856 220.926 415.832 221.07 415.796 221.238H408.47V220.158H415.112L414.662 220.554C414.674 219.93 414.566 219.396 414.338 218.952C414.122 218.496 413.804 218.148 413.384 217.908C412.976 217.656 412.478 217.53 411.89 217.53C411.278 217.53 410.744 217.662 410.288 217.926C409.832 218.19 409.472 218.562 409.208 219.042C408.956 219.51 408.83 220.068 408.83 220.716C408.83 221.364 408.962 221.934 409.226 222.426C409.502 222.918 409.88 223.302 410.36 223.578C410.852 223.854 411.416 223.992 412.052 223.992C412.568 223.992 413.042 223.902 413.474 223.722C413.906 223.53 414.272 223.248 414.572 222.876L415.382 223.704C414.986 224.172 414.494 224.538 413.906 224.802C413.33 225.054 412.706 225.18 412.034 225.18ZM421.665 225.18C420.837 225.18 420.087 224.988 419.415 224.604C418.755 224.208 418.227 223.674 417.831 223.002C417.447 222.33 417.255 221.58 417.255 220.752C417.255 219.924 417.447 219.18 417.831 218.52C418.227 217.848 418.755 217.32 419.415 216.936C420.087 216.552 420.837 216.36 421.665 216.36C422.301 216.36 422.895 216.48 423.447 216.72C423.999 216.96 424.467 217.296 424.851 217.728L424.023 218.574C423.735 218.25 423.387 218.004 422.979 217.836C422.571 217.656 422.133 217.566 421.665 217.566C421.065 217.566 420.531 217.704 420.063 217.98C419.595 218.256 419.229 218.634 418.965 219.114C418.701 219.582 418.569 220.128 418.569 220.752C418.569 221.364 418.701 221.916 418.965 222.408C419.229 222.888 419.595 223.266 420.063 223.542C420.531 223.818 421.065 223.956 421.665 223.956C422.145 223.956 422.589 223.872 422.997 223.704C423.405 223.524 423.753 223.272 424.041 222.948L424.887 223.794C424.491 224.238 424.011 224.58 423.447 224.82C422.895 225.06 422.301 225.18 421.665 225.18ZM430.003 225.18C429.319 225.18 428.707 225.024 428.167 224.712C427.627 224.388 427.201 223.95 426.889 223.398C426.589 222.846 426.439 222.198 426.439 221.454V216.54H427.717V221.4C427.717 221.916 427.807 222.366 427.987 222.75C428.179 223.134 428.449 223.434 428.797 223.65C429.145 223.866 429.547 223.974 430.003 223.974C430.711 223.974 431.269 223.74 431.677 223.272C432.097 222.804 432.307 222.18 432.307 221.4V216.54H433.567V221.454C433.567 222.186 433.417 222.834 433.117 223.398C432.817 223.962 432.397 224.4 431.857 224.712C431.317 225.024 430.699 225.18 430.003 225.18ZM437.233 225V212.976H438.493V225H437.233ZM435.091 217.674V216.54H440.617V217.674H435.091ZM445.959 225.18C445.107 225.18 444.345 224.988 443.673 224.604C443.001 224.22 442.467 223.692 442.071 223.02C441.687 222.348 441.495 221.592 441.495 220.752C441.495 219.924 441.687 219.18 442.071 218.52C442.455 217.848 442.977 217.32 443.637 216.936C444.297 216.552 445.035 216.36 445.851 216.36C446.619 216.36 447.297 216.534 447.885 216.882C448.485 217.23 448.953 217.716 449.289 218.34C449.637 218.952 449.811 219.66 449.811 220.464C449.811 220.56 449.805 220.674 449.793 220.806C449.781 220.926 449.757 221.07 449.721 221.238H442.395V220.158H449.037L448.587 220.554C448.599 219.93 448.491 219.396 448.263 218.952C448.047 218.496 447.729 218.148 447.309 217.908C446.901 217.656 446.403 217.53 445.815 217.53C445.203 217.53 444.669 217.662 444.213 217.926C443.757 218.19 443.397 218.562 443.133 219.042C442.881 219.51 442.755 220.068 442.755 220.716C442.755 221.364 442.887 221.934 443.151 222.426C443.427 222.918 443.805 223.302 444.285 223.578C444.777 223.854 445.341 223.992 445.977 223.992C446.493 223.992 446.967 223.902 447.399 223.722C447.831 223.53 448.197 223.248 448.497 222.876L449.307 223.704C448.911 224.172 448.419 224.538 447.831 224.802C447.255 225.054 446.631 225.18 445.959 225.18ZM454.331 225.18C453.875 225.18 453.437 225.12 453.017 225C452.597 224.868 452.213 224.688 451.865 224.46C451.529 224.232 451.235 223.962 450.983 223.65L451.793 222.822C452.129 223.23 452.507 223.536 452.927 223.74C453.359 223.932 453.839 224.028 454.367 224.028C454.931 224.028 455.369 223.92 455.681 223.704C456.005 223.488 456.167 223.188 456.167 222.804C456.167 222.444 456.053 222.162 455.825 221.958C455.597 221.754 455.303 221.592 454.943 221.472C454.595 221.352 454.223 221.238 453.827 221.13C453.431 221.01 453.053 220.866 452.693 220.698C452.333 220.518 452.039 220.272 451.811 219.96C451.595 219.648 451.487 219.24 451.487 218.736C451.487 218.256 451.601 217.842 451.829 217.494C452.069 217.134 452.405 216.858 452.837 216.666C453.281 216.462 453.803 216.36 454.403 216.36C455.039 216.36 455.615 216.474 456.131 216.702C456.647 216.93 457.061 217.266 457.373 217.71L456.563 218.52C456.311 218.196 455.993 217.95 455.609 217.782C455.237 217.602 454.817 217.512 454.349 217.512C453.809 217.512 453.395 217.62 453.107 217.836C452.831 218.04 452.693 218.31 452.693 218.646C452.693 218.97 452.807 219.228 453.035 219.42C453.263 219.6 453.551 219.75 453.899 219.87C454.259 219.978 454.637 220.092 455.033 220.212C455.429 220.32 455.807 220.47 456.167 220.662C456.527 220.842 456.815 221.094 457.031 221.418C457.259 221.73 457.373 222.156 457.373 222.696C457.373 223.452 457.097 224.058 456.545 224.514C456.005 224.958 455.267 225.18 454.331 225.18ZM467.069 225.18C466.253 225.18 465.509 224.982 464.837 224.586C464.177 224.19 463.649 223.656 463.253 222.984C462.869 222.312 462.677 221.562 462.677 220.734C462.677 219.918 462.869 219.18 463.253 218.52C463.649 217.86 464.177 217.338 464.837 216.954C465.509 216.558 466.253 216.36 467.069 216.36C467.897 216.36 468.641 216.552 469.301 216.936C469.961 217.32 470.483 217.848 470.867 218.52C471.263 219.18 471.461 219.918 471.461 220.734C471.461 221.574 471.263 222.33 470.867 223.002C470.483 223.662 469.961 224.19 469.301 224.586C468.641 224.982 467.897 225.18 467.069 225.18ZM467.069 223.956C467.669 223.956 468.197 223.818 468.653 223.542C469.121 223.266 469.487 222.882 469.751 222.39C470.027 221.898 470.165 221.346 470.165 220.734C470.165 220.122 470.027 219.582 469.751 219.114C469.487 218.634 469.121 218.256 468.653 217.98C468.197 217.704 467.669 217.566 467.069 217.566C466.481 217.566 465.953 217.704 465.485 217.98C465.017 218.256 464.651 218.634 464.387 219.114C464.123 219.582 463.991 220.122 463.991 220.734C463.991 221.358 464.123 221.916 464.387 222.408C464.651 222.888 465.017 223.266 465.485 223.542C465.953 223.818 466.481 223.956 467.069 223.956ZM476.813 225.18C476.13 225.18 475.518 225.024 474.978 224.712C474.438 224.388 474.012 223.95 473.7 223.398C473.4 222.846 473.25 222.198 473.25 221.454V216.54H474.528V221.4C474.528 221.916 474.618 222.366 474.798 222.75C474.99 223.134 475.26 223.434 475.608 223.65C475.956 223.866 476.358 223.974 476.813 223.974C477.522 223.974 478.08 223.74 478.488 223.272C478.908 222.804 479.118 222.18 479.118 221.4V216.54H480.378V221.454C480.378 222.186 480.228 222.834 479.928 223.398C479.628 223.962 479.208 224.4 478.668 224.712C478.128 225.024 477.51 225.18 476.813 225.18ZM484.043 225V212.976H485.303V225H484.043ZM481.901 217.674V216.54H487.427V217.674H481.901ZM491.579 225.18C491.123 225.18 490.685 225.12 490.265 225C489.845 224.868 489.461 224.688 489.113 224.46C488.777 224.232 488.483 223.962 488.231 223.65L489.041 222.822C489.377 223.23 489.755 223.536 490.175 223.74C490.607 223.932 491.087 224.028 491.615 224.028C492.179 224.028 492.617 223.92 492.929 223.704C493.253 223.488 493.415 223.188 493.415 222.804C493.415 222.444 493.301 222.162 493.073 221.958C492.845 221.754 492.551 221.592 492.191 221.472C491.843 221.352 491.471 221.238 491.075 221.13C490.679 221.01 490.301 220.866 489.941 220.698C489.581 220.518 489.287 220.272 489.059 219.96C488.843 219.648 488.735 219.24 488.735 218.736C488.735 218.256 488.849 217.842 489.077 217.494C489.317 217.134 489.653 216.858 490.085 216.666C490.529 216.462 491.051 216.36 491.651 216.36C492.287 216.36 492.863 216.474 493.379 216.702C493.895 216.93 494.309 217.266 494.621 217.71L493.811 218.52C493.559 218.196 493.241 217.95 492.857 217.782C492.485 217.602 492.065 217.512 491.597 217.512C491.057 217.512 490.643 217.62 490.355 217.836C490.079 218.04 489.941 218.31 489.941 218.646C489.941 218.97 490.055 219.228 490.283 219.42C490.511 219.6 490.799 219.75 491.147 219.87C491.507 219.978 491.885 220.092 492.281 220.212C492.677 220.32 493.055 220.47 493.415 220.662C493.775 220.842 494.063 221.094 494.279 221.418C494.507 221.73 494.621 222.156 494.621 222.696C494.621 223.452 494.345 224.058 493.793 224.514C493.253 224.958 492.515 225.18 491.579 225.18ZM496.616 225V216.54H497.894V225H496.616ZM497.246 214.704C497.006 214.704 496.802 214.62 496.634 214.452C496.466 214.272 496.382 214.062 496.382 213.822C496.382 213.57 496.466 213.36 496.634 213.192C496.802 213.024 497.006 212.94 497.246 212.94C497.51 212.94 497.72 213.024 497.876 213.192C498.044 213.36 498.128 213.57 498.128 213.822C498.128 214.062 498.044 214.272 497.876 214.452C497.72 214.62 497.51 214.704 497.246 214.704ZM504.048 225.18C503.268 225.18 502.566 224.988 501.942 224.604C501.318 224.22 500.82 223.698 500.448 223.038C500.088 222.366 499.908 221.616 499.908 220.788C499.908 219.948 500.088 219.198 500.448 218.538C500.82 217.866 501.318 217.338 501.942 216.954C502.566 216.558 503.268 216.36 504.048 216.36C504.684 216.36 505.26 216.486 505.776 216.738C506.292 216.99 506.718 217.35 507.054 217.818C507.402 218.274 507.606 218.814 507.666 219.438V222.084C507.594 222.696 507.39 223.236 507.054 223.704C506.73 224.16 506.31 224.52 505.794 224.784C505.278 225.048 504.696 225.18 504.048 225.18ZM504.264 223.974C504.852 223.974 505.368 223.842 505.812 223.578C506.256 223.302 506.604 222.924 506.856 222.444C507.108 221.952 507.234 221.394 507.234 220.77C507.234 220.134 507.102 219.576 506.838 219.096C506.586 218.616 506.238 218.238 505.794 217.962C505.35 217.686 504.834 217.548 504.246 217.548C503.658 217.548 503.136 217.686 502.68 217.962C502.224 218.238 501.864 218.622 501.6 219.114C501.348 219.594 501.222 220.146 501.222 220.77C501.222 221.394 501.348 221.952 501.6 222.444C501.864 222.924 502.224 223.302 502.68 223.578C503.148 223.842 503.676 223.974 504.264 223.974ZM508.422 225H507.162V222.732L507.414 220.644L507.162 218.61V212.256H508.422V225ZM514.883 225.18C514.031 225.18 513.269 224.988 512.597 224.604C511.925 224.22 511.391 223.692 510.995 223.02C510.611 222.348 510.419 221.592 510.419 220.752C510.419 219.924 510.611 219.18 510.995 218.52C511.379 217.848 511.901 217.32 512.561 216.936C513.221 216.552 513.959 216.36 514.775 216.36C515.543 216.36 516.221 216.534 516.809 216.882C517.409 217.23 517.877 217.716 518.213 218.34C518.561 218.952 518.735 219.66 518.735 220.464C518.735 220.56 518.729 220.674 518.717 220.806C518.705 220.926 518.681 221.07 518.645 221.238H511.319V220.158H517.961L517.511 220.554C517.523 219.93 517.415 219.396 517.187 218.952C516.971 218.496 516.653 218.148 516.233 217.908C515.825 217.656 515.327 217.53 514.739 217.53C514.127 217.53 513.593 217.662 513.137 217.926C512.681 218.19 512.321 218.562 512.057 219.042C511.805 219.51 511.679 220.068 511.679 220.716C511.679 221.364 511.811 221.934 512.075 222.426C512.351 222.918 512.729 223.302 513.209 223.578C513.701 223.854 514.265 223.992 514.901 223.992C515.417 223.992 515.891 223.902 516.323 223.722C516.755 223.53 517.121 223.248 517.421 222.876L518.231 223.704C517.835 224.172 517.343 224.538 516.755 224.802C516.179 225.054 515.555 225.18 514.883 225.18ZM525.844 225V212.976H527.104V225H525.844ZM523.702 217.674V216.54H529.228V217.674H523.702ZM537.12 225V220.032C537.12 219.288 536.898 218.688 536.454 218.232C536.022 217.764 535.446 217.53 534.726 217.53C534.234 217.53 533.802 217.638 533.43 217.854C533.058 218.07 532.764 218.364 532.548 218.736C532.332 219.108 532.224 219.534 532.224 220.014L531.648 219.69C531.648 219.054 531.798 218.484 532.098 217.98C532.398 217.476 532.8 217.08 533.304 216.792C533.82 216.504 534.408 216.36 535.068 216.36C535.716 216.36 536.292 216.51 536.796 216.81C537.3 217.098 537.69 217.5 537.966 218.016C538.254 218.532 538.398 219.132 538.398 219.816V225H537.12ZM530.964 225V212.256H532.224V225H530.964ZM544.661 225.18C543.809 225.18 543.047 224.988 542.375 224.604C541.703 224.22 541.169 223.692 540.773 223.02C540.389 222.348 540.197 221.592 540.197 220.752C540.197 219.924 540.389 219.18 540.773 218.52C541.157 217.848 541.679 217.32 542.339 216.936C542.999 216.552 543.737 216.36 544.553 216.36C545.321 216.36 545.999 216.534 546.587 216.882C547.187 217.23 547.655 217.716 547.991 218.34C548.339 218.952 548.513 219.66 548.513 220.464C548.513 220.56 548.507 220.674 548.495 220.806C548.483 220.926 548.459 221.07 548.423 221.238H541.097V220.158H547.739L547.289 220.554C547.301 219.93 547.193 219.396 546.965 218.952C546.749 218.496 546.431 218.148 546.011 217.908C545.603 217.656 545.105 217.53 544.517 217.53C543.905 217.53 543.371 217.662 542.915 217.926C542.459 218.19 542.099 218.562 541.835 219.042C541.583 219.51 541.457 220.068 541.457 220.716C541.457 221.364 541.589 221.934 541.853 222.426C542.129 222.918 542.507 223.302 542.987 223.578C543.479 223.854 544.043 223.992 544.679 223.992C545.195 223.992 545.669 223.902 546.101 223.722C546.533 223.53 546.899 223.248 547.199 222.876L548.009 223.704C547.613 224.172 547.121 224.538 546.533 224.802C545.957 225.054 545.333 225.18 544.661 225.18ZM555.423 225V223.776H559.059C560.031 223.776 560.889 223.566 561.633 223.146C562.377 222.714 562.959 222.126 563.379 221.382C563.799 220.626 564.009 219.762 564.009 218.79C564.009 217.818 563.799 216.96 563.379 216.216C562.959 215.472 562.377 214.89 561.633 214.47C560.889 214.038 560.031 213.822 559.059 213.822H555.459V212.616H559.095C559.995 212.616 560.823 212.772 561.579 213.084C562.347 213.384 563.013 213.816 563.577 214.38C564.153 214.932 564.597 215.586 564.909 216.342C565.221 217.086 565.377 217.908 565.377 218.808C565.377 219.684 565.221 220.5 564.909 221.256C564.597 222.012 564.159 222.672 563.595 223.236C563.031 223.788 562.365 224.22 561.597 224.532C560.841 224.844 560.019 225 559.131 225H555.423ZM554.613 225V212.616H555.927V225H554.613ZM573.5 225.18C572.624 225.18 571.808 225.018 571.052 224.694C570.308 224.358 569.654 223.902 569.09 223.326C568.526 222.738 568.082 222.06 567.758 221.292C567.446 220.512 567.29 219.678 567.29 218.79C567.29 217.89 567.446 217.056 567.758 216.288C568.07 215.52 568.508 214.848 569.072 214.272C569.636 213.696 570.29 213.246 571.034 212.922C571.778 212.598 572.588 212.436 573.464 212.436C574.34 212.436 575.15 212.598 575.894 212.922C576.65 213.246 577.31 213.696 577.874 214.272C578.438 214.848 578.876 215.526 579.188 216.306C579.5 217.074 579.656 217.908 579.656 218.808C579.656 219.696 579.5 220.53 579.188 221.31C578.876 222.078 578.438 222.75 577.874 223.326C577.322 223.902 576.674 224.358 575.93 224.694C575.186 225.018 574.376 225.18 573.5 225.18ZM573.464 223.902C574.4 223.902 575.228 223.68 575.948 223.236C576.68 222.792 577.25 222.186 577.658 221.418C578.078 220.65 578.288 219.774 578.288 218.79C578.288 218.058 578.168 217.386 577.928 216.774C577.688 216.15 577.352 215.61 576.92 215.154C576.488 214.686 575.978 214.326 575.39 214.074C574.814 213.822 574.172 213.696 573.464 213.696C572.54 213.696 571.712 213.918 570.98 214.362C570.26 214.794 569.69 215.394 569.27 216.162C568.862 216.93 568.658 217.806 568.658 218.79C568.658 219.522 568.778 220.2 569.018 220.824C569.258 221.448 569.594 221.994 570.026 222.462C570.458 222.918 570.968 223.272 571.556 223.524C572.144 223.776 572.78 223.902 573.464 223.902ZM582.211 225V212.616H583.147L588.493 221.382H587.827L593.173 212.616H594.109V225H592.777V214.92L593.083 214.992L588.619 222.318H587.683L583.219 214.992L583.525 214.92V225H582.211Z" fill="black"/>
<path d="M74.6371 94.9995L68.7602 86.6815L63.8779 94.9995H52.4406L62.9738 78.4991L51.9886 62.9932H63.8779L69.5288 70.9948L74.2303 62.9932H85.6675L75.3152 79.1772L86.5265 94.9995H74.6371ZM113.907 62.9932V70.9496H105.408V94.9995H95.3721V70.9496H86.9637V62.9932H113.907ZM155.1 62.9932V94.9995H145.109V79.0416L140.182 94.9995H131.592L126.665 79.0416V94.9995H116.629V62.9932H128.925L135.977 82.206L142.849 62.9932H155.1ZM169.664 87.4048H179.338V94.9995H159.628V62.9932H169.664V87.4048Z" fill="black"/>
<path d="M60.6799 239.275L49.001 108.188H177.399L165.72 239.204L113.094 253.785" fill="#D71104"/>
<path d="M113.178 242.662V118.971H165.663L155.647 230.806" fill="#F83326"/>
<path d="M133.022 140.176H148.311L97.9657 215.694L84.2212 211.679L133.022 140.176Z" fill="white"/>
<path d="M94.2471 140.484H78.8038L128.686 215.847L142.894 211.986L94.2471 140.484Z" fill="white"/>
<path d="M113.718 168.758V192.54L97.9657 215.705L84.2212 211.69L113.718 168.758Z" fill="#EBEBEB"/>
<path d="M94.272 140.484H78.8287L113.576 192.528V168.9L94.272 140.484Z" fill="#EBEBEB"/>
</svg>
