<svg width="1003" height="256" viewBox="0 0 1003 256" fill="none" xmlns="http://www.w3.org/2000/svg">
<rect x="32" y="58.6665" width="21.3333" height="122.667" fill="#FF8800"/>
<rect x="202.667" y="58.6665" width="21.3333" height="122.667" fill="#FF8800"/>
<path d="M53.334 181.333C53.334 181.606 53.4427 183.143 56.4492 185.808C59.4434 188.463 64.3851 191.34 71.4062 193.973C72.459 194.368 73.547 194.75 74.667 195.124V217.412C70.8765 216.366 67.2818 215.211 63.915 213.949C55.4944 210.791 47.9389 206.773 42.2969 201.771C36.6672 196.78 32 189.898 32 181.333H53.334ZM224 181.333C224 189.898 219.334 196.78 213.704 201.771C210.559 204.559 206.819 207.041 202.667 209.239V181.333H224Z" fill="#FF8800"/>
<path d="M224 122.667C224 131.231 219.334 138.113 213.704 143.104C208.062 148.106 200.506 152.124 192.085 155.282C188.718 156.544 185.124 157.699 181.333 158.745V136.458C182.453 136.084 183.542 135.701 184.595 135.306C191.616 132.673 196.558 129.796 199.552 127.141C202.182 124.809 202.594 123.341 202.656 122.828L202.667 122.667H224ZM53.333 122.667V150.572C49.181 148.374 45.4416 145.892 42.2969 143.104C36.6672 138.113 32 131.231 32 122.667H53.333Z" fill="#FF8800"/>
<ellipse cx="128" cy="58.6665" rx="85.3333" ry="32" stroke="#FF8800" stroke-width="21.3333"/>
<path d="M95.8062 120.203C102.657 121.287 109.866 122.034 117.333 122.401V239.735C109.936 239.372 102.793 238.635 95.9995 237.567V154.289C89.7238 157.92 82.4382 159.999 74.6665 159.999V138.665C85.475 138.665 94.404 130.627 95.8062 120.203ZM160 203.041C166.275 199.41 173.562 197.332 181.333 197.332V218.666C170.382 218.666 161.359 226.919 160.142 237.545C153.307 238.624 146.115 239.369 138.667 239.735V122.401C146.063 122.038 153.207 121.3 160 120.233V203.041Z" fill="#FF8800"/>
<path d="M346.24 189.195C337.934 189.195 330.425 187.772 323.712 184.928C317.113 182.084 311.879 177.988 308.011 172.64C304.142 167.292 302.151 160.978 302.037 153.696H327.637C327.979 158.588 329.685 162.457 332.757 165.301C335.943 168.146 340.267 169.568 345.728 169.568C351.303 169.568 355.684 168.26 358.869 165.643C362.055 162.912 363.648 159.385 363.648 155.061C363.648 151.534 362.567 148.633 360.405 146.357C358.244 144.082 355.513 142.318 352.214 141.067C349.028 139.701 344.59 138.222 338.902 136.629C331.165 134.354 324.85 132.135 319.957 129.973C315.179 127.698 311.026 124.341 307.499 119.904C304.085 115.353 302.379 109.323 302.379 101.813C302.379 94.7591 304.142 88.6151 307.669 83.3813C311.197 78.1475 316.146 74.1653 322.517 71.4347C328.889 68.5902 336.171 67.168 344.363 67.168C356.651 67.168 366.606 70.1831 374.23 76.2133C381.966 82.1298 386.233 90.4355 387.03 101.131H360.747C360.519 97.0347 358.756 93.6782 355.456 91.0613C352.27 88.3307 348.004 86.9653 342.656 86.9653C337.991 86.9653 334.237 88.16 331.392 90.5493C328.661 92.9387 327.296 96.4089 327.296 100.96C327.296 104.146 328.32 106.82 330.368 108.981C332.53 111.029 335.147 112.736 338.219 114.101C341.405 115.353 345.842 116.832 351.531 118.539C359.268 120.814 365.582 123.09 370.475 125.365C375.367 127.641 379.577 131.054 383.104 135.605C386.631 140.156 388.395 146.13 388.395 153.525C388.395 159.897 386.745 165.813 383.445 171.275C380.146 176.736 375.31 181.116 368.939 184.416C362.567 187.602 355.001 189.195 346.24 189.195ZM499.563 93.4507L441.024 232.715H415.595L436.075 185.611L398.187 93.4507H424.981L449.387 159.499L474.134 93.4507H499.563ZM564.838 92.0853C576.102 92.0853 585.204 95.6693 592.144 102.837C599.085 109.892 602.555 119.79 602.555 132.533V188H578.662V135.776C578.662 128.267 576.784 122.521 573.03 118.539C569.275 114.443 564.155 112.395 557.67 112.395C551.07 112.395 545.837 114.443 541.968 118.539C538.214 122.521 536.336 128.267 536.336 135.776V188H512.443V93.4507H536.336V105.227C539.522 101.131 543.561 97.9449 548.454 95.6693C553.46 93.28 558.921 92.0853 564.838 92.0853ZM619.132 140.725C619.132 130.94 621.123 122.407 625.106 115.125C629.088 107.73 634.606 102.041 641.66 98.0587C648.714 93.9627 656.793 91.9147 665.895 91.9147C677.614 91.9147 687.285 94.8729 694.908 100.789C702.645 106.592 707.822 114.784 710.439 125.365H684.668C683.303 121.269 680.97 118.084 677.671 115.808C674.485 113.419 670.503 112.224 665.724 112.224C658.898 112.224 653.493 114.727 649.511 119.733C645.529 124.626 643.538 131.623 643.538 140.725C643.538 149.714 645.529 156.711 649.511 161.717C653.493 166.61 658.898 169.056 665.724 169.056C675.395 169.056 681.71 164.732 684.668 156.085H710.439C707.822 166.325 702.645 174.46 694.908 180.491C687.171 186.521 677.5 189.536 665.895 189.536C656.793 189.536 648.714 187.545 641.66 183.563C634.606 179.467 629.088 173.778 625.106 166.496C621.123 159.1 619.132 150.51 619.132 140.725ZM816.69 208.992L798.599 187.317C793.593 188.569 788.473 189.195 783.239 189.195C772.089 189.195 761.849 186.578 752.519 181.344C743.189 176.11 735.794 168.885 730.332 159.669C724.871 150.34 722.14 139.815 722.14 128.096C722.14 116.491 724.871 106.08 730.332 96.864C735.794 87.5342 743.189 80.2524 752.519 75.0187C761.849 69.7849 772.089 67.168 783.239 67.168C794.503 67.168 804.743 69.7849 813.959 75.0187C823.289 80.2524 830.627 87.5342 835.975 96.864C841.436 106.08 844.167 116.491 844.167 128.096C844.167 138.677 841.891 148.348 837.34 157.109C832.903 165.756 826.816 172.811 819.079 178.272L846.386 208.992H816.69ZM746.716 128.096C746.716 136.06 748.252 143.058 751.324 149.088C754.396 155.118 758.663 159.783 764.124 163.083C769.699 166.268 776.071 167.861 783.239 167.861C790.407 167.861 796.722 166.268 802.183 163.083C807.644 159.783 811.911 155.118 814.983 149.088C818.055 143.058 819.591 136.06 819.591 128.096C819.591 120.132 818.055 113.191 814.983 107.275C811.911 101.244 807.644 96.6364 802.183 93.4507C796.722 90.2649 790.407 88.672 783.239 88.672C776.071 88.672 769.699 90.2649 764.124 93.4507C758.663 96.6364 754.396 101.244 751.324 107.275C748.252 113.191 746.716 120.132 746.716 128.096ZM886.17 169.056H925.423V188H862.276V68.8747H886.17V169.056Z" fill="black"/>
</svg>
