<svg width="512" height="610" viewBox="0 0 512 610" fill="none" xmlns="http://www.w3.org/2000/svg">
<path d="M407 569.8L256 609.8L105 569.8L75 198.8H437L407 569.8ZM256 287.8C193.592 287.8 143 338.392 143 400.8C143 434.496 157.75 464.746 181.144 485.449L181.95 484.642L182.107 484.799L213.22 453.687L202.613 443.08L193.44 452.252C183.31 439.949 176.738 424.608 175.299 407.8H188V392.8H175.392C177.026 376.134 183.709 360.951 193.894 348.8L202.613 357.52L213.22 346.913L204.546 338.239C216.727 328.209 231.887 321.669 248.5 320.144V332.3H263.5V320.144C302.083 323.686 332.832 354.285 336.608 392.8H324V407.8H336.701C335.262 424.608 328.688 439.949 318.558 452.251L309.387 443.08L298.78 453.687L307.998 462.904C307.98 462.919 307.962 462.935 307.944 462.95L330.636 485.642C354.157 464.934 369 434.601 369 400.8C369 338.392 318.408 287.8 256 287.8ZM247.254 388.964C243.946 391.169 242.2 394.538 242.017 399.071C241.833 403.604 243.211 407.341 246.151 410.281C249.092 413.221 252.89 414.661 257.545 414.6C262.2 414.538 265.631 412.854 267.836 409.546L309 347.8L247.254 388.964Z" fill="black"/>
<path d="M418.028 166.8V94H440.492V166.8H418.028ZM374.66 166.8V94H397.124V166.8H374.66ZM383.084 140.28L383.188 120.728H430.716V140.28H383.084Z" fill="black"/>
<path d="M337.108 167.84C331.284 167.84 325.911 166.904 320.988 165.032C316.135 163.16 311.905 160.56 308.3 157.232C304.764 153.835 302.025 149.813 300.084 145.168C298.143 140.523 297.172 135.427 297.172 129.88C297.172 124.334 298.143 119.238 300.084 114.592C302.095 109.947 304.903 105.96 308.508 102.632C312.113 99.2348 316.377 96.6002 321.3 94.7282C326.292 92.8562 331.769 91.9202 337.732 91.9202C341.129 91.9202 344.457 92.3362 347.716 93.1682C351.044 93.9308 354.164 95.1442 357.076 96.8082C360.057 98.4028 362.761 100.448 365.188 102.944L351.772 118.648C350.801 117.469 349.623 116.395 348.236 115.424C346.919 114.453 345.359 113.691 343.556 113.136C341.823 112.512 339.812 112.2 337.524 112.2C335.167 112.2 332.913 112.616 330.764 113.448C328.684 114.211 326.847 115.355 325.252 116.88C323.727 118.406 322.513 120.278 321.612 122.496C320.711 124.715 320.26 127.28 320.26 130.192C320.26 132.827 320.711 135.219 321.612 137.368C322.513 139.517 323.796 141.355 325.46 142.88C327.124 144.406 329.135 145.584 331.492 146.416C333.849 147.248 336.484 147.664 339.396 147.664C341.476 147.664 343.452 147.352 345.324 146.728C347.196 146.104 348.895 145.307 350.42 144.336C351.945 143.296 353.263 142.152 354.372 140.904L365.084 157.752C363.281 159.693 360.889 161.427 357.908 162.952C354.927 164.477 351.633 165.691 348.028 166.592C344.423 167.424 340.783 167.84 337.108 167.84Z" fill="black"/>
<path d="M216.324 166.8V94H236.396L269.884 140.28L265.1 138.824C264.753 136.051 264.441 133.624 264.164 131.544C263.956 129.464 263.748 127.557 263.54 125.824C263.401 124.021 263.262 122.253 263.124 120.52C263.054 118.787 263.02 116.88 263.02 114.8C263.02 112.72 263.02 110.293 263.02 107.52V94H284.652V166.8H264.372L227.452 115.84L235.876 118.336C236.222 120.901 236.5 123.155 236.708 125.096C236.985 126.968 237.193 128.701 237.332 130.296C237.47 131.891 237.574 133.485 237.644 135.08C237.782 136.605 237.852 138.339 237.852 140.28C237.921 142.152 237.956 144.371 237.956 146.936V166.8H216.324Z" fill="black"/>
<path d="M146.855 166.8V94H201.247V112.2H168.383V148.6H203.119V166.8H146.855ZM157.567 138.512V121.456H197.399V138.512H157.567Z" fill="black"/>
<path d="M72.5112 166.8V94H105.999C111.269 94 115.706 94.728 119.311 96.184C122.986 97.64 125.759 99.6853 127.631 102.32C129.573 104.955 130.543 108.04 130.543 111.576C130.543 115.944 129.538 119.549 127.527 122.392C125.586 125.235 122.709 127.141 118.895 128.112L118.583 126.136C121.773 126.899 124.546 128.147 126.903 129.88C129.261 131.544 131.098 133.589 132.415 136.016C133.733 138.443 134.391 141.216 134.391 144.336C134.391 148.149 133.698 151.477 132.311 154.32C130.925 157.093 128.949 159.416 126.383 161.288C123.887 163.16 120.975 164.547 117.647 165.448C114.389 166.349 110.853 166.8 107.039 166.8H72.5112ZM93.3112 149.12H106.415C107.733 149.12 108.842 148.912 109.743 148.496C110.645 148.011 111.338 147.317 111.823 146.416C112.309 145.445 112.551 144.301 112.551 142.984C112.551 141.805 112.274 140.835 111.719 140.072C111.234 139.24 110.506 138.616 109.535 138.2C108.565 137.715 107.351 137.472 105.895 137.472H93.3112V149.12ZM93.3112 122.496H102.151C103.746 122.496 105.029 122.288 105.999 121.872C107.039 121.456 107.767 120.867 108.183 120.104C108.669 119.272 108.911 118.267 108.911 117.088C108.911 115.493 108.357 114.211 107.247 113.24C106.207 112.2 104.439 111.68 101.943 111.68H93.3112V122.496Z" fill="black"/>
<path d="M357.292 72.8V0H379.756V53.664H410.956V72.8H357.292Z" fill="black"/>
<path d="M264.972 72.8V0H284.316L310.836 43.16L295.132 43.056L321.964 0H340.684V72.8H319.052V55.432C319.052 49.192 319.191 43.576 319.468 38.584C319.815 33.592 320.37 28.6347 321.132 23.712L323.628 30.264L306.052 57.512H299.188L281.924 30.264L284.524 23.712C285.287 28.3573 285.807 33.1413 286.084 38.064C286.431 42.9173 286.604 48.7067 286.604 55.432V72.8H264.972Z" fill="black"/>
<path d="M207.994 72.8V19.136H185.53V0H253.546V19.136H230.458V72.8H207.994Z" fill="black"/>
<path d="M151.629 72.8V0H174.093V72.8H151.629ZM108.261 72.8V0H130.725V72.8H108.261ZM116.685 46.28L116.789 26.728H164.317V46.28H116.685Z" fill="black"/>
</svg>
