<svg width="1166" height="240" viewBox="0 0 1166 240" fill="none" xmlns="http://www.w3.org/2000/svg">
<rect x="930" y="4.00049" width="232" height="232" rx="60" fill="white" stroke="#3174B9" stroke-width="8"/>
<path fill-rule="evenodd" clip-rule="evenodd" d="M1028.56 125.831C1028.56 125.831 1023.55 128.749 1032.14 129.735C1042.54 130.924 1047.86 130.753 1059.33 128.584C1059.33 128.584 1062.35 130.474 1066.56 132.109C1040.85 143.127 1008.37 131.472 1028.56 125.831ZM1025.42 111.453C1025.42 111.453 1019.79 115.618 1028.39 116.507C1039.51 117.655 1048.28 117.749 1063.48 114.825C1063.48 114.825 1065.58 116.955 1068.88 118.118C1037.8 127.21 1003.18 118.834 1025.42 111.453Z" fill="#3174B9"/>
<path fill-rule="evenodd" clip-rule="evenodd" d="M1051.9 87.0602C1058.24 94.3563 1050.24 100.918 1050.24 100.918C1050.24 100.918 1066.33 92.6154 1058.94 82.2143C1052.04 72.5192 1046.75 67.7027 1075.39 51.0928C1075.39 51.0928 1030.43 62.3175 1051.9 87.0602Z" fill="#CA3132"/>
<path fill-rule="evenodd" clip-rule="evenodd" d="M1085.91 136.466C1085.91 136.466 1089.62 139.528 1081.82 141.895C1066.98 146.389 1020.05 147.744 1007.02 142.074C1002.34 140.034 1011.12 137.207 1013.89 136.61C1016.77 135.987 1018.41 136.1 1018.41 136.1C1013.2 132.431 984.731 143.307 1003.95 146.427C1056.37 154.926 1099.5 142.601 1085.91 136.466ZM1030.98 96.5549C1030.98 96.5549 1007.11 102.226 1022.52 104.287C1029.04 105.157 1042.01 104.957 1054.1 103.943C1063.98 103.113 1073.89 101.34 1073.89 101.34C1073.89 101.34 1070.41 102.833 1067.89 104.553C1043.65 110.929 996.827 107.959 1010.31 101.441C1021.71 95.9274 1030.98 96.5549 1030.98 96.5549ZM1073.8 120.487C1098.44 107.686 1087.04 95.3816 1079.09 97.0397C1077.14 97.4461 1076.27 97.7969 1076.27 97.7969C1076.27 97.7969 1077 96.6617 1078.38 96.1736C1094.11 90.6446 1106.21 112.485 1073.3 121.134C1073.3 121.134 1073.68 120.792 1073.8 120.487Z" fill="#3174B9"/>
<path fill-rule="evenodd" clip-rule="evenodd" d="M1058.94 24.2656C1058.94 24.2656 1072.58 37.9177 1046 58.9039C1024.67 75.7448 1041.14 85.344 1045.99 96.316C1033.54 85.0869 1024.41 75.2001 1030.54 66.0007C1039.53 52.4968 1064.45 45.9481 1058.94 24.2656Z" fill="#CA3132"/>
<path fill-rule="evenodd" clip-rule="evenodd" d="M1033.4 155.186C1057.05 156.698 1093.37 154.346 1094.23 143.154C1094.23 143.154 1092.58 147.396 1074.68 150.762C1054.5 154.562 1029.6 154.119 1014.83 151.682C1014.83 151.682 1017.86 154.186 1033.4 155.186Z" fill="#3174B9"/>
<path fill-rule="evenodd" clip-rule="evenodd" d="M1093.14 175.255H1092.42V174.852H1094.36V175.255H1093.64V177.269H1093.14V175.255ZM1097.01 175.356H1097L1096.29 177.267H1095.96L1095.25 175.356H1095.24V177.267H1094.76V174.851H1095.46L1096.12 176.56L1096.78 174.851H1097.47V177.267H1097.01L1097.01 175.356ZM1029.52 197.943C1027.29 199.876 1024.94 200.963 1022.82 200.963C1019.8 200.963 1018.17 199.151 1018.17 196.252C1018.17 193.114 1019.92 190.817 1026.93 190.817H1029.52L1029.52 197.943ZM1035.68 204.887V183.39C1035.68 177.896 1032.55 174.27 1024.99 174.27C1020.59 174.27 1016.72 175.359 1013.58 176.746L1014.49 180.553C1016.96 179.645 1020.16 178.803 1023.3 178.803C1027.65 178.803 1029.52 180.553 1029.52 184.178V186.896H1027.35C1016.78 186.896 1012.01 190.997 1012.01 197.162C1012.01 202.474 1015.15 205.494 1021.07 205.494C1024.87 205.494 1027.71 203.924 1030.37 201.627L1030.85 204.887H1035.68ZM1056.22 204.887H1048.55L1039.31 174.817H1046.01L1051.75 193.296L1053.02 198.848C1055.92 190.817 1057.97 182.665 1059 174.817H1065.52C1063.77 184.718 1060.63 195.589 1056.22 204.887ZM1085.68 197.943C1083.44 199.876 1081.08 200.963 1078.97 200.963C1075.96 200.963 1074.32 199.151 1074.32 196.252C1074.32 193.114 1076.08 190.817 1083.08 190.817H1085.68V197.943ZM1091.84 204.887V183.39C1091.84 177.896 1088.69 174.27 1081.15 174.27C1076.74 174.27 1072.87 175.359 1069.73 176.746L1070.64 180.553C1073.11 179.645 1076.32 178.803 1079.46 178.803C1083.8 178.803 1085.68 180.553 1085.68 184.178V186.896H1083.5C1072.93 186.896 1068.17 190.997 1068.17 197.162C1068.17 202.474 1071.3 205.494 1077.22 205.494C1081.03 205.494 1083.86 203.924 1086.52 201.627L1087.01 204.887H1091.84ZM1005.26 209.997C1003.51 212.561 1000.67 214.59 997.567 215.735L994.527 212.155C996.89 210.943 998.915 208.985 999.857 207.163C1000.67 205.54 1001.01 203.453 1001.01 198.456V164.122H1007.55V197.982C1007.55 204.665 1007.02 207.366 1005.26 209.997Z" fill="#CA3132"/>
<path d="M800.345 149.899L806 155L811.655 149.899C818.22 143.948 823.647 138.815 827.938 134.499C832.228 130.183 835.64 126.308 838.175 122.875C840.71 119.441 842.481 116.286 843.489 113.409C844.496 110.531 845 107.589 845 104.58C845 98.4332 842.952 93.2997 838.857 89.1798C834.762 85.0599 829.66 83 823.55 83C820.17 83 816.952 83.7193 813.897 85.158C810.842 86.5967 808.21 88.624 806 91.2398C803.79 88.624 801.158 86.5967 798.103 85.158C795.048 83.7193 791.83 83 788.45 83C782.34 83 777.237 85.0599 773.142 89.1798C769.047 93.2997 767 98.4332 767 104.58C767 107.589 767.504 110.531 768.511 113.409C769.519 116.286 771.29 119.441 773.825 122.875C776.36 126.308 779.773 130.183 784.062 134.499C788.352 138.815 793.78 143.948 800.345 149.899Z" fill="#D71104"/>
<rect x="450" y="4" width="232" height="232" rx="60" fill="white" stroke="#3174B9" stroke-width="8"/>
<mask id="mask0_228_850" style="mask-type:alpha" maskUnits="userSpaceOnUse" x="496" y="29" width="141" height="120">
<rect x="496.122" y="29.4795" width="140.701" height="119.152" fill="#D9D9D9"/>
</mask>
<g mask="url(#mask0_228_850)">
<path d="M535.242 158.278C534.473 158.168 533.978 157.399 533.759 155.971C533.539 154.543 533.429 153.609 533.429 153.17C533.429 152.95 533.484 152.456 533.594 151.687C533.813 150.918 534.198 150.533 534.747 150.533C538.263 150.643 541.778 150.753 545.293 150.863C548.809 150.863 552.324 150.863 555.84 150.863C556.059 150.204 556.499 148.83 557.158 146.743C557.817 144.656 558.586 142.294 559.465 139.657C560.344 137.021 561.113 134.604 561.772 132.407C562.541 130.21 563.09 128.672 563.42 127.793C556.719 126.365 550.072 124.827 543.481 123.179C536.889 121.421 530.353 119.664 523.871 117.906C521.235 118.675 518.598 119.389 515.962 120.048C513.435 120.597 510.744 120.872 507.887 120.872C502.614 120.872 499.978 119.334 499.978 116.258C499.978 115.05 500.856 113.951 502.614 112.962C504.482 111.864 507.008 111.314 510.194 111.314C513.051 111.314 515.852 111.534 518.598 111.974C521.455 112.413 524.256 112.907 527.002 113.457C535.132 110.71 542.822 106.7 550.072 101.427C557.323 96.0444 564.189 90.1671 570.67 83.7954C577.262 77.4237 583.359 71.2717 588.961 65.3395C590.829 63.1423 592.752 61.11 594.729 59.2424C596.816 57.265 598.739 55.2327 600.496 53.1454C602.694 50.9482 605.33 49.8497 608.406 49.8497C608.955 49.8497 609.669 49.9595 610.548 50.1793C611.427 50.2891 611.867 50.7835 611.867 51.6623C611.867 51.7722 611.152 53.1454 609.724 55.7819C608.406 58.3086 606.648 61.6593 604.451 65.8338C602.254 69.8985 599.782 74.4026 597.036 79.3462C594.399 84.1799 591.708 89.0685 588.961 94.012C586.325 98.9556 583.853 103.515 581.546 107.689C579.349 111.754 577.536 115.05 576.108 117.576C574.79 120.103 574.076 121.421 573.966 121.531C577.811 121.971 581.766 122.355 585.831 122.685C589.895 123.014 593.96 123.179 598.025 123.179C602.199 123.179 606.154 122.74 609.889 121.861C613.624 120.982 616.645 119.718 618.952 118.071C621.369 116.423 622.578 114.445 622.578 112.138C622.578 110.82 621.809 109.282 620.271 107.524C618.842 105.767 617.03 104.064 614.833 102.416C612.636 100.768 610.384 99.4499 608.077 98.4612C605.77 97.3627 603.792 96.8134 602.144 96.8134C601.265 96.8134 600.716 96.7585 600.496 96.6486C600.277 96.4289 600.167 96.2641 600.167 96.1542C600.167 95.605 600.551 95.3303 601.32 95.3303C605.275 95.3303 609.12 95.8247 612.855 96.8134C616.59 97.6922 619.611 99.395 621.918 101.922C624.335 104.339 625.544 107.909 625.544 112.633C625.544 119.444 622.358 124.278 615.986 127.134C609.615 129.99 601.21 131.418 590.774 131.418C587.478 131.418 584.073 131.198 580.557 130.759C577.042 130.32 573.527 129.825 570.011 129.276C569.572 130.045 568.693 131.858 567.375 134.714C566.166 137.46 564.958 140.372 563.749 143.448C562.541 146.523 561.662 148.995 561.113 150.863C562.98 150.863 564.848 150.863 566.715 150.863C568.693 150.863 570.615 150.918 572.483 151.028C575.339 151.137 578.36 151.247 581.546 151.357C584.842 151.467 587.808 151.797 590.445 152.346C591.214 152.566 591.598 153.005 591.598 153.664C591.598 154.543 591.214 154.982 590.445 154.982C589.346 154.982 588.302 154.873 587.314 154.653C586.435 154.543 585.556 154.488 584.677 154.488C579.184 154.268 573.691 154.488 568.199 155.147C562.706 155.916 557.213 156.63 551.72 157.289C546.337 158.058 540.844 158.388 535.242 158.278ZM566.386 120.542C569.352 113.402 572.538 106.426 575.943 99.6147C579.349 92.6938 582.864 85.8277 586.49 79.0166C581.326 83.5207 575.724 88.0798 569.682 92.6938C563.749 97.1979 557.542 101.372 551.061 105.217C544.689 109.062 538.208 112.248 531.616 114.775C537.329 115.983 543.096 117.082 548.919 118.071C554.851 118.949 560.673 119.773 566.386 120.542ZM509.7 117.741C511.238 117.741 512.886 117.576 514.643 117.247C516.511 116.807 518.159 116.423 519.587 116.093C518.488 115.544 517.06 115.105 515.303 114.775C513.545 114.336 511.787 114.116 510.029 114.116C506.844 114.116 505.251 114.775 505.251 116.093C505.251 116.642 505.69 117.082 506.569 117.411C507.448 117.631 508.491 117.741 509.7 117.741Z" fill="#CA3132"/>
</g>
<path d="M520.766 160.657C521.077 162.679 521.777 163.768 522.866 163.923C530.799 164.079 538.575 163.612 546.197 162.523C553.973 161.59 561.75 160.579 569.527 159.491C577.304 158.557 585.081 158.246 592.857 158.557C594.102 158.557 595.346 158.635 596.59 158.791C597.99 159.102 599.468 159.257 601.023 159.257C602.112 159.257 602.656 158.635 602.656 157.391C602.656 156.458 602.112 155.835 601.023 155.524C597.29 154.747 593.091 154.28 588.425 154.125C583.914 153.969 579.637 153.813 575.593 153.658C572.949 153.502 570.227 153.425 567.427 153.425C564.783 153.425 562.139 153.424 559.495 153.424L552.029 153.425H537.098L522.166 152.958C521.389 152.958 520.844 153.502 520.533 154.591C520.378 155.68 520.3 156.38 520.3 156.691C520.3 157.313 520.455 158.635 520.766 160.657Z" fill="#3174B9"/>
<path d="M528.54 179.953C528.794 181.751 529.366 182.72 530.254 182.858C536.731 182.997 543.08 182.582 549.303 181.613C555.652 180.783 562.001 179.884 568.351 178.915C574.7 178.085 581.049 177.808 587.399 178.085C588.414 178.085 589.43 178.154 590.446 178.292C591.589 178.569 592.796 178.708 594.065 178.708C594.954 178.708 595.399 178.154 595.399 177.047C595.399 176.217 594.954 175.664 594.065 175.387C591.018 174.695 587.589 174.28 583.779 174.142C580.097 174.003 576.605 173.865 573.303 173.727C571.144 173.588 568.922 173.519 566.636 173.519C564.477 173.519 562.319 173.519 560.16 173.519L554.065 173.519H541.874L529.683 173.104C529.048 173.104 528.604 173.588 528.35 174.557C528.223 175.525 528.159 176.148 528.159 176.425C528.159 176.978 528.286 178.154 528.54 179.953Z" fill="#3174B9"/>
<path d="M535.792 197.802C535.991 199.151 536.438 199.877 537.133 199.981C542.196 200.085 547.16 199.773 552.025 199.047C556.989 198.424 561.953 197.75 566.917 197.023C571.881 196.401 576.845 196.193 581.809 196.401C582.603 196.401 583.398 196.453 584.192 196.556C585.085 196.764 586.029 196.868 587.021 196.868C587.716 196.868 588.064 196.453 588.064 195.622C588.064 195 587.716 194.585 587.021 194.377C584.639 193.858 581.958 193.547 578.98 193.443C576.1 193.34 573.37 193.236 570.789 193.132C569.101 193.028 567.364 192.976 565.577 192.976L560.513 192.976L555.748 192.976H546.217L536.686 192.665C536.19 192.665 535.842 193.028 535.644 193.755C535.544 194.481 535.495 194.948 535.495 195.156C535.495 195.571 535.594 196.453 535.792 197.802Z" fill="#3174B9"/>
<path d="M69 145L84 90H114L129 145L144 90H174L144 200H114L99 145L84 200H54L24 90H54L69 145ZM234 90C264.376 90 289 114.624 289 145C289 150.2 288.277 155.232 286.929 160H213.999C218.56 166.072 225.821 170 234 170C240.904 170 247.153 167.201 251.677 162.677L272.891 183.891C262.938 193.844 249.188 200 234 200C203.624 200 179 175.376 179 145C179 114.624 203.624 90 234 90ZM334 98.8955C342.628 93.2699 352.932 90 364 90C394.376 90 419 114.624 419 145C419 175.376 394.376 200 364 200C352.932 200 342.628 196.729 334 191.104V200H304V40H334V98.8955ZM364 120C350.193 120 339 131.193 339 145C339 158.807 350.193 170 364 170C377.807 170 389 158.807 389 145C389 131.193 377.807 120 364 120ZM234 120C225.821 120 218.56 123.928 213.999 130H254.001C249.44 123.928 242.179 120 234 120Z" fill="black"/>
</svg>
