<svg width="512" height="512" viewBox="0 0 512 512" fill="none" xmlns="http://www.w3.org/2000/svg">
<path d="M75 101H437L407 472L256 512L105 472L75 101Z" fill="#D71104"/>
<path d="M256 131H404L377 447L256 480V131Z" fill="#F83326"/>
<path d="M210.126 428.38C193.386 428.38 180.696 424.15 172.056 415.69C163.416 407.41 159.096 395.53 159.096 380.05V331.18C159.096 326.86 158.016 323.71 155.856 321.73C153.696 319.57 150.816 318.49 147.216 318.49H138.306V285.55H147.216C150.816 285.55 153.696 284.47 155.856 282.31C158.016 280.15 159.096 277 159.096 272.86V223.99C159.096 208.33 163.416 196.36 172.056 188.08C180.696 179.8 193.386 175.66 210.126 175.66H225.786V208.6H220.926C214.446 208.6 209.496 210.31 206.076 213.73C202.836 217.15 201.216 222.1 201.216 228.58V271.78C201.216 279.7 200.136 285.91 197.976 290.41C195.816 294.91 192.396 298.15 187.716 300.13C183.216 302.11 177.366 303.55 170.166 304.45V299.59C177.366 300.31 183.216 301.75 187.716 303.91C192.396 305.89 195.816 309.13 197.976 313.63C200.136 318.13 201.216 324.34 201.216 332.26V375.46C201.216 381.94 202.836 386.89 206.076 390.31C209.496 393.73 214.446 395.44 220.926 395.44H225.786V428.38H210.126Z" fill="#EBEBEB"/>
<path d="M301.976 428.38H286.316V395.44H291.176C297.656 395.44 302.516 393.73 305.756 390.31C309.176 386.89 310.886 381.94 310.886 375.46V332.26C310.886 324.34 311.966 318.13 314.126 313.63C316.466 309.13 319.886 305.89 324.386 303.91C328.886 301.75 334.736 300.31 341.936 299.59V304.45C334.736 303.55 328.886 302.11 324.386 300.13C319.886 298.15 316.466 294.91 314.126 290.41C311.966 285.91 310.886 279.7 310.886 271.78V228.58C310.886 222.1 309.176 217.15 305.756 213.73C302.516 210.31 297.656 208.6 291.176 208.6H286.316V175.66H301.976C318.896 175.66 331.586 179.8 340.046 188.08C348.686 196.36 353.006 208.33 353.006 223.99V272.86C353.006 277 354.086 280.15 356.246 282.31C358.406 284.47 361.286 285.55 364.886 285.55H373.796V318.49H364.886C361.286 318.49 358.406 319.57 356.246 321.73C354.086 323.71 353.006 326.86 353.006 331.18V380.05C353.006 395.53 348.686 407.41 340.046 415.69C331.586 424.15 318.896 428.38 301.976 428.38Z" fill="white"/>
<path d="M287.688 22.9199C291.23 22.92 294.451 23.4955 297.353 24.6475C300.296 25.7995 302.856 27.4211 305.032 29.5117C307.208 31.6023 308.872 34.077 310.024 36.9355C311.219 39.7515 311.816 42.8452 311.816 46.2158C311.816 49.6291 311.219 52.7654 310.024 55.624C308.872 58.4826 307.208 60.9572 305.032 63.0479C302.856 65.1384 300.296 66.7601 297.353 67.9121C294.451 69.0641 291.251 69.6396 287.752 69.6396C284.211 69.6396 280.968 69.064 278.024 67.9121C275.08 66.7601 272.52 65.1385 270.344 63.0479C268.168 60.9572 266.483 58.4826 265.288 55.624C264.136 52.7655 263.561 49.6508 263.561 46.2803C263.561 42.8669 264.136 39.7515 265.288 36.9355C266.483 34.077 268.168 31.6023 270.344 29.5117C272.52 27.4211 275.08 25.7995 278.024 24.6475C280.968 23.4956 284.19 22.9199 287.688 22.9199ZM416.786 22.9199C420.157 22.9199 422.973 23.2399 425.234 23.8799C427.496 24.4772 429.395 25.3519 430.931 26.5039C432.467 27.6559 433.789 29.0001 434.898 30.5361L426.835 38.2803C425.896 37.3843 424.915 36.6582 423.891 36.1035C422.867 35.5062 421.8 35.0802 420.69 34.8242C419.624 34.5256 418.557 34.376 417.49 34.376C416.509 34.376 415.677 34.4612 414.994 34.6318C414.312 34.7599 413.778 34.9947 413.395 35.3359C413.011 35.6346 412.818 36.0616 412.818 36.6162C412.818 37.1706 413.053 37.6395 413.522 38.0234C414.034 38.3648 414.654 38.6639 415.379 38.9199C416.147 39.1758 416.893 39.3889 417.618 39.5596C418.386 39.6876 419.027 39.7945 419.539 39.8799C421.886 40.3065 424.04 40.9039 426.003 41.6719C427.965 42.3972 429.672 43.3363 431.123 44.4883C432.616 45.5976 433.747 47.0054 434.515 48.7119C435.325 50.3759 435.73 52.3601 435.73 54.6641C435.73 57.9493 434.898 60.7013 433.234 62.9199C431.613 65.1385 429.416 66.8236 426.643 67.9756C423.869 69.0849 420.776 69.6396 417.362 69.6396C413.992 69.6396 411.005 69.2771 408.402 68.5518C405.842 67.7838 403.581 66.7169 401.618 65.3516C399.698 63.9863 397.97 62.3863 396.435 60.5518L404.435 51.5918C406.568 54.3225 408.787 56.1362 411.091 57.0322C413.437 57.8855 415.635 58.3115 417.683 58.3115C418.493 58.3115 419.218 58.2481 419.858 58.1201C420.498 57.9495 420.99 57.6929 421.331 57.3516C421.672 57.0103 421.843 56.5412 421.843 55.9443C421.843 55.3897 421.651 54.9201 421.267 54.5361C420.925 54.1521 420.456 53.8322 419.858 53.5762C419.261 53.2776 418.6 53.0427 417.875 52.8721C417.192 52.6587 416.509 52.4884 415.826 52.3604C415.186 52.2324 414.611 52.1036 414.099 51.9756C411.539 51.3783 409.299 50.6531 407.379 49.7998C405.459 48.9465 403.858 47.9222 402.578 46.7275C401.298 45.533 400.338 44.1677 399.698 42.6318C399.101 41.096 398.803 39.368 398.803 37.4482C398.803 35.2723 399.293 33.288 400.274 31.4961C401.298 29.7041 402.643 28.1677 404.307 26.8877C406.013 25.6078 407.933 24.627 410.066 23.9443C412.242 23.2617 414.482 22.92 416.786 22.9199ZM93.3818 36.9141L105.798 24.2002H121.478L102.613 42.9131L123.334 69H107.653L94.1094 51.3506L93.3818 52.0723V69H79.5576V24.2002H93.3818V36.9141ZM160.654 35.4004H140.431V41.0957H158.286V51.5918H140.431V57.7998H161.807V69H127.183V24.2002H160.654V35.4004ZM188.133 37.4609L196.557 24.2002H211.532L195.148 49.0479V69H181.196V49.166L163.532 24.2002H178.893L188.133 37.4609ZM229.194 40.6484H242.059V24.2002H255.882V69H242.059V52.6797H229.194V69H215.37V24.2002H229.194V40.6484ZM333.319 57.2236H352.52V69H319.495V24.2002H333.319V57.2236ZM392.404 35.4004H372.181V41.0957H390.037V51.5918H372.181V57.7998H393.557V69H358.933V24.2002H392.404V35.4004ZM287.688 35.7197C286.238 35.7197 284.894 35.9763 283.656 36.4883C282.462 37.0002 281.395 37.7463 280.456 38.7275C279.56 39.6662 278.856 40.7757 278.344 42.0557C277.874 43.3357 277.64 44.7443 277.64 46.2803C277.64 47.8161 277.874 49.224 278.344 50.5039C278.856 51.7838 279.56 52.9142 280.456 53.8955C281.395 54.8342 282.462 55.5603 283.656 56.0723C284.894 56.5842 286.238 56.8398 287.688 56.8398C289.139 56.8398 290.462 56.5842 291.656 56.0723C292.894 55.5603 293.96 54.8342 294.856 53.8955C295.795 52.9143 296.499 51.7837 296.968 50.5039C297.48 49.224 297.736 47.8161 297.736 46.2803C297.736 44.7443 297.48 43.3357 296.968 42.0557C296.498 40.7758 295.795 39.6661 294.856 38.7275C293.961 37.7463 292.893 37.0003 291.656 36.4883C290.462 35.9763 289.139 35.7198 287.688 35.7197Z" fill="white"/>
</svg>
