<svg width="214" height="214" viewBox="0 0 214 214" fill="none" xmlns="http://www.w3.org/2000/svg">
<g clip-path="url(#clip0_244_739)">
<path d="M214 0H0V214H214V0Z" fill="#512BD4"/>
<path d="M38.1417 136.722C36.6286 136.722 35.3425 136.218 34.2833 135.209C33.2241 134.175 32.6945 132.947 32.6945 131.525C32.6945 130.077 33.2241 128.836 34.2833 127.801C35.3425 126.767 36.6286 126.25 38.1417 126.25C39.6801 126.25 40.9789 126.767 42.0381 127.801C43.1225 128.836 43.6647 130.077 43.6647 131.525C43.6647 132.947 43.1225 134.175 42.0381 135.209C40.9789 136.218 39.6801 136.722 38.1417 136.722Z" fill="white"/>
<path d="M98.631 135.869H88.7955L62.8832 94.9888C62.2276 93.9544 61.685 92.8812 61.2566 91.7694H61.0294C61.2312 92.9591 61.3321 95.5059 61.3321 99.41V135.869H52.6313V80.25H63.1098L88.1525 120.161C89.2117 121.816 89.8927 122.953 90.1954 123.574H90.3465C90.0945 122.1 89.9682 119.605 89.9682 116.088V80.25H98.631V135.869Z" fill="white"/>
<path d="M141 135.869H110.548V80.25H139.79V88.0849H119.552V103.832H138.201V111.628H119.552V128.073H141V135.869Z" fill="white"/>
<path d="M184.278 88.0849H168.692V135.869H159.689V88.0849H144.142V80.25H184.278V88.0849Z" fill="white"/>
</g>
<defs>
<clipPath id="clip0_244_739">
<rect width="214" height="214" fill="white"/>
</clipPath>
</defs>
</svg>
