<svg width="1040" height="214" viewBox="0 0 1040 214" fill="none" xmlns="http://www.w3.org/2000/svg">
<g clip-path="url(#clip0_244_738)">
<path d="M1039.68 0H825.683V214H1039.68V0Z" fill="#512BD4"/>
<path d="M863.825 136.722C862.312 136.722 861.026 136.218 859.967 135.209C858.907 134.175 858.378 132.947 858.378 131.525C858.378 130.077 858.907 128.836 859.967 127.801C861.026 126.767 862.312 126.25 863.825 126.25C865.363 126.25 866.662 126.767 867.721 127.801C868.806 128.836 869.348 130.077 869.348 131.525C869.348 132.947 868.806 134.175 867.721 135.209C866.662 136.218 865.363 136.722 863.825 136.722Z" fill="white"/>
<path d="M924.314 135.869H914.479L888.567 94.9888C887.911 93.9544 887.368 92.8812 886.94 91.7694H886.713C886.915 92.9591 887.015 95.5059 887.015 99.41V135.869H878.315V80.25H888.793L913.836 120.161C914.895 121.816 915.576 122.953 915.879 123.574H916.03C915.778 122.1 915.652 119.605 915.652 116.088V80.25H924.314V135.869Z" fill="white"/>
<path d="M966.684 135.869H936.232V80.25H965.473V88.0849H945.235V103.832H963.885V111.628H945.235V128.073H966.684V135.869Z" fill="white"/>
<path d="M1009.96 88.0849H994.376V135.869H985.372V88.0849H969.825V80.25H1009.96V88.0849Z" fill="white"/>
</g>
<path d="M713.641 133.66L718.683 138.208L723.726 133.66C729.579 128.354 734.419 123.776 738.244 119.928C742.07 116.079 745.112 112.625 747.373 109.563C749.633 106.502 751.212 103.688 752.111 101.123C753.009 98.5571 753.458 95.9331 753.458 93.2508C753.458 87.7696 751.633 83.1922 747.981 79.5187C744.33 75.8451 739.78 74.0083 734.332 74.0083C731.318 74.0083 728.449 74.6497 725.725 75.9326C723.001 77.2154 720.654 79.023 718.683 81.3554C716.713 79.023 714.365 77.2154 711.641 75.9326C708.917 74.6497 706.048 74.0083 703.035 74.0083C697.586 74.0083 693.037 75.8451 689.385 79.5187C685.734 83.1922 683.908 87.7696 683.908 93.2508C683.908 95.9331 684.358 98.5571 685.256 101.123C686.154 103.688 687.734 106.502 689.994 109.563C692.254 112.625 695.297 116.079 699.122 119.928C702.948 123.776 707.787 128.354 713.641 133.66Z" fill="#D71104"/>
<path d="M611.683 0H397.683V214H611.683V0Z" fill="#512BD4"/>
<path d="M511.531 121.013V83.8838H511.317L486.065 121.013H511.531ZM520.091 121.013H530.363V129.038H520.091V146.8H511.531V129.038H478.254V120.264L512.815 70.9368H520.091V121.013Z" fill="white"/>
<path d="M297.817 88.1841C305.51 83.1676 314.698 80.2495 324.567 80.2495C351.652 80.2497 373.609 102.207 373.609 129.292C373.609 156.376 351.652 178.333 324.567 178.333C314.697 178.333 305.51 175.415 297.817 170.398V178.333H271.067V35.6665H297.817V88.1841ZM61.525 129.291L74.9 80.2495H101.65L115.025 129.291L128.4 80.2495H155.15L128.4 178.333H101.65L88.275 129.291L74.9 178.333H48.15L21.4 80.2495H48.15L61.525 129.291ZM208.65 80.2495C235.735 80.2497 257.691 102.207 257.691 129.292C257.691 133.928 257.047 138.415 255.844 142.667H190.816C194.883 148.08 201.357 151.582 208.65 151.583C214.806 151.582 220.377 149.086 224.411 145.052L243.327 163.968C234.452 172.843 222.192 178.332 208.65 178.333C181.565 178.332 159.608 156.376 159.608 129.292C159.608 102.207 181.565 80.2497 208.65 80.2495ZM324.567 107C312.256 107 302.275 116.98 302.275 129.292C302.275 141.603 312.256 151.583 324.567 151.583C336.878 151.583 346.859 141.603 346.859 129.292C346.859 116.98 336.878 107 324.567 107ZM208.65 107C201.357 107 194.882 110.502 190.815 115.917H226.484C222.417 110.502 215.943 107 208.65 107Z" fill="black"/>
<defs>
<clipPath id="clip0_244_738">
<rect width="214" height="214" fill="white" transform="translate(825.683)"/>
</clipPath>
</defs>
</svg>
