<svg width="612" height="214" viewBox="0 0 612 214" fill="none" xmlns="http://www.w3.org/2000/svg">
<path d="M611.683 0H397.683V214H611.683V0Z" fill="#512BD4"/>
<path d="M511.531 121.013V83.8838H511.317L486.065 121.013H511.531ZM520.091 121.013H530.363V129.038H520.091V146.8H511.531V129.038H478.254V120.264L512.815 70.9368H520.091V121.013Z" fill="white"/>
<path d="M297.817 88.1841C305.51 83.1676 314.698 80.2495 324.567 80.2495C351.652 80.2497 373.609 102.207 373.609 129.292C373.609 156.376 351.652 178.333 324.567 178.333C314.697 178.333 305.51 175.415 297.817 170.398V178.333H271.067V35.6665H297.817V88.1841ZM61.525 129.291L74.9 80.2495H101.65L115.025 129.291L128.4 80.2495H155.15L128.4 178.333H101.65L88.275 129.291L74.9 178.333H48.15L21.4 80.2495H48.15L61.525 129.291ZM208.65 80.2495C235.735 80.2497 257.691 102.207 257.691 129.292C257.691 133.928 257.047 138.415 255.844 142.667H190.816C194.883 148.08 201.357 151.582 208.65 151.583C214.806 151.582 220.377 149.086 224.411 145.052L243.327 163.968C234.452 172.843 222.192 178.332 208.65 178.333C181.565 178.332 159.608 156.376 159.608 129.292C159.608 102.207 181.565 80.2497 208.65 80.2495ZM324.567 107C312.256 107 302.275 116.98 302.275 129.292C302.275 141.603 312.256 151.583 324.567 151.583C336.878 151.583 346.859 141.603 346.859 129.292C346.859 116.98 336.878 107 324.567 107ZM208.65 107C201.357 107 194.882 110.502 190.815 115.917H226.484C222.417 110.502 215.943 107 208.65 107Z" fill="black"/>
</svg>
