<svg width="686" height="240" viewBox="0 0 686 240" fill="none" xmlns="http://www.w3.org/2000/svg">
<mask id="mask0_194_1749" style="mask-type:alpha" maskUnits="userSpaceOnUse" x="446" y="0" width="240" height="240">
<rect x="446" width="240" height="240" rx="64" fill="white"/>
</mask>
<g mask="url(#mask0_194_1749)">
<path d="M616 191.319C616 194.338 615.69 209 586.932 209C557.596 209 556.999 192.269 557 187.683V173.001H616V191.319ZM600.003 182.999C596.131 182.999 593.002 186.129 593.002 189.999C593.002 193.872 596.131 197 600.003 197C603.875 197 607.004 193.872 607.004 189.999C607.004 186.127 603.875 182.999 600.003 182.999ZM590 141C593.314 141 596 143.686 596 147V173H557V141H590ZM596 94H557V47.5C557 36.7306 565.731 28 576.5 28H596V94Z" fill="url(#paint0_linear_194_1749)"/>
<path d="M522.068 28C551.404 28.0001 552.001 44.7318 552 49.3184V99.499H611.953C623.515 99.4991 638.044 101.529 638.044 132.681C638.044 161.296 626.711 167.362 615.272 167.362H601.681V148.271C601.681 140.285 598.5 135.499 589.272 135.499H519.682C514.268 135.499 499.453 133.254 498.1 117H498V99H498.03C498.509 90.7437 504.879 84.0689 513 83.1172V64H493V45.6816C493 42.6628 493.31 28 522.068 28ZM508.997 40C505.125 40.0001 501.996 43.1277 501.996 47.001C501.996 50.8729 505.125 54.0018 508.997 54.002C512.869 54.002 515.998 50.8715 515.998 47.001C515.998 43.1276 512.869 40 508.997 40Z" fill="url(#paint1_linear_194_1749)"/>
</g>
<path d="M69 145L84 90H114L129 145L144 90H174L144 200H114L99 145L84 200H54L24 90H54L69 145ZM234 90C264.376 90 289 114.624 289 145C289 150.2 288.277 155.232 286.929 160H213.999C218.56 166.072 225.821 170 234 170C240.904 170 247.153 167.201 251.677 162.677L272.891 183.891C262.938 193.844 249.188 200 234 200C203.624 200 179 175.376 179 145C179 114.624 203.624 90 234 90ZM334 98.8955C342.628 93.2699 352.932 90 364 90C394.376 90 419 114.624 419 145C419 175.376 394.376 200 364 200C352.932 200 342.628 196.729 334 191.104V200H304V40H334V98.8955ZM364 120C350.193 120 339 131.193 339 145C339 158.807 350.193 170 364 170C377.807 170 389 158.807 389 145C389 131.193 377.807 120 364 120ZM234 120C225.821 120 218.56 123.928 213.999 130H254.001C249.44 123.928 242.179 120 234 120Z" fill="black"/>
<defs>
<linearGradient id="paint0_linear_194_1749" x1="596.722" y1="202" x2="527.856" y2="173.17" gradientUnits="userSpaceOnUse">
<stop stop-color="#FFE052"/>
<stop offset="1" stop-color="#FFC331"/>
</linearGradient>
<linearGradient id="paint1_linear_194_1749" x1="506.899" y1="53.4899" x2="592.076" y2="152.881" gradientUnits="userSpaceOnUse">
<stop stop-color="#387EB8"/>
<stop offset="1" stop-color="#366994"/>
</linearGradient>
</defs>
</svg>
