<svg width="1166" height="240" viewBox="0 0 1166 240" fill="none" xmlns="http://www.w3.org/2000/svg">
<path d="M949.399 225.473C967.1 240 993.4 240 1046 240C1098.6 240 1124.9 240 1142.6 225.473C1145.84 222.813 1148.81 219.842 1151.47 216.601C1166 198.9 1166 172.6 1166 120C1166 67.4003 1166 41.1004 1151.47 23.3988C1148.81 20.1582 1145.84 17.1868 1142.6 14.5273C1124.9 0 1098.6 0 1046 0C993.4 0 967.1 0 949.399 14.5273C946.158 17.1868 943.187 20.1582 940.527 23.3988C926 41.1004 926 67.4003 926 120C926 172.6 926 198.9 940.527 216.601C943.187 219.842 946.158 222.813 949.399 225.473Z" fill="url(#paint0_linear_228_892)"/>
<path d="M961.63 108.432C961.279 108.432 961.191 108.256 961.367 107.992L963.213 105.618C963.389 105.354 963.829 105.178 964.18 105.178H995.574C995.926 105.178 996.014 105.442 995.838 105.706L994.343 107.992C994.167 108.256 993.727 108.52 993.464 108.52L961.63 108.432Z" fill="white"/>
<path d="M948.352 116.522C948 116.522 947.912 116.346 948.088 116.082L949.935 113.708C950.11 113.444 950.55 113.268 950.902 113.268H991.001C991.353 113.268 991.529 113.532 991.441 113.796L990.737 115.906C990.65 116.258 990.298 116.434 989.946 116.434L948.352 116.522Z" fill="white"/>
<path d="M969.633 124.612C969.281 124.612 969.193 124.348 969.369 124.084L970.6 121.886C970.776 121.622 971.127 121.358 971.479 121.358H989.067C989.418 121.358 989.594 121.622 989.594 121.974L989.418 124.084C989.418 124.436 989.067 124.7 988.803 124.7L969.633 124.612Z" fill="white"/>
<path d="M1060.91 106.849C1055.37 108.256 1051.59 109.311 1046.14 110.718C1044.82 111.07 1044.73 111.158 1043.59 109.839C1042.27 108.344 1041.3 107.376 1039.45 106.497C1033.91 103.771 1028.55 104.562 1023.54 107.816C1017.56 111.685 1014.48 117.401 1014.57 124.524C1014.66 131.559 1019.49 137.363 1026.44 138.33C1032.42 139.122 1037.43 137.011 1041.39 132.526C1042.18 131.559 1042.88 130.504 1043.76 129.273C1040.6 129.273 1036.64 129.273 1026.79 129.273C1024.95 129.273 1024.51 128.13 1025.12 126.635C1026.26 123.909 1028.37 119.336 1029.61 117.049C1029.87 116.522 1030.49 115.642 1031.8 115.642C1036.29 115.642 1052.82 115.642 1063.81 115.642C1063.64 118.017 1063.64 120.391 1063.29 122.765C1062.32 129.097 1059.94 134.901 1056.07 140.001C1049.74 148.355 1041.48 153.543 1031.01 154.95C1022.39 156.094 1014.39 154.423 1007.36 149.147C1000.85 144.222 997.157 137.715 996.19 129.624C995.046 120.039 997.86 111.421 1003.66 103.859C1009.91 95.6807 1018.17 90.4924 1028.29 88.6457C1036.55 87.1508 1044.47 88.1181 1051.59 92.9547C1056.25 96.0325 1059.59 100.253 1061.79 105.354C1062.32 106.145 1061.97 106.585 1060.91 106.849Z" fill="white"/>
<path d="M1090.02 155.478C1082.02 155.302 1074.72 153.016 1068.56 147.74C1063.37 143.255 1060.12 137.539 1059.06 130.768C1057.48 120.831 1060.21 112.037 1066.19 104.211C1072.61 95.7688 1080.35 91.372 1090.81 89.5253C1099.78 87.9424 1108.22 88.8218 1115.87 94.0101C1122.82 98.7587 1127.13 105.178 1128.27 113.62C1129.77 125.492 1126.34 135.165 1118.16 143.431C1112.35 149.323 1105.23 153.016 1097.05 154.687C1094.68 155.126 1092.3 155.214 1090.02 155.478ZM1110.95 119.952C1110.86 118.808 1110.86 117.929 1110.68 117.05C1109.1 108.344 1101.1 103.419 1092.74 105.354C1084.57 107.201 1079.29 112.389 1077.36 120.655C1075.77 127.514 1079.11 134.461 1085.45 137.275C1090.28 139.386 1095.12 139.122 1099.78 136.748C1106.73 133.142 1110.51 127.514 1110.95 119.952Z" fill="white"/>
<path d="M800.345 149.899L806 155L811.655 149.899C818.22 143.948 823.647 138.815 827.938 134.499C832.228 130.183 835.64 126.308 838.175 122.875C840.71 119.441 842.481 116.286 843.489 113.409C844.496 110.531 845 107.589 845 104.58C845 98.4332 842.952 93.2997 838.857 89.1798C834.762 85.0599 829.66 83 823.55 83C820.17 83 816.952 83.7193 813.897 85.158C810.842 86.5967 808.21 88.624 806 91.2398C803.79 88.624 801.158 86.5967 798.103 85.158C795.048 83.7193 791.83 83 788.45 83C782.34 83 777.237 85.0599 773.142 89.1798C769.047 93.2997 767 98.4332 767 104.58C767 107.589 767.504 110.531 768.511 113.409C769.519 116.286 771.29 119.441 773.825 122.875C776.36 126.308 779.773 130.183 784.062 134.499C788.352 138.815 793.78 143.948 800.345 149.899Z" fill="#D71104"/>
<path d="M469.399 225.473C487.1 240 513.4 240 566 240C618.6 240 644.9 240 662.601 225.473C665.842 222.813 668.813 219.842 671.473 216.601C686 198.9 686 172.6 686 120C686 67.4003 686 41.1004 671.473 23.3988C668.813 20.1582 665.842 17.1868 662.601 14.5273C644.9 0 618.6 0 566 0C513.4 0 487.1 0 469.399 14.5273C466.158 17.1868 463.187 20.1582 460.527 23.3988C446 41.1004 446 67.4003 446 120C446 172.6 446 198.9 460.527 216.601C463.187 219.842 466.158 222.813 469.399 225.473Z" fill="url(#paint1_linear_228_892)"/>
<mask id="path-9-outside-1_228_892" maskUnits="userSpaceOnUse" x="532" y="73" width="78" height="93" fill="black">
<rect fill="white" x="532" y="73" width="78" height="93"/>
<path d="M534.855 147.659L537.241 133.128L583.222 75.7273H595.75L592.426 95.8409H584.969L555.991 132.19L555.906 132.872H607.639L605.21 147.659H534.855ZM574.188 163L577.511 143.185L578.918 136.835L589.017 75.7273H606.318L591.83 163H574.188Z"/>
</mask>
<path d="M534.855 147.659L537.241 133.128L583.222 75.7273H595.75L592.426 95.8409H584.969L555.991 132.19L555.906 132.872H607.639L605.21 147.659H534.855ZM574.188 163L577.511 143.185L578.918 136.835L589.017 75.7273H606.318L591.83 163H574.188Z" fill="white"/>
<path d="M534.855 147.659L532.865 147.332C532.77 147.916 532.935 148.513 533.318 148.964C533.701 149.415 534.263 149.675 534.855 149.675V147.659ZM537.241 133.128L535.668 131.867C535.451 132.138 535.308 132.459 535.252 132.801L537.241 133.128ZM583.222 75.7273V73.711C582.61 73.711 582.031 73.989 581.648 74.4667L583.222 75.7273ZM595.75 75.7273L597.739 76.056C597.836 75.4717 597.671 74.8745 597.288 74.4229C596.904 73.9713 596.342 73.711 595.75 73.711V75.7273ZM592.426 95.8409V97.8572C593.413 97.8572 594.255 97.1431 594.415 96.1696L592.426 95.8409ZM584.969 95.8409V93.8246C584.355 93.8246 583.775 94.1041 583.392 94.584L584.969 95.8409ZM555.991 132.19L554.415 130.933C554.184 131.224 554.037 131.572 553.991 131.94L555.991 132.19ZM555.906 132.872L553.906 132.622C553.834 133.196 554.012 133.773 554.395 134.207C554.777 134.64 555.328 134.888 555.906 134.888V132.872ZM607.639 132.872L609.629 133.199C609.725 132.615 609.559 132.018 609.176 131.567C608.793 131.116 608.231 130.856 607.639 130.856V132.872ZM605.21 147.659V149.675C606.198 149.675 607.04 148.96 607.2 147.986L605.21 147.659ZM574.188 163L572.199 162.666C572.101 163.251 572.265 163.85 572.648 164.302C573.031 164.755 573.594 165.016 574.188 165.016V163ZM577.511 143.185L575.543 142.749C575.535 142.783 575.529 142.817 575.523 142.851L577.511 143.185ZM578.918 136.835L580.886 137.271C580.894 137.236 580.901 137.2 580.907 137.164L578.918 136.835ZM589.017 75.7273V73.711C588.03 73.711 587.189 74.425 587.028 75.3985L589.017 75.7273ZM606.318 75.7273L608.307 76.0575C608.404 75.473 608.239 74.8755 607.856 74.4235C607.473 73.9716 606.911 73.711 606.318 73.711V75.7273ZM591.83 163V165.016C592.816 165.016 593.657 164.303 593.819 163.33L591.83 163ZM534.855 147.659L536.845 147.986L539.231 133.455L537.241 133.128L535.252 132.801L532.865 147.332L534.855 147.659ZM537.241 133.128L538.815 134.388L584.795 76.9878L583.222 75.7273L581.648 74.4667L535.668 131.867L537.241 133.128ZM583.222 75.7273V77.7436H595.75V75.7273V73.711H583.222V75.7273ZM595.75 75.7273L593.761 75.3985L590.437 95.5122L592.426 95.8409L594.415 96.1696L597.739 76.056L595.75 75.7273ZM592.426 95.8409V93.8246H584.969V95.8409V97.8572H592.426V95.8409ZM584.969 95.8409L583.392 94.584L554.415 130.933L555.991 132.19L557.568 133.447L586.545 97.0978L584.969 95.8409ZM555.991 132.19L553.991 131.94L553.906 132.622L555.906 132.872L557.907 133.122L557.992 132.44L555.991 132.19ZM555.906 132.872V134.888H607.639V132.872V130.856H555.906V132.872ZM607.639 132.872L605.65 132.545L603.221 147.332L605.21 147.659L607.2 147.986L609.629 133.199L607.639 132.872ZM605.21 147.659V145.643H534.855V147.659V149.675H605.21V147.659ZM574.188 163L576.176 163.334L579.5 143.518L577.511 143.185L575.523 142.851L572.199 162.666L574.188 163ZM577.511 143.185L579.48 143.621L580.886 137.271L578.918 136.835L576.949 136.399L575.543 142.749L577.511 143.185ZM578.918 136.835L580.907 137.164L591.006 76.056L589.017 75.7273L587.028 75.3985L576.928 136.506L578.918 136.835ZM589.017 75.7273V77.7436H606.318V75.7273V73.711H589.017V75.7273ZM606.318 75.7273L604.329 75.3971L589.84 162.67L591.83 163L593.819 163.33L608.307 76.0575L606.318 75.7273ZM591.83 163V160.984H574.188V163V165.016H591.83V163Z" fill="white" mask="url(#path-9-outside-1_228_892)"/>
<path fill-rule="evenodd" clip-rule="evenodd" d="M535.066 109.181C535.418 109.181 535.594 109.444 535.594 109.796L535.418 111.906C535.418 112.258 535.067 112.522 534.803 112.522L515.632 112.435C515.28 112.434 515.192 112.17 515.368 111.906L516.6 109.708C516.776 109.444 517.127 109.181 517.479 109.181H535.066ZM537.001 101.091C537.353 101.091 537.528 101.354 537.441 101.618L536.737 103.729C536.649 104.08 536.297 104.256 535.945 104.256L494.352 104.344C494 104.344 493.912 104.168 494.088 103.904L495.935 101.53C496.111 101.267 496.55 101.091 496.901 101.091H537.001ZM541.573 93C541.925 93 542.014 93.2645 541.838 93.5283L540.343 95.8145C540.167 96.0783 539.727 96.3418 539.463 96.3418L507.63 96.2539C507.278 96.2539 507.19 96.0782 507.366 95.8145L509.213 93.4395C509.389 93.176 509.828 93.0001 510.18 93H541.573Z" fill="white"/>
<path d="M69 145L84 90H114L129 145L144 90H174L144 200H114L99 145L84 200H54L24 90H54L69 145ZM234 90C264.376 90 289 114.624 289 145C289 150.2 288.277 155.232 286.929 160H213.999C218.56 166.072 225.821 170 234 170C240.904 170 247.153 167.201 251.677 162.677L272.891 183.891C262.938 193.844 249.188 200 234 200C203.624 200 179 175.376 179 145C179 114.624 203.624 90 234 90ZM334 98.8955C342.628 93.2699 352.932 90 364 90C394.376 90 419 114.624 419 145C419 175.376 394.376 200 364 200C352.932 200 342.628 196.729 334 191.104V200H304V40H334V98.8955ZM364 120C350.193 120 339 131.193 339 145C339 158.807 350.193 170 364 170C377.807 170 389 158.807 389 145C389 131.193 377.807 120 364 120ZM234 120C225.821 120 218.56 123.928 213.999 130H254.001C249.44 123.928 242.179 120 234 120Z" fill="white"/>
<defs>
<linearGradient id="paint0_linear_228_892" x1="1166" y1="0" x2="926" y2="240" gradientUnits="userSpaceOnUse">
<stop offset="0.00875159" stop-color="#17A99F"/>
<stop offset="1" stop-color="#1CABD7"/>
</linearGradient>
<linearGradient id="paint1_linear_228_892" x1="686" y1="0" x2="446" y2="240" gradientUnits="userSpaceOnUse">
<stop offset="0.00875159" stop-color="#17A99F"/>
<stop offset="1" stop-color="#1CABD7"/>
</linearGradient>
</defs>
</svg>
