<svg width="1166" height="240" viewBox="0 0 1166 240" fill="none" xmlns="http://www.w3.org/2000/svg">
<g clip-path="url(#clip0_228_1325)">
<path d="M1045.73 40C1007.95 40 1007.55 54.6633 1007.55 57.6815C1007.55 62.2604 1007.55 76 1007.55 76H1046.46V81.4996C1046.46 81.4996 1005.94 81.4996 992.092 81.4996C980.529 81.4996 966 88.5295 966 119.681C966 148.297 977.334 159.363 988.772 159.363C992.169 159.363 1002.36 159.363 1002.36 159.363C1002.36 159.363 1002.36 145.159 1002.36 140.272C1002.36 132.285 1006.32 117.5 1024.77 117.5C1047.91 117.5 1053.82 117.5 1063.36 117.5C1069.04 117.5 1085.04 115.033 1085.04 96.5455C1085.04 76.9789 1085.04 70.5236 1085.04 61.3178C1085.05 56.7316 1084.26 40 1045.73 40ZM1024.27 52.3185C1028.15 52.3185 1031.27 55.4458 1031.27 59.3193C1031.27 63.1898 1028.15 66.32 1024.27 66.32C1020.4 66.32 1017.27 63.1913 1017.27 59.3193C1017.27 55.4458 1020.4 52.3185 1024.27 52.3185Z" fill="url(#paint0_linear_228_1325)"/>
<path d="M1046.27 200C1084.03 200 1084.5 185.06 1084.5 182.318C1084.5 177.739 1084.5 164 1084.5 164H1045.54V158.5C1045.54 158.5 1086.32 158.5 1099.91 158.5C1111.56 158.5 1126 151.294 1126 120.318C1126 86.3953 1110.67 80.6367 1103.23 80.6367C1099.83 80.6367 1089.64 80.6367 1089.64 80.6367C1089.64 80.6367 1089.64 95.4964 1089.64 99.7276C1089.64 107.715 1085.81 122.5 1067.23 122.5C1044.09 122.5 1038.9 122.5 1028.64 122.5C1022.97 122.5 1006.95 125.258 1006.95 143.454C1006.95 164.509 1006.95 170.021 1006.95 178.682C1006.95 186.289 1011.6 200 1046.27 200ZM1067.73 187.681C1063.86 187.681 1060.73 184.552 1060.73 180.68C1060.73 176.808 1063.85 173.68 1067.73 173.68C1071.6 173.68 1074.73 176.808 1074.73 180.68C1074.73 184.552 1071.6 187.681 1067.73 187.681Z" fill="url(#paint1_linear_228_1325)"/>
</g>
<path d="M800.345 149.899L806 155L811.655 149.899C818.22 143.948 823.647 138.815 827.938 134.499C832.228 130.183 835.64 126.308 838.175 122.875C840.71 119.441 842.481 116.286 843.489 113.409C844.496 110.531 845 107.589 845 104.58C845 98.4332 842.952 93.2997 838.857 89.1798C834.762 85.0599 829.66 83 823.55 83C820.17 83 816.952 83.7193 813.897 85.158C810.842 86.5967 808.21 88.624 806 91.2398C803.79 88.624 801.158 86.5967 798.103 85.158C795.048 83.7193 791.83 83 788.45 83C782.34 83 777.237 85.0599 773.142 89.1798C769.047 93.2997 767 98.4332 767 104.58C767 107.589 767.504 110.531 768.511 113.409C769.519 116.286 771.29 119.441 773.825 122.875C776.36 126.308 779.773 130.183 784.062 134.499C788.352 138.815 793.78 143.948 800.345 149.899Z" fill="#D71104"/>
<mask id="mask0_228_1325" style="mask-type:alpha" maskUnits="userSpaceOnUse" x="446" y="0" width="240" height="240">
<rect x="446" width="240" height="240" rx="64" fill="white"/>
</mask>
<g mask="url(#mask0_228_1325)">
<path fill-rule="evenodd" clip-rule="evenodd" d="M616 191.319C616 194.338 615.69 209 586.932 209C557.596 209 556.999 192.269 557 187.683V173.001H616V191.319ZM600.003 182.999C596.131 182.999 593.002 186.129 593.002 189.999C593.002 193.872 596.131 197 600.003 197C603.875 197 607.004 193.872 607.004 189.999C607.004 186.127 603.875 182.999 600.003 182.999ZM590 141C593.314 141 596 143.686 596 147V173H557V141H590ZM596 94H557V47.5C557 36.7306 565.731 28 576.5 28H596V94Z" fill="url(#paint2_linear_228_1325)"/>
<path fill-rule="evenodd" clip-rule="evenodd" d="M522.068 28C551.404 28.0001 552.001 44.7318 552 49.3184V99.499H611.953C623.515 99.4991 638.044 101.529 638.044 132.681C638.044 161.296 626.711 167.362 615.272 167.362H601.681V148.271C601.681 140.285 598.5 135.499 589.272 135.499H519.682C514.268 135.499 499.453 133.254 498.1 117H498V99H498.03C498.509 90.7437 504.879 84.0689 513 83.1172V64H493V45.6816C493 42.6628 493.31 28 522.068 28ZM508.997 40C505.125 40.0001 501.996 43.1277 501.996 47.001C501.996 50.8729 505.125 54.0018 508.997 54.002C512.869 54.002 515.998 50.8715 515.998 47.001C515.998 43.1276 512.869 40 508.997 40Z" fill="url(#paint3_linear_228_1325)"/>
</g>
<path d="M69 145L84 90H114L129 145L144 90H174L144 200H114L99 145L84 200H54L24 90H54L69 145ZM234 90C264.376 90 289 114.624 289 145C289 150.2 288.277 155.232 286.929 160H213.999C218.56 166.072 225.821 170 234 170C240.904 170 247.153 167.201 251.677 162.677L272.891 183.891C262.938 193.844 249.188 200 234 200C203.624 200 179 175.376 179 145C179 114.624 203.624 90 234 90ZM334 98.8955C342.628 93.2699 352.932 90 364 90C394.376 90 419 114.624 419 145C419 175.376 394.376 200 364 200C352.932 200 342.628 196.729 334 191.104V200H304V40H334V98.8955ZM364 120C350.193 120 339 131.193 339 145C339 158.807 350.193 170 364 170C377.807 170 389 158.807 389 145C389 131.193 377.807 120 364 120ZM234 120C225.821 120 218.56 123.928 213.999 130H254.001C249.44 123.928 242.179 120 234 120Z" fill="white"/>
<defs>
<linearGradient id="paint0_linear_228_1325" x1="980.994" y1="54.2927" x2="1060.53" y2="134.09" gradientUnits="userSpaceOnUse">
<stop stop-color="#387EB8"/>
<stop offset="1" stop-color="#366994"/>
</linearGradient>
<linearGradient id="paint1_linear_228_1325" x1="1029.33" y1="105.275" x2="1114.59" y2="186.967" gradientUnits="userSpaceOnUse">
<stop stop-color="#FFE052"/>
<stop offset="1" stop-color="#FFC331"/>
</linearGradient>
<linearGradient id="paint2_linear_228_1325" x1="596.722" y1="202" x2="527.856" y2="173.17" gradientUnits="userSpaceOnUse">
<stop stop-color="#FFE052"/>
<stop offset="1" stop-color="#FFC331"/>
</linearGradient>
<linearGradient id="paint3_linear_228_1325" x1="506.899" y1="53.4899" x2="592.076" y2="152.881" gradientUnits="userSpaceOnUse">
<stop stop-color="#387EB8"/>
<stop offset="1" stop-color="#366994"/>
</linearGradient>
<clipPath id="clip0_228_1325">
<rect width="160" height="160" fill="white" transform="translate(966 40)"/>
</clipPath>
</defs>
</svg>
