<svg width="686" height="240" viewBox="0 0 686 240" fill="none" xmlns="http://www.w3.org/2000/svg">
<mask id="mask0_194_1715" style="mask-type:alpha" maskUnits="userSpaceOnUse" x="446" y="0" width="240" height="240">
<rect x="446" width="240" height="240" rx="64" fill="white"/>
</mask>
<g mask="url(#mask0_194_1715)">
<path d="M581 35H631V135H651V185H631V205H581V185H481V135L581 35Z" fill="#9E0C01"/>
<path d="M631.451 185.107L631 186L530 135L530.451 134.108L631.451 185.107Z" fill="url(#paint0_linear_194_1715)"/>
<path d="M631 185L631 186L481 186V185H631Z" fill="url(#paint1_linear_194_1715)"/>
<path d="M631.893 185.549L631 186L580 85.0002L580.893 84.5495L631.893 185.549Z" fill="url(#paint2_linear_194_1715)"/>
<path d="M632 186L631 186L631 35.0002L632 35.0002V186Z" fill="url(#paint3_linear_194_1715)"/>
<path d="M630.293 34.293L631 35.0002L480.943 184.943L480.236 184.236L630.293 34.293Z" fill="url(#paint4_linear_194_1715)"/>
<path d="M531 134V135H481V134H531Z" fill="url(#paint5_linear_194_1715)"/>
<path d="M531 135H530V85.0002H531V135Z" fill="url(#paint6_linear_194_1715)"/>
<path d="M581 84.0002V85.0002H531V84.0002H581Z" fill="url(#paint7_linear_194_1715)"/>
<path d="M581 85.0002H580V35.0002H581V85.0002Z" fill="url(#paint8_linear_194_1715)"/>
</g>
<path d="M69 145L84 90H114L129 145L144 90H174L144 200H114L99 145L84 200H54L24 90H54L69 145ZM234 90C264.376 90 289 114.624 289 145C289 150.2 288.277 155.232 286.929 160H213.999C218.56 166.072 225.821 170 234 170C240.904 170 247.153 167.201 251.677 162.677L272.891 183.891C262.938 193.844 249.188 200 234 200C203.624 200 179 175.376 179 145C179 114.624 203.624 90 234 90ZM334 98.8955C342.628 93.2699 352.932 90 364 90C394.376 90 419 114.624 419 145C419 175.376 394.376 200 364 200C352.932 200 342.628 196.729 334 191.104V200H304V40H334V98.8955ZM364 120C350.193 120 339 131.193 339 145C339 158.807 350.193 170 364 170C377.807 170 389 158.807 389 145C389 131.193 377.807 120 364 120ZM234 120C225.821 120 218.56 123.928 213.999 130H254.001C249.44 123.928 242.179 120 234 120Z" fill="black"/>
<defs>
<linearGradient id="paint0_linear_194_1715" x1="531" y1="84.5005" x2="632" y2="186" gradientUnits="userSpaceOnUse">
<stop stop-color="white" stop-opacity="0.5"/>
<stop offset="1" stop-color="#CC0000" stop-opacity="0"/>
</linearGradient>
<linearGradient id="paint1_linear_194_1715" x1="531" y1="84.5005" x2="632" y2="186" gradientUnits="userSpaceOnUse">
<stop stop-color="white" stop-opacity="0.5"/>
<stop offset="1" stop-color="#CC0000" stop-opacity="0"/>
</linearGradient>
<linearGradient id="paint2_linear_194_1715" x1="531" y1="84.5005" x2="632" y2="186" gradientUnits="userSpaceOnUse">
<stop stop-color="white" stop-opacity="0.5"/>
<stop offset="1" stop-color="#CC0000" stop-opacity="0"/>
</linearGradient>
<linearGradient id="paint3_linear_194_1715" x1="531" y1="84.5005" x2="632" y2="186" gradientUnits="userSpaceOnUse">
<stop stop-color="white" stop-opacity="0.5"/>
<stop offset="1" stop-color="#CC0000" stop-opacity="0"/>
</linearGradient>
<linearGradient id="paint4_linear_194_1715" x1="531" y1="84.5005" x2="632" y2="186" gradientUnits="userSpaceOnUse">
<stop stop-color="white" stop-opacity="0.5"/>
<stop offset="1" stop-color="#CC0000" stop-opacity="0"/>
</linearGradient>
<linearGradient id="paint5_linear_194_1715" x1="531" y1="84.5005" x2="632" y2="186" gradientUnits="userSpaceOnUse">
<stop stop-color="white" stop-opacity="0.5"/>
<stop offset="1" stop-color="#CC0000" stop-opacity="0"/>
</linearGradient>
<linearGradient id="paint6_linear_194_1715" x1="531" y1="84.5005" x2="632" y2="186" gradientUnits="userSpaceOnUse">
<stop stop-color="white" stop-opacity="0.5"/>
<stop offset="1" stop-color="#CC0000" stop-opacity="0"/>
</linearGradient>
<linearGradient id="paint7_linear_194_1715" x1="531" y1="84.5005" x2="632" y2="186" gradientUnits="userSpaceOnUse">
<stop stop-color="white" stop-opacity="0.5"/>
<stop offset="1" stop-color="#CC0000" stop-opacity="0"/>
</linearGradient>
<linearGradient id="paint8_linear_194_1715" x1="531" y1="84.5005" x2="632" y2="186" gradientUnits="userSpaceOnUse">
<stop stop-color="white" stop-opacity="0.5"/>
<stop offset="1" stop-color="#CC0000" stop-opacity="0"/>
</linearGradient>
</defs>
</svg>
