<svg width="240" height="240" viewBox="0 0 240 240" fill="none" xmlns="http://www.w3.org/2000/svg">
<path d="M239.983 66.4752C239.969 64.0615 239.942 61.649 239.876 59.2325C239.735 53.9759 239.424 48.6717 238.49 43.4713C237.542 38.1901 235.992 33.2794 233.55 28.4819C231.152 23.7705 228.018 19.4591 224.279 15.7204C220.541 11.9816 216.23 8.84782 211.516 6.44907C206.723 4.0095 201.812 2.46017 196.535 1.51215C191.332 0.575037 186.028 0.266303 180.767 0.124059C178.352 0.0585948 175.939 0.0311159 173.524 0.0161641C170.659 0 167.791 0 164.926 0H101.394H75.0746C72.2067 0 69.3421 0 66.477 0.0165682C64.0617 0.03152 61.6459 0.0589989 59.2342 0.124463C57.9193 0.160024 56.6015 0.206092 55.2829 0.269536C51.3276 0.460272 47.3662 0.809821 43.4658 1.51255C39.5084 2.22377 35.7559 3.27282 32.1053 4.78214C30.8885 5.28485 29.6827 5.83928 28.4841 6.44907C24.949 8.24813 21.6394 10.4606 18.6293 13.0315C17.6259 13.8886 16.6556 14.7853 15.7213 15.72C11.9818 19.4587 8.84756 23.7701 6.45003 28.4815C4.00763 33.279 2.45992 38.1897 1.51109 43.4709C0.577616 48.6713 0.267265 53.9755 0.12583 59.2321C0.059557 61.6486 0.031674 64.0611 0.015914 66.4748C-0.0022706 69.3415 0.000154008 72.2086 0.000154008 75.0745V114.199V164.924C0.000154008 167.793 -0.00267471 170.657 0.015914 173.526C0.031674 175.94 0.059557 178.352 0.12583 180.765C0.267265 186.024 0.577212 191.329 1.51109 196.527C2.45992 201.807 4.00763 206.722 6.45003 211.518C8.84756 216.231 11.9818 220.541 15.7213 224.278C19.4581 228.019 23.7707 231.152 28.4845 233.552C33.2784 235.992 38.1894 237.54 43.467 238.488C48.667 239.424 53.9753 239.735 59.2347 239.875C61.6463 239.94 64.062 239.968 66.4774 239.982C69.3425 240.003 72.2071 240 75.075 240H164.926C167.791 240 170.659 240.003 173.524 239.982C175.939 239.968 178.351 239.94 180.767 239.875C186.027 239.735 191.332 239.423 196.535 238.488C201.811 237.54 206.723 235.992 211.516 233.552C216.23 231.152 220.541 228.019 224.279 224.278C228.018 220.541 231.152 216.231 233.549 211.518C235.992 206.722 237.541 201.807 238.489 196.527C239.424 191.329 239.735 186.024 239.875 180.765C239.941 178.352 239.968 175.94 239.983 173.526C240.001 170.657 240 167.793 240 164.924V75.0745C240 72.2086 240.001 69.3415 239.983 66.4752Z" fill="#F05138"/>
<path d="M190.173 148.146C190.167 148.139 190.162 148.134 190.156 148.127C190.421 147.224 190.695 146.326 190.928 145.399C200.889 105.713 176.578 58.7927 135.438 34.0879C153.466 58.5276 161.438 88.1297 154.355 114.017C153.724 116.326 152.964 118.542 152.125 120.696C151.214 120.098 150.067 119.418 148.525 118.569C148.525 118.569 107.602 93.3014 63.2485 48.6097C62.0847 47.4366 86.8998 84.0777 115.062 113.831C101.794 106.385 64.8168 79.4811 41.408 58.056C44.284 62.8523 47.7047 67.4708 51.4649 71.9171C71.0133 96.7084 96.5069 127.297 127.049 150.785C105.59 163.918 75.2673 164.939 45.0764 150.799C37.609 147.299 30.5889 143.077 24.0906 138.28C36.8703 158.721 56.5529 176.358 80.5085 186.654C109.076 198.931 137.485 198.098 158.644 186.855L158.627 186.879C158.724 186.818 158.847 186.752 158.947 186.69C159.816 186.223 160.678 185.747 161.522 185.245C171.688 179.968 191.767 174.614 202.545 195.585C205.185 200.717 210.794 173.519 190.173 148.146Z" fill="white"/>
</svg>
