<svg width="240" height="240" viewBox="0 0 240 240" fill="none" xmlns="http://www.w3.org/2000/svg">
<rect width="240" height="240" rx="63.75" fill="#3366FF"/>
<rect x="1.875" y="1.875" width="236.25" height="236.25" rx="61.875" stroke="white" stroke-opacity="0.17" stroke-width="3.75"/>
<g filter="url(#filter0_d_68_900)">
<mask id="path-3-inside-1_68_900" fill="white">
<path d="M150 40V166.863C153.301 160.914 157.094 155.275 161.322 150H205.235C187.704 161.656 174.495 179.294 168.52 200H120V79.9297C110.03 96.2645 96.2654 110.03 79.9307 120H110V150H40V104.664C71.6261 96.524 96.5251 71.6262 104.665 40H150Z"/>
</mask>
<path d="M150 40V166.863C153.301 160.914 157.094 155.275 161.322 150H205.235C187.704 161.656 174.495 179.294 168.52 200H120V79.9297C110.03 96.2645 96.2654 110.03 79.9307 120H110V150H40V104.664C71.6261 96.524 96.5251 71.6262 104.665 40H150Z" fill="url(#paint0_linear_68_900)" shape-rendering="crispEdges"/>
<path d="M150 40H153.585C153.585 38.0203 151.98 36.4155 150 36.4155V40ZM150 166.863H146.415C146.415 168.497 147.52 169.924 149.102 170.333C150.683 170.743 152.342 170.031 153.134 168.602L150 166.863ZM161.322 150V146.415C160.235 146.415 159.206 146.909 158.525 147.758L161.322 150ZM205.235 150L207.22 152.985C208.536 152.11 209.124 150.476 208.667 148.963C208.21 147.451 206.816 146.415 205.235 146.415V150ZM168.52 200V203.585C170.116 203.585 171.521 202.528 171.964 200.994L168.52 200ZM120 200H116.415C116.415 201.98 118.02 203.585 120 203.585V200ZM120 79.9297H123.585C123.585 78.3236 122.516 76.9135 120.97 76.4789C119.424 76.0443 117.777 76.6912 116.94 78.0622L120 79.9297ZM79.9307 120L78.0631 116.94C76.6922 117.777 76.0452 119.424 76.4799 120.97C76.9145 122.516 78.3245 123.585 79.9307 123.585V120ZM110 120H113.585C113.585 118.02 111.98 116.415 110 116.415V120ZM110 150V153.585C111.98 153.585 113.585 151.98 113.585 150H110ZM40 150H36.4155C36.4155 151.98 38.0203 153.585 40 153.585V150ZM40 104.664L39.1065 101.193C37.5226 101.6 36.4155 103.028 36.4155 104.664H40ZM104.665 40V36.4155C103.029 36.4155 101.601 37.5226 101.194 39.1065L104.665 40ZM150 40H146.415V166.863H150H153.585V40H150ZM150 166.863L153.134 168.602C156.337 162.831 160.016 157.36 164.119 152.242L161.322 150L158.525 147.758C154.172 153.189 150.266 158.996 146.866 165.124L150 166.863ZM161.322 150V153.585H205.235V150V146.415H161.322V150ZM205.235 150L203.251 147.015C185.027 159.131 171.291 177.468 165.076 199.006L168.52 200L171.964 200.994C177.699 181.119 190.381 164.18 207.22 152.985L205.235 150ZM168.52 200V196.415H120V200V203.585H168.52V200ZM120 200H123.585V79.9297H120H116.415V200H120ZM120 79.9297L116.94 78.0622C107.267 93.9105 93.9113 107.267 78.0631 116.94L79.9307 120L81.7982 123.06C98.6194 112.792 112.792 98.6184 123.06 81.7972L120 79.9297ZM79.9307 120V123.585H110V120V116.415H79.9307V120ZM110 120H106.415V150H110H113.585V120H110ZM110 150V146.415H40V150V153.585H110V150ZM40 150H43.5845V104.664H40H36.4155V150H40ZM40 104.664L40.8935 108.135C73.7843 99.6699 99.6709 73.7845 108.136 40.8935L104.665 40L101.194 39.1065C93.3792 69.4679 69.468 93.3781 39.1065 101.193L40 104.664ZM104.665 40V43.5845H150V40V36.4155H104.665V40Z" fill="white" fill-opacity="0.2" mask="url(#path-3-inside-1_68_900)"/>
</g>
<defs>
<filter id="filter0_d_68_900" x="23.2721" y="25.6618" width="198.691" height="193.456" filterUnits="userSpaceOnUse" color-interpolation-filters="sRGB">
<feFlood flood-opacity="0" result="BackgroundImageFix"/>
<feColorMatrix in="SourceAlpha" type="matrix" values="0 0 0 0 0 0 0 0 0 0 0 0 0 0 0 0 0 0 127 0" result="hardAlpha"/>
<feOffset dy="2.38969"/>
<feGaussianBlur stdDeviation="8.36393"/>
<feComposite in2="hardAlpha" operator="out"/>
<feColorMatrix type="matrix" values="0 0 0 0 0 0 0 0 0 0 0 0 0 0 0 0 0 0 0.25 0"/>
<feBlend mode="normal" in2="BackgroundImageFix" result="effect1_dropShadow_68_900"/>
<feBlend mode="normal" in="SourceGraphic" in2="effect1_dropShadow_68_900" result="shape"/>
</filter>
<linearGradient id="paint0_linear_68_900" x1="90.6998" y1="98.3574" x2="118.807" y2="183.006" gradientUnits="userSpaceOnUse">
<stop stop-color="white"/>
<stop offset="1" stop-color="white" stop-opacity="0.75"/>
</linearGradient>
</defs>
</svg>
