<svg width="750" height="750" viewBox="0 0 750 750" fill="none" xmlns="http://www.w3.org/2000/svg">
<mask id="mask0_334_2218" style="mask-type:alpha" maskUnits="userSpaceOnUse" x="0" y="0" width="750" height="750">
<rect width="750" height="750" fill="black"/>
</mask>
<g mask="url(#mask0_334_2218)">
<g filter="url(#filter0_d_334_2218)">
<path d="M194 220H556L526 591L375 631L224 591L194 220Z" fill="#0B0D15"/>
<path d="M375 250H523L496 566L375 599V250Z" fill="#232644"/>
</g>
<g filter="url(#filter1_d_334_2218)">
<path d="M489 295L402.547 426.151L470.161 528.726L470.156 528.793L423.293 541.206L375 467.942L326.706 541.206L279.844 528.793L279.839 528.726L347.452 426.152L261 295H316.094L375 384.361L433.905 295H489Z" fill="white"/>
</g>
<mask id="mask1_334_2218" style="mask-type:alpha" maskUnits="userSpaceOnUse" x="260" y="295" width="115" height="259">
<path d="M260.939 295H375V554L279.844 528.793L260.939 295Z" fill="#D71104"/>
</mask>
<g mask="url(#mask1_334_2218)">
<line x1="293.797" y1="549.342" x2="469.797" y2="282.342" stroke="#EBEBEB" stroke-width="46"/>
<line y1="-23" x2="319.789" y2="-23" transform="matrix(-0.550363 -0.834926 -0.834926 0.550363 437 562)" stroke="#EBEBEB" stroke-width="46"/>
</g>
<path d="M471.933 192V119.2H494.397V172.864H525.597V192H471.933Z" fill="white"/>
<path d="M379.613 192V119.2H398.957L425.477 162.36L409.773 162.256L436.605 119.2H455.325V192H433.693V174.632C433.693 168.392 433.831 162.776 434.109 157.784C434.455 152.792 435.01 147.835 435.773 142.912L438.269 149.464L420.693 176.712H413.829L396.565 149.464L399.165 142.912C399.927 147.557 400.447 152.341 400.725 157.264C401.071 162.117 401.245 167.907 401.245 174.632V192H379.613Z" fill="white"/>
<path d="M322.635 192V138.336H300.171V119.2H368.187V138.336H345.099V192H322.635Z" fill="white"/>
<path d="M272.221 192L249.653 159.344L220.741 119.2H247.677L269.725 151.44L299.157 192H272.221ZM220.221 192L247.989 152.376L267.645 160.592L246.117 192H220.221ZM271.389 158.2L251.837 150.296L272.221 119.2H298.117L271.389 158.2Z" fill="white"/>
</g>
<defs>
<filter id="filter0_d_334_2218" x="94" y="120" width="562" height="611" filterUnits="userSpaceOnUse" color-interpolation-filters="sRGB">
<feFlood flood-opacity="0" result="BackgroundImageFix"/>
<feColorMatrix in="SourceAlpha" type="matrix" values="0 0 0 0 0 0 0 0 0 0 0 0 0 0 0 0 0 0 127 0" result="hardAlpha"/>
<feOffset/>
<feGaussianBlur stdDeviation="50"/>
<feComposite in2="hardAlpha" operator="out"/>
<feColorMatrix type="matrix" values="0 0 0 0 1 0 0 0 0 1 0 0 0 0 1 0 0 0 0.5 0"/>
<feBlend mode="normal" in2="BackgroundImageFix" result="effect1_dropShadow_334_2218"/>
<feBlend mode="normal" in="SourceGraphic" in2="effect1_dropShadow_334_2218" result="shape"/>
</filter>
<filter id="filter1_d_334_2218" x="186" y="224" width="378" height="396.206" filterUnits="userSpaceOnUse" color-interpolation-filters="sRGB">
<feFlood flood-opacity="0" result="BackgroundImageFix"/>
<feColorMatrix in="SourceAlpha" type="matrix" values="0 0 0 0 0 0 0 0 0 0 0 0 0 0 0 0 0 0 127 0" result="hardAlpha"/>
<feOffset dy="4"/>
<feGaussianBlur stdDeviation="37.5"/>
<feComposite in2="hardAlpha" operator="out"/>
<feColorMatrix type="matrix" values="0 0 0 0 1 0 0 0 0 1 0 0 0 0 1 0 0 0 0.75 0"/>
<feBlend mode="normal" in2="BackgroundImageFix" result="effect1_dropShadow_334_2218"/>
<feBlend mode="normal" in="SourceGraphic" in2="effect1_dropShadow_334_2218" result="shape"/>
</filter>
</defs>
</svg>
