<svg width="666" height="666" viewBox="0 0 666 666" fill="none" xmlns="http://www.w3.org/2000/svg">
<mask id="mask0_334_2218" style="mask-type:alpha" maskUnits="userSpaceOnUse" x="0" y="0" width="666" height="666">
<rect width="666" height="666" fill="black"/>
</mask>
<g mask="url(#mask0_334_2218)">
<g filter="url(#filter0_d_334_2218)">
<path d="M152 178H514L484 549L333 589L182 549L152 178Z" fill="#0B0D15"/>
<path d="M333 208H481L454 524L333 557V208Z" fill="#232644"/>
</g>
<g filter="url(#filter1_d_334_2218)">
<path d="M447 253L360.547 384.151L428.161 486.726L428.156 486.793L381.293 499.206L333 425.942L284.706 499.206L237.844 486.793L237.839 486.726L305.452 384.152L219 253H274.094L333 342.361L391.905 253H447Z" fill="white"/>
</g>
<mask id="mask1_334_2218" style="mask-type:alpha" maskUnits="userSpaceOnUse" x="218" y="253" width="115" height="259">
<path d="M218.939 253H333V512L237.844 486.793L218.939 253Z" fill="#D71104"/>
</mask>
<g mask="url(#mask1_334_2218)">
<line x1="251.797" y1="507.342" x2="427.797" y2="240.342" stroke="#EBEBEB" stroke-width="46"/>
<line y1="-23" x2="319.789" y2="-23" transform="matrix(-0.550363 -0.834926 -0.834926 0.550363 395 520)" stroke="#EBEBEB" stroke-width="46"/>
</g>
<path d="M429.933 150V77.2H452.397V130.864H483.597V150H429.933Z" fill="white"/>
<path d="M337.613 150V77.2H356.957L383.477 120.36L367.773 120.256L394.605 77.2H413.325V150H391.693V132.632C391.693 126.392 391.831 120.776 392.109 115.784C392.455 110.792 393.01 105.835 393.773 100.912L396.269 107.464L378.693 134.712H371.829L354.565 107.464L357.165 100.912C357.927 105.557 358.447 110.341 358.725 115.264C359.071 120.117 359.245 125.907 359.245 132.632V150H337.613Z" fill="white"/>
<path d="M280.635 150V96.336H258.171V77.2H326.187V96.336H303.099V150H280.635Z" fill="white"/>
<path d="M230.221 150L207.653 117.344L178.741 77.2H205.677L227.725 109.44L257.157 150H230.221ZM178.221 150L205.989 110.376L225.645 118.592L204.117 150H178.221ZM229.389 116.2L209.837 108.296L230.221 77.2H256.117L229.389 116.2Z" fill="white"/>
</g>
<defs>
<filter id="filter0_d_334_2218" x="52" y="78" width="562" height="611" filterUnits="userSpaceOnUse" color-interpolation-filters="sRGB">
<feFlood flood-opacity="0" result="BackgroundImageFix"/>
<feColorMatrix in="SourceAlpha" type="matrix" values="0 0 0 0 0 0 0 0 0 0 0 0 0 0 0 0 0 0 127 0" result="hardAlpha"/>
<feOffset/>
<feGaussianBlur stdDeviation="50"/>
<feComposite in2="hardAlpha" operator="out"/>
<feColorMatrix type="matrix" values="0 0 0 0 1 0 0 0 0 1 0 0 0 0 1 0 0 0 0.5 0"/>
<feBlend mode="normal" in2="BackgroundImageFix" result="effect1_dropShadow_334_2218"/>
<feBlend mode="normal" in="SourceGraphic" in2="effect1_dropShadow_334_2218" result="shape"/>
</filter>
<filter id="filter1_d_334_2218" x="144" y="182" width="378" height="396.206" filterUnits="userSpaceOnUse" color-interpolation-filters="sRGB">
<feFlood flood-opacity="0" result="BackgroundImageFix"/>
<feColorMatrix in="SourceAlpha" type="matrix" values="0 0 0 0 0 0 0 0 0 0 0 0 0 0 0 0 0 0 127 0" result="hardAlpha"/>
<feOffset dy="4"/>
<feGaussianBlur stdDeviation="37.5"/>
<feComposite in2="hardAlpha" operator="out"/>
<feColorMatrix type="matrix" values="0 0 0 0 1 0 0 0 0 1 0 0 0 0 1 0 0 0 0.75 0"/>
<feBlend mode="normal" in2="BackgroundImageFix" result="effect1_dropShadow_334_2218"/>
<feBlend mode="normal" in="SourceGraphic" in2="effect1_dropShadow_334_2218" result="shape"/>
</filter>
</defs>
</svg>
