<svg width="512" height="512" viewBox="0 0 512 512" fill="none" xmlns="http://www.w3.org/2000/svg">
<mask id="mask0_293_1537" style="mask-type:alpha" maskUnits="userSpaceOnUse" x="0" y="0" width="512" height="512">
<rect width="512" height="512" fill="black"/>
</mask>
<g mask="url(#mask0_293_1537)">
<path d="M75 101H437L407 472L256 512L105 472L75 101Z" fill="#D71104"/>
<path d="M256 131H404L377 447L256 480V131Z" fill="#F83326"/>
<mask id="mask1_293_1537" style="mask-type:alpha" maskUnits="userSpaceOnUse" x="141" y="176" width="230" height="259">
<path d="M141.939 176H370.061L351.156 409.793L256 435L160.844 409.793L141.939 176Z" fill="#D71104"/>
</mask>
<g mask="url(#mask1_293_1537)">
<line x1="174.797" y1="430.342" x2="350.797" y2="163.342" stroke="white" stroke-width="46"/>
<line y1="-23" x2="319.789" y2="-23" transform="matrix(-0.550363 -0.834926 -0.834926 0.550363 318 443)" stroke="white" stroke-width="46"/>
</g>
<mask id="mask2_293_1537" style="mask-type:alpha" maskUnits="userSpaceOnUse" x="141" y="176" width="115" height="259">
<path d="M141.939 176H256V435L160.844 409.793L141.939 176Z" fill="#D71104"/>
</mask>
<g mask="url(#mask2_293_1537)">
<line x1="174.797" y1="430.342" x2="350.797" y2="163.342" stroke="#EBEBEB" stroke-width="46"/>
<line y1="-23" x2="319.789" y2="-23" transform="matrix(-0.550363 -0.834926 -0.834926 0.550363 318 443)" stroke="#EBEBEB" stroke-width="46"/>
</g>
<path d="M352.933 73V0.199951H375.397V53.864H406.597V73H352.933Z" fill="white"/>
<path d="M260.613 73V0.199951H279.957L306.477 43.36L290.773 43.256L317.605 0.199951H336.325V73H314.693V55.632C314.693 49.392 314.831 43.776 315.109 38.784C315.455 33.792 316.01 28.8346 316.773 23.912L319.269 30.464L301.693 57.712H294.829L277.565 30.464L280.165 23.912C280.927 28.5573 281.447 33.3413 281.725 38.264C282.071 43.1173 282.245 48.9066 282.245 55.632V73H260.613Z" fill="white"/>
<path d="M203.635 73V19.336H181.171V0.199951H249.187V19.336H226.099V73H203.635Z" fill="white"/>
<path d="M153.221 73L130.653 40.344L101.741 0.199951H128.677L150.725 32.44L180.157 73H153.221ZM101.221 73L128.989 33.376L148.645 41.5919L127.117 73H101.221ZM152.389 39.2L132.837 31.296L153.221 0.199951H179.117L152.389 39.2Z" fill="white"/>
</g>
</svg>
