<svg width="240" height="240" viewBox="0 0 240 240" fill="none" xmlns="http://www.w3.org/2000/svg">
<g clip-path="url(#clip0_294_427)">
<path d="M240 0H0V240H240V0Z" fill="#512BD4"/>
<path d="M42.7756 153.333C41.0787 153.333 39.6362 152.768 38.4483 151.637C37.2605 150.477 36.6665 149.099 36.6665 147.505C36.6665 145.88 37.2605 144.489 38.4483 143.329C39.6362 142.169 41.0787 141.589 42.7756 141.589C44.5009 141.589 45.9575 142.169 47.1453 143.329C48.3615 144.489 48.9696 145.88 48.9696 147.505C48.9696 149.099 48.3615 150.477 47.1453 151.637C45.9575 152.768 44.5009 153.333 42.7756 153.333Z" fill="white"/>
<path d="M110.614 152.376H99.5838L70.5232 106.529C69.788 105.369 69.1796 104.166 68.699 102.919H68.4443C68.6706 104.253 68.7838 107.109 68.7838 111.488V152.376H59.0259V90H70.7775L98.8627 134.759C100.051 136.616 100.814 137.892 101.154 138.587H101.323C101.041 136.935 100.899 134.136 100.899 130.192V90H110.614V152.376Z" fill="white"/>
<path d="M158.131 152.376H123.979V90H156.774V98.7868H134.077V116.447H154.992V125.19H134.077V143.633H158.131V152.376Z" fill="white"/>
<path d="M206.667 98.7868H189.188V152.376H179.091V98.7868H161.654V90H206.667V98.7868Z" fill="white"/>
</g>
<defs>
<clipPath id="clip0_294_427">
<rect width="240" height="240" fill="white"/>
</clipPath>
</defs>
</svg>
