<svg width="1166" height="240" viewBox="0 0 1166 240" fill="none" xmlns="http://www.w3.org/2000/svg">
<g clip-path="url(#clip0_228_750)">
<path d="M1166 0H926V240H1166V0Z" fill="#512BD4"/>
<path d="M968.776 153.333C967.079 153.333 965.636 152.768 964.448 151.637C963.26 150.477 962.667 149.099 962.667 147.505C962.667 145.88 963.26 144.489 964.448 143.329C965.636 142.169 967.079 141.589 968.776 141.589C970.501 141.589 971.957 142.169 973.145 143.329C974.362 144.489 974.97 145.88 974.97 147.505C974.97 149.099 974.362 150.477 973.145 151.637C971.957 152.768 970.501 153.333 968.776 153.333Z" fill="white"/>
<path d="M1036.61 152.376H1025.58L996.523 106.529C995.788 105.369 995.18 104.166 994.699 102.919H994.444C994.671 104.253 994.784 107.109 994.784 111.488V152.376H985.026V90H996.777L1024.86 134.759C1026.05 136.616 1026.81 137.892 1027.15 138.587H1027.32C1027.04 136.935 1026.9 134.136 1026.9 130.192V90H1036.61V152.376Z" fill="white"/>
<path d="M1084.13 152.376H1049.98V90H1082.77V98.7868H1060.08V116.447H1080.99V125.19H1060.08V143.633H1084.13V152.376Z" fill="white"/>
<path d="M1132.67 98.7868H1115.19V152.376H1105.09V98.7868H1087.65V90H1132.67V98.7868Z" fill="white"/>
</g>
<path d="M800.345 149.899L806 155L811.655 149.899C818.22 143.948 823.647 138.815 827.938 134.499C832.228 130.183 835.64 126.308 838.175 122.875C840.71 119.441 842.481 116.286 843.489 113.409C844.496 110.531 845 107.589 845 104.58C845 98.4332 842.952 93.2997 838.857 89.1798C834.762 85.0599 829.66 83 823.55 83C820.17 83 816.952 83.7193 813.897 85.158C810.842 86.5967 808.21 88.624 806 91.2398C803.79 88.624 801.158 86.5967 798.103 85.158C795.048 83.7193 791.83 83 788.45 83C782.34 83 777.237 85.0599 773.142 89.1798C769.047 93.2997 767 98.4332 767 104.58C767 107.589 767.504 110.531 768.511 113.409C769.519 116.286 771.29 119.441 773.825 122.875C776.36 126.308 779.773 130.183 784.062 134.499C788.352 138.815 793.78 143.948 800.345 149.899Z" fill="#D71104"/>
<path d="M686 0H446V240H686V0Z" fill="#512BD4"/>
<path d="M573.68 135.08V93.44H573.44L545.12 135.08H573.68ZM583.28 135.08H594.8V144.08H583.28V164H573.68V144.08H536.36V134.24L575.12 78.92H583.28V135.08Z" fill="white"/>
<path d="M69 145L84 90H114L129 145L144 90H174L144 200H114L99 145L84 200H54L24 90H54L69 145ZM234 90C264.376 90 289 114.624 289 145C289 150.2 288.277 155.232 286.929 160H213.999C218.56 166.072 225.821 170 234 170C240.904 170 247.153 167.201 251.677 162.677L272.891 183.891C262.938 193.844 249.188 200 234 200C203.624 200 179 175.376 179 145C179 114.624 203.624 90 234 90ZM334 98.8955C342.628 93.2699 352.932 90 364 90C394.376 90 419 114.624 419 145C419 175.376 394.376 200 364 200C352.932 200 342.628 196.729 334 191.104V200H304V40H334V98.8955ZM364 120C350.193 120 339 131.193 339 145C339 158.807 350.193 170 364 170C377.807 170 389 158.807 389 145C389 131.193 377.807 120 364 120ZM234 120C225.821 120 218.56 123.928 213.999 130H254.001C249.44 123.928 242.179 120 234 120Z" fill="black"/>
<defs>
<clipPath id="clip0_228_750">
<rect width="240" height="240" fill="white" transform="translate(926)"/>
</clipPath>
</defs>
</svg>
