<svg width="700" height="240" viewBox="0 0 700 240" fill="none" xmlns="http://www.w3.org/2000/svg">
<rect x="460" width="240" height="240" rx="63.75" fill="#3366FF"/>
<rect x="461.875" y="1.875" width="236.25" height="236.25" rx="61.875" stroke="white" stroke-opacity="0.17" stroke-width="3.75"/>
<g filter="url(#filter0_d_68_791)">
<mask id="path-3-inside-1_68_791" fill="white">
<path d="M610 40V166.863C613.301 160.914 617.094 155.275 621.322 150H665.235C647.704 161.656 634.495 179.294 628.52 200H580V79.9297C570.03 96.2645 556.265 110.03 539.931 120H570V150H500V104.664C531.626 96.524 556.525 71.6262 564.665 40H610Z"/>
</mask>
<path d="M610 40V166.863C613.301 160.914 617.094 155.275 621.322 150H665.235C647.704 161.656 634.495 179.294 628.52 200H580V79.9297C570.03 96.2645 556.265 110.03 539.931 120H570V150H500V104.664C531.626 96.524 556.525 71.6262 564.665 40H610Z" fill="url(#paint0_linear_68_791)" shape-rendering="crispEdges"/>
<path d="M610 40H613.585C613.585 38.0203 611.98 36.4155 610 36.4155V40ZM610 166.863H606.415C606.415 168.497 607.52 169.924 609.102 170.333C610.683 170.743 612.342 170.031 613.134 168.602L610 166.863ZM621.322 150V146.415C620.235 146.415 619.206 146.909 618.525 147.758L621.322 150ZM665.235 150L667.22 152.985C668.536 152.11 669.124 150.476 668.667 148.963C668.21 147.451 666.816 146.415 665.235 146.415V150ZM628.52 200V203.585C630.116 203.585 631.521 202.528 631.964 200.994L628.52 200ZM580 200H576.415C576.415 201.98 578.02 203.585 580 203.585V200ZM580 79.9297H583.585C583.585 78.3236 582.516 76.9135 580.97 76.4789C579.424 76.0443 577.777 76.6912 576.94 78.0622L580 79.9297ZM539.931 120L538.063 116.94C536.692 117.777 536.045 119.424 536.48 120.97C536.914 122.516 538.325 123.585 539.931 123.585V120ZM570 120H573.585C573.585 118.02 571.98 116.415 570 116.415V120ZM570 150V153.585C571.98 153.585 573.585 151.98 573.585 150H570ZM500 150H496.415C496.415 151.98 498.02 153.585 500 153.585V150ZM500 104.664L499.107 101.193C497.523 101.6 496.415 103.028 496.415 104.664H500ZM564.665 40V36.4155C563.029 36.4155 561.601 37.5226 561.194 39.1065L564.665 40ZM610 40H606.415V166.863H610H613.585V40H610ZM610 166.863L613.134 168.602C616.337 162.831 620.016 157.36 624.119 152.242L621.322 150L618.525 147.758C614.172 153.189 610.266 158.996 606.866 165.124L610 166.863ZM621.322 150V153.585H665.235V150V146.415H621.322V150ZM665.235 150L663.251 147.015C645.027 159.131 631.291 177.468 625.076 199.006L628.52 200L631.964 200.994C637.699 181.119 650.381 164.18 667.22 152.985L665.235 150ZM628.52 200V196.415H580V200V203.585H628.52V200ZM580 200H583.585V79.9297H580H576.415V200H580ZM580 79.9297L576.94 78.0622C567.267 93.9105 553.911 107.267 538.063 116.94L539.931 120L541.798 123.06C558.619 112.792 572.792 98.6184 583.06 81.7972L580 79.9297ZM539.931 120V123.585H570V120V116.415H539.931V120ZM570 120H566.415V150H570H573.585V120H570ZM570 150V146.415H500V150V153.585H570V150ZM500 150H503.585V104.664H500H496.415V150H500ZM500 104.664L500.893 108.135C533.784 99.6699 559.671 73.7845 568.136 40.8935L564.665 40L561.194 39.1065C553.379 69.4679 529.468 93.3781 499.107 101.193L500 104.664ZM564.665 40V43.5845H610V40V36.4155H564.665V40Z" fill="white" fill-opacity="0.2" mask="url(#path-3-inside-1_68_791)"/>
</g>
<path d="M85 145L100 90H130L145 145L160 90H190L160 200H130L115 145L100 200H70L40 90H70L85 145ZM250 90C280.376 90 305 114.624 305 145C305 150.2 304.277 155.232 302.929 160H229.999C234.56 166.072 241.821 170 250 170C256.904 170 263.153 167.201 267.677 162.677L288.891 183.891C278.938 193.844 265.188 200 250 200C219.624 200 195 175.376 195 145C195 114.624 219.624 90 250 90ZM350 98.8955C358.628 93.2699 368.932 90 380 90C410.376 90 435 114.624 435 145C435 175.376 410.376 200 380 200C368.932 200 358.628 196.729 350 191.104V200H320V40H350V98.8955ZM380 120C366.193 120 355 131.193 355 145C355 158.807 366.193 170 380 170C393.807 170 405 158.807 405 145C405 131.193 393.807 120 380 120ZM250 120C241.821 120 234.56 123.928 229.999 130H270.001C265.44 123.928 258.179 120 250 120Z" fill="white"/>
<defs>
<filter id="filter0_d_68_791" x="483.272" y="25.6618" width="198.691" height="193.456" filterUnits="userSpaceOnUse" color-interpolation-filters="sRGB">
<feFlood flood-opacity="0" result="BackgroundImageFix"/>
<feColorMatrix in="SourceAlpha" type="matrix" values="0 0 0 0 0 0 0 0 0 0 0 0 0 0 0 0 0 0 127 0" result="hardAlpha"/>
<feOffset dy="2.38969"/>
<feGaussianBlur stdDeviation="8.36393"/>
<feComposite in2="hardAlpha" operator="out"/>
<feColorMatrix type="matrix" values="0 0 0 0 0 0 0 0 0 0 0 0 0 0 0 0 0 0 0.25 0"/>
<feBlend mode="normal" in2="BackgroundImageFix" result="effect1_dropShadow_68_791"/>
<feBlend mode="normal" in="SourceGraphic" in2="effect1_dropShadow_68_791" result="shape"/>
</filter>
<linearGradient id="paint0_linear_68_791" x1="550.7" y1="98.3574" x2="578.807" y2="183.006" gradientUnits="userSpaceOnUse">
<stop stop-color="white"/>
<stop offset="1" stop-color="white" stop-opacity="0.75"/>
</linearGradient>
</defs>
</svg>
