<svg width="240" height="240" viewBox="0 0 240 240" fill="none" xmlns="http://www.w3.org/2000/svg">
<path d="M23.3988 225.473C41.1004 240 67.4003 240 120 240C172.6 240 198.9 240 216.601 225.473C219.842 222.813 222.813 219.842 225.473 216.601C240 198.9 240 172.6 240 120C240 67.4003 240 41.1004 225.473 23.3988C222.813 20.1582 219.842 17.1868 216.601 14.5273C198.9 0 172.6 0 120 0C67.4003 0 41.1004 0 23.3988 14.5273C20.1582 17.1868 17.1868 20.1582 14.5273 23.3988C0 41.1004 0 67.4003 0 120C0 172.6 0 198.9 14.5273 216.601C17.1868 219.842 20.1582 222.813 23.3988 225.473Z" fill="url(#paint0_linear_194_1597)"/>
<path d="M35.6303 108.432C35.2786 108.432 35.1906 108.256 35.3665 107.992L37.2132 105.618C37.3891 105.354 37.8287 105.178 38.1805 105.178H69.5741C69.9258 105.178 70.0138 105.442 69.8379 105.706L68.3429 107.992C68.1671 108.256 67.7274 108.52 67.4636 108.52L35.6303 108.432Z" fill="white"/>
<path d="M22.3517 116.522C22 116.522 21.9121 116.346 22.0879 116.082L23.9346 113.708C24.1105 113.444 24.5502 113.268 24.9019 113.268H65.0013C65.353 113.268 65.5289 113.532 65.441 113.796L64.7375 115.906C64.6495 116.258 64.2978 116.434 63.946 116.434L22.3517 116.522Z" fill="white"/>
<path d="M43.6325 124.612C43.2808 124.612 43.1928 124.348 43.3687 124.084L44.5998 121.886C44.7757 121.622 45.1274 121.358 45.4792 121.358H63.0666C63.4184 121.358 63.5943 121.622 63.5943 121.974L63.4184 124.084C63.4184 124.436 63.0666 124.7 62.8028 124.7L43.6325 124.612Z" fill="white"/>
<path d="M134.911 106.849C129.371 108.256 125.59 109.311 120.138 110.718C118.819 111.07 118.731 111.158 117.588 109.839C116.269 108.344 115.301 107.376 113.455 106.497C107.915 103.771 102.551 104.562 97.5381 107.816C91.5584 111.685 88.4806 117.401 88.5685 124.524C88.6565 131.559 93.493 137.363 100.44 138.33C106.42 139.122 111.432 137.011 115.389 132.526C116.181 131.559 116.884 130.504 117.764 129.273C114.598 129.273 110.641 129.273 100.792 129.273C98.9451 129.273 98.5054 128.13 99.121 126.635C100.264 123.909 102.375 119.336 103.606 117.049C103.87 116.522 104.485 115.642 105.804 115.642C110.289 115.642 126.821 115.642 137.813 115.642C137.637 118.017 137.637 120.391 137.286 122.765C136.318 129.097 133.944 134.901 130.075 140.001C123.743 148.355 115.477 153.543 105.013 154.95C96.3949 156.094 88.3926 154.423 81.3577 149.147C74.8503 144.222 71.157 137.715 70.1896 129.624C69.0465 120.039 71.8605 111.421 77.6643 103.859C83.9079 95.6807 92.174 90.4924 102.287 88.6457C110.553 87.1508 118.467 88.1181 125.59 92.9547C130.251 96.0325 133.592 100.253 135.791 105.354C136.318 106.145 135.967 106.585 134.911 106.849Z" fill="white"/>
<path d="M164.019 155.478C156.016 155.302 148.718 153.016 142.562 147.74C137.374 143.255 134.12 137.539 133.065 130.768C131.482 120.831 134.208 112.037 140.188 104.211C146.607 95.7688 154.346 91.372 164.81 89.5253C173.78 87.9424 182.222 88.8218 189.872 94.0101C196.819 98.7587 201.128 105.178 202.271 113.62C203.766 125.492 200.337 135.165 192.158 143.431C186.355 149.323 179.232 153.016 171.054 154.687C168.679 155.126 166.305 155.214 164.019 155.478ZM184.948 119.952C184.86 118.808 184.86 117.929 184.684 117.05C183.101 108.344 175.099 103.419 166.745 105.354C158.566 107.201 153.29 112.389 151.356 120.655C149.773 127.514 153.114 134.461 159.446 137.275C164.282 139.386 169.119 139.122 173.78 136.748C180.727 133.142 184.508 127.514 184.948 119.952Z" fill="white"/>
<defs>
<linearGradient id="paint0_linear_194_1597" x1="240" y1="0" x2="2.86102e-05" y2="240" gradientUnits="userSpaceOnUse">
<stop offset="0.00875159" stop-color="#17A99F"/>
<stop offset="1" stop-color="#1CABD7"/>
</linearGradient>
</defs>
</svg>
