<svg width="240" height="240" viewBox="0 0 240 240" fill="none" xmlns="http://www.w3.org/2000/svg">
<g clip-path="url(#clip0_112_1952)">
<path d="M240 0H0V240H240V0Z" fill="#F7DF1E"/>
<path d="M63.1047 200.561L81.4714 189.446C85.0147 195.728 88.2381 201.044 95.9695 201.044C103.38 201.044 108.053 198.145 108.053 186.868V110.183H130.607V187.187C130.607 210.547 116.914 221.18 96.9362 221.18C78.8938 221.18 68.4209 211.836 63.1047 200.559" fill="black"/>
<path d="M142.857 198.145L161.221 187.512C166.056 195.406 172.339 201.206 183.454 201.206C192.8 201.206 198.759 196.534 198.759 190.089C198.759 182.356 192.637 179.617 182.326 175.108L176.689 172.69C160.417 165.764 149.622 157.064 149.622 138.698C149.622 121.783 162.511 108.894 182.649 108.894C196.987 108.894 207.298 113.888 214.708 126.938L197.147 138.215C193.281 131.288 189.093 128.549 182.649 128.549C176.044 128.549 171.855 132.738 171.855 138.215C171.855 144.981 176.044 147.72 185.709 151.909L191.347 154.325C210.519 162.542 221.313 170.919 221.313 189.767C221.313 210.067 205.364 221.182 183.938 221.182C162.994 221.182 149.461 211.195 142.857 198.145Z" fill="black"/>
</g>
<defs>
<clipPath id="clip0_112_1952">
<rect width="240" height="240" fill="white"/>
</clipPath>
</defs>
</svg>
