<svg width="686" height="240" viewBox="0 0 686 240" fill="none" xmlns="http://www.w3.org/2000/svg">
<path d="M685.983 66.4752C685.969 64.0615 685.942 61.649 685.876 59.2325C685.735 53.9759 685.424 48.6717 684.49 43.4713C683.542 38.1901 681.992 33.2794 679.55 28.4819C677.152 23.7705 674.018 19.4591 670.279 15.7204C666.541 11.9816 662.23 8.84782 657.516 6.44907C652.723 4.0095 647.812 2.46017 642.535 1.51215C637.332 0.575037 632.028 0.266303 626.767 0.124059C624.352 0.0585948 621.939 0.0311159 619.524 0.0161641C616.659 0 613.791 0 610.926 0H547.394H521.075C518.207 0 515.342 0 512.477 0.0165682C510.062 0.03152 507.646 0.0589989 505.234 0.124463C503.919 0.160024 502.602 0.206092 501.283 0.269536C497.328 0.460272 493.366 0.809821 489.466 1.51255C485.508 2.22377 481.756 3.27282 478.105 4.78214C476.889 5.28485 475.683 5.83928 474.484 6.44907C470.949 8.24813 467.639 10.4606 464.629 13.0315C463.626 13.8886 462.656 14.7853 461.721 15.72C457.982 19.4587 454.848 23.7701 452.45 28.4815C450.008 33.279 448.46 38.1897 447.511 43.4709C446.578 48.6713 446.267 53.9755 446.126 59.2321C446.06 61.6486 446.032 64.0611 446.016 66.4748C445.998 69.3415 446 72.2086 446 75.0745V114.199V164.924C446 167.793 445.997 170.657 446.016 173.526C446.032 175.94 446.06 178.352 446.126 180.765C446.267 186.024 446.577 191.329 447.511 196.527C448.46 201.807 450.008 206.722 452.45 211.518C454.848 216.231 457.982 220.541 461.721 224.278C465.458 228.019 469.771 231.152 474.485 233.552C479.278 235.992 484.189 237.54 489.467 238.488C494.667 239.424 499.975 239.735 505.235 239.875C507.646 239.94 510.062 239.968 512.477 239.982C515.342 240.003 518.207 240 521.075 240H610.926C613.791 240 616.659 240.003 619.524 239.982C621.939 239.968 624.351 239.94 626.767 239.875C632.027 239.735 637.332 239.423 642.535 238.488C647.811 237.54 652.723 235.992 657.516 233.552C662.23 231.152 666.541 228.019 670.279 224.278C674.018 220.541 677.152 216.231 679.549 211.518C681.992 206.722 683.541 201.807 684.489 196.527C685.424 191.329 685.735 186.024 685.875 180.765C685.941 178.352 685.968 175.94 685.983 173.526C686.001 170.657 686 167.793 686 164.924V75.0745C686 72.2086 686.001 69.3415 685.983 66.4752Z" fill="#F05138"/>
<path d="M627.079 141.114C627.079 141.114 627.658 133.692 613 133.692L595.351 133.6C594.052 133.6 592.722 133.631 591.361 133.692C582.393 152.618 577.012 169.874 575.219 185.46C572.188 185.707 569.59 185.831 567.426 185.831C565.261 185.831 562.756 185.738 559.911 185.553C557.066 185.429 554.097 184.811 551.005 183.697C544.449 181.285 541.171 176.616 541.171 169.688C541.171 161.463 546.49 150.361 557.128 136.383C544.882 137.991 534.615 140.125 526.327 142.784C524.595 143.341 523.142 143.619 521.967 143.619C520.854 143.619 519.586 143.495 518.163 143.248C516.741 143.001 515.132 142.289 513.339 141.114C511.607 139.939 510.03 138.486 508.607 136.754C507.185 134.96 505.979 133.105 504.989 131.188C503.072 127.538 501.742 123.797 501 119.962C520.235 105.551 546.428 89.7178 579.579 72.4619C594.794 64.6071 607.72 58.4531 618.358 54C621.884 54.6803 624.791 56.876 627.079 60.5869C627.759 61.6383 628.1 62.9681 628.1 64.5762C628.1 66.1224 627.296 68.5964 625.688 71.998C624.141 75.3997 622.069 79.3271 619.472 83.7803C616.936 88.2334 614.029 93.1504 610.751 98.5312C607.535 103.85 604.226 109.54 600.824 115.602C621.791 116.529 627.079 121 630 128C631.631 131.909 630.048 137.28 627.079 141.114ZM529.574 118.478C530.688 118.416 532.636 118.261 535.419 118.014C538.264 117.766 541.666 117.519 545.624 117.271C553.974 116.653 563.56 116.158 574.384 115.787C578.466 111.272 582.548 106.819 586.63 102.428C590.712 97.9746 594.577 93.707 598.227 89.625C606.7 80.2858 612.39 73.235 615.297 68.4727C601.752 73.7298 581.496 84.8626 554.53 101.871C544.387 108.242 536.068 113.777 529.574 118.478Z" fill="white"/>
<path d="M69 145L84 90H114L129 145L144 90H174L144 200H114L99 145L84 200H54L24 90H54L69 145ZM234 90C264.376 90 289 114.624 289 145C289 150.2 288.277 155.232 286.929 160H213.999C218.56 166.072 225.821 170 234 170C240.904 170 247.153 167.201 251.677 162.677L272.891 183.891C262.938 193.844 249.188 200 234 200C203.624 200 179 175.376 179 145C179 114.624 203.624 90 234 90ZM334 98.8955C342.628 93.2699 352.932 90 364 90C394.376 90 419 114.624 419 145C419 175.376 394.376 200 364 200C352.932 200 342.628 196.729 334 191.104V200H304V40H334V98.8955ZM364 120C350.193 120 339 131.193 339 145C339 158.807 350.193 170 364 170C377.807 170 389 158.807 389 145C389 131.193 377.807 120 364 120ZM234 120C225.821 120 218.56 123.928 213.999 130H254.001C249.44 123.928 242.179 120 234 120Z" fill="black"/>
</svg>
