<svg width="1218" height="243" viewBox="0 0 1218 243" fill="none" xmlns="http://www.w3.org/2000/svg">
<path d="M880.104 60V22.2H886.314V60H880.104ZM884.37 60V54.33H904.134V60H884.37ZM919.967 60.54C917.447 60.54 915.161 59.946 913.109 58.758C911.057 57.534 909.419 55.896 908.195 53.844C907.007 51.792 906.413 49.506 906.413 46.986C906.413 44.466 907.007 42.198 908.195 40.182C909.419 38.166 911.057 36.564 913.109 35.376C915.161 34.152 917.447 33.54 919.967 33.54C922.523 33.54 924.827 34.134 926.879 35.322C928.931 36.51 930.551 38.13 931.739 40.182C932.963 42.198 933.575 44.466 933.575 46.986C933.575 49.506 932.963 51.792 931.739 53.844C930.551 55.896 928.931 57.534 926.879 58.758C924.827 59.946 922.523 60.54 919.967 60.54ZM919.967 54.816C921.443 54.816 922.739 54.492 923.855 53.844C925.007 53.16 925.889 52.224 926.501 51.036C927.149 49.848 927.473 48.498 927.473 46.986C927.473 45.474 927.149 44.142 926.501 42.99C925.853 41.838 924.971 40.938 923.855 40.29C922.739 39.606 921.443 39.264 919.967 39.264C918.527 39.264 917.231 39.606 916.079 40.29C914.963 40.938 914.081 41.838 913.433 42.99C912.821 44.142 912.515 45.474 912.515 46.986C912.515 48.498 912.821 49.848 913.433 51.036C914.081 52.224 914.963 53.16 916.079 53.844C917.231 54.492 918.527 54.816 919.967 54.816ZM950.449 60.54C947.893 60.54 945.571 59.946 943.483 58.758C941.431 57.57 939.811 55.95 938.623 53.898C937.435 51.846 936.841 49.56 936.841 47.04C936.841 44.484 937.435 42.198 938.623 40.182C939.811 38.13 941.431 36.51 943.483 35.322C945.571 34.134 947.893 33.54 950.449 33.54C952.465 33.54 954.337 33.936 956.065 34.728C957.829 35.484 959.323 36.582 960.547 38.022L956.659 41.964C955.903 41.064 954.985 40.398 953.905 39.966C952.861 39.498 951.709 39.264 950.449 39.264C948.973 39.264 947.659 39.606 946.507 40.29C945.391 40.938 944.509 41.838 943.861 42.99C943.249 44.142 942.943 45.492 942.943 47.04C942.943 48.552 943.249 49.902 943.861 51.09C944.509 52.242 945.391 53.16 946.507 53.844C947.659 54.492 948.973 54.816 950.449 54.816C951.709 54.816 952.861 54.6 953.905 54.168C954.985 53.7 955.903 53.016 956.659 52.116L960.547 56.058C959.323 57.498 957.829 58.614 956.065 59.406C954.337 60.162 952.465 60.54 950.449 60.54ZM975.156 60.54C972.816 60.54 970.692 59.946 968.784 58.758C966.912 57.57 965.418 55.968 964.302 53.952C963.222 51.9 962.682 49.614 962.682 47.094C962.682 44.538 963.222 42.252 964.302 40.236C965.418 38.184 966.912 36.564 968.784 35.376C970.692 34.152 972.816 33.54 975.156 33.54C977.136 33.54 978.882 33.972 980.394 34.836C981.942 35.664 983.166 36.816 984.066 38.292C984.966 39.768 985.416 41.442 985.416 43.314V50.766C985.416 52.638 984.966 54.312 984.066 55.788C983.202 57.264 981.996 58.434 980.448 59.298C978.9 60.126 977.136 60.54 975.156 60.54ZM976.128 54.924C978.324 54.924 980.088 54.186 981.42 52.71C982.788 51.234 983.472 49.344 983.472 47.04C983.472 45.492 983.166 44.124 982.554 42.936C981.942 41.748 981.078 40.83 979.962 40.182C978.882 39.498 977.604 39.156 976.128 39.156C974.688 39.156 973.41 39.498 972.294 40.182C971.214 40.83 970.35 41.748 969.702 42.936C969.09 44.124 968.784 45.492 968.784 47.04C968.784 48.588 969.09 49.956 969.702 51.144C970.35 52.332 971.214 53.268 972.294 53.952C973.41 54.6 974.688 54.924 976.128 54.924ZM983.094 60V53.034L984.12 46.716L983.094 40.452V34.08H989.034V60H983.094ZM995.626 60V21.12H1001.57V60H995.626ZM1008.18 49.038V43.422H1026.48V49.038H1008.18ZM1035.73 60V29.598C1035.73 27.87 1036.11 26.34 1036.87 25.008C1037.66 23.64 1038.74 22.56 1040.11 21.768C1041.48 20.976 1043.08 20.58 1044.91 20.58C1046.28 20.58 1047.47 20.814 1048.48 21.282C1049.52 21.714 1050.49 22.344 1051.39 23.172L1047.51 27.06C1047.15 26.772 1046.75 26.556 1046.32 26.412C1045.92 26.232 1045.45 26.142 1044.91 26.142C1043.87 26.142 1043.06 26.448 1042.48 27.06C1041.94 27.672 1041.67 28.5 1041.67 29.544V60H1035.73ZM1029.52 39.48V34.08H1054.8V39.48H1029.52ZM1051.39 60V34.08H1057.33V60H1051.39ZM1054.36 31.812C1053.36 31.812 1052.51 31.47 1051.83 30.786C1051.18 30.102 1050.85 29.256 1050.85 28.248C1050.85 27.24 1051.18 26.394 1051.83 25.71C1052.51 25.026 1053.36 24.684 1054.36 24.684C1055.41 24.684 1056.25 25.026 1056.9 25.71C1057.55 26.394 1057.87 27.24 1057.87 28.248C1057.87 29.256 1057.55 30.102 1056.9 30.786C1056.25 31.47 1055.41 31.812 1054.36 31.812ZM1063.97 60V34.08H1069.91V60H1063.97ZM1069.91 45.582L1067.86 44.556C1067.86 41.28 1068.58 38.634 1070.02 36.618C1071.49 34.566 1073.71 33.54 1076.66 33.54C1077.96 33.54 1079.13 33.774 1080.17 34.242C1081.21 34.71 1082.19 35.466 1083.09 36.51L1079.2 40.506C1078.73 40.002 1078.21 39.642 1077.63 39.426C1077.06 39.21 1076.39 39.102 1075.63 39.102C1073.98 39.102 1072.61 39.624 1071.53 40.668C1070.45 41.712 1069.91 43.35 1069.91 45.582ZM1093.86 60.54C1092.42 60.54 1091.03 60.36 1089.7 60C1088.37 59.604 1087.14 59.064 1086.03 58.38C1084.91 57.66 1083.94 56.796 1083.11 55.788L1086.89 52.008C1087.79 53.052 1088.82 53.844 1089.97 54.384C1091.16 54.888 1092.49 55.14 1093.97 55.14C1095.3 55.14 1096.31 54.942 1096.99 54.546C1097.67 54.15 1098.02 53.574 1098.02 52.818C1098.02 52.026 1097.69 51.414 1097.04 50.982C1096.4 50.55 1095.55 50.19 1094.51 49.902C1093.5 49.578 1092.42 49.254 1091.27 48.93C1090.15 48.606 1089.07 48.174 1088.03 47.634C1087.02 47.058 1086.19 46.284 1085.54 45.312C1084.89 44.34 1084.57 43.08 1084.57 41.532C1084.57 39.876 1084.95 38.454 1085.7 37.266C1086.5 36.078 1087.59 35.16 1089 34.512C1090.44 33.864 1092.15 33.54 1094.13 33.54C1096.22 33.54 1098.05 33.918 1099.64 34.674C1101.26 35.394 1102.61 36.492 1103.69 37.968L1099.91 41.748C1099.15 40.812 1098.29 40.11 1097.31 39.642C1096.34 39.174 1095.23 38.94 1093.97 38.94C1092.78 38.94 1091.86 39.12 1091.21 39.48C1090.56 39.84 1090.24 40.362 1090.24 41.046C1090.24 41.766 1090.56 42.324 1091.21 42.72C1091.86 43.116 1092.69 43.458 1093.7 43.746C1094.74 44.034 1095.82 44.358 1096.94 44.718C1098.09 45.042 1099.17 45.51 1100.18 46.122C1101.22 46.698 1102.07 47.49 1102.71 48.498C1103.36 49.47 1103.69 50.748 1103.69 52.332C1103.69 54.852 1102.8 56.85 1101.04 58.326C1099.28 59.802 1096.88 60.54 1093.86 60.54ZM1112.53 60V23.28H1118.47V60H1112.53ZM1106.32 39.48V34.08H1124.68V39.48H1106.32ZM1131.68 60.54C1130.53 60.54 1129.58 60.162 1128.82 59.406C1128.1 58.614 1127.74 57.66 1127.74 56.544C1127.74 55.392 1128.1 54.438 1128.82 53.682C1129.58 52.926 1130.53 52.548 1131.68 52.548C1132.83 52.548 1133.77 52.926 1134.49 53.682C1135.25 54.438 1135.62 55.392 1135.62 56.544C1135.62 57.66 1135.25 58.614 1134.49 59.406C1133.77 60.162 1132.83 60.54 1131.68 60.54ZM880.104 141V103.2H884.424L886.314 110.328V141H880.104ZM906.294 141L883.668 111.462L884.424 103.2L907.05 132.738L906.294 141ZM906.294 141L904.404 134.358V103.2H910.614V141H906.294ZM928.855 141.54C926.515 141.54 924.391 140.946 922.483 139.758C920.611 138.57 919.117 136.968 918.001 134.952C916.921 132.9 916.381 130.614 916.381 128.094C916.381 125.538 916.921 123.252 918.001 121.236C919.117 119.184 920.611 117.564 922.483 116.376C924.391 115.152 926.515 114.54 928.855 114.54C930.835 114.54 932.581 114.972 934.093 115.836C935.641 116.664 936.865 117.816 937.765 119.292C938.665 120.768 939.115 122.442 939.115 124.314V131.766C939.115 133.638 938.665 135.312 937.765 136.788C936.901 138.264 935.695 139.434 934.147 140.298C932.599 141.126 930.835 141.54 928.855 141.54ZM929.827 135.924C932.023 135.924 933.787 135.186 935.119 133.71C936.487 132.234 937.171 130.344 937.171 128.04C937.171 126.492 936.865 125.124 936.253 123.936C935.641 122.748 934.777 121.83 933.661 121.182C932.581 120.498 931.303 120.156 929.827 120.156C928.387 120.156 927.109 120.498 925.993 121.182C924.913 121.83 924.049 122.748 923.401 123.936C922.789 125.124 922.483 126.492 922.483 128.04C922.483 129.588 922.789 130.956 923.401 132.144C924.049 133.332 924.913 134.268 925.993 134.952C927.109 135.6 928.387 135.924 929.827 135.924ZM936.793 141V134.034L937.819 127.716L936.793 121.452V115.08H942.733V141H936.793ZM953.267 141V104.28H959.207V141H953.267ZM947.057 120.48V115.08H965.417V120.48H947.057ZM969.787 141V115.08H975.727V141H969.787ZM972.757 110.328C971.749 110.328 970.903 109.986 970.219 109.302C969.571 108.618 969.247 107.772 969.247 106.764C969.247 105.756 969.571 104.91 970.219 104.226C970.903 103.542 971.749 103.2 972.757 103.2C973.801 103.2 974.647 103.542 975.295 104.226C975.943 104.91 976.267 105.756 976.267 106.764C976.267 107.772 975.943 108.618 975.295 109.302C974.647 109.986 973.801 110.328 972.757 110.328ZM991.138 141L979.312 115.08H985.9L994.918 136.194H991.03L1000.1 115.08H1006.42L994.594 141H991.138ZM1021.06 141.54C1018.47 141.54 1016.13 140.964 1014.04 139.812C1011.99 138.624 1010.35 137.004 1009.13 134.952C1007.94 132.9 1007.35 130.596 1007.35 128.04C1007.35 125.484 1007.94 123.198 1009.13 121.182C1010.32 119.13 1011.92 117.51 1013.93 116.322C1015.99 115.134 1018.25 114.54 1020.74 114.54C1023.15 114.54 1025.27 115.098 1027.11 116.214C1028.98 117.33 1030.44 118.86 1031.48 120.804C1032.56 122.748 1033.1 124.962 1033.1 127.446C1033.1 127.878 1033.07 128.328 1033 128.796C1032.96 129.228 1032.89 129.714 1032.78 130.254H1011.5V125.394H1029.7L1027.49 127.338C1027.42 125.754 1027.11 124.422 1026.57 123.342C1026.03 122.262 1025.26 121.434 1024.25 120.858C1023.28 120.282 1022.07 119.994 1020.63 119.994C1019.12 119.994 1017.8 120.318 1016.69 120.966C1015.57 121.614 1014.71 122.532 1014.1 123.72C1013.48 124.872 1013.18 126.258 1013.18 127.878C1013.18 129.498 1013.5 130.92 1014.15 132.144C1014.8 133.368 1015.72 134.322 1016.9 135.006C1018.09 135.654 1019.46 135.978 1021.01 135.978C1022.34 135.978 1023.56 135.744 1024.68 135.276C1025.83 134.808 1026.8 134.124 1027.6 133.224L1031.38 137.058C1030.12 138.534 1028.59 139.65 1026.79 140.406C1024.99 141.162 1023.08 141.54 1021.06 141.54ZM1042.4 141.54C1041.25 141.54 1040.3 141.162 1039.54 140.406C1038.82 139.614 1038.46 138.66 1038.46 137.544C1038.46 136.392 1038.82 135.438 1039.54 134.682C1040.3 133.926 1041.25 133.548 1042.4 133.548C1043.55 133.548 1044.49 133.926 1045.21 134.682C1045.97 135.438 1046.34 136.392 1046.34 137.544C1046.34 138.66 1045.97 139.614 1045.21 140.406C1044.49 141.162 1043.55 141.54 1042.4 141.54ZM889.824 222L877.404 184.2H883.506L892.848 213.306H891.228L900.354 184.2H904.674L913.8 213.306H912.18L921.522 184.2H927.624L915.204 222H910.884L901.704 192.948H903.324L894.144 222H889.824ZM940.59 222.54C937.998 222.54 935.658 221.964 933.57 220.812C931.518 219.624 929.88 218.004 928.656 215.952C927.468 213.9 926.874 211.596 926.874 209.04C926.874 206.484 927.468 204.198 928.656 202.182C929.844 200.13 931.446 198.51 933.462 197.322C935.514 196.134 937.782 195.54 940.266 195.54C942.678 195.54 944.802 196.098 946.638 197.214C948.51 198.33 949.968 199.86 951.012 201.804C952.092 203.748 952.632 205.962 952.632 208.446C952.632 208.878 952.596 209.328 952.524 209.796C952.488 210.228 952.416 210.714 952.308 211.254H931.032V206.394H949.23L947.016 208.338C946.944 206.754 946.638 205.422 946.098 204.342C945.558 203.262 944.784 202.434 943.776 201.858C942.804 201.282 941.598 200.994 940.158 200.994C938.646 200.994 937.332 201.318 936.216 201.966C935.1 202.614 934.236 203.532 933.624 204.72C933.012 205.872 932.706 207.258 932.706 208.878C932.706 210.498 933.03 211.92 933.678 213.144C934.326 214.368 935.244 215.322 936.432 216.006C937.62 216.654 938.988 216.978 940.536 216.978C941.868 216.978 943.092 216.744 944.208 216.276C945.36 215.808 946.332 215.124 947.124 214.224L950.904 218.058C949.644 219.534 948.114 220.65 946.314 221.406C944.514 222.162 942.606 222.54 940.59 222.54ZM971.272 222.54C969.292 222.54 967.528 222.126 965.98 221.298C964.432 220.434 963.208 219.264 962.308 217.788C961.444 216.312 961.012 214.638 961.012 212.766V205.314C961.012 203.442 961.462 201.768 962.362 200.292C963.262 198.816 964.486 197.664 966.034 196.836C967.582 195.972 969.328 195.54 971.272 195.54C973.612 195.54 975.718 196.152 977.59 197.376C979.498 198.564 980.992 200.184 982.072 202.236C983.188 204.252 983.746 206.538 983.746 209.094C983.746 211.614 983.188 213.9 982.072 215.952C980.992 217.968 979.498 219.57 977.59 220.758C975.718 221.946 973.612 222.54 971.272 222.54ZM957.394 222V183.12H963.334V202.452L962.308 208.716L963.334 215.034V222H957.394ZM970.3 216.924C971.74 216.924 973 216.6 974.08 215.952C975.196 215.268 976.06 214.332 976.672 213.144C977.32 211.956 977.644 210.588 977.644 209.04C977.644 207.492 977.32 206.124 976.672 204.936C976.06 203.748 975.196 202.83 974.08 202.182C973 201.498 971.74 201.156 970.3 201.156C968.86 201.156 967.582 201.498 966.466 202.182C965.35 202.83 964.486 203.748 963.874 204.936C963.262 206.124 962.956 207.492 962.956 209.04C962.956 210.588 963.262 211.956 963.874 213.144C964.486 214.332 965.35 215.268 966.466 215.952C967.582 216.6 968.86 216.924 970.3 216.924ZM999.572 222.54C997.232 222.54 995.108 221.946 993.2 220.758C991.328 219.57 989.834 217.968 988.718 215.952C987.638 213.9 987.098 211.614 987.098 209.094C987.098 206.538 987.638 204.252 988.718 202.236C989.834 200.184 991.328 198.564 993.2 197.376C995.108 196.152 997.232 195.54 999.572 195.54C1001.55 195.54 1003.3 195.972 1004.81 196.836C1006.36 197.664 1007.58 198.816 1008.48 200.292C1009.38 201.768 1009.83 203.442 1009.83 205.314V212.766C1009.83 214.638 1009.38 216.312 1008.48 217.788C1007.62 219.264 1006.41 220.434 1004.86 221.298C1003.32 222.126 1001.55 222.54 999.572 222.54ZM1000.54 216.924C1002.74 216.924 1004.5 216.186 1005.84 214.71C1007.2 213.234 1007.89 211.344 1007.89 209.04C1007.89 207.492 1007.58 206.124 1006.97 204.936C1006.36 203.748 1005.49 202.83 1004.38 202.182C1003.3 201.498 1002.02 201.156 1000.54 201.156C999.104 201.156 997.826 201.498 996.71 202.182C995.63 202.83 994.766 203.748 994.118 204.936C993.506 206.124 993.2 207.492 993.2 209.04C993.2 210.588 993.506 211.956 994.118 213.144C994.766 214.332 995.63 215.268 996.71 215.952C997.826 216.6 999.104 216.924 1000.54 216.924ZM1007.51 222V215.034L1008.54 208.716L1007.51 202.452V196.08H1013.45V222H1007.51ZM1033.92 222.54C1031.94 222.54 1030.18 222.126 1028.63 221.298C1027.08 220.434 1025.86 219.264 1024.96 217.788C1024.09 216.312 1023.66 214.638 1023.66 212.766V205.314C1023.66 203.442 1024.11 201.768 1025.01 200.292C1025.91 198.816 1027.13 197.664 1028.68 196.836C1030.23 195.972 1031.98 195.54 1033.92 195.54C1036.26 195.54 1038.37 196.152 1040.24 197.376C1042.15 198.564 1043.64 200.184 1044.72 202.236C1045.84 204.252 1046.39 206.538 1046.39 209.094C1046.39 211.614 1045.84 213.9 1044.72 215.952C1043.64 217.968 1042.15 219.57 1040.24 220.758C1038.37 221.946 1036.26 222.54 1033.92 222.54ZM1020.04 232.8V196.08H1025.98V203.046L1024.96 209.364L1025.98 215.628V232.8H1020.04ZM1032.95 216.924C1034.39 216.924 1035.65 216.6 1036.73 215.952C1037.84 215.268 1038.71 214.332 1039.32 213.144C1039.97 211.956 1040.29 210.588 1040.29 209.04C1040.29 207.492 1039.97 206.124 1039.32 204.936C1038.71 203.748 1037.84 202.83 1036.73 202.182C1035.65 201.498 1034.39 201.156 1032.95 201.156C1031.51 201.156 1030.23 201.498 1029.11 202.182C1028 202.83 1027.13 203.748 1026.52 204.936C1025.91 206.124 1025.6 207.492 1025.6 209.04C1025.6 210.588 1025.91 211.956 1026.52 213.144C1027.13 214.332 1028 215.268 1029.11 215.952C1030.23 216.6 1031.51 216.924 1032.95 216.924ZM1065.24 222.54C1063.26 222.54 1061.5 222.126 1059.95 221.298C1058.4 220.434 1057.18 219.264 1056.28 217.788C1055.42 216.312 1054.98 214.638 1054.98 212.766V205.314C1054.98 203.442 1055.43 201.768 1056.33 200.292C1057.23 198.816 1058.46 197.664 1060.01 196.836C1061.55 195.972 1063.3 195.54 1065.24 195.54C1067.58 195.54 1069.69 196.152 1071.56 197.376C1073.47 198.564 1074.96 200.184 1076.04 202.236C1077.16 204.252 1077.72 206.538 1077.72 209.094C1077.72 211.614 1077.16 213.9 1076.04 215.952C1074.96 217.968 1073.47 219.57 1071.56 220.758C1069.69 221.946 1067.58 222.54 1065.24 222.54ZM1051.37 232.8V196.08H1057.31V203.046L1056.28 209.364L1057.31 215.628V232.8H1051.37ZM1064.27 216.924C1065.71 216.924 1066.97 216.6 1068.05 215.952C1069.17 215.268 1070.03 214.332 1070.64 213.144C1071.29 211.956 1071.62 210.588 1071.62 209.04C1071.62 207.492 1071.29 206.124 1070.64 204.936C1070.03 203.748 1069.17 202.83 1068.05 202.182C1066.97 201.498 1065.71 201.156 1064.27 201.156C1062.83 201.156 1061.55 201.498 1060.44 202.182C1059.32 202.83 1058.46 203.748 1057.85 204.936C1057.23 206.124 1056.93 207.492 1056.93 209.04C1056.93 210.588 1057.23 211.956 1057.85 213.144C1058.46 214.332 1059.32 215.268 1060.44 215.952C1061.55 216.6 1062.83 216.924 1064.27 216.924ZM1091.17 222.54C1089.73 222.54 1088.34 222.36 1087.01 222C1085.68 221.604 1084.45 221.064 1083.34 220.38C1082.22 219.66 1081.25 218.796 1080.42 217.788L1084.2 214.008C1085.1 215.052 1086.13 215.844 1087.28 216.384C1088.47 216.888 1089.8 217.14 1091.28 217.14C1092.61 217.14 1093.62 216.942 1094.3 216.546C1094.98 216.15 1095.33 215.574 1095.33 214.818C1095.33 214.026 1095 213.414 1094.35 212.982C1093.71 212.55 1092.86 212.19 1091.82 211.902C1090.81 211.578 1089.73 211.254 1088.58 210.93C1087.46 210.606 1086.38 210.174 1085.34 209.634C1084.33 209.058 1083.5 208.284 1082.85 207.312C1082.2 206.34 1081.88 205.08 1081.88 203.532C1081.88 201.876 1082.26 200.454 1083.01 199.266C1083.81 198.078 1084.9 197.16 1086.31 196.512C1087.75 195.864 1089.46 195.54 1091.44 195.54C1093.53 195.54 1095.36 195.918 1096.95 196.674C1098.57 197.394 1099.92 198.492 1101 199.968L1097.22 203.748C1096.46 202.812 1095.6 202.11 1094.62 201.642C1093.65 201.174 1092.54 200.94 1091.28 200.94C1090.09 200.94 1089.17 201.12 1088.52 201.48C1087.87 201.84 1087.55 202.362 1087.55 203.046C1087.55 203.766 1087.87 204.324 1088.52 204.72C1089.17 205.116 1090 205.458 1091.01 205.746C1092.05 206.034 1093.13 206.358 1094.25 206.718C1095.4 207.042 1096.48 207.51 1097.49 208.122C1098.53 208.698 1099.38 209.49 1100.02 210.498C1100.67 211.47 1101 212.748 1101 214.332C1101 216.852 1100.11 218.85 1098.35 220.326C1096.59 221.802 1094.19 222.54 1091.17 222.54ZM1110.43 222.54C1109.28 222.54 1108.32 222.162 1107.57 221.406C1106.85 220.614 1106.49 219.66 1106.49 218.544C1106.49 217.392 1106.85 216.438 1107.57 215.682C1108.32 214.926 1109.28 214.548 1110.43 214.548C1111.58 214.548 1112.52 214.926 1113.24 215.682C1113.99 216.438 1114.37 217.392 1114.37 218.544C1114.37 219.66 1113.99 220.614 1113.24 221.406C1112.52 222.162 1111.58 222.54 1110.43 222.54Z" fill="white"/>
<path d="M812.537 120.13H776.474V117.316H805.364C804.135 115.929 802.828 113.789 801.56 110.976H803.818C806.592 114.225 809.525 116.603 812.537 118.148V120.13ZM776.474 125.876H812.537V128.69H783.647C784.876 130.077 786.183 132.217 787.452 135.03H785.193C782.419 131.781 779.486 129.403 776.474 127.857V125.876Z" fill="white" fill-opacity="0.5"/>
<rect x="460" y="2" width="240" height="240" rx="63.75" fill="#3366FF"/>
<rect x="461.875" y="3.875" width="236.25" height="236.25" rx="61.875" stroke="white" stroke-opacity="0.17" stroke-width="3.75"/>
<g filter="url(#filter0_d_229_1482)">
<mask id="path-5-inside-1_229_1482" fill="white">
<path d="M610 42V168.863C613.301 162.914 617.094 157.275 621.322 152H665.235C647.704 163.656 634.495 181.294 628.52 202H580V81.9297C570.03 98.2645 556.265 112.03 539.931 122H570V152H500V106.664C531.626 98.524 556.525 73.6262 564.665 42H610Z"/>
</mask>
<path d="M610 42V168.863C613.301 162.914 617.094 157.275 621.322 152H665.235C647.704 163.656 634.495 181.294 628.52 202H580V81.9297C570.03 98.2645 556.265 112.03 539.931 122H570V152H500V106.664C531.626 98.524 556.525 73.6262 564.665 42H610Z" fill="url(#paint0_linear_229_1482)" shape-rendering="crispEdges"/>
<path d="M610 42H613.585C613.585 40.0203 611.98 38.4155 610 38.4155V42ZM610 168.863H606.415C606.415 170.497 607.52 171.924 609.102 172.333C610.683 172.743 612.342 172.031 613.134 170.602L610 168.863ZM621.322 152V148.415C620.235 148.415 619.206 148.909 618.525 149.758L621.322 152ZM665.235 152L667.22 154.985C668.536 154.11 669.124 152.476 668.667 150.963C668.21 149.451 666.816 148.415 665.235 148.415V152ZM628.52 202V205.585C630.116 205.585 631.521 204.528 631.964 202.994L628.52 202ZM580 202H576.415C576.415 203.98 578.02 205.585 580 205.585V202ZM580 81.9297H583.585C583.585 80.3236 582.516 78.9135 580.97 78.4789C579.424 78.0443 577.777 78.6912 576.94 80.0622L580 81.9297ZM539.931 122L538.063 118.94C536.692 119.777 536.045 121.424 536.48 122.97C536.914 124.516 538.325 125.585 539.931 125.585V122ZM570 122H573.585C573.585 120.02 571.98 118.415 570 118.415V122ZM570 152V155.585C571.98 155.585 573.585 153.98 573.585 152H570ZM500 152H496.415C496.415 153.98 498.02 155.585 500 155.585V152ZM500 106.664L499.107 103.193C497.523 103.6 496.415 105.028 496.415 106.664H500ZM564.665 42V38.4155C563.029 38.4155 561.601 39.5226 561.194 41.1065L564.665 42ZM610 42H606.415V168.863H610H613.585V42H610ZM610 168.863L613.134 170.602C616.337 164.831 620.016 159.36 624.119 154.242L621.322 152L618.525 149.758C614.172 155.189 610.266 160.996 606.866 167.124L610 168.863ZM621.322 152V155.585H665.235V152V148.415H621.322V152ZM665.235 152L663.251 149.015C645.027 161.131 631.291 179.468 625.076 201.006L628.52 202L631.964 202.994C637.699 183.119 650.381 166.18 667.22 154.985L665.235 152ZM628.52 202V198.415H580V202V205.585H628.52V202ZM580 202H583.585V81.9297H580H576.415V202H580ZM580 81.9297L576.94 80.0622C567.267 95.9105 553.911 109.267 538.063 118.94L539.931 122L541.798 125.06C558.619 114.792 572.792 100.618 583.06 83.7972L580 81.9297ZM539.931 122V125.585H570V122V118.415H539.931V122ZM570 122H566.415V152H570H573.585V122H570ZM570 152V148.415H500V152V155.585H570V152ZM500 152H503.585V106.664H500H496.415V152H500ZM500 106.664L500.893 110.135C533.784 101.67 559.671 75.7845 568.136 42.8935L564.665 42L561.194 41.1065C553.379 71.4679 529.468 95.3781 499.107 103.193L500 106.664ZM564.665 42V45.5845H610V42V38.4155H564.665V42Z" fill="white" fill-opacity="0.2" mask="url(#path-5-inside-1_229_1482)"/>
</g>
<path d="M85 147L100 92H130L145 147L160 92H190L160 202H130L115 147L100 202H70L40 92H70L85 147ZM250 92C280.376 92 305 116.624 305 147C305 152.2 304.277 157.232 302.929 162H229.999C234.56 168.072 241.821 172 250 172C256.904 172 263.153 169.201 267.677 164.677L288.891 185.891C278.938 195.844 265.188 202 250 202C219.624 202 195 177.376 195 147C195 116.624 219.624 92 250 92ZM350 100.896C358.628 95.2699 368.932 92 380 92C410.376 92 435 116.624 435 147C435 177.376 410.376 202 380 202C368.932 202 358.628 198.729 350 193.104V202H320V42H350V100.896ZM380 122C366.193 122 355 133.193 355 147C355 160.807 366.193 172 380 172C393.807 172 405 160.807 405 147C405 133.193 393.807 122 380 122ZM250 122C241.821 122 234.56 125.928 229.999 132H270.001C265.44 125.928 258.179 122 250 122Z" fill="white"/>
<defs>
<filter id="filter0_d_229_1482" x="483.272" y="27.6618" width="198.691" height="193.456" filterUnits="userSpaceOnUse" color-interpolation-filters="sRGB">
<feFlood flood-opacity="0" result="BackgroundImageFix"/>
<feColorMatrix in="SourceAlpha" type="matrix" values="0 0 0 0 0 0 0 0 0 0 0 0 0 0 0 0 0 0 127 0" result="hardAlpha"/>
<feOffset dy="2.38969"/>
<feGaussianBlur stdDeviation="8.36393"/>
<feComposite in2="hardAlpha" operator="out"/>
<feColorMatrix type="matrix" values="0 0 0 0 0 0 0 0 0 0 0 0 0 0 0 0 0 0 0.25 0"/>
<feBlend mode="normal" in2="BackgroundImageFix" result="effect1_dropShadow_229_1482"/>
<feBlend mode="normal" in="SourceGraphic" in2="effect1_dropShadow_229_1482" result="shape"/>
</filter>
<linearGradient id="paint0_linear_229_1482" x1="550.7" y1="100.357" x2="578.807" y2="185.006" gradientUnits="userSpaceOnUse">
<stop stop-color="white"/>
<stop offset="1" stop-color="white" stop-opacity="0.75"/>
</linearGradient>
</defs>
</svg>
