<svg width="1104" height="256" viewBox="0 0 1104 256" fill="none" xmlns="http://www.w3.org/2000/svg">
<path d="M371.883 188L345.6 141.579H334.336V188H310.443V68.8747H355.157C364.373 68.8747 372.224 70.5244 378.709 73.824C385.195 77.0098 390.03 81.3902 393.216 86.9653C396.516 92.4267 398.165 98.5707 398.165 105.397C398.165 113.248 395.89 120.359 391.339 126.731C386.788 132.988 380.018 137.312 371.029 139.701L399.531 188H371.883ZM334.336 123.659H354.304C360.789 123.659 365.625 122.123 368.811 119.051C371.997 115.865 373.589 111.484 373.589 105.909C373.589 100.448 371.997 96.2382 368.811 93.28C365.625 90.208 360.789 88.672 354.304 88.672H334.336V123.659ZM443.669 88.16V118.027H483.776V136.971H443.669V168.544H488.896V188H419.776V68.704H488.896V88.16H443.669ZM551.74 189.195C543.434 189.195 535.925 187.772 529.212 184.928C522.613 182.084 517.379 177.988 513.511 172.64C509.642 167.292 507.651 160.978 507.537 153.696H533.137C533.479 158.588 535.185 162.457 538.257 165.301C541.443 168.146 545.767 169.568 551.228 169.568C556.803 169.568 561.184 168.26 564.369 165.643C567.555 162.912 569.148 159.385 569.148 155.061C569.148 151.534 568.067 148.633 565.905 146.357C563.744 144.082 561.013 142.318 557.713 141.067C554.528 139.701 550.09 138.222 544.401 136.629C536.665 134.354 530.35 132.135 525.457 129.973C520.679 127.698 516.526 124.341 512.999 119.904C509.585 115.353 507.879 109.323 507.879 101.813C507.879 94.7591 509.642 88.6151 513.169 83.3813C516.697 78.1475 521.646 74.1653 528.017 71.4347C534.389 68.5902 541.671 67.168 549.863 67.168C562.151 67.168 572.106 70.1831 579.729 76.2133C587.466 82.1298 591.733 90.4355 592.529 101.131H566.247C566.019 97.0347 564.256 93.6782 560.956 91.0613C557.77 88.3307 553.504 86.9653 548.156 86.9653C543.491 86.9653 539.737 88.16 536.892 90.5493C534.161 92.9387 532.796 96.4089 532.796 100.96C532.796 104.146 533.82 106.82 535.868 108.981C538.03 111.029 540.647 112.736 543.719 114.101C546.905 115.353 551.342 116.832 557.031 118.539C564.768 120.814 571.082 123.09 575.975 125.365C580.867 127.641 585.077 131.054 588.604 135.605C592.131 140.156 593.895 146.13 593.895 153.525C593.895 159.897 592.245 165.813 588.945 171.275C585.646 176.736 580.81 181.116 574.439 184.416C568.067 187.602 560.501 189.195 551.74 189.195ZM695.676 68.8747V88.16H663.932V188H640.039V88.16H608.295V68.8747H695.676ZM756.459 113.077H739.904V188H715.669V113.077H704.917V93.4507H715.669V88.672C715.669 77.0667 718.969 68.5333 725.568 63.072C732.167 57.6107 742.123 55.0507 755.435 55.392V75.5307C749.632 75.4169 745.593 76.384 743.317 78.432C741.042 80.48 739.904 84.1778 739.904 89.5253V93.4507H756.459V113.077ZM861.201 93.4507V188H837.137V176.053C834.065 180.149 830.026 183.392 825.02 185.781C820.128 188.057 814.78 189.195 808.977 189.195C801.582 189.195 795.04 187.659 789.351 184.587C783.662 181.401 779.168 176.793 775.868 170.763C772.682 164.619 771.089 157.337 771.089 148.917V93.4507H794.983V145.504C794.983 153.013 796.86 158.816 800.615 162.912C804.369 166.894 809.489 168.885 815.975 168.885C822.574 168.885 827.751 166.894 831.505 162.912C835.26 158.816 837.137 153.013 837.137 145.504V93.4507H861.201ZM908.669 61.7067V188H884.776V61.7067H908.669ZM977.721 161.035C988.644 151.932 997.348 144.366 1003.83 138.336C1010.32 132.192 1015.72 125.82 1020.05 119.221C1024.37 112.622 1026.53 106.137 1026.53 99.7653C1026.53 93.9627 1025.17 89.4116 1022.44 86.112C1019.71 82.8124 1015.5 81.1627 1009.81 81.1627C1004.12 81.1627 999.737 83.0969 996.665 86.9653C993.593 90.72 992.001 95.8969 991.887 102.496H968.676C969.131 88.8427 973.17 78.4889 980.793 71.4347C988.53 64.3804 998.315 60.8533 1010.15 60.8533C1023.12 60.8533 1033.07 64.3235 1040.01 71.264C1046.96 78.0907 1050.43 87.136 1050.43 98.4C1050.43 107.275 1048.04 115.751 1043.26 123.829C1038.48 131.908 1033.02 138.962 1026.87 144.992C1020.73 150.908 1012.71 158.076 1002.81 166.496H1053.16V186.293H968.847V168.544L977.721 161.035Z" fill="white"/>
<path d="M128 31.9995C113.244 31.9996 100.666 37.2002 90.2664 47.6001C79.8666 58 74.6667 70.5781 74.6667 85.3335H69.3337C59.0227 85.3335 50.2222 88.9773 42.9333 96.2661C35.6445 103.555 31.9998 112.355 31.9998 122.667C31.9998 132.978 35.6445 141.778 42.9333 149.067C50.2222 156.356 59.0227 160 69.3337 160H74.6667V181.333H69.3337C53.156 181.333 39.3336 175.733 27.8669 164.533C16.4004 153.333 10.6667 139.644 10.6667 123.466C10.6668 109.6 14.8445 97.2443 23.2 86.3999C31.5554 75.5555 42.4888 68.6224 55.9998 65.6001C60.4442 49.2446 69.3335 36 82.6667 25.8667C96 15.7334 111.111 10.6666 128 10.6665C148.8 10.6665 166.444 17.911 180.933 32.3999C195.422 46.8888 202.667 64.5335 202.667 85.3335C214.933 86.7557 225.111 92.0443 233.2 101.2C241.289 110.355 245.334 121.067 245.334 133.333C245.334 146.667 240.667 158 231.334 167.333C222 176.667 210.667 181.333 197.334 181.333H181.334V160H197.334C204.8 159.999 211.111 157.422 216.266 152.266C221.422 147.111 224 140.8 224 133.333C224 125.867 221.422 119.555 216.266 114.4C211.111 109.245 204.8 106.667 197.334 106.667H181.334V85.3335C181.334 70.5779 176.133 58.0001 165.733 47.6001C155.333 37.2001 142.755 31.9995 128 31.9995Z" fill="#13B0B0"/>
<path d="M117.334 245.333H95.9998V132.957C89.724 136.588 82.4384 138.667 74.6667 138.667V117.333C86.4485 117.333 95.9992 107.783 95.9998 96.001V96H117.334V245.333ZM160 208.376C166.276 204.745 173.562 202.666 181.334 202.666V224C169.552 224 160.001 233.551 160.001 245.333H138.667V96H160V208.376Z" fill="#13B0B0"/>
</svg>
