<svg width="512" height="512" viewBox="0 0 512 512" fill="none" xmlns="http://www.w3.org/2000/svg">
<path d="M407 471.8L256 511.8L105 471.8L75 100.8H437L407 471.8ZM142 175.8L228.452 306.952L160.839 409.525L160.845 409.593L207.706 422.006L256 348.742L304.293 422.006L351.156 409.593L351.161 409.525L283.547 306.951L370 175.8H314.905L256 265.161L197.095 175.8H142Z" fill="black"/>
<path d="M141.208 18.3242L153.221 0H179.117L153.963 36.7021L180.156 72.7998H153.221L140.114 53.8359L127.117 72.7998H101.221L127.334 35.5361L101.74 0H128.677L141.208 18.3242ZM249.187 19.1357H226.099V72.7998H203.635V19.1357H181.171V0H249.187V19.1357ZM298.647 30.4189L317.604 0H336.325V72.7998H314.693V55.4316C314.693 49.1918 314.832 43.5759 315.109 38.584C315.159 37.8759 315.212 37.1686 315.27 36.4619L301.693 57.5117H294.829L281.639 36.6924C281.669 37.1484 281.699 37.606 281.725 38.0645C282.071 42.9176 282.245 48.7067 282.245 55.4316V72.7998H260.613V0H279.957L298.647 30.4189ZM375.397 53.6641H406.598V72.7998H352.934V0H375.397V53.6641Z" fill="black"/>
</svg>
