<svg width="91" height="32" viewBox="0 0 91 32" fill="none" xmlns="http://www.w3.org/2000/svg">
<path d="M91 0H59.1633V31.8367H91V0Z" fill="#512BD4"/>
<path d="M76.1004 17.5304V12.0067H76.0686L72.3118 17.5304H76.1004ZM77.3739 17.5304H78.902V18.7243H77.3739V21.3667H76.1004V18.7243H71.1498V17.4189L76.2914 10.0806H77.3739V17.5304Z" fill="white"/>
<path d="M9.1524 19.2346L11.1426 11.9387H15.1221L17.1114 19.2346L19.1016 11.9387H23.0821L19.1016 26.5305H15.1221L13.1319 19.2346L11.1426 26.5305H7.16315L3.18365 11.9387H7.16315L9.1524 19.2346ZM31.0411 11.9387C35.0704 11.9389 38.337 15.2053 38.337 19.2346C38.337 19.9248 38.2387 20.592 38.0596 21.2249H28.3887C28.9938 22.0298 29.9565 22.551 31.0411 22.551C31.9568 22.5509 32.7839 22.1776 33.3839 21.5774L36.2003 24.3938C34.88 25.714 33.0557 26.5304 31.0411 26.5305C27.0117 26.5305 23.7453 23.264 23.7452 19.2346C23.7452 15.2052 27.0117 11.9387 31.0411 11.9387ZM44.3057 13.1204C45.4503 12.3738 46.8168 11.9388 48.2852 11.9387C52.3146 11.9387 55.5811 15.2052 55.5811 19.2346C55.581 23.264 52.3146 26.5305 48.2852 26.5305C46.8167 26.5304 45.4504 26.0946 44.3057 25.3479V26.5305H40.3262V5.30591H44.3057V13.1204ZM48.2852 15.9182C46.4539 15.9185 44.9688 17.4032 44.9688 19.2346C44.9689 21.066 46.4539 22.5508 48.2852 22.551C50.1167 22.551 51.6015 21.0661 51.6016 19.2346C51.6016 17.4031 50.1168 15.9182 48.2852 15.9182ZM31.0411 15.9182C29.9565 15.9182 28.9938 16.4393 28.3887 17.2444H33.6934C33.0884 16.4394 32.1256 15.9183 31.0411 15.9182Z" fill="black"/>
</svg>
