<svg width="240" height="240" viewBox="0 0 240 240" fill="none" xmlns="http://www.w3.org/2000/svg">
<path d="M64.047 195.23V209.386H56.2229V172.49H66.9736C71.9854 172.49 75.6954 173.403 78.102 175.228C80.5085 177.055 81.7109 179.825 81.7109 183.542C81.7109 185.713 81.113 187.645 79.9172 189.334C78.7231 191.025 77.032 192.352 74.8441 193.311L85.6959 209.385H77.0138L68.2075 195.229L64.047 195.23ZM64.047 188.87H66.5711C69.0423 188.87 70.8691 188.456 72.0467 187.633C73.2227 186.808 73.8123 185.513 73.8123 183.747C73.8123 181.997 73.2111 180.753 72.0086 180.013C70.8062 179.272 68.9429 178.901 66.4188 178.901H64.047V188.87ZM109.723 209.386L108.688 205.777H108.284C107.459 207.091 106.288 208.103 104.776 208.818C103.26 209.534 101.535 209.89 99.6017 209.89C96.2859 209.89 93.79 209.004 92.1056 207.228C90.4228 205.453 89.5814 202.9 89.5814 199.57V181.172H97.2797V197.652C97.2797 199.687 97.6407 201.214 98.3662 202.233C99.0883 203.251 100.239 203.758 101.821 203.758C103.976 203.758 105.531 203.038 106.49 201.602C107.449 200.163 107.929 197.779 107.929 194.448V181.174H115.626V209.388L109.723 209.386ZM139.4 180.64C142.73 180.64 145.339 181.942 147.226 184.541C149.109 187.139 150.051 190.702 150.051 195.229C150.051 199.888 149.079 203.497 147.138 206.052C145.195 208.611 142.548 209.888 139.199 209.888C135.887 209.888 133.287 208.684 131.402 206.277H130.872L129.586 209.383H123.705V170.118H131.402V179.254C131.402 180.415 131.299 182.273 131.097 184.832H131.402C133.2 182.04 135.869 180.64 139.4 180.64ZM136.927 186.8C135.027 186.8 133.639 187.385 132.765 188.554C131.89 189.725 131.435 191.654 131.402 194.347V195.179C131.402 198.208 131.851 200.378 132.75 201.691C133.651 203.003 135.077 203.659 137.028 203.659C138.61 203.659 139.865 202.93 140.801 201.476C141.735 200.022 142.202 197.905 142.202 195.129C142.202 192.353 141.728 190.27 140.788 188.882C139.847 187.494 138.56 186.8 136.927 186.8ZM151.868 181.172H160.295L165.62 197.045C166.075 198.425 166.387 200.057 166.554 201.941H166.706C166.89 200.209 167.251 198.576 167.79 197.045L173.013 181.172H181.266L169.33 212.995C168.235 215.938 166.677 218.143 164.649 219.607C162.62 221.071 160.254 221.801 157.544 221.801C156.214 221.801 154.911 221.659 153.634 221.372V215.266C154.558 215.483 155.566 215.592 156.661 215.592C158.023 215.592 159.213 215.176 160.232 214.343C161.251 213.512 162.046 212.255 162.617 210.572L163.071 209.182L151.868 181.172Z" fill="#9E0C01"/>
<path d="M158.962 111.332L77.9941 159.41L182.835 152.298L190.909 46.583L158.962 111.332Z" fill="url(#paint0_linear_125_2519)"/>
<path d="M183.005 152.225L173.994 90.0293L149.451 122.442L183.005 152.225Z" fill="url(#paint1_linear_125_2519)"/>
<path d="M183.126 152.225L117.111 147.043L78.3469 159.274L183.126 152.225Z" fill="url(#paint2_linear_125_2519)"/>
<path d="M78.438 159.29L94.9293 105.263L58.6409 113.024L78.438 159.29Z" fill="url(#paint3_linear_125_2519)"/>
<path d="M149.443 122.619L134.268 63.1816L90.8433 103.887L149.443 122.619Z" fill="url(#paint4_linear_125_2519)"/>
<path d="M187.466 64.0206L146.416 30.4932L134.986 67.4491L187.466 64.0206Z" fill="url(#paint5_linear_125_2519)"/>
<path d="M168.266 18.5392L144.125 31.882L128.892 18.3604L168.266 18.5392Z" fill="url(#paint6_linear_125_2519)"/>
<path d="M49.0925 131.147L59.2072 112.701L51.0237 90.7275L49.0925 131.147Z" fill="url(#paint7_linear_125_2519)"/>
<path d="M50.4805 90.0312L58.712 113.381L94.4788 105.356L135.314 67.4068L146.838 30.8037L128.694 17.9893L97.8426 29.535C88.1237 38.5748 69.2623 56.4623 68.5816 56.7985C67.9092 57.143 56.1283 79.4113 50.4805 90.0312Z" fill="white"/>
<path d="M79.3839 48.0872C100.45 27.2003 127.606 14.8612 138.027 25.3767C148.443 35.8906 137.397 61.4432 116.332 82.3219C95.2674 103.202 68.446 116.222 58.0332 105.707C47.6088 95.1993 58.3197 68.9659 79.3839 48.0872Z" fill="url(#paint8_linear_125_2519)"/>
<path d="M78.438 159.267L94.8001 105.068L149.143 122.527C129.494 140.953 107.641 156.526 78.438 159.267Z" fill="url(#paint9_linear_125_2519)"/>
<path d="M135.385 67.2995L149.336 122.557C165.749 105.3 180.48 86.7471 187.693 63.7998L135.385 67.2995Z" fill="url(#paint10_linear_125_2519)"/>
<path d="M187.55 64.0781C193.133 47.2274 194.42 23.0561 168.096 18.5693L146.493 30.501L187.55 64.0781Z" fill="url(#paint11_linear_125_2519)"/>
<path d="M49.0925 130.903C49.866 158.71 69.9298 159.126 78.4761 159.371L58.7336 113.266L49.0925 130.903Z" fill="#9E1209"/>
<path d="M135.464 67.3843C148.077 75.1356 173.492 90.7043 174.007 90.9909C174.809 91.4414 184.966 73.8619 187.27 63.9277L135.464 67.3843Z" fill="url(#paint12_radial_125_2519)"/>
<path d="M94.7786 105.07L116.653 147.272C129.588 140.257 139.714 131.711 148.993 122.557L94.7786 105.07Z" fill="url(#paint13_radial_125_2519)"/>
<path d="M58.6476 113.324L55.5471 150.228C61.397 158.216 69.4414 158.909 77.8817 158.288C71.7751 143.092 59.5784 112.706 58.6476 113.324Z" fill="url(#paint14_linear_125_2519)"/>
<path d="M146.366 30.5962L189.821 36.6961C187.501 26.8663 180.379 20.5262 168.24 18.542L146.366 30.5962Z" fill="url(#paint15_linear_125_2519)"/>
<defs>
<linearGradient id="paint0_linear_125_2519" x1="173.691" y1="172.272" x2="143.774" y2="119.451" gradientUnits="userSpaceOnUse">
<stop stop-color="#FB7655"/>
<stop offset="0.41" stop-color="#E42B1E"/>
<stop offset="0.99" stop-color="#990000"/>
<stop offset="1" stop-color="#990000"/>
</linearGradient>
<linearGradient id="paint1_linear_125_2519" x1="188.59" y1="127.901" x2="150.034" y2="102.029" gradientUnits="userSpaceOnUse">
<stop stop-color="#871101"/>
<stop offset="0.99" stop-color="#911209"/>
<stop offset="1" stop-color="#911209"/>
</linearGradient>
<linearGradient id="paint2_linear_125_2519" x1="157.741" y1="173.874" x2="119.185" y2="148.002" gradientUnits="userSpaceOnUse">
<stop stop-color="#871101"/>
<stop offset="0.99" stop-color="#911209"/>
<stop offset="1" stop-color="#911209"/>
</linearGradient>
<linearGradient id="paint3_linear_125_2519" x1="76.7901" y1="109.168" x2="82.7675" y2="148.014" gradientUnits="userSpaceOnUse">
<stop stop-color="white"/>
<stop offset="0.23" stop-color="#E57252"/>
<stop offset="0.46" stop-color="#DE3B20"/>
<stop offset="0.99" stop-color="#A60003"/>
<stop offset="1" stop-color="#A60003"/>
</linearGradient>
<linearGradient id="paint4_linear_125_2519" x1="117.901" y1="72.8972" x2="120.104" y2="112.543" gradientUnits="userSpaceOnUse">
<stop stop-color="white"/>
<stop offset="0.23" stop-color="#E4714E"/>
<stop offset="0.56" stop-color="#BE1A0D"/>
<stop offset="0.99" stop-color="#A80D00"/>
<stop offset="1" stop-color="#A80D00"/>
</linearGradient>
<linearGradient id="paint5_linear_125_2519" x1="154.385" y1="36.2553" x2="160.979" y2="64.6699" gradientUnits="userSpaceOnUse">
<stop stop-color="white"/>
<stop offset="0.18" stop-color="#E46342"/>
<stop offset="0.4" stop-color="#C82410"/>
<stop offset="0.99" stop-color="#A80D00"/>
<stop offset="1" stop-color="#A80D00"/>
</linearGradient>
<linearGradient id="paint6_linear_125_2519" x1="134.252" y1="26.2491" x2="162.662" y2="12.0451" gradientUnits="userSpaceOnUse">
<stop stop-color="white"/>
<stop offset="0.54" stop-color="#C81F11"/>
<stop offset="0.99" stop-color="#BF0905"/>
<stop offset="1" stop-color="#BF0905"/>
</linearGradient>
<linearGradient id="paint7_linear_125_2519" x1="51.8866" y1="99.2672" x2="54.2252" y2="122.68" gradientUnits="userSpaceOnUse">
<stop stop-color="white"/>
<stop offset="0.31" stop-color="#DE4024"/>
<stop offset="0.99" stop-color="#BF190B"/>
<stop offset="1" stop-color="#BF190B"/>
</linearGradient>
<linearGradient id="paint8_linear_125_2519" x1="35.8113" y1="129.005" x2="145.732" y2="15.9775" gradientUnits="userSpaceOnUse">
<stop stop-color="#BD0012"/>
<stop offset="0.07" stop-color="white"/>
<stop offset="0.17" stop-color="white"/>
<stop offset="0.27" stop-color="#C82F1C"/>
<stop offset="0.33" stop-color="#820C01"/>
<stop offset="0.46" stop-color="#A31601"/>
<stop offset="0.72" stop-color="#B31301"/>
<stop offset="0.99" stop-color="#E82609"/>
<stop offset="1" stop-color="#E82609"/>
</linearGradient>
<linearGradient id="paint9_linear_125_2519" x1="120.008" y1="140.409" x2="86.8981" y2="132.237" gradientUnits="userSpaceOnUse">
<stop stop-color="#8C0C01"/>
<stop offset="0.54" stop-color="#990C00"/>
<stop offset="0.99" stop-color="#A80D0E"/>
<stop offset="1" stop-color="#A80D0E"/>
</linearGradient>
<linearGradient id="paint10_linear_125_2519" x1="176.874" y1="100.671" x2="147.461" y2="74.3104" gradientUnits="userSpaceOnUse">
<stop stop-color="#7E110B"/>
<stop offset="0.99" stop-color="#9E0C00"/>
<stop offset="1" stop-color="#9E0C00"/>
</linearGradient>
<linearGradient id="paint11_linear_125_2519" x1="187.681" y1="52.3022" x2="173.03" y2="36.639" gradientUnits="userSpaceOnUse">
<stop stop-color="#79130D"/>
<stop offset="0.99" stop-color="#9E120B"/>
<stop offset="1" stop-color="#9E120B"/>
</linearGradient>
<radialGradient id="paint12_radial_125_2519" cx="0" cy="0" r="1" gradientUnits="userSpaceOnUse" gradientTransform="translate(152.043 74.8159) scale(36.0433 36.0433)">
<stop stop-color="#A80D00"/>
<stop offset="0.99" stop-color="#7E0E08"/>
<stop offset="1" stop-color="#7E0E08"/>
</radialGradient>
<radialGradient id="paint13_radial_125_2519" cx="0" cy="0" r="1" gradientUnits="userSpaceOnUse" gradientTransform="translate(102.124 122.315) scale(47.9186 47.9186)">
<stop stop-color="#A30C00"/>
<stop offset="0.99" stop-color="#800E08"/>
<stop offset="1" stop-color="#800E08"/>
</radialGradient>
<linearGradient id="paint14_linear_125_2519" x1="68.1827" y1="159.238" x2="56.2427" y2="118.731" gradientUnits="userSpaceOnUse">
<stop stop-color="#8B2114"/>
<stop offset="0.43" stop-color="#9E100A"/>
<stop offset="0.99" stop-color="#B3100C"/>
<stop offset="1" stop-color="#B3100C"/>
</linearGradient>
<linearGradient id="paint15_linear_125_2519" x1="159.78" y1="25.0047" x2="186.548" y2="36.8204" gradientUnits="userSpaceOnUse">
<stop stop-color="#B31000"/>
<stop offset="0.44" stop-color="#910F08"/>
<stop offset="0.99" stop-color="#791C12"/>
<stop offset="1" stop-color="#791C12"/>
</linearGradient>
</defs>
</svg>
