<svg width="1166" height="240" viewBox="0 0 1166 240" fill="none" xmlns="http://www.w3.org/2000/svg">
<path d="M990.047 195.23V209.386H982.223V172.49H992.974C997.985 172.49 1001.7 173.403 1004.1 175.228C1006.51 177.055 1007.71 179.825 1007.71 183.542C1007.71 185.713 1007.11 187.645 1005.92 189.334C1004.72 191.025 1003.03 192.352 1000.84 193.311L1011.7 209.385H1003.01L994.208 195.229L990.047 195.23ZM990.047 188.87H992.571C995.042 188.87 996.869 188.456 998.047 187.633C999.223 186.808 999.812 185.513 999.812 183.747C999.812 181.997 999.211 180.753 998.009 180.013C996.806 179.272 994.943 178.901 992.419 178.901H990.047V188.87ZM1035.72 209.386L1034.69 205.777H1034.28C1033.46 207.091 1032.29 208.103 1030.78 208.818C1029.26 209.534 1027.53 209.89 1025.6 209.89C1022.29 209.89 1019.79 209.004 1018.11 207.228C1016.42 205.453 1015.58 202.9 1015.58 199.57V181.172H1023.28V197.652C1023.28 199.687 1023.64 201.214 1024.37 202.233C1025.09 203.251 1026.24 203.758 1027.82 203.758C1029.98 203.758 1031.53 203.038 1032.49 201.602C1033.45 200.163 1033.93 197.779 1033.93 194.448V181.174H1041.63V209.388L1035.72 209.386ZM1065.4 180.64C1068.73 180.64 1071.34 181.942 1073.23 184.541C1075.11 187.139 1076.05 190.702 1076.05 195.229C1076.05 199.888 1075.08 203.497 1073.14 206.052C1071.19 208.611 1068.55 209.888 1065.2 209.888C1061.89 209.888 1059.29 208.684 1057.4 206.277H1056.87L1055.59 209.383H1049.71V170.118H1057.4V179.254C1057.4 180.415 1057.3 182.273 1057.1 184.832H1057.4C1059.2 182.04 1061.87 180.64 1065.4 180.64ZM1062.93 186.8C1061.03 186.8 1059.64 187.385 1058.76 188.554C1057.89 189.725 1057.43 191.654 1057.4 194.347V195.179C1057.4 198.208 1057.85 200.378 1058.75 201.691C1059.65 203.003 1061.08 203.659 1063.03 203.659C1064.61 203.659 1065.87 202.93 1066.8 201.476C1067.74 200.022 1068.2 197.905 1068.2 195.129C1068.2 192.353 1067.73 190.27 1066.79 188.882C1065.85 187.494 1064.56 186.8 1062.93 186.8ZM1077.87 181.172H1086.3L1091.62 197.045C1092.08 198.425 1092.39 200.057 1092.55 201.941H1092.71C1092.89 200.209 1093.25 198.576 1093.79 197.045L1099.01 181.172H1107.27L1095.33 212.995C1094.24 215.938 1092.68 218.143 1090.65 219.607C1088.62 221.071 1086.25 221.801 1083.54 221.801C1082.21 221.801 1080.91 221.659 1079.63 221.372V215.266C1080.56 215.483 1081.57 215.592 1082.66 215.592C1084.02 215.592 1085.21 215.176 1086.23 214.343C1087.25 213.512 1088.05 212.255 1088.62 210.572L1089.07 209.182L1077.87 181.172Z" fill="#9E0C01"/>
<path d="M1084.96 111.332L1003.99 159.41L1108.83 152.298L1116.91 46.583L1084.96 111.332Z" fill="url(#paint0_linear_228_1208)"/>
<path d="M1109.01 152.225L1099.99 90.0293L1075.45 122.442L1109.01 152.225Z" fill="url(#paint1_linear_228_1208)"/>
<path d="M1109.13 152.225L1043.11 147.043L1004.35 159.274L1109.13 152.225Z" fill="url(#paint2_linear_228_1208)"/>
<path d="M1004.44 159.29L1020.93 105.263L984.641 113.024L1004.44 159.29Z" fill="url(#paint3_linear_228_1208)"/>
<path d="M1075.44 122.619L1060.27 63.1816L1016.84 103.887L1075.44 122.619Z" fill="url(#paint4_linear_228_1208)"/>
<path d="M1113.47 64.0206L1072.42 30.4932L1060.99 67.4491L1113.47 64.0206Z" fill="url(#paint5_linear_228_1208)"/>
<path d="M1094.27 18.5392L1070.12 31.882L1054.89 18.3604L1094.27 18.5392Z" fill="url(#paint6_linear_228_1208)"/>
<path d="M975.093 131.147L985.207 112.701L977.024 90.7275L975.093 131.147Z" fill="url(#paint7_linear_228_1208)"/>
<path d="M976.48 90.0312L984.712 113.381L1020.48 105.356L1061.31 67.4068L1072.84 30.8037L1054.69 17.9893L1023.84 29.535C1014.12 38.5748 995.262 56.4623 994.582 56.7985C993.909 57.143 982.128 79.4113 976.48 90.0312Z" fill="white"/>
<path d="M1005.38 48.0872C1026.45 27.2003 1053.61 14.8612 1064.03 25.3767C1074.44 35.8906 1063.4 61.4432 1042.33 82.3219C1021.27 103.202 994.446 116.222 984.033 105.707C973.609 95.1993 984.32 68.9659 1005.38 48.0872Z" fill="url(#paint8_linear_228_1208)"/>
<path d="M1004.44 159.267L1020.8 105.068L1075.14 122.527C1055.49 140.953 1033.64 156.526 1004.44 159.267Z" fill="url(#paint9_linear_228_1208)"/>
<path d="M1061.39 67.2995L1075.34 122.557C1091.75 105.3 1106.48 86.7471 1113.69 63.7998L1061.39 67.2995Z" fill="url(#paint10_linear_228_1208)"/>
<path d="M1113.55 64.0781C1119.13 47.2274 1120.42 23.0561 1094.1 18.5693L1072.49 30.501L1113.55 64.0781Z" fill="url(#paint11_linear_228_1208)"/>
<path d="M975.093 130.903C975.866 158.71 995.93 159.126 1004.48 159.371L984.734 113.266L975.093 130.903Z" fill="#9E1209"/>
<path d="M1061.46 67.3843C1074.08 75.1356 1099.49 90.7043 1100.01 90.9909C1100.81 91.4414 1110.97 73.8619 1113.27 63.9277L1061.46 67.3843Z" fill="url(#paint12_radial_228_1208)"/>
<path d="M1020.78 105.07L1042.65 147.272C1055.59 140.257 1065.71 131.711 1074.99 122.557L1020.78 105.07Z" fill="url(#paint13_radial_228_1208)"/>
<path d="M984.648 113.324L981.547 150.228C987.397 158.216 995.441 158.909 1003.88 158.288C997.775 143.092 985.578 112.706 984.648 113.324Z" fill="url(#paint14_linear_228_1208)"/>
<path d="M1072.37 30.5962L1115.82 36.6961C1113.5 26.8663 1106.38 20.5262 1094.24 18.542L1072.37 30.5962Z" fill="url(#paint15_linear_228_1208)"/>
<path d="M800.345 149.899L806 155L811.655 149.899C818.22 143.948 823.647 138.815 827.938 134.499C832.228 130.183 835.64 126.308 838.175 122.875C840.71 119.441 842.481 116.286 843.489 113.409C844.496 110.531 845 107.589 845 104.58C845 98.4332 842.952 93.2997 838.857 89.1798C834.762 85.0599 829.66 83 823.55 83C820.17 83 816.952 83.7193 813.897 85.158C810.842 86.5967 808.21 88.624 806 91.2398C803.79 88.624 801.158 86.5967 798.103 85.158C795.048 83.7193 791.83 83 788.45 83C782.34 83 777.237 85.0599 773.142 89.1798C769.047 93.2997 767 98.4332 767 104.58C767 107.589 767.504 110.531 768.511 113.409C769.519 116.286 771.29 119.441 773.825 122.875C776.36 126.308 779.773 130.183 784.062 134.499C788.352 138.815 793.78 143.948 800.345 149.899Z" fill="#D71104"/>
<mask id="mask0_228_1208" style="mask-type:alpha" maskUnits="userSpaceOnUse" x="446" y="0" width="240" height="240">
<rect x="446" width="240" height="240" rx="64" fill="white"/>
</mask>
<g mask="url(#mask0_228_1208)">
<path d="M581 35H631V135H651V185H631V205H581V185H481V135L581 35Z" fill="#9E0C01"/>
<path d="M631.45 185.107L631 186L530 135L530.451 134.108L631.45 185.107Z" fill="url(#paint16_linear_228_1208)"/>
<path d="M631 185L631 186L481 186V185H631Z" fill="url(#paint17_linear_228_1208)"/>
<path d="M631.892 185.549L631 186L580 85.0002L580.893 84.5495L631.892 185.549Z" fill="url(#paint18_linear_228_1208)"/>
<path d="M632 186L631 186L631 35.0002L632 35.0002V186Z" fill="url(#paint19_linear_228_1208)"/>
<path d="M630.293 34.293L631 35.0002L480.943 184.943L480.236 184.236L630.293 34.293Z" fill="url(#paint20_linear_228_1208)"/>
<path d="M531 134V135H481V134H531Z" fill="url(#paint21_linear_228_1208)"/>
<path d="M531 135H530V85.0002H531V135Z" fill="url(#paint22_linear_228_1208)"/>
<path d="M581 84.0002V85.0002H531V84.0002H581Z" fill="url(#paint23_linear_228_1208)"/>
<path d="M581 85.0002H580V35.0002H581V85.0002Z" fill="url(#paint24_linear_228_1208)"/>
</g>
<path d="M69 145L84 90H114L129 145L144 90H174L144 200H114L99 145L84 200H54L24 90H54L69 145ZM234 90C264.376 90 289 114.624 289 145C289 150.2 288.277 155.232 286.929 160H213.999C218.56 166.072 225.821 170 234 170C240.904 170 247.153 167.201 251.677 162.677L272.891 183.891C262.938 193.844 249.188 200 234 200C203.624 200 179 175.376 179 145C179 114.624 203.624 90 234 90ZM334 98.8955C342.628 93.2699 352.932 90 364 90C394.376 90 419 114.624 419 145C419 175.376 394.376 200 364 200C352.932 200 342.628 196.729 334 191.104V200H304V40H334V98.8955ZM364 120C350.193 120 339 131.193 339 145C339 158.807 350.193 170 364 170C377.807 170 389 158.807 389 145C389 131.193 377.807 120 364 120ZM234 120C225.821 120 218.56 123.928 213.999 130H254.001C249.44 123.928 242.179 120 234 120Z" fill="white"/>
<defs>
<linearGradient id="paint0_linear_228_1208" x1="1099.69" y1="172.272" x2="1069.77" y2="119.451" gradientUnits="userSpaceOnUse">
<stop stop-color="#FB7655"/>
<stop offset="0.41" stop-color="#E42B1E"/>
<stop offset="0.99" stop-color="#990000"/>
<stop offset="1" stop-color="#990000"/>
</linearGradient>
<linearGradient id="paint1_linear_228_1208" x1="1114.59" y1="127.901" x2="1076.03" y2="102.029" gradientUnits="userSpaceOnUse">
<stop stop-color="#871101"/>
<stop offset="0.99" stop-color="#911209"/>
<stop offset="1" stop-color="#911209"/>
</linearGradient>
<linearGradient id="paint2_linear_228_1208" x1="1083.74" y1="173.874" x2="1045.19" y2="148.002" gradientUnits="userSpaceOnUse">
<stop stop-color="#871101"/>
<stop offset="0.99" stop-color="#911209"/>
<stop offset="1" stop-color="#911209"/>
</linearGradient>
<linearGradient id="paint3_linear_228_1208" x1="1002.79" y1="109.168" x2="1008.77" y2="148.014" gradientUnits="userSpaceOnUse">
<stop stop-color="white"/>
<stop offset="0.23" stop-color="#E57252"/>
<stop offset="0.46" stop-color="#DE3B20"/>
<stop offset="0.99" stop-color="#A60003"/>
<stop offset="1" stop-color="#A60003"/>
</linearGradient>
<linearGradient id="paint4_linear_228_1208" x1="1043.9" y1="72.8972" x2="1046.1" y2="112.543" gradientUnits="userSpaceOnUse">
<stop stop-color="white"/>
<stop offset="0.23" stop-color="#E4714E"/>
<stop offset="0.56" stop-color="#BE1A0D"/>
<stop offset="0.99" stop-color="#A80D00"/>
<stop offset="1" stop-color="#A80D00"/>
</linearGradient>
<linearGradient id="paint5_linear_228_1208" x1="1080.39" y1="36.2553" x2="1086.98" y2="64.6699" gradientUnits="userSpaceOnUse">
<stop stop-color="white"/>
<stop offset="0.18" stop-color="#E46342"/>
<stop offset="0.4" stop-color="#C82410"/>
<stop offset="0.99" stop-color="#A80D00"/>
<stop offset="1" stop-color="#A80D00"/>
</linearGradient>
<linearGradient id="paint6_linear_228_1208" x1="1060.25" y1="26.2491" x2="1088.66" y2="12.0451" gradientUnits="userSpaceOnUse">
<stop stop-color="white"/>
<stop offset="0.54" stop-color="#C81F11"/>
<stop offset="0.99" stop-color="#BF0905"/>
<stop offset="1" stop-color="#BF0905"/>
</linearGradient>
<linearGradient id="paint7_linear_228_1208" x1="977.887" y1="99.2672" x2="980.225" y2="122.68" gradientUnits="userSpaceOnUse">
<stop stop-color="white"/>
<stop offset="0.31" stop-color="#DE4024"/>
<stop offset="0.99" stop-color="#BF190B"/>
<stop offset="1" stop-color="#BF190B"/>
</linearGradient>
<linearGradient id="paint8_linear_228_1208" x1="961.811" y1="129.005" x2="1071.73" y2="15.9775" gradientUnits="userSpaceOnUse">
<stop stop-color="#BD0012"/>
<stop offset="0.07" stop-color="white"/>
<stop offset="0.17" stop-color="white"/>
<stop offset="0.27" stop-color="#C82F1C"/>
<stop offset="0.33" stop-color="#820C01"/>
<stop offset="0.46" stop-color="#A31601"/>
<stop offset="0.72" stop-color="#B31301"/>
<stop offset="0.99" stop-color="#E82609"/>
<stop offset="1" stop-color="#E82609"/>
</linearGradient>
<linearGradient id="paint9_linear_228_1208" x1="1046.01" y1="140.409" x2="1012.9" y2="132.237" gradientUnits="userSpaceOnUse">
<stop stop-color="#8C0C01"/>
<stop offset="0.54" stop-color="#990C00"/>
<stop offset="0.99" stop-color="#A80D0E"/>
<stop offset="1" stop-color="#A80D0E"/>
</linearGradient>
<linearGradient id="paint10_linear_228_1208" x1="1102.87" y1="100.671" x2="1073.46" y2="74.3104" gradientUnits="userSpaceOnUse">
<stop stop-color="#7E110B"/>
<stop offset="0.99" stop-color="#9E0C00"/>
<stop offset="1" stop-color="#9E0C00"/>
</linearGradient>
<linearGradient id="paint11_linear_228_1208" x1="1113.68" y1="52.3022" x2="1099.03" y2="36.639" gradientUnits="userSpaceOnUse">
<stop stop-color="#79130D"/>
<stop offset="0.99" stop-color="#9E120B"/>
<stop offset="1" stop-color="#9E120B"/>
</linearGradient>
<radialGradient id="paint12_radial_228_1208" cx="0" cy="0" r="1" gradientUnits="userSpaceOnUse" gradientTransform="translate(1078.04 74.8159) scale(36.0433 36.0433)">
<stop stop-color="#A80D00"/>
<stop offset="0.99" stop-color="#7E0E08"/>
<stop offset="1" stop-color="#7E0E08"/>
</radialGradient>
<radialGradient id="paint13_radial_228_1208" cx="0" cy="0" r="1" gradientUnits="userSpaceOnUse" gradientTransform="translate(1028.12 122.315) scale(47.9186 47.9186)">
<stop stop-color="#A30C00"/>
<stop offset="0.99" stop-color="#800E08"/>
<stop offset="1" stop-color="#800E08"/>
</radialGradient>
<linearGradient id="paint14_linear_228_1208" x1="994.183" y1="159.238" x2="982.243" y2="118.731" gradientUnits="userSpaceOnUse">
<stop stop-color="#8B2114"/>
<stop offset="0.43" stop-color="#9E100A"/>
<stop offset="0.99" stop-color="#B3100C"/>
<stop offset="1" stop-color="#B3100C"/>
</linearGradient>
<linearGradient id="paint15_linear_228_1208" x1="1085.78" y1="25.0047" x2="1112.55" y2="36.8204" gradientUnits="userSpaceOnUse">
<stop stop-color="#B31000"/>
<stop offset="0.44" stop-color="#910F08"/>
<stop offset="0.99" stop-color="#791C12"/>
<stop offset="1" stop-color="#791C12"/>
</linearGradient>
<linearGradient id="paint16_linear_228_1208" x1="531" y1="84.5005" x2="632" y2="186" gradientUnits="userSpaceOnUse">
<stop stop-color="white" stop-opacity="0.5"/>
<stop offset="1" stop-color="#CC0000" stop-opacity="0"/>
</linearGradient>
<linearGradient id="paint17_linear_228_1208" x1="531" y1="84.5005" x2="632" y2="186" gradientUnits="userSpaceOnUse">
<stop stop-color="white" stop-opacity="0.5"/>
<stop offset="1" stop-color="#CC0000" stop-opacity="0"/>
</linearGradient>
<linearGradient id="paint18_linear_228_1208" x1="531" y1="84.5005" x2="632" y2="186" gradientUnits="userSpaceOnUse">
<stop stop-color="white" stop-opacity="0.5"/>
<stop offset="1" stop-color="#CC0000" stop-opacity="0"/>
</linearGradient>
<linearGradient id="paint19_linear_228_1208" x1="531" y1="84.5005" x2="632" y2="186" gradientUnits="userSpaceOnUse">
<stop stop-color="white" stop-opacity="0.5"/>
<stop offset="1" stop-color="#CC0000" stop-opacity="0"/>
</linearGradient>
<linearGradient id="paint20_linear_228_1208" x1="531" y1="84.5005" x2="632" y2="186" gradientUnits="userSpaceOnUse">
<stop stop-color="white" stop-opacity="0.5"/>
<stop offset="1" stop-color="#CC0000" stop-opacity="0"/>
</linearGradient>
<linearGradient id="paint21_linear_228_1208" x1="531" y1="84.5005" x2="632" y2="186" gradientUnits="userSpaceOnUse">
<stop stop-color="white" stop-opacity="0.5"/>
<stop offset="1" stop-color="#CC0000" stop-opacity="0"/>
</linearGradient>
<linearGradient id="paint22_linear_228_1208" x1="531" y1="84.5005" x2="632" y2="186" gradientUnits="userSpaceOnUse">
<stop stop-color="white" stop-opacity="0.5"/>
<stop offset="1" stop-color="#CC0000" stop-opacity="0"/>
</linearGradient>
<linearGradient id="paint23_linear_228_1208" x1="531" y1="84.5005" x2="632" y2="186" gradientUnits="userSpaceOnUse">
<stop stop-color="white" stop-opacity="0.5"/>
<stop offset="1" stop-color="#CC0000" stop-opacity="0"/>
</linearGradient>
<linearGradient id="paint24_linear_228_1208" x1="531" y1="84.5005" x2="632" y2="186" gradientUnits="userSpaceOnUse">
<stop stop-color="white" stop-opacity="0.5"/>
<stop offset="1" stop-color="#CC0000" stop-opacity="0"/>
</linearGradient>
</defs>
</svg>
