<svg width="686" height="240" viewBox="0 0 686 240" fill="none" xmlns="http://www.w3.org/2000/svg">
<path d="M469.399 225.473C487.1 240 513.4 240 566 240C618.6 240 644.9 240 662.601 225.473C665.842 222.813 668.813 219.842 671.473 216.601C686 198.9 686 172.6 686 120C686 67.4003 686 41.1004 671.473 23.3988C668.813 20.1582 665.842 17.1868 662.601 14.5273C644.9 0 618.6 0 566 0C513.4 0 487.1 0 469.399 14.5273C466.158 17.1868 463.187 20.1582 460.527 23.3988C446 41.1004 446 67.4003 446 120C446 172.6 446 198.9 460.527 216.601C463.187 219.842 466.158 222.813 469.399 225.473Z" fill="url(#paint0_linear_228_969)"/>
<mask id="path-2-outside-1_228_969" maskUnits="userSpaceOnUse" x="532" y="73" width="78" height="93" fill="black">
<rect fill="white" x="532" y="73" width="78" height="93"/>
<path d="M534.855 147.659L537.241 133.128L583.222 75.7273H595.75L592.426 95.8409H584.969L555.991 132.19L555.906 132.872H607.639L605.21 147.659H534.855ZM574.188 163L577.511 143.185L578.918 136.835L589.017 75.7273H606.318L591.83 163H574.188Z"/>
</mask>
<path d="M534.855 147.659L537.241 133.128L583.222 75.7273H595.75L592.426 95.8409H584.969L555.991 132.19L555.906 132.872H607.639L605.21 147.659H534.855ZM574.188 163L577.511 143.185L578.918 136.835L589.017 75.7273H606.318L591.83 163H574.188Z" fill="white"/>
<path d="M534.855 147.659L532.865 147.332C532.77 147.916 532.935 148.513 533.318 148.964C533.701 149.415 534.263 149.675 534.855 149.675V147.659ZM537.241 133.128L535.668 131.867C535.451 132.138 535.308 132.459 535.252 132.801L537.241 133.128ZM583.222 75.7273V73.711C582.61 73.711 582.031 73.989 581.648 74.4667L583.222 75.7273ZM595.75 75.7273L597.739 76.056C597.836 75.4717 597.671 74.8745 597.288 74.4229C596.904 73.9713 596.342 73.711 595.75 73.711V75.7273ZM592.426 95.8409V97.8572C593.413 97.8572 594.255 97.1431 594.415 96.1696L592.426 95.8409ZM584.969 95.8409V93.8246C584.355 93.8246 583.775 94.1041 583.392 94.584L584.969 95.8409ZM555.991 132.19L554.415 130.933C554.184 131.224 554.037 131.572 553.991 131.94L555.991 132.19ZM555.906 132.872L553.906 132.622C553.834 133.196 554.012 133.773 554.395 134.207C554.777 134.64 555.328 134.888 555.906 134.888V132.872ZM607.639 132.872L609.629 133.199C609.725 132.615 609.559 132.018 609.176 131.567C608.793 131.116 608.231 130.856 607.639 130.856V132.872ZM605.21 147.659V149.675C606.198 149.675 607.04 148.96 607.2 147.986L605.21 147.659ZM574.188 163L572.199 162.666C572.101 163.251 572.265 163.85 572.648 164.302C573.031 164.755 573.594 165.016 574.188 165.016V163ZM577.511 143.185L575.543 142.749C575.535 142.783 575.529 142.817 575.523 142.851L577.511 143.185ZM578.918 136.835L580.886 137.271C580.894 137.236 580.901 137.2 580.907 137.164L578.918 136.835ZM589.017 75.7273V73.711C588.03 73.711 587.189 74.425 587.028 75.3985L589.017 75.7273ZM606.318 75.7273L608.307 76.0575C608.404 75.473 608.239 74.8755 607.856 74.4235C607.473 73.9716 606.911 73.711 606.318 73.711V75.7273ZM591.83 163V165.016C592.816 165.016 593.657 164.303 593.819 163.33L591.83 163ZM534.855 147.659L536.845 147.986L539.231 133.455L537.241 133.128L535.252 132.801L532.865 147.332L534.855 147.659ZM537.241 133.128L538.815 134.388L584.795 76.9878L583.222 75.7273L581.648 74.4667L535.668 131.867L537.241 133.128ZM583.222 75.7273V77.7436H595.75V75.7273V73.711H583.222V75.7273ZM595.75 75.7273L593.761 75.3985L590.437 95.5122L592.426 95.8409L594.415 96.1696L597.739 76.056L595.75 75.7273ZM592.426 95.8409V93.8246H584.969V95.8409V97.8572H592.426V95.8409ZM584.969 95.8409L583.392 94.584L554.415 130.933L555.991 132.19L557.568 133.447L586.545 97.0978L584.969 95.8409ZM555.991 132.19L553.991 131.94L553.906 132.622L555.906 132.872L557.907 133.122L557.992 132.44L555.991 132.19ZM555.906 132.872V134.888H607.639V132.872V130.856H555.906V132.872ZM607.639 132.872L605.65 132.545L603.221 147.332L605.21 147.659L607.2 147.986L609.629 133.199L607.639 132.872ZM605.21 147.659V145.643H534.855V147.659V149.675H605.21V147.659ZM574.188 163L576.176 163.334L579.5 143.518L577.511 143.185L575.523 142.851L572.199 162.666L574.188 163ZM577.511 143.185L579.48 143.621L580.886 137.271L578.918 136.835L576.949 136.399L575.543 142.749L577.511 143.185ZM578.918 136.835L580.907 137.164L591.006 76.056L589.017 75.7273L587.028 75.3985L576.928 136.506L578.918 136.835ZM589.017 75.7273V77.7436H606.318V75.7273V73.711H589.017V75.7273ZM606.318 75.7273L604.329 75.3971L589.84 162.67L591.83 163L593.819 163.33L608.307 76.0575L606.318 75.7273ZM591.83 163V160.984H574.188V163V165.016H591.83V163Z" fill="white" mask="url(#path-2-outside-1_228_969)"/>
<path d="M535.066 109.181C535.418 109.181 535.594 109.444 535.594 109.796L535.418 111.906C535.418 112.258 535.067 112.522 534.803 112.522L515.632 112.435C515.28 112.434 515.192 112.17 515.368 111.906L516.6 109.708C516.776 109.444 517.127 109.181 517.479 109.181H535.066ZM537.001 101.091C537.353 101.091 537.528 101.354 537.441 101.618L536.737 103.729C536.649 104.08 536.297 104.256 535.945 104.256L494.352 104.344C494 104.344 493.912 104.168 494.088 103.904L495.935 101.53C496.111 101.267 496.55 101.091 496.901 101.091H537.001ZM541.573 93C541.925 93 542.014 93.2645 541.838 93.5283L540.343 95.8145C540.167 96.0783 539.727 96.3418 539.463 96.3418L507.63 96.2539C507.278 96.2539 507.19 96.0782 507.366 95.8145L509.213 93.4395C509.389 93.176 509.828 93.0001 510.18 93H541.573Z" fill="white"/>
<path d="M69 145L84 90H114L129 145L144 90H174L144 200H114L99 145L84 200H54L24 90H54L69 145ZM234 90C264.376 90 289 114.624 289 145C289 150.2 288.277 155.232 286.929 160H213.999C218.56 166.072 225.821 170 234 170C240.904 170 247.153 167.201 251.677 162.677L272.891 183.891C262.938 193.844 249.188 200 234 200C203.624 200 179 175.376 179 145C179 114.624 203.624 90 234 90ZM334 98.8955C342.628 93.2699 352.932 90 364 90C394.376 90 419 114.624 419 145C419 175.376 394.376 200 364 200C352.932 200 342.628 196.729 334 191.104V200H304V40H334V98.8955ZM364 120C350.193 120 339 131.193 339 145C339 158.807 350.193 170 364 170C377.807 170 389 158.807 389 145C389 131.193 377.807 120 364 120ZM234 120C225.821 120 218.56 123.928 213.999 130H254.001C249.44 123.928 242.179 120 234 120Z" fill="black"/>
<defs>
<linearGradient id="paint0_linear_228_969" x1="686" y1="0" x2="446" y2="240" gradientUnits="userSpaceOnUse">
<stop offset="0.00875159" stop-color="#17A99F"/>
<stop offset="1" stop-color="#1CABD7"/>
</linearGradient>
</defs>
</svg>
